<?xml version="1.0" encoding="UTF-8"?>
<!DOCTYPE svg PUBLIC "-//W3C//DTD SVG 1.1//EN" "http://www.w3.org/Graphics/SVG/1.1/DTD/svg11.dtd">
<!-- Creator: CorelDRAW X7 -->
<svg xmlns="http://www.w3.org/2000/svg" xml:space="preserve" width="200px" height="200px" version="1.1" style="shape-rendering:geometricPrecision; text-rendering:geometricPrecision; image-rendering:optimizeQuality; fill-rule:evenodd; clip-rule:evenodd"
viewBox="0 0 58 58"
 xmlns:xlink="http://www.w3.org/1999/xlink">
 <defs>
  <style type="text/css">
   <![CDATA[
    .fil0 {fill:#666666}
   ]]>
  </style>
 </defs>
 <g id="Capa_x0020_1">
  <metadata id="CorelCorpID_0Corel-Layer"/>
  <path class="fil0" d="M29 58c-16,0 -29,-13 -29,-29 0,-16 13,-29 29,-29 16,0 29,13 29,29 0,16 -13,29 -29,29zm-9 -13c0,0 -1,-1 -2,-1 0,-1 -1,-2 0,-3l2 -8 -6 -5c-1,-1 -2,-2 -2,-3 1,-1 2,-2 3,-2l9 0 2 -8c1,-1 2,-2 3,-2 1,0 2,1 3,2l2 8 9 0c1,0 2,1 2,2 1,1 0,2 -1,3l-7 5 3 8c0,1 0,2 0,3 -1,1 -3,1 -4,0l-7 -5 -7 5c0,1 -1,1 -2,1zm-3 -19l6 5c1,0 1,1 1,2l-2 7 6 -4c0,-1 1,-1 2,0l6 4 -2 -7c0,-1 0,-2 0,-2l7 -5 -8 0c-1,0 -2,0 -2,-1l-2 -7 -2 7c-1,1 -1,1 -2,1l-8 0zm12 -23c-14,0 -26,12 -26,26 0,14 12,26 26,26 14,0 26,-12 26,-26 -1,-14 -12,-26 -26,-26z"/>
 </g>
</svg>
