<?xml version="1.0" encoding="UTF-8"?>
<!DOCTYPE svg PUBLIC "-//W3C//DTD SVG 1.1//EN" "http://www.w3.org/Graphics/SVG/1.1/DTD/svg11.dtd">
<!-- Creator: CorelDRAW X7 -->
<svg xmlns="http://www.w3.org/2000/svg" xml:space="preserve" width="200px" height="200px" version="1.1" style="shape-rendering:geometricPrecision; text-rendering:geometricPrecision; image-rendering:optimizeQuality; fill-rule:evenodd; clip-rule:evenodd"
viewBox="0 0 189 189"
 xmlns:xlink="http://www.w3.org/1999/xlink">
 <defs>
  <style type="text/css">
   <![CDATA[
    .fil1 {fill:#666666}
    .fil0 {fill:#676767;fill-rule:nonzero}
   ]]>
  </style>
 </defs>
 <g id="Capa_x0020_1">
  <metadata id="CorelCorpID_0Corel-Layer"/>
  <g id="_2433301737280">
   <path class="fil0" d="M139 137c0,-3 -1,-7 -3,-10 -2,-4 -4,-8 -7,-11 -3,-3 -7,-6 -11,-9 -4,-2 -8,-4 -12,-5l-1 0 0 0c0,1 0,1 -1,2l-2 3 10 26c0,1 0,2 0,3l0 0c0,1 0,1 -1,2l0 0 -6 6c1,0 2,0 3,0 2,0 4,0 6,0 8,-1 14,-2 19,-4 4,-1 6,-2 6,-3zm-36 -42l0 0c0,0 1,-1 1,-1 2,-1 4,-3 5,-5 2,-2 3,-4 4,-6 2,-3 2,-5 3,-8 1,-2 1,-4 1,-7 0,-3 -1,-6 -2,-9l0 0c-1,-3 -2,-5 -5,-8l0 0c-2,-2 -4,-4 -7,-5l0 0c-2,-1 -5,-2 -8,-2 -3,0 -6,1 -9,2 -3,1 -5,3 -7,5l0 0c-2,3 -4,5 -5,8 -1,3 -2,6 -2,9 0,3 0,5 1,7 1,3 2,5 3,8 1,2 2,4 4,6 1,2 3,4 5,5l0 0c1,1 1,2 2,2l0 0c1,0 2,0 2,0 1,0 1,1 2,1 0,0 0,0 1,0 0,0 1,0 1,0l0 0c1,0 1,0 2,0 0,0 0,0 1,0l0 0c0,0 1,0 1,0 1,0 1,0 2,0 0,0 0,-1 1,-1l0 0 0 0c3,-1 2,1 3,-1zm-19 7l0 0c-5,1 -9,3 -13,5 -4,3 -8,6 -11,9 -3,3 -5,7 -7,11 -2,3 -3,7 -3,10l0 0c1,1 3,2 6,3 5,2 12,3 19,4 2,0 4,0 6,0 1,0 2,0 3,0l-6 -6c-1,-1 -1,-1 -1,-2 0,-1 0,-2 0,-3l10 -26 -2 -4c-1,0 -1,-1 -1,-1zm51 8c4,4 7,9 9,13 2,5 3,9 3,14 0,4 -3,8 -9,10 -6,3 -14,5 -23,6 -3,0 -7,0 -10,0 -3,1 -7,1 -10,1l0 0 0 0 -1 0c-3,0 -7,0 -10,-1 -3,0 -7,0 -10,0 -9,-1 -17,-3 -23,-6 -5,-2 -8,-5 -9,-9l0 0 0 -1c0,-5 1,-9 3,-14 2,-4 6,-9 9,-13 3,-3 7,-6 11,-9 3,-2 6,-4 9,-5 -1,-1 -1,-2 -2,-3 -2,-2 -3,-4 -4,-6 -1,-3 -2,-6 -3,-9l0 0c-1,-4 -1,-7 -1,-10 0,-4 0,-8 2,-12 2,-4 4,-8 7,-11l0 0 0 0c3,-3 6,-5 10,-7 3,-2 7,-2 12,-2 4,0 8,0 11,2l0 0c4,2 8,4 10,7 3,3 6,7 7,11l0 0c2,4 3,8 3,12 0,3 -1,6 -2,10l0 0c0,3 -2,6 -3,9 -1,2 -2,4 -4,6 0,1 -1,2 -2,3 3,1 6,3 9,5 4,3 8,6 11,9zm-32 24l-8 -22 -9 22 9 9 8 -9z"/>
   <path class="fil1" d="M95 0c-52,0 -95,42 -95,95 0,52 42,94 95,94 52,0 94,-42 94,-94 0,-53 -42,-95 -94,-95zm0 177c-46,0 -83,-37 -83,-82 0,-46 37,-83 83,-83 45,0 82,37 82,83 0,45 -37,82 -82,82z"/>
  </g>
 </g>
</svg>
