<?xml version="1.0" encoding="UTF-8"?>
<!DOCTYPE svg PUBLIC "-//W3C//DTD SVG 1.1//EN" "http://www.w3.org/Graphics/SVG/1.1/DTD/svg11.dtd">
<!-- Creator: CorelDRAW X7 -->
<svg xmlns="http://www.w3.org/2000/svg" xml:space="preserve" width="200px" height="200px" version="1.1" style="shape-rendering:geometricPrecision; text-rendering:geometricPrecision; image-rendering:optimizeQuality; fill-rule:evenodd; clip-rule:evenodd"
viewBox="0 0 58 58"
 xmlns:xlink="http://www.w3.org/1999/xlink">
 <defs>
  <style type="text/css">
   <![CDATA[
    .fil0 {fill:#666666;fill-rule:nonzero}
   ]]>
  </style>
 </defs>
 <g id="Capa_x0020_1">
  <metadata id="CorelCorpID_0Corel-Layer"/>
  <path class="fil0" d="M55 29c0,-7 -3,-13 -8,-18 -5,-5 -11,-8 -18,-8 -7,0 -13,3 -18,8 -5,5 -8,11 -8,18 0,7 3,13 8,18 5,5 11,8 18,8 7,0 13,-3 18,-8 5,-5 8,-11 8,-18zm-25 -3c1,-2 2,-3 4,-5 1,-1 3,-2 5,-2l0 0c1,0 1,0 1,0 2,0 4,0 6,2 2,1 3,4 4,7 0,0 0,0 0,1 0,3 -1,5 -3,7 -1,1 -2,2 -3,3 -1,0 -2,1 -3,1 -2,0 -4,-1 -6,-2 -1,-1 -3,-3 -4,-4 -1,-1 -1,-1 -1,-1 -1,0 -2,1 -2,2 -2,1 -4,3 -6,4 -1,1 -3,1 -4,1 -2,0 -3,0 -5,-1 -1,-1 -2,-2 -3,-4 -1,-1 -1,-3 -1,-5 -1,-4 0,-6 2,-8 2,-2 4,-3 7,-3 2,0 4,0 5,1 2,2 4,3 6,6 0,0 0,1 0,1 0,0 1,-1 1,-1zm6 -2c-1,1 -2,2 -3,4 -1,1 -1,1 -1,2 0,0 1,1 1,2 2,1 3,2 4,3 1,1 2,1 4,1 0,0 1,0 2,0 0,0 1,-1 1,-2 1,-1 2,-3 2,-5 0,0 0,-1 0,-1 0,-2 -1,-4 -2,-5 -1,-1 -3,-1 -4,-1 0,0 0,0 0,0l0 0c-2,0 -3,1 -4,2zm-9 6c0,-1 -1,-1 -1,-2 -2,-2 -3,-4 -4,-5 -2,0 -3,-1 -4,-1 -2,0 -3,1 -4,2 -2,1 -2,3 -2,5 0,2 0,3 1,5 0,1 1,1 2,2 1,0 2,1 3,1 1,0 2,-1 3,-1 1,-1 3,-2 4,-4 1,-1 2,-1 2,-2zm23 -21c5,5 8,12 8,20 0,8 -3,15 -8,21 -6,5 -13,8 -21,8 -8,0 -15,-3 -20,-8 -6,-6 -9,-13 -9,-21 0,-8 3,-15 9,-20 5,-6 12,-9 20,-9 8,0 15,3 21,9z"/>
 </g>
</svg>
