<?xml version="1.0" encoding="UTF-8"?>
<!DOCTYPE svg PUBLIC "-//W3C//DTD SVG 1.1//EN" "http://www.w3.org/Graphics/SVG/1.1/DTD/svg11.dtd">
<!-- Creator: CorelDRAW X7 -->
<svg xmlns="http://www.w3.org/2000/svg" xml:space="preserve" width="200px" height="200px" version="1.1" style="shape-rendering:geometricPrecision; text-rendering:geometricPrecision; image-rendering:optimizeQuality; fill-rule:evenodd; clip-rule:evenodd"
viewBox="0 0 199 199"
 xmlns:xlink="http://www.w3.org/1999/xlink">
 <defs>
  <style type="text/css">
   <![CDATA[
    .fil0 {fill:#666666}
   ]]>
  </style>
 </defs>
 <g id="Capa_x0020_1">
  <metadata id="CorelCorpID_0Corel-Layer"/>
  <g id="_2433310949776">
   <g>
    <path class="fil0" d="M100 199c-55,0 -100,-44 -100,-99 0,-55 45,-100 100,-100 55,0 99,45 99,100 0,55 -44,99 -99,99zm0 -187c-49,0 -88,39 -88,88 0,48 39,87 88,87 48,0 87,-39 87,-87 0,-49 -39,-88 -87,-88z"/>
   </g>
   <g>
    <path class="fil0" d="M99 161c-1,0 -2,-1 -3,-1 -6,-5 -60,-44 -60,-77 0,-19 15,-35 35,-35 13,0 22,10 28,17 6,-8 15,-17 29,-17 20,0 35,16 35,35 0,34 -58,75 -60,77 -1,0 -2,1 -4,1zm-28 -101c-13,0 -23,10 -23,23 0,21 34,51 51,64 17,-13 52,-42 52,-64 0,-13 -10,-23 -23,-23 -15,0 -23,18 -24,18 -1,3 -3,4 -5,4 -2,0 -4,-1 -5,-3 0,0 -10,-19 -23,-19z"/>
   </g>
  </g>
 </g>
</svg>
