<?xml version="1.0" encoding="utf-8"?>
<!-- Generator: Adobe Illustrator 18.1.1, SVG Export Plug-In . SVG Version: 6.00 Build 0)  -->
<svg version="1.1" id="Layer_1" xmlns="http://www.w3.org/2000/svg" xmlns:xlink="http://www.w3.org/1999/xlink" x="0px" y="0px"
	 viewBox="1032.3 74 224.7 206.4" enable-background="new 1032.3 74 224.7 206.4" xml:space="preserve">
<g>
	<path fill="#666666" d="M1249.1,139.5h-25.8L1221,114c-0.1-1.1-0.8-2-1.8-2.5c-1-0.5-2.1-0.4-3,0.3l-38.4,27.1l-9.3-14.5V81.4
		c0-1.7-1.4-3-3-3h-20.4c-1.7,0-3,1.4-3,3v42.8l-13.6,17.4c-0.4,0.5-0.6,1.2-0.6,1.9v19.5v39.5c-37,0.7-56.8,13.2-67,23.8
		c-9.6,10-12.6,20-13.4,23.4h-7.2c-1.1,0-2.1,0.6-2.7,1.6c-0.5,1-0.5,2.1,0.1,3.1l12.4,20.4c0.6,0.9,1.5,1.5,2.6,1.5h78.2h46.4h71.9
		c1.7,0,3-1.4,3-3V142.5C1252.1,140.9,1250.8,139.5,1249.1,139.5z M1217.2,139.5h-29.7l27.9-19.7L1217.2,139.5z M1162.5,84.4v10.2
		h-14.3V84.4H1162.5z M1085.3,232.5c3-0.8,5.8-1.9,8.3-3c0.8,0.9,1.8,2.2,2.8,3.9c-4.8,1.4-12.3,5.3-19,16.2h-10.6
		C1069,245.3,1074.4,237,1085.3,232.5z M1099.5,238.9c1.4,3,2.7,6.6,3.3,10.7h-18.1C1090.8,241.4,1096.7,239.4,1099.5,238.9z
		 M1109,249.6c-1.5-10.6-6.5-18.6-9.7-22.8c2.2-1.1,4.2-1.9,5.8-2.2c0.1,0.2,0.3,0.3,0.4,0.5c0.1,0.1,9.6,9.1,12,24.5H1109z
		 M1123.6,249.6c-0.6-4.5-1.7-8.5-3.1-12c3.2,0,5.5-0.7,7.2-1.9v0.6v13.3H1123.6z M1133.9,166h18.4v67.3h-18.4V166z M1127.8,226.1
		c-2.2,4.1-3.2,5.5-7.5,5.4c-1.1,0-1.9-1.3-3.3-4.1c-1.3-2.6-2.9-5.6-5.8-7.6c-4.7-3.2-10.3-0.5-16.2,2.3c-3.4,1.6-7.3,3.5-11.5,4.5
		c-1.5,0.4-3.6,0.6-4.7-0.3c-1.5-1.3-1.4-4.5-1.3-5.5c0,0,0,0,0,0c12.9-7.7,30-11.9,50.3-12.3V226.1z M1065.5,230.1
		c1.9-1.9,3.9-3.7,6.1-5.4c0.4,2.1,1.2,4.4,3.1,6.1c0.1,0.1,0.2,0.2,0.4,0.3c-9.9,6.8-14,15.9-15,18.4h-6.4
		C1054.8,245.9,1057.9,238,1065.5,230.1z M1045.7,255.7h82.1V270h-73.4L1045.7,255.7z M1133.9,252.6v-13.3h21.4c1.7,0,3-1.4,3-3
		v-73.4c0-1.7-1.4-3-3-3h-21.4v-15.4l13.6-17.4c0.4-0.5,0.6-1.2,0.6-1.9v-24.5h14.3v24.5c0,0.6,0.2,1.2,0.5,1.6l11.2,17.5V270h-40.3
		V252.6z M1246,270h-65.8V145.6h65.8V270z"/>
	<path fill="#666666" d="M1196.1,190.4h32.6c1.7,0,3-1.4,3-3v-24.5c0-1.7-1.4-3-3-3h-32.6c-1.7,0-3,1.4-3,3v24.5
		C1193,189.1,1194.4,190.4,1196.1,190.4z M1199.1,166h26.5v18.4h-26.5V166z"/>
	<path fill="#666666" d="M1192,214.9h40.8c1.7,0,3-1.4,3-3s-1.4-3-3-3H1192c-1.7,0-3,1.4-3,3S1190.3,214.9,1192,214.9z"/>
	<path fill="#666666" d="M1192,235.3h40.8c1.7,0,3-1.4,3-3s-1.4-3-3-3H1192c-1.7,0-3,1.4-3,3S1190.3,235.3,1192,235.3z"/>
	<path fill="#666666" d="M1088.8,171.4c2,0.8,4.5,4.1,5,7.8c0.3,1.8,0.2,4.3-1.9,5.9c-1.3,1.1-1.5,3-0.5,4.3
		c0.6,0.8,1.5,1.1,2.4,1.1c0.7,0,1.3-0.2,1.9-0.7c3.4-2.7,4.8-6.8,4.1-11.6c-0.8-5.6-4.5-10.8-8.8-12.5c-1.5-0.6-3.3-2.9-3.7-6.1
		c-0.2-2,0-5.9,4.3-9c1.4-1,1.7-2.9,0.7-4.2c-1-1.4-2.9-1.7-4.2-0.7c-5,3.6-7.5,8.9-6.9,14.7
		C1081.9,165.4,1084.9,169.8,1088.8,171.4z"/>
	<path fill="#666666" d="M1110.7,171.4c2,0.8,4.5,4.1,5,7.8c0.3,1.8,0.2,4.3-1.9,5.9c-1.3,1.1-1.5,3-0.5,4.3
		c0.6,0.8,1.5,1.1,2.4,1.1c0.7,0,1.3-0.2,1.9-0.7c3.4-2.7,4.8-6.8,4.1-11.6c-0.8-5.6-4.5-10.8-8.8-12.5c-1.5-0.6-3.3-2.9-3.7-6.1
		c-0.2-2,0-5.9,4.3-9c1.4-1,1.7-2.9,0.7-4.2c-1-1.4-2.9-1.7-4.2-0.7c-5,3.6-7.5,8.9-6.9,14.7
		C1103.8,165.4,1106.8,169.8,1110.7,171.4z"/>
</g>
</svg>
