<?xml version="1.0" encoding="utf-8"?>
<!-- Generator: Adobe Illustrator 18.1.1, SVG Export Plug-In . SVG Version: 6.00 Build 0)  -->
<svg version="1.1" id="Layer_1" xmlns="http://www.w3.org/2000/svg" xmlns:xlink="http://www.w3.org/1999/xlink" x="0px" y="0px"
	 viewBox="1062.9 39.3 291.5 241.1" enable-background="new 1062.9 39.3 291.5 241.1" xml:space="preserve">
<g>
	<path fill="#666666" d="M1313.7,64.5h-99.8V48.6c0-2.2-1.8-4-4-4s-4,1.8-4,4v15.9h-102.3v32.2h11.1v126.9h51.2l-28.2,45
		c-1.2,2-0.6,4.6,1.3,5.8c0.7,0.4,1.5,0.6,2.2,0.6c1.4,0,2.8-0.7,3.6-2l31-49.5h30v32c0,2.2,1.8,4,4,4s4-1.8,4-4v-32h28.5l31.1,49.5
		c0.8,1.3,2.2,2,3.6,2c0.8,0,1.5-0.2,2.2-0.6c2-1.2,2.6-3.8,1.3-5.8l-28.2-45h50.1V96.7h11.1V64.5z M1294.1,215.2h-171V96.7h171
		V215.2z M1305.2,88.2h-2.7h-187.9h-2.7V73h193.2V88.2z"/>
	<path fill="#666666" d="M1208.6,205.5c26.7,0,48.4-21.7,48.4-48.4s-21.7-48.4-48.4-48.4s-48.4,21.7-48.4,48.4
		S1181.9,205.5,1208.6,205.5z M1208.6,117.1c22,0,40,17.9,40,40s-17.9,40-40,40s-40-17.9-40-40S1186.6,117.1,1208.6,117.1z"/>
	<path fill="#666666" d="M1201.8,181.8l30.5-30.5c5.1-5.1,5.1-13.4,0-18.5c-2.5-2.5-5.8-3.8-9.2-3.8s-6.8,1.4-9.2,3.8l-30.5,30.5
		l0,18.4L1201.8,181.8z M1223,137.5c1.2,0,2.4,0.5,3.3,1.4c1.8,1.8,1.8,4.7,0,6.6l-0.5,0.5l-6.6-6.6l0.5-0.5
		C1220.6,138,1221.8,137.5,1223,137.5z M1213.3,145.3l6.6,6.6l-21.5,21.5l-6.5,0l0-6.5L1213.3,145.3z"/>
</g>
</svg>
