<?xml version="1.0" encoding="utf-8"?>
<!-- Generator: Adobe Illustrator 18.1.1, SVG Export Plug-In . SVG Version: 6.00 Build 0)  -->
<svg version="1.1" id="Layer_1" xmlns="http://www.w3.org/2000/svg" xmlns:xlink="http://www.w3.org/1999/xlink" x="0px" y="0px"
	 viewBox="1062.9 39.3 291.5 241.1" enable-background="new 1062.9 39.3 291.5 241.1" xml:space="preserve">
<g>
	<path fill="#666666" d="M1156.1,186c7.2-7.2,7.2-19,0-26.2c-3.5-3.5-8.2-5.4-13.1-5.4c-5,0-9.6,1.9-13.1,5.4
		c-7.2,7.2-7.2,19,0,26.2c3.5,3.5,8.2,5.4,13.1,5.4C1147.9,191.4,1152.6,189.5,1156.1,186z M1135.4,165.2c2-2,4.7-3.2,7.6-3.2
		c2.9,0,5.6,1.1,7.6,3.2c4.2,4.2,4.2,11,0,15.2c-2,2-4.7,3.2-7.6,3.2c-2.9,0-5.6-1.1-7.6-3.2
		C1131.2,176.3,1131.2,169.4,1135.4,165.2z"/>
	<path fill="#666666" d="M1170.9,204.5c-7.2,7.2-7.2,19,0,26.2c3.5,3.5,8.2,5.4,13.1,5.4c5,0,9.6-1.9,13.1-5.4
		c7.2-7.2,7.2-19,0-26.2c-3.5-3.5-8.2-5.4-13.1-5.4C1179,199,1174.4,201,1170.9,204.5z M1191.6,225.2c-2,2-4.7,3.2-7.6,3.2
		c-2.9,0-5.6-1.1-7.6-3.2c-4.2-4.2-4.2-11,0-15.2c2-2,4.7-3.2,7.6-3.2c2.9,0,5.6,1.1,7.6,3.2C1195.8,214.2,1195.8,221,1191.6,225.2z
		"/>
	<path fill="#666666" d="M1131.3,229c0.8,0.7,1.7,1.1,2.7,1.1c1,0,2.1-0.4,2.8-1.2l57.9-60.5c1.5-1.6,1.4-4-0.1-5.5
		c-1.6-1.5-4-1.4-5.5,0.1l-57.9,60.5C1129.7,225,1129.7,227.5,1131.3,229z"/>
	<path fill="#666666" d="M1249.9,161.3c1.2,0.8,2.8,0.8,4.1,0.1c1.3-0.7,2-2,2-3.5v-6h44.2c13.3,0,24.1-10.8,24.1-24.1
		c0-11.9-8.7-21.8-20-23.7c-0.1-9.8-3.9-24-18.2-26.1c-9.2-1.4-14.9,0.2-18.2,2.3c-4.6-9.2-16-25.8-38.2-26.5
		c-24.1-0.7-40.3,9.9-43.5,28l-17.9-11.8c-1.3-0.9-3.1-0.9-4.4,0L1125,95.4l-0.3-25.4c0-2.2-1.8-4-4-4h-25.6c-2.2,0-4.1,1.8-4.1,4
		v47c0,0.1,0,0.3,0,0.4l-17.2,11.2c-1.1,0.7-1.9,2-1.9,3.4v29.5c0,1.5,0.9,2.8,2.1,3.5c0.6,0.3,1.3,0.5,2,0.5c0.8,0,1.5-0.2,2.2-0.6
		l16.3-10.6V262c0,2.2,1.7,3.9,3.9,3.9H1228c2.2,0,3.9-1.7,3.9-3.9V149.8L1249.9,161.3z M1229.4,61.7c25,0.7,33.2,25.9,33.5,27
		c0.5,1.8,2.2,3.1,4,2.9c1.8-0.2,3.2-1.3,3.5-3.1c0.3-0.6,2.8-4.5,14.5-2.8c13.1,1.9,11.5,20.8,11.4,21.6c-0.1,1.1,0.3,2.2,1,3
		c0.7,0.8,1.8,1.3,2.9,1.3c9,0,16.3,7.3,16.3,16.3s-7.3,16.3-16.3,16.3H1256v-14c0-1.3-0.6-2.6-1.8-3.3l-60.9-40.1
		C1194.7,63.2,1219,61.4,1229.4,61.7z M1099,74h17.7l0.3,26.2c0,0.1,0,0.2,0,0.3l-18.1,11.8V74z M1080,134.2l85.9-55.9l82.1,54.1
		v18.3l-79.9-51.1c-1.3-0.8-3-0.8-4.3,0l-83.7,54.6V134.2z M1224.2,258.1h-121.8V149.2l63.6-41.5l58.2,37.2V258.1z"/>
	<path fill="#666666" d="M1341.1,172h-89c-2.2,0-4.1,1.8-4.1,4v81c0,2.2,1.8,4,4,4s4-1.8,4-4v-77h19v5.3h-9.1
		c-2.2,0-3.9,1.7-3.9,3.9v39.8c0,2.2,1.7,3.9,3.9,3.9h67.2c2.2,0,3.9-1.7,3.9-3.9v-39.8c0-2.2-1.7-3.9-3.9-3.9H1322V180h19.1
		c2.2,0,4-1.8,4-4S1343.3,172,1341.1,172z M1329.2,193v32h-59.4v-32h5.2v2c0,2.2,1.8,4,4,4s4-1.8,4-4v-2h31v2c0,2.2,1.8,4,4,4
		s4-1.8,4-4v-2H1329.2z M1314,185.3h-31V180h31V185.3z"/>
</g>
</svg>
