<?xml version="1.0" encoding="utf-8"?>
<!-- Generator: Adobe Illustrator 18.1.1, SVG Export Plug-In . SVG Version: 6.00 Build 0)  -->
<svg version="1.1" id="Layer_1" xmlns="http://www.w3.org/2000/svg" xmlns:xlink="http://www.w3.org/1999/xlink" x="0px" y="0px"
	 viewBox="1051.7 74 310 206.4" enable-background="new 1051.7 74 310 206.4" xml:space="preserve">
<g>
	<path fill="#666666" d="M1327.7,77.8h-242c-16.2,0-29.3,13.1-29.3,29.3v140.2c0,16.2,13.1,29.3,29.3,29.3h242
		c16.2,0,29.3-13.1,29.3-29.3V107.1C1357,90.9,1343.8,77.8,1327.7,77.8z M1105.3,87.2h199.9v180h-199.9V87.2z M1065.7,247.3V107.1
		c0-11,8.9-19.9,19.9-19.9h10.3v180h-10.3C1074.7,267.2,1065.7,258.3,1065.7,247.3z M1347.6,247.3c0,11-8.9,19.9-19.9,19.9h-13.1
		v-180h13.1c11,0,19.9,8.9,19.9,19.9V247.3z"/>
	<circle fill="#666666" cx="1329" cy="174.5" r="9"/>
	<path fill="#666666" d="M1081.1,155.1c-2.6,0-4.7,2.1-4.7,4.7v30.4c0,2.6,2.1,4.7,4.7,4.7s4.7-2.1,4.7-4.7v-30.4
		C1085.8,157.2,1083.7,155.1,1081.1,155.1z"/>
	<circle fill="#666666" cx="1186.9" cy="238" r="11.3"/>
	<circle fill="#666666" cx="1226.4" cy="238" r="11.3"/>
	<path fill="#666666" d="M1271.1,155.1c-0.8-1.2-2.2-1.8-3.7-1.8h-4.6c0,0,0,0,0,0l-16.9-26.9c-1.2-1.9-3.6-2.7-5.7-1.9l-27.5,10.6
		l-15.1-13.7c-1.9-1.7-4.7-1.6-6.5,0.2l-30.9,30.9c-0.3,0.3-0.5,0.6-0.7,1l-8.3-25.2c-0.6-1.8-2.3-2.9-4.3-2.9h-18.8
		c-2.5,0-4.5,2-4.5,4.5s2,4.5,4.5,4.5h15.5l27.2,81.9c0.6,1.8,2.3,3.1,4.3,3.1h70.7c1.9,0,3.5-1.3,4.2-3l21.7-57.1
		C1272.1,157.8,1271.9,156.4,1271.1,155.1z M1240,134.6l11.7,18.7h-20.3c-0.2-1-0.7-1.9-1.5-2.6l-9.5-8.6L1240,134.6z M1194.6,131.4
		l24.3,22h-46.3L1194.6,131.4z M1242.6,210.3h-64.3l-15.9-48h98.5L1242.6,210.3z"/>
</g>
</svg>
