<?xml version="1.0" encoding="utf-8"?>
<!-- Generator: Adobe Illustrator 18.1.1, SVG Export Plug-In . SVG Version: 6.00 Build 0)  -->
<svg version="1.1" id="Layer_1" xmlns="http://www.w3.org/2000/svg" xmlns:xlink="http://www.w3.org/1999/xlink" x="0px" y="0px"
	 viewBox="0 0 1366 768" enable-background="new 0 0 1366 768" xml:space="preserve">
<g>
	<path fill="#666666" d="M864.2,410.9c64.4,0,116.4-52.4,116.4-116.4s-52.4-116.4-116.4-116.4s-116.4,52.4-116.4,116.4
		S799.8,410.9,864.2,410.9z M864.2,216c43.4,0,78.5,35.1,78.5,78.5S907.5,373,864.2,373s-78.5-35.1-78.5-78.5S820.8,216,864.2,216z"
		/>
	<path fill="#666666" d="M1214.5,98.2h-86.4V45.7c0-10.5-8.7-19.2-19.2-19.2H263.2c-10.5,0-19.2,8.7-19.2,19.2v52.4h-92.6
		c-10.8,0-19.9,9-19.9,19.9v538.8c0,10.8,9,19.9,19.9,19.9H244v45.6c0,10.5,8.7,19.2,19.2,19.2h845.7c10.5,0,19.2-8.7,19.2-19.2
		v-45.6h86.4c10.8,0,19.9-9,19.9-19.9V118.1C1234.4,107.2,1225.7,98.2,1214.5,98.2z M171.4,636.9v-499H244v499H171.4z M307,703.5
		L307,703.5l159.1-341.7l195.6,265.4c2.9,4,7.6,6.9,12.7,7.6c5.1,0.7,10.1-0.7,14.1-3.6l96.5-72.3l143.2,144.6H307z M1089.8,703.5
		H982L800.5,520.1c-6.9-6.9-17.4-7.6-24.9-1.8l-94.4,70.5L478,312.9c-4-5.4-10.5-8.3-17.4-7.6c-6.9,0.7-12.7,4.7-15.5,10.8
		L282,666.2V64.9h807.8V703.5z M1194.6,636.9h-66.5v-499h66.5V636.9z"/>
</g>
</svg>
