<?xml version="1.0" encoding="utf-8"?>
<!-- Generator: Adobe Illustrator 18.1.1, SVG Export Plug-In . SVG Version: 6.00 Build 0)  -->
<svg version="1.1" id="Layer_1" xmlns="http://www.w3.org/2000/svg" xmlns:xlink="http://www.w3.org/1999/xlink" x="0px" y="0px"
	 viewBox="1062.9 39.3 291.5 241.1" enable-background="new 1062.9 39.3 291.5 241.1" xml:space="preserve">
<g>
	<path fill="#666666" d="M1346.6,137.1l-80.9-22.7c-0.2-0.1-0.4-0.1-0.5-0.1c4.8-18.7,4.9-33.3,4.9-34.5c0-2.4-1.9-4.3-4.3-4.3
		c-34.8,0-49.6-22.1-50.2-23c-0.7-1.1-1.8-1.8-3.1-1.9c-1.3-0.1-2.6,0.3-3.5,1.2c-22.5,21.9-50.8,23.7-51.1,23.8
		c-1.2,0.1-2.2,0.6-3,1.5c-0.8,0.9-1.1,2-1,3.2c0.6,6.8,1.3,13.2,2.3,19.2c-0.1,0-0.2,0-0.3,0c-5-0.1-9.6-0.1-14.2,0
		c-5.8,0.1-9.6,4-9.7,9.8c0,1.4,0,2.8,0,4.2c0,1.3,0,2.6,0,3.8c0,1.1,0,1.3-1.5,1.9c-4.4,1.7-8.4,3.4-12.1,5
		c-1.1,0.5-1.4,0.4-1.4,0.5c0,0-0.3-0.1-0.8-0.6c-1-0.9-2-1.9-3-2.9c-1-1-1.9-1.9-2.9-2.9c-4.1-3.9-9.6-4-13.6-0.2
		c-3.5,3.3-7,6.8-10.4,10.4c-3.8,4-3.8,9.5,0.1,13.6c1.2,1.3,2.4,2.5,3.6,3.7c0.8,0.8,1.7,1.6,2.5,2.5c0.5,0.5,0.6,0.7,0.2,1.7
		c-1.6,3.8-3.3,7.9-5.2,12.6c-0.5,1.4-0.7,1.4-1.8,1.4c-1.3,0-2.6,0-3.9,0c-1.5,0-2.9,0-4.4,0c-5.6,0.1-9.5,3.8-9.6,9.2
		c-0.1,5-0.1,10,0,15c0.1,5.5,4.1,9.3,9.8,9.4c1.4,0,2.8,0,4.2,0c1.3,0,2.6,0,3.9,0c1.2,0,1.3,0,1.9,1.5c1.6,4.1,3.3,8.2,5,12.2
		c0.4,1,0.5,1.3,0.5,1.3c0,0,0,0,0,0c0,0-0.1,0.3-0.8,1c-0.9,0.9-1.8,1.8-2.7,2.7c-1,1-2,2-3,3c-4,4.2-4,9.7,0,13.8
		c3.3,3.4,6.7,6.8,10,10c4.2,4,9.7,4,14,0c1.1-1,2.2-2.1,3.2-3.2c0.8-0.8,1.6-1.6,2.4-2.4c0.7-0.7,1-0.8,1-0.8c0,0,0.4,0,1.5,0.5
		c3.7,1.7,7.6,3.3,11.9,4.9c1.5,0.6,1.5,0.7,1.6,2c0,1.2,0,2.3,0,3.5c0,1.5,0,3.1,0,4.6c0.1,5.6,3.8,9.4,9.5,9.6
		c1.7,0.1,3.4,0.1,5.1,0c0.6,0,1.2,0,1.8,0c0.8,0.1,1.7,0,2.5,0c0.7,0,1.5,0,2.3,0c1,0,2,0,2.9,0c5.7-0.2,9.5-4.1,9.6-9.8
		c0-2.1,0-4.3,0-6.4l0-2c0.5-0.3,1.8-0.6,2.6-0.7c0.1,0,0.2-0.1,0.4-0.1c3,13.3,12.3,26.5,37.8,26.5c18.8,0,31.6-5.9,38.1-17.6
		c0.4-0.7,0.7-1.4,1.1-2.1l28.9,11.4c0.5,0.2,1.1,0.3,1.6,0.3c0.5,0,1.1-0.1,1.6-0.3l69.5-26.9c1.7-0.7,2.8-2.3,2.8-4.1v-88.5
		C1349.8,139.3,1348.5,137.6,1346.6,137.1z M1263.3,122.8l66.2,18.6l-10.9,3.6l-56.8-19.3c0.4-1.1,0.7-2.1,1-3.2
		C1263,122.7,1263.1,122.8,1263.3,122.8z M1274.4,159.8l-24.1-8.8c1.3-2.2,2.5-4.3,3.6-6.5l33.8,10.9L1274.4,159.8z M1301.4,150.8
		l-43.9-14.1c0.4-0.9,0.8-1.9,1.2-2.8l46.4,15.7L1301.4,150.8z M1305.5,158.5l8.5-2.8v29.9l-8.5,3.7V158.5z M1211.4,61.1
		c6.2,7.1,22,21.4,49.9,22.8c-0.8,13-5.6,53.2-32.3,81.1c-5.9-11.8-11.7-21.7-15.2-27.5c1-3.3,0.1-6.7-2.7-9.6
		c-3.2-3.3-6.5-6.6-9.8-9.8c-4.2-4.1-9.7-4.1-14,0c-1,0.9-1.9,1.9-2.9,2.9c-0.9,0.9-1.8,1.8-2.7,2.6c-0.8,0.7-1.1,0.8-1.1,0.9
		c-0.1,0-0.4,0-1.5-0.5c-3.1-1.4-6.4-2.7-9.7-4c-3.1-10.7-5.3-22.6-6.7-36.4C1171.7,82.3,1192.6,77.6,1211.4,61.1z M1157,243.5l0,2
		c0,2.1,0,4.1,0,6.2c0,1.2-0.2,1.3-1.3,1.4c-1.6,0.1-3.2,0-4.8,0c-0.7,0-1.3,0-2,0c-0.8-0.1-1.7,0-2.5,0c-1.6,0-3.1,0-4.6,0
		c-1,0-1.2-0.1-1.2-1.3c0-1.5,0-2.9,0-4.4c0-1.2,0-2.4,0-3.6c-0.1-5-2.3-8.1-7.1-10c-4.2-1.6-8-3.2-11.5-4.7c-4.8-2.1-8.4-1.5-12,2
		c-0.8,0.8-1.7,1.6-2.5,2.5c-1,1-2,2-3,3c-1.1,1-1.3,0.9-2.1,0.1c-3.3-3.1-6.6-6.4-9.8-9.8c-0.6-0.6-0.8-0.9,0.1-1.9
		c0.9-1,1.9-1.9,2.8-2.8c1-1,1.9-1.9,2.9-2.9c3.4-3.6,4-7.1,2-11.7c-1.7-3.8-3.3-7.8-4.9-11.8c-1.8-4.6-5-6.9-9.7-7
		c-1.4,0-2.7,0-4.1,0c-1.3,0-2.6,0-4,0c-1.3,0-1.3-0.3-1.4-1c-0.1-4.9-0.1-9.8,0-14.6c0-0.6,0-0.9,1.2-0.9c1.4,0,2.8,0,4.2,0
		c1.4,0,2.7,0,4.1,0c4.6-0.1,7.8-2.4,9.6-6.8c1.8-4.6,3.5-8.6,5.1-12.3c1.8-4.1,1.1-8.1-1.9-11.1c-0.8-0.9-1.7-1.7-2.6-2.6
		c-1.2-1.2-2.3-2.3-3.4-3.5c-0.8-0.9-0.6-1.2-0.1-1.7c3.4-3.5,6.8-6.9,10.1-10.1c0.5-0.4,0.8-0.7,1.7,0.2c0.9,0.9,1.8,1.8,2.7,2.7
		c1,1,2.1,2.1,3.2,3.2c4.4,4.1,8.5,3.1,11.5,1.8c3.6-1.6,7.5-3.2,11.8-4.9c4.6-1.8,6.9-5,7-9.7c0-1.3,0-2.7,0-4c0-1.3,0-2.7,0-4
		c0-1.3,0.3-1.4,1.3-1.4c4.4-0.1,9-0.1,13.9,0c1.2,0,1.4,0,1.4,1.5c0,1.2,0,2.4,0,3.6c0,1.5,0,3,0,4.5c0.1,4.1,1.9,7.1,5.4,8.9
		c0.9,2,3.1,3,5.2,2.3c0.1,0,0.2-0.1,0.2-0.1c2.6,1.1,5.2,2.1,7.7,3.3c4.8,2.1,8.3,1.6,12-2c1-0.9,1.9-1.9,2.8-2.8
		c0.9-0.9,1.8-1.8,2.7-2.7c1-1,1.3-0.8,2.1-0.1c2.5,2.4,4.9,4.8,7.3,7.3c-0.9,1.5-8.9,15.1-17,33.2c-6.2-14.5-20.4-24.3-36.9-24.3
		c0,0,0,0,0,0c-10.5,0-20.5,4.2-28.1,11.9c-7.6,7.6-11.8,17.6-11.7,28.1c0,10.7,4.2,20.8,11.8,28.4c7.5,7.6,17.5,11.7,28.2,11.7
		c0.1,0,0.1,0,0.2,0c7.1,0,14-1.9,20-5.4c-1.2,6.7-1.7,13.1-1.4,19.1c-0.3,0.1-0.7,0.2-1.1,0.3C1163.5,235.1,1157,236.5,1157,243.5z
		 M1171.6,202.5c-0.5,0.2-1,0.5-1.4,0.9c-5.8,5.5-13.4,8.5-21.5,8.6c0,0-0.1,0-0.1,0c-8.3,0-16.2-3.3-22.1-9.2
		c-6-6-9.3-13.9-9.3-22.4c0-8.2,3.2-16,9.2-22c6-6,13.8-9.3,22-9.3c0,0,0,0,0,0c15.9,0,29,11.4,31.3,27.1c0.1,0.4,0.2,0.7,0.3,1.1
		C1176.9,185.4,1173.9,194,1171.6,202.5z M1206.2,260.6c-19.3,0-28.9-8.1-30.2-25.5c-2.3-29.5,20.5-74.8,29.9-92.1
		c0.4,0.2,0.9,0.4,1.3,0.4c5.9,9.7,11.5,19.9,16.4,30.2c0.1,0.4,0.3,0.7,0.5,1c12.1,25.5,19.6,51,15,67.3c-0.1,0.1-0.1,0.2-0.2,0.3
		c-0.1,0.4-0.2,0.7-0.3,1.1c-0.5,1.5-1.1,2.9-1.8,4.1C1231.9,256.2,1221.7,260.6,1206.2,260.6z M1238.9,187.3c-1.9-4.8-3.9-9.5-6-14
		c4.8-4.7,9-9.7,12.6-14.9l27.4,10c0.2,0.1,0.4,0.1,0.7,0.2v82.6l-25.5-10C1250.8,227.6,1247.7,209.6,1238.9,187.3z M1282.4,249.5
		v-82.6c0-0.3,0-0.5-0.1-0.7l14.7-4.9v34.5c0,1.4,0.7,2.8,1.9,3.6c0.7,0.5,1.5,0.7,2.3,0.7c0.6,0,1.2-0.1,1.7-0.4l17.1-7.5
		c1.6-0.7,2.6-2.2,2.6-3.9v-35.5l18.3-6.1v80.1L1282.4,249.5z"/>
	<path fill="#666666" d="M1207,247.5c-1.2-0.2-2.3-0.6-3.3-1l-8.5-17.5c-0.1-3.8,0.4-6.7,0.5-7c0.4-2.3-1.2-4.5-3.5-4.9
		c-2.3-0.4-4.6,1.2-5,3.5c-1.9,10.8-0.4,32.1,18.3,35.4c0.3,0,0.5,0.1,0.7,0.1c2,0,3.9-1.5,4.2-3.5
		C1210.9,250.1,1209.4,247.9,1207,247.5z"/>
</g>
</svg>
