<?xml version="1.0" encoding="utf-8"?>
<!-- Generator: Adobe Illustrator 18.1.1, SVG Export Plug-In . SVG Version: 6.00 Build 0)  -->
<svg version="1.1" id="Layer_1" xmlns="http://www.w3.org/2000/svg" xmlns:xlink="http://www.w3.org/1999/xlink" x="0px" y="0px"
	 viewBox="258.8 202.3 58.2 58" enable-background="new 258.8 202.3 58.2 58" xml:space="preserve">
<g>
	<path fill="#666666" d="M287.9,203.1c-15.5,0-28.2,12.6-28.2,28.2s12.6,28.2,28.2,28.2c15.5,0,28.2-12.6,28.2-28.2
		S303.4,203.1,287.9,203.1z M287.9,256c-13.6,0-24.7-11.1-24.7-24.7s11.1-24.7,24.7-24.7c13.6,0,24.7,11.1,24.7,24.7
		S301.5,256,287.9,256z"/>
	<path fill="#666666" d="M298.9,221.2l1.5-1.9c0.6-0.8,0.4-1.9-0.3-2.4c-0.8-0.6-1.9-0.4-2.4,0.3l-1.5,2c-2.1-1.2-4.5-1.9-7.1-2.1
		v-2h2c0.8,0,1.5-0.7,1.5-1.5s-0.7-1.5-1.5-1.5h-7c-0.8,0-1.5,0.7-1.5,1.5s0.7,1.5,1.5,1.5h2v2.1c-8.5,0.9-15.1,8.1-15.1,16.8
		c0,9.3,7.6,16.9,16.9,16.9s16.9-7.6,16.9-16.9C304.8,228.8,302.5,224.3,298.9,221.2z M287.8,247.4c-7.4,0-13.5-6-13.5-13.5
		s6-13.5,13.5-13.5s13.5,6,13.5,13.5S295.2,247.4,287.8,247.4z"/>
	<path fill="#666666" d="M286.1,237.5c0.5,0,0.8,0,1,0c0.7,0,1-0.3,1-1c0-0.3-0.1-0.5-0.2-0.7c-0.2-0.2-0.4-0.3-0.6-0.3
		c-0.8,0-1.4,0-1.8,0c-1.5,0-2.4,0-2.9,0l2.3-2.2c0.1-0.1,0.3-0.3,0.7-0.6c0.4-0.3,0.6-0.6,0.7-0.6c0.1-0.1,0.2-0.3,0.5-0.5
		s0.4-0.5,0.5-0.6c0.1-0.1,0.2-0.3,0.3-0.6c0.1-0.2,0.2-0.5,0.3-0.7c0-0.2,0.1-0.5,0.1-0.7c0-1.1-0.4-2-1.2-2.7c-0.8-0.7-1.8-1-3-1
		c-1.1,0-2.1,0.4-3,1.2c-0.5,0.4-0.7,0.8-0.7,1.2c0,0.2,0.1,0.5,0.3,0.6c0.2,0.2,0.4,0.3,0.6,0.3c0.3,0,0.7-0.1,1-0.4
		c0.6-0.6,1.3-0.9,1.9-0.9c0.6,0,1.1,0.2,1.5,0.5c0.4,0.3,0.6,0.8,0.6,1.3c0,0.1,0,0.2,0,0.3c0,0.1-0.1,0.2-0.1,0.3
		c-0.1,0.1-0.1,0.2-0.1,0.3c0,0.1-0.1,0.2-0.2,0.3c-0.1,0.1-0.2,0.2-0.2,0.3c-0.1,0.1-0.1,0.2-0.3,0.3s-0.2,0.3-0.3,0.3
		c-0.1,0.1-0.2,0.2-0.3,0.3l-0.3,0.3l-3.2,3.1c-0.5,0.5-0.7,0.9-0.7,1.4c0,0.3,0.1,0.6,0.3,0.8s0.4,0.3,0.8,0.3c1.1,0,2.5,0,4.1,0
		C285.3,237.5,285.6,237.5,286.1,237.5z"/>
	<path fill="#666666" d="M296.1,233.3l-1.2,0l0-2.4c0-0.3-0.1-0.5-0.2-0.7s-0.4-0.2-0.7-0.2c-0.6,0-0.8,0.4-0.8,1.1l0,2.2l-3.3,0
		l1.3-2.4c0.2-0.4,0.6-1,1.1-1.9c0.6-0.9,1-1.7,1.3-2.3c0.1-0.2,0.1-0.4,0.1-0.5c0-0.2-0.1-0.4-0.3-0.6c-0.2-0.2-0.5-0.3-0.7-0.3
		c-0.4,0-0.7,0.2-1,0.6c-1.4,2.7-2.6,4.9-3.6,6.7c-0.3,0.4-0.4,0.9-0.4,1.3c0,0.3,0.1,0.5,0.3,0.7c0.2,0.2,0.4,0.3,0.8,0.3
		c0.4,0,1.1,0,2.2,0c1,0,1.8,0,2.2,0c0,0.2,0,0.5,0,0.8s0,0.6,0,0.8c0,0.6,0.3,0.9,0.9,0.9c0.3,0,0.5-0.1,0.7-0.2s0.2-0.4,0.2-0.6
		v-1.6h1.3c0.5,0,0.8-0.3,0.8-1C296.9,233.6,296.6,233.3,296.1,233.3z"/>
	<path fill="#666666" d="M283.8,239.3c0-0.1,0-0.2-0.1-0.2c-0.1-0.1-0.2-0.1-0.3-0.1c-0.3,0-0.4,0.1-0.4,0.3c0,0.1,0,0.2,0,0.4
		c0,0.2,0,0.4,0,0.5l-0.1,0c-0.1,0-0.2,0-0.3,0c-0.2,0-0.3,0-0.3,0c0,0-0.1,0-0.1,0c-0.1,0-0.1,0-0.2,0v-1c0-0.1,0-0.2-0.1-0.2
		c-0.1,0-0.2-0.1-0.3-0.1c-0.1,0-0.2,0-0.3,0.1s-0.1,0.1-0.1,0.2l0,0.9c0,0.2,0,0.5,0,0.8s0,0.6,0,0.7c0,0.2,0.1,0.3,0.4,0.3
		c0.3,0,0.4-0.1,0.4-0.3l0-0.9h1.1l0,0.5v0.3c0,0.1,0,0.2,0.1,0.2c0.1,0.1,0.2,0.1,0.3,0.1c0.1,0,0.2,0,0.3-0.1
		c0.1,0,0.1-0.1,0.1-0.2l0-1.2C283.8,240.1,283.8,239.7,283.8,239.3z"/>
	<path fill="#666666" d="M285.6,239c-0.4,0-0.7,0.1-1,0.4s-0.5,0.7-0.5,1.2c0,0.4,0.2,0.8,0.5,1.1c0.3,0.3,0.7,0.4,1.1,0.4
		c0.4,0,0.8-0.2,1.1-0.5c0.3-0.3,0.4-0.7,0.4-1.1c0-0.4-0.2-0.8-0.5-1.1S286,239,285.6,239z M286.2,241.1c-0.1,0.2-0.3,0.3-0.5,0.3
		c-0.2,0-0.4-0.1-0.5-0.2c-0.1-0.2-0.2-0.4-0.2-0.6c0-0.3,0.1-0.5,0.2-0.6c0.1-0.2,0.3-0.3,0.5-0.3c0.2,0,0.4,0.1,0.6,0.2
		c0.2,0.2,0.2,0.4,0.2,0.6C286.4,240.7,286.3,240.9,286.2,241.1z"/>
	<path fill="#666666" d="M289.2,240.8c0.1-0.1,0.3-0.2,0.4-0.3c0.1-0.2,0.1-0.3,0.1-0.5c0-0.3-0.1-0.6-0.3-0.7
		c-0.2-0.2-0.5-0.3-0.8-0.3c-0.1,0-0.1,0-0.2,0s-0.1,0-0.2,0c-0.1,0-0.2,0-0.3,0c-0.1,0-0.2,0-0.3,0.1c-0.1,0.1-0.1,0.2-0.1,0.3
		c0,0,0,0.1,0,0.2s0,0.2,0,0.2c0,0.7,0,1.3,0,1.9c0,0.1,0,0.2,0.1,0.3c0.1,0.1,0.2,0.1,0.3,0.1c0.2,0,0.3-0.1,0.3-0.3
		c0-0.1,0-0.2,0-0.3s0-0.3,0-0.4c0,0,0.1,0,0.2,0s0.1,0,0.2,0c0.1,0.1,0.2,0.3,0.3,0.5s0.2,0.3,0.2,0.4c0,0.1,0.1,0.1,0.1,0.1
		c0,0,0,0,0.1,0.1c0,0,0.1,0,0.1,0c0.1,0,0.2,0,0.3-0.1s0.1-0.1,0.1-0.2c0-0.1,0-0.2-0.1-0.2C289.5,241.2,289.3,240.9,289.2,240.8z
		 M288.8,240.3c-0.1,0.1-0.2,0.1-0.4,0.1h-0.3l0-0.8c0,0,0.1,0,0.2,0s0.1,0,0.2,0c0.2,0,0.3,0,0.3,0.1c0.1,0.1,0.1,0.2,0.1,0.3
		C289,240.2,288.9,240.2,288.8,240.3z"/>
	<path fill="#666666" d="M292.4,240.8c0-0.1-0.1-0.1-0.1-0.2c-0.3-0.6-0.4-1.1-0.6-1.4c-0.1-0.2-0.2-0.3-0.5-0.3
		c-0.1,0-0.2,0-0.2,0.1c-0.1,0-0.1,0.1-0.2,0.2l-0.5,1.3c-0.1,0.3-0.2,0.6-0.4,0.9c-0.1,0.1-0.1,0.2-0.1,0.3c0,0.1,0,0.2,0.1,0.3
		s0.2,0.1,0.3,0.1c0.1,0,0.2-0.1,0.3-0.2l0.2-0.4h0.4c0.4,0,0.6,0,0.6,0c0,0.1,0.1,0.2,0.2,0.5c0.1,0.1,0.2,0.2,0.3,0.2
		c0.1,0,0.2,0,0.3-0.1s0.1-0.1,0.1-0.2c0-0.1,0-0.1-0.1-0.2C292.7,241.4,292.6,241.2,292.4,240.8z M291,240.8c0-0.1,0.1-0.2,0.1-0.4
		c0.1-0.2,0.1-0.4,0.2-0.5c0,0.1,0.1,0.3,0.2,0.5s0.1,0.4,0.1,0.4C291.4,240.8,291.2,240.8,291,240.8z"/>
	<path fill="#666666" d="M294.2,240.2c-0.2,0-0.3-0.1-0.4-0.1c-0.1,0-0.1-0.1-0.1-0.2s0-0.1,0.1-0.2c0.1-0.1,0.2-0.1,0.3-0.1
		c0.1,0,0.2,0,0.4,0.1c0.1,0.1,0.2,0.1,0.3,0.1c0.1,0,0.2,0,0.2-0.1c0.1-0.1,0.1-0.1,0.1-0.2c0-0.2-0.1-0.3-0.2-0.3
		c-0.2-0.1-0.5-0.2-0.8-0.2s-0.6,0.1-0.8,0.3c-0.2,0.2-0.3,0.4-0.3,0.7c0,0.2,0.1,0.4,0.3,0.6c0.2,0.1,0.4,0.2,0.7,0.3
		c0.3,0.1,0.4,0.2,0.4,0.3c0,0.1,0,0.2-0.1,0.2c-0.1,0.1-0.2,0.1-0.3,0.1c-0.1,0-0.1,0-0.2,0s-0.1,0-0.1,0s-0.1,0-0.1,0
		c-0.1,0-0.1,0-0.1,0c-0.1,0-0.2-0.1-0.3-0.1c-0.1,0-0.2,0-0.2,0.1s-0.1,0.2-0.1,0.3c0,0.2,0.1,0.3,0.2,0.3c0.2,0.1,0.5,0.2,0.9,0.2
		c0.3,0,0.6-0.1,0.8-0.3c0.2-0.2,0.3-0.4,0.3-0.7c0-0.3-0.1-0.5-0.3-0.6S294.5,240.2,294.2,240.2z"/>
</g>
</svg>
