<?xml version="1.0" encoding="utf-8"?>
<!-- Generator: Adobe Illustrator 18.1.1, SVG Export Plug-In . SVG Version: 6.00 Build 0)  -->
<svg version="1.1" id="Layer_1" xmlns="http://www.w3.org/2000/svg" xmlns:xlink="http://www.w3.org/1999/xlink" x="0px" y="0px"
	 viewBox="258.8 202.3 58.2 58" enable-background="new 258.8 202.3 58.2 58" xml:space="preserve">
<g>
	<path fill="#666666" d="M287.9,259.8c-15.7,0-28.5-12.8-28.5-28.5s12.8-28.5,28.5-28.5s28.5,12.8,28.5,28.5
		S303.6,259.8,287.9,259.8z M287.9,206.1c-13.9,0-25.2,11.3-25.2,25.2c0,13.9,11.3,25.2,25.2,25.2c13.9,0,25.2-11.3,25.2-25.2
		C313,217.4,301.8,206.1,287.9,206.1z"/>
</g>
<g>
	<path fill="#666666" d="M279.5,247c-0.9,0-1.7-0.4-2.2-1.1c-0.5-0.7-0.7-1.6-0.4-2.4l2.6-8.1l-6.8-5.1c-0.9-0.7-1.3-1.9-1-3
		s1.4-1.9,2.6-1.9h8.4l2.6-8c0.4-1.1,1.4-1.9,2.6-1.9s2.2,0.8,2.6,1.9l2.6,8h8.4c1.2,0,2.2,0.7,2.6,1.9s0,2.3-1,3l-6.8,5.1l2.6,8.1
		c0.3,0.8,0.1,1.7-0.4,2.4c-0.9,1.2-2.6,1.5-3.8,0.6l-6.8-4.9l-6.8,4.9C280.6,246.8,280.1,247,279.5,247z M276.3,228.7l6.2,4.6
		c0.6,0.4,0.8,1.2,0.6,1.9l-2.4,7.4l6.1-4.5c0.6-0.4,1.4-0.4,2,0l6.2,4.4l-2.4-7.3c-0.2-0.7,0-1.4,0.6-1.9l6.2-4.6h-7.7
		c-0.7,0-1.4-0.5-1.6-1.2l-2.3-7.2l-2.3,7.2c-0.2,0.7-0.9,1.2-1.6,1.2H276.3z"/>
</g>
</svg>
