<svg xmlns="http://www.w3.org/2000/svg" xmlns:xlink="http://www.w3.org/1999/xlink" version="1.1" x="0px" y="0px" viewBox="0 0 100 100" enable-background="new 0 0 100 100" xml:space="preserve"><path fill="#434343" d="M27.2,14.6c0.8,0,1.6,0,2.5,0c1.7,0,2.9-0.6,3.8-2c0.9-1.4,1.8-2.8,2.7-4.1c1.9-2.8,4.9-3.5,7.8-1.8c1.5,0.8,3,1.7,4.5,2.5  c1.2,0.7,2.4,0.6,3.7,0c1.5-0.8,2.9-1.7,4.4-2.5c3-1.7,5.9-1,7.8,1.8c0.9,1.4,1.8,2.7,2.7,4.1c0.9,1.4,2,2.1,3.7,2  c1.7-0.1,3.4-0.1,5.1-0.2c3.2,0,5.6,2.3,5.8,5.5c0.1,1.6,0.3,3.3,0.4,4.9c0.2,1.6,0.9,2.7,2.4,3.3c1.5,0.7,3,1.4,4.5,2.2  c2.9,1.5,3.9,4.4,2.7,7.3c-0.6,1.6-1.3,3.2-2,4.8c-0.6,1.4-0.4,2.6,0.4,3.8c1,1.3,2,2.7,3,4.1c2,2.7,1.7,5.8-0.9,8  c-1.2,1-2.4,2.1-3.6,3c-1.5,1.1-2,2.5-1.6,4.3c0.3,1.7,0.6,3.4,0.7,5.1c0.3,3.1-1.5,5.6-4.6,6.2c-1.5,0.3-3,0.7-4.5,1  c-1.7,0.3-2.8,1.2-3.3,2.9c-0.5,1.6-1.1,3.2-1.6,4.7c-1,2.9-3.7,4.3-6.7,3.6c-1.7-0.4-3.3-0.9-4.9-1.4c-1.6-0.5-3-0.2-4.2,1.1  c-1.2,1.2-2.4,2.3-3.6,3.4c-2.4,2.2-5.4,2.2-7.8,0c-1.2-1.1-2.5-2.3-3.7-3.4c-1.1-1.1-2.4-1.5-4-1c-1.7,0.5-3.3,1-5,1.4  c-3.1,0.8-5.8-0.8-6.8-3.8c-0.5-1.6-1.1-3.1-1.6-4.7c-0.5-1.6-1.5-2.5-3.1-2.8c-1.6-0.3-3.2-0.7-4.8-1c-3-0.6-4.8-3.1-4.5-6.1  c0.2-1.7,0.5-3.4,0.7-5.2c0.3-1.7-0.1-3.1-1.5-4.2c-1.3-1-2.5-2.1-3.8-3.2c-2.4-2.1-2.8-5.2-1-7.9c1-1.4,2-2.7,3-4  c0.9-1.2,1.1-2.5,0.5-4c-0.7-1.6-1.3-3.3-2-4.9c-1.1-2.7-0.1-5.6,2.4-7.1c1.6-0.9,3.2-1.6,4.9-2.4c1.5-0.7,2.3-1.8,2.4-3.4  c0.2-1.7,0.3-3.3,0.4-5c0.2-3,2.6-5.3,5.6-5.3c0.9,0,1.8,0,2.8,0C27.2,14.4,27.2,14.5,27.2,14.6z M78.9,49.8  c0-16.1-13.1-29-29.2-28.8C33.9,21.3,21.2,34.4,21.4,50c0.2,16.1,13.3,28.9,29.3,28.6C66.5,78.3,78.9,65.3,78.9,49.8z"/><path fill="#434343" d="M50.3,24.6c13.8,0.1,24.9,11.2,25,24.9C75.4,64.1,64.1,75.3,49.5,75C35.9,74.8,24.9,63.5,25,49.7  C25,35.8,36.3,24.6,50.3,24.6z M46.5,52.8c-2.2-2-4.3-3.9-6.5-5.7c-2.4-2.1-2.9-2-5.1,0.2c-1.1,1.1-1.3,1.9-0.4,3.2  c1.1,1.7,2.4,3.3,3.7,4.9c2.4,3,4.7,6.1,7.1,9.1c0.8,1,1.9,1,2.7,0c0.2-0.3,0.4-0.5,0.6-0.8c5.6-7.8,11.2-15.6,16.8-23.4  c0.2-0.3,0.5-0.7,0.7-1.1c0.5-1,0.4-1.7-0.4-2.4c-0.6-0.5-1.2-1-1.9-1.4c-0.8-0.6-1.5-0.5-2.1,0.2c-0.9,1-1.9,2.1-2.8,3.2  C54.6,43.4,50.6,48,46.5,52.8z"/></svg>