<svg id="Capa_1" data-name="Capa 1" xmlns="http://www.w3.org/2000/svg" viewBox="0 0 400 400"><defs><style>.cls-1{fill:#676767;}.cls-2{fill:none;stroke:#676767;stroke-miterlimit:10;stroke-width:23px;}</style></defs><title>Iconos Liderlogo - Grupo 1</title><path class="cls-1" d="M200,157.64A42.36,42.36,0,1,1,157.64,200,42.37,42.37,0,0,1,200,157.64m0-23A65.36,65.36,0,1,0,265.36,200,65.43,65.43,0,0,0,200,134.64Z"/><path class="cls-2" d="M341.5,228.16V171.84l-28.46-4a14.54,14.54,0,0,1-13.44-9l-.07-.18a14.54,14.54,0,0,1,3.14-15.88l17.13-24.13L281.32,81.2,257.19,97.33a14.54,14.54,0,0,1-15.88,3.14l-.18-.07a14.54,14.54,0,0,1-9-13.44l-4-28.46H171.84l-4,28.46a14.54,14.54,0,0,1-9,13.44l-.18.07a14.54,14.54,0,0,1-15.88-3.14L118.68,81.2,81.2,118.68l16.13,24.13a14.54,14.54,0,0,1,3.14,15.88l-.07.18a14.54,14.54,0,0,1-13.44,9l-28.46,4v56.32l28.46,4a14.54,14.54,0,0,1,13.44,9l.07.18a14.54,14.54,0,0,1-3.14,15.88L81.2,281.32l37.48,37.48,24.13-16.13a14.54,14.54,0,0,1,15.88-3.14l.18.07a14.54,14.54,0,0,1,9,13.44l4,28.46h56.32l4-28.46a14.54,14.54,0,0,1,9-13.44l.18-.07a14.54,14.54,0,0,1,15.88,3.14l24.13,16.13,37.48-37.48-16.13-24.13a14.54,14.54,0,0,1-3.14-15.88l.07-.18a14.54,14.54,0,0,1,13.44-9Z"/></svg>