<svg id="Capa_1" data-name="Capa 1" xmlns="http://www.w3.org/2000/svg" viewBox="0 0 400 400"><defs><style>.cls-1{fill:#676767;}</style></defs><title>Iconos Liderlogo - Grupo 1</title><path class="cls-1" d="M114,74.33A17.84,17.84,0,0,1,130,84.1a366.43,366.43,0,0,0,23.9,40.08,12.59,12.59,0,0,1-3.18,17.45q-2.12,1.47-4.24,3c-9.56,7-13,8.36-20.53,15.8a469.63,469.63,0,0,0,51.24,60.47,466,466,0,0,0,64.34,53.94,130.89,130.89,0,0,0,16.22-19c1.22-1.66,2.41-3.33,3.56-5a12.44,12.44,0,0,1,10.27-5.36,12.72,12.72,0,0,1,7.05,2.14,356.62,356.62,0,0,0,38.53,22.5,17.89,17.89,0,0,1,7.32,25.3q-4.87,8-10.87,16.28c-1.82,2.48-3.68,4.9-5.54,7.24-.47.6-.95,1.2-1.43,1.78a28.83,28.83,0,0,1-22.34,10.68,28.27,28.27,0,0,1-4.29-.33c-22.32-3.39-46.7-12.36-71.07-26.37a313.8,313.8,0,0,1-65-50.28,317,317,0,0,1-47.2-59.8C82,170.44,72.31,146,68.09,123.5a28.62,28.62,0,0,1,9.76-27.25c1.05-.87,2.12-1.75,3.2-2.62q3.93-3.16,8.14-6.25Q97,81.63,104.73,77A17.75,17.75,0,0,1,114,74.33m0-23a40.86,40.86,0,0,0-21.31,6c-5.83,3.57-11.59,7.43-17.12,11.47-3,2.23-6.06,4.56-9,6.92-1.16.92-2.34,1.9-3.5,2.86a51.67,51.67,0,0,0-17.64,49.15c4.75,25.31,15.65,52.57,31.52,78.85a338.45,338.45,0,0,0,50.62,64.17,335.15,335.15,0,0,0,69.85,54C224,340,251.35,350.07,276.54,353.89a51.62,51.62,0,0,0,47.93-18.58c.53-.65,1.06-1.31,1.58-2,2.11-2.66,4.16-5.33,6.09-8,4.24-5.78,8.27-11.81,12-17.94a40.87,40.87,0,0,0-16.7-57.8,335,335,0,0,1-36-21.06,35.59,35.59,0,0,0-49,9.26c-1,1.5-2.11,3-3.19,4.48L238,243.88a456,456,0,0,1-44.6-39.22,459.73,459.73,0,0,1-35.55-39.88l2.18-1.57c1.23-.9,2.51-1.82,3.79-2.71a35.72,35.72,0,0,0,9-49.3,343.08,343.08,0,0,1-22.4-37.53A40.72,40.72,0,0,0,114,51.33Z"/></svg>