<svg id="Capa_1" data-name="Capa 1" xmlns="http://www.w3.org/2000/svg" viewBox="0 0 400 400"><defs><style>.cls-1{fill:none;stroke:#676767;stroke-miterlimit:10;stroke-width:23px;}</style></defs><title>Iconos Liderlogo - Grupo 1</title><rect class="cls-1" x="54.08" y="130.42" width="291.85" height="188.13" rx="15.33" ry="15.33"/><path class="cls-1" d="M180.94,81.45h38.11A18.92,18.92,0,0,1,238,100.37v30a0,0,0,0,1,0,0H162a0,0,0,0,1,0,0v-30A18.92,18.92,0,0,1,180.94,81.45Z"/><line class="cls-1" x1="200" y1="198.76" x2="200" y2="249.12"/><line class="cls-1" x1="162.02" y1="249.12" x2="237.98" y2="249.12"/><path class="cls-1" d="M69.41,130.42c0,37.74,50,68.34,130.59,68.34s130.59-30.6,130.59-68.34"/></svg>