<svg id="Capa_1" data-name="Capa 1" xmlns="http://www.w3.org/2000/svg" viewBox="0 0 400 400"><defs><style>.cls-1{fill:#676767;}</style></defs><title>Iconos Liderlogo - Grupo 1</title><path class="cls-1" d="M200,78.32a7.76,7.76,0,0,1,5.22,2l135,121.86a2,2,0,0,1-1.33,3.44H292.48V314.36H103.16V205.63h-43a2,2,0,0,1-1.32-3.45L194.78,80.31a7.81,7.81,0,0,1,5.2-2m0-23a30.77,30.77,0,0,0-20.55,7.87L43.49,185.06a25,25,0,0,0,16.67,43.57h20V337.36H315.48V228.63h23.38a25,25,0,0,0,16.74-43.51l-135-121.86A30.72,30.72,0,0,0,200,55.32Z"/></svg>