<svg id="Capa_1" data-name="Capa 1" xmlns="http://www.w3.org/2000/svg" viewBox="0 0 400 400"><defs><style>.cls-1{fill:#676767;}.cls-2{fill:none;stroke:#676767;stroke-miterlimit:10;stroke-width:23px;}</style></defs><title>Iconos Liderlogo - Grupo 1</title><path class="cls-1" d="M267.35,78.1a35.72,35.72,0,0,1,8.94,1.12s-11.48,17.06-7.27,35.6h0c20.86,15.06,35.64,35.92,40.8,59.61H333v41.43H308.85c-5,18.88-16.24,35.81-31.72,49.2a75.11,75.11,0,0,0-25.79,56.84H223.92V294.8c-6.66.94-27.5,1.44-34.48,1.44-9,0-31.71-.82-40.13-2.36v28H121.88v-5.11a76.13,76.13,0,0,0-24-55.22C78.69,243.36,67,219.4,67,193.15c0-56.94,54.8-103.1,122.4-103.1a143.14,143.14,0,0,1,39.78,5.57h0S246.43,78.1,267.35,78.1m0-23h0c-18.43,0-34.05,8.43-43.83,15.43a167.49,167.49,0,0,0-34.08-3.48c-38.11,0-74.11,12.64-101.37,35.6a126.73,126.73,0,0,0-32,40A111.61,111.61,0,0,0,44,193.15c0,31.62,13.5,61.85,38,85.1a53.5,53.5,0,0,1,16.82,38.54V344.9h73.43V318.81c7.33.31,13.89.43,17.13.43,1.32,0,5.86,0,11.48-.18V344.9h73.42v-23a52,52,0,0,1,17.84-39.45A125.64,125.64,0,0,0,325,238.86H356V151.43H326.7a125.69,125.69,0,0,0-35.33-48.29A33.56,33.56,0,0,1,295.44,92l19.3-27.17L282,57a58.69,58.69,0,0,0-14.67-1.85Z"/><path class="cls-2" d="M229.22,140.81a144.93,144.93,0,0,0-77.16-.67"/></svg>