<svg id="Capa_1" data-name="Capa 1" xmlns="http://www.w3.org/2000/svg" viewBox="0 0 400 400"><defs><style>.cls-1{fill:#676767;}</style></defs><title>Iconos Liderlogo - Grupo 1</title><path class="cls-1" d="M200,81a119,119,0,0,1,0,238h-1.15a118,118,0,0,1-64.33-19.65l-57,29a2.36,2.36,0,0,1-1.06.26,2.31,2.31,0,0,1-2-3.38l29.14-55.48A118.93,118.93,0,0,1,200,81H200m0-23H200C121.69,58,58,121.7,58,200a140.57,140.57,0,0,0,19,71L54.15,314.53a25.08,25.08,0,0,0,.73,24.84A25.29,25.29,0,0,0,88,348.85l45.71-23.28A141.13,141.13,0,0,0,198.67,342H200a142,142,0,0,0,0-284Z"/><path class="cls-1" d="M204.89,140.08l10.79,33.2a5.14,5.14,0,0,0,4.89,3.55h34.91a5.14,5.14,0,0,1,3,9.3l-28.24,20.52a5.15,5.15,0,0,0-1.87,5.75l10.79,33.2a5.14,5.14,0,0,1-7.92,5.75L203,230.84a5.13,5.13,0,0,0-6,0l-28.24,20.51a5.14,5.14,0,0,1-7.92-5.75l10.79-33.2a5.15,5.15,0,0,0-1.87-5.75L141.5,186.13a5.14,5.14,0,0,1,3-9.3h34.91a5.14,5.14,0,0,0,4.89-3.55l10.79-33.2A5.14,5.14,0,0,1,204.89,140.08Z"/></svg>