<svg id="Capa_1" data-name="Capa 1" xmlns="http://www.w3.org/2000/svg" viewBox="0 0 400 400"><defs><style>.cls-1{fill:#676767;}</style></defs><title>Iconos Liderlogo - Grupo 1</title><path class="cls-1" d="M212,69H212C139.74,69,81,127.75,81,200a130,130,0,0,0,24.94,76.78L89.61,325.45,140,309.35A129.86,129.86,0,0,0,212,331c72.23,0,131-58.77,131-131S284.26,69,212,69Zm76.23,185c-3.16,8.92-15.71,16.32-25.71,18.49-6.85,1.45-15.79,2.62-45.88-9.86-38.5-16-63.29-55.07-65.22-57.61s-15.56-20.71-15.56-39.51,9.55-27.95,13.39-31.88c3.16-3.23,8.39-4.7,13.4-4.7,1.62,0,3.08.08,4.39.14,3.85.17,5.78.4,8.32,6.47,3.16,7.62,10.85,26.41,11.77,28.35s1.87,4.55.56,7.09a22.59,22.59,0,0,1-4.25,6c-1.93,2.22-3.76,3.93-5.69,6.32-1.77,2.08-3.77,4.3-1.54,8.15s9.92,16.33,21.25,26.42a96.42,96.42,0,0,0,30.72,18.94c3.16,1.31,6.93,1,9.24-1.46,2.93-3.16,6.55-8.4,10.23-13.55,2.62-3.71,5.93-4.16,9.4-2.85s22.25,10.48,26.1,12.39,6.39,2.85,7.32,4.47S291.42,245.05,288.26,254Z"/></svg>