<?xml version="1.0" encoding="utf-8"?>
<!-- Generator: Adobe Illustrator 22.0.0, SVG Export Plug-In . SVG Version: 6.00 Build 0)  -->
<svg version="1.1" id="Capa_1" xmlns="http://www.w3.org/2000/svg" xmlns:xlink="http://www.w3.org/1999/xlink" x="0px" y="0px"
	 viewBox="0 0 81.1 72.3" style="enable-background:new 0 0 81.1 72.3;" xml:space="preserve">
<style type="text/css">
	.st0{fill:#FDFEFF;}
</style>
<title>ecommerce</title>
<g id="Layer_2">
	<g id="Layer_1-2">
		<path class="st0" d="M71.8,62.9H9.4c-5.2,0-9.4-4.2-9.4-9.4V9.4C0,4.2,4.2,0,9.4,0h62.4c5.2,0,9.4,4.2,9.4,9.4v44.2
			C81.1,58.7,76.9,62.9,71.8,62.9z M9.4,4C6.4,4,4,6.4,4,9.4v44.2c0,3,2.4,5.4,5.4,5.4h62.4c3,0,5.4-2.4,5.4-5.4V9.4
			c0-3-2.4-5.4-5.4-5.4H9.4z"/>
		<rect x="2.8" y="48.3" class="st0" width="75" height="4"/>
		<path class="st0" d="M57.8,72.3h-35c-1.1,0-2-0.9-2-2s0.9-2,2-2h35c1.1,0,2,0.9,2,2S58.9,72.3,57.8,72.3z"/>
		<path class="st0" d="M54.8,72H26.4v-13h28.4V72z M30.4,68h20.4v-5H30.4V68z"/>
		<circle class="st0" cx="52.1" cy="39.5" r="2.4"/>
		<circle class="st0" cx="60.5" cy="39.5" r="2.4"/>
		<path class="st0" d="M64.6,35.3h-15c-0.6,0-1.2-0.4-1.4-1l-5.7-17h-2.7c-0.8,0-1.5-0.7-1.5-1.5s0.7-1.5,1.5-1.5h3.8
			c0.6,0,1.2,0.4,1.4,1l1.7,5c0.1,0,0.1,0,0.2,0h22.4c0.5,0,1,0.2,1.2,0.7s0.3,0.9,0.2,1.4l-4.6,12C65.8,34.9,65.2,35.3,64.6,35.3z
			 M50.6,32.3h12.9l3.5-9H47.6L50.6,32.3z"/>
		<path class="st0" d="M47.1,22.2c-0.3,0-0.6-0.1-0.9-0.4c-0.5-0.5-0.5-1.3,0-1.8l6.6-6.6c0.5-0.5,1.2-0.5,1.7,0l6.9,6.2
			c0.5,0.5,0.6,1.3,0.1,1.8c-0.5,0.5-1.3,0.6-1.8,0.1l-6-5.4L48,21.8C47.7,22.1,47.4,22.2,47.1,22.2z"/>
		<path class="st0" d="M67.4,22.2c-0.4,0-0.8-0.2-1.1-0.6l-3.1-4.9l-5.4,2.1c-0.6,0.2-1.4-0.1-1.6-0.7c-0.2-0.6,0.1-1.4,0.7-1.6
			l6.4-2.4c0.6-0.2,1.2,0,1.5,0.5l3.6,5.7c0.4,0.6,0.2,1.4-0.4,1.7C67.8,22.1,67.6,22.2,67.4,22.2z"/>
		<path class="st0" d="M32.8,22.3h-19c-1.1,0-2-0.9-2-2s0.9-2,2-2h19c1.1,0,2,0.9,2,2S33.9,22.3,32.8,22.3z"/>
		<path class="st0" d="M32.8,30.3h-19c-1.1,0-2-0.9-2-2s0.9-2,2-2h19c1.1,0,2,0.9,2,2S33.9,30.3,32.8,30.3z"/>
		<path class="st0" d="M24.8,38.3h-11c-1.1,0-2-0.9-2-2s0.9-2,2-2h11c1.1,0,2,0.9,2,2S25.9,38.3,24.8,38.3z"/>
	</g>
</g>
</svg>
