<?xml version="1.0" encoding="utf-8"?>
<!-- Generator: Adobe Illustrator 22.0.0, SVG Export Plug-In . SVG Version: 6.00 Build 0)  -->
<svg version="1.1" id="Capa_1" xmlns="http://www.w3.org/2000/svg" xmlns:xlink="http://www.w3.org/1999/xlink" x="0px" y="0px"
	 viewBox="0 0 290.3 297" style="enable-background:new 0 0 290.3 297;" xml:space="preserve">
<style type="text/css">
	.st0{fill:#FFFFFF;}
</style>
<title>folleto-y-publicidades</title>
<g id="Layer_2">
	<g id="Layer_1-2">
		<path class="st0" d="M84,297H7c-3.9,0-7-3.1-7-7V7c0-3.9,3.1-7,7-7h170c3.9,0,7,3.1,7,7v119c0,3.9-3.1,7-7,7s-7-3.1-7-7V14H14v269
			h70c3.9,0,7,3.1,7,7S87.9,297,84,297z"/>
		<path class="st0" d="M283.3,296.3H76.2c-3.9,0-7-3.1-7-7v-162c0-3.9,3.1-7,7-7h207.1c3.9,0,7,3.1,7,7v162
			C290.3,293.2,287.2,296.3,283.3,296.3z M83.2,282.3h193.1v-148H83.2V282.3z"/>
		<path class="st0" d="M227,180h-97c-3.9,0-7-3.1-7-7s3.1-7,7-7h97c3.9,0,7,3.1,7,7S230.9,180,227,180z"/>
	</g>
</g>
</svg>
