<svg xmlns="http://www.w3.org/2000/svg" viewBox="0 0 302.4 393.9"><title>publicidad</title><g id="Layer_2" data-name="Layer 2"><g id="Layer_1-2" data-name="Layer 1"><rect x="7" y="7" width="288.4" height="379.9" style="fill:none;stroke:#fff;stroke-linecap:round;stroke-linejoin:round;stroke-width:14px"/><circle cx="215.2" cy="297" r="50.3" style="fill:none;stroke:#fff;stroke-linecap:round;stroke-miterlimit:10;stroke-width:14px"/><polygon points="191.3 306.1 189.2 322.4 205.5 320.3 227.1 298.7 213 284.4 191.3 306.1" style="fill:#fff"/><path d="M238.8,287.1a10,10,0,0,0-14.2-14.2l-1.7,1.7L237,289Z" style="fill:#fff"/><line x1="49.5" y1="334.5" x2="130.5" y2="334.5" style="fill:none;stroke:#fff;stroke-linecap:round;stroke-miterlimit:10;stroke-width:14px"/><line x1="49.5" y1="293.5" x2="130.5" y2="293.5" style="fill:none;stroke:#fff;stroke-linecap:round;stroke-miterlimit:10;stroke-width:14px"/><line x1="49.5" y1="248.5" x2="130.5" y2="248.5" style="fill:none;stroke:#fff;stroke-linecap:round;stroke-miterlimit:10;stroke-width:14px"/><line x1="49.5" y1="208.5" x2="130.5" y2="208.5" style="fill:none;stroke:#fff;stroke-linecap:round;stroke-miterlimit:10;stroke-width:14px"/><line x1="49.5" y1="167.5" x2="130.5" y2="167.5" style="fill:none;stroke:#fff;stroke-linecap:round;stroke-miterlimit:10;stroke-width:14px"/><line x1="49.5" y1="122.5" x2="130.5" y2="122.5" style="fill:none;stroke:#fff;stroke-linecap:round;stroke-miterlimit:10;stroke-width:14px"/><line x1="170.5" y1="208.5" x2="256.5" y2="208.5" style="fill:none;stroke:#fff;stroke-linecap:round;stroke-miterlimit:10;stroke-width:14px"/><line x1="170.5" y1="167.5" x2="256.5" y2="167.5" style="fill:none;stroke:#fff;stroke-linecap:round;stroke-miterlimit:10;stroke-width:14px"/><line x1="170.5" y1="122.5" x2="256.5" y2="122.5" style="fill:none;stroke:#fff;stroke-linecap:round;stroke-miterlimit:10;stroke-width:14px"/><rect x="41.9" y="46.8" width="218.5" height="30.6" style="fill:none;stroke:#fff;stroke-linecap:round;stroke-miterlimit:10;stroke-width:14px"/></g></g></svg>