<?xml version="1.0" encoding="utf-8"?>
<!-- Generator: Adobe Illustrator 22.0.0, SVG Export Plug-In . SVG Version: 6.00 Build 0)  -->
<svg version="1.1" id="Capa_1" xmlns="http://www.w3.org/2000/svg" xmlns:xlink="http://www.w3.org/1999/xlink" x="0px" y="0px"
	 viewBox="0 0 401.6 443.1" style="enable-background:new 0 0 401.6 443.1;" xml:space="preserve">
<style type="text/css">
	.st0{fill:#FFFFFF;}
</style>
<title>rotulo-banner</title>
<g id="Layer_2">
	<g id="Layer_1-2">
		<path class="st0" d="M143.9,412c-27.3,0-52.7-15.3-71.7-43.1c-18.4-27-28.5-62.7-28.5-100.6s10.1-73.6,28.5-100.6
			c18.9-27.8,44.4-43.1,71.7-43.1s52.7,15.3,71.7,43.1c18.4,27,28.5,62.7,28.5,100.6s-10.1,73.6-28.5,100.6
			C196.6,396.7,171.2,412,143.9,412z M143.9,138.6c-47.5,0-86.2,58.2-86.2,129.7S96.4,398,143.9,398s86.2-58.2,86.2-129.7
			S191.4,138.6,143.9,138.6z"/>
		<path class="st0" d="M88.4,346l4.9-55.4l62.7-92c4.8-7,11.7-11.1,19-11.1s14.2,4,19,11.1c8.9,13.1,8.9,33.5,0,46.6L130.6,338
			L88.4,346z M126.5,331.7L126.5,331.7L126.5,331.7z M106.9,295.4l-2.9,33.4l18.4-3.5l60.1-88.1c5.7-8.4,5.7-22.5,0-30.8
			c-2.2-3.2-4.8-5-7.4-5s-5.2,1.8-7.4,5L106.9,295.4z"/>
		<path class="st0" d="M177.6,255c-2.2,0-4.4-1.1-5.8-3.1l-20.7-30.4c-2.2-3.2-1.3-7.5,1.8-9.7c3.2-2.2,7.6-1.3,9.7,1.8l20.7,30.4
			c2.2,3.2,1.3,7.5-1.8,9.7C180.3,254.6,179,255,177.6,255z"/>
		<path class="st0" d="M41,443.1V87.3l320,96.5v182.1L41,443.1z M55,106.1v319.2l292-70.4V194.2L55,106.1z"/>
		<path class="st0" d="M290.4,323.7c-20.3,0-37.8-18.1-51.9-53.7c-10-25.2-14.7-50.1-14.9-51.2c-0.7-3.8,1.8-7.5,5.6-8.2
			c3.8-0.7,7.5,1.8,8.2,5.6c0,0.2,4.7,24.8,14.2,48.7c8.1,20.4,21.4,44.7,38.8,44.7c0.1,0,0.2,0,0.4,0c36.7-0.7,55.8-48.1,56-48.6
			c1.4-3.6,5.5-5.4,9.1-3.9c3.6,1.4,5.4,5.5,4,9.1c-0.9,2.3-22.7,56.6-68.8,57.4C290.8,323.7,290.6,323.7,290.4,323.7z"/>
		<path class="st0" d="M47,442.6H0v-352h47c3.9,0,7,3.1,7,7s-3.1,7-7,7H14v324h33c3.9,0,7,3.1,7,7S50.9,442.6,47,442.6z"/>
		<path class="st0" d="M148.1,82.6H76.7l15.9-28.1c4.2-7.4,11.6-11.9,19.7-11.9c8.1,0,15.5,4.4,19.7,11.9L148.1,82.6z M100.7,68.6
			h23.2l-4.1-7.1c-1.7-3.1-4.5-4.8-7.5-4.8c-3.1,0-5.8,1.7-7.5,4.8L100.7,68.6z"/>
		<path class="st0" d="M50.8,103.7c-3.9,0-7-3.1-7-7V41.3C43.8,18.5,60.8,0,81.6,0c20.8,0,37.8,18.5,37.8,41.3v7.9c0,3.9-3.1,7-7,7
			s-7-3.1-7-7v-7.9c0-15.1-10.7-27.3-23.8-27.3c-13.1,0-23.8,12.2-23.8,27.3v55.4C57.8,100.6,54.7,103.7,50.8,103.7z"/>
		<path class="st0" d="M401.6,156.5H330l16.1-28.1c4.2-7.4,11.6-11.8,19.7-11.8c8.1,0,15.5,4.4,19.7,11.9L401.6,156.5z M354.2,142.5
			h23.2l-4.1-7.1c-1.7-3.1-4.5-4.8-7.5-4.8s-5.8,1.7-7.5,4.8L354.2,142.5z"/>
		<path class="st0" d="M304.2,177.6c-3.9,0-7-3.1-7-7v-55.4c0-22.8,17-41.3,37.8-41.3s37.8,18.5,37.8,41.3v7.9c0,3.9-3.1,7-7,7
			s-7-3.1-7-7v-7.9c0-15.1-10.7-27.3-23.8-27.3s-23.8,12.2-23.8,27.3v55.4C311.2,174.5,308.1,177.6,304.2,177.6z"/>
		<path class="st0" d="M279.4,117.2h-71.6l16.1-28.1c4.2-7.4,11.6-11.8,19.7-11.8c8.1,0,15.5,4.4,19.7,11.9L279.4,117.2z M232,103.2
			h23.2l-4.1-7.1c-1.7-3.1-4.5-4.8-7.5-4.8c-3,0-5.8,1.7-7.5,4.8L232,103.2z"/>
		<path class="st0" d="M182,138.3c-3.9,0-7-3.1-7-7V75.9c0-22.8,17-41.3,37.8-41.3s37.8,18.5,37.8,41.3v7.9c0,3.9-3.1,7-7,7
			s-7-3.1-7-7v-7.9c0-15.1-10.7-27.3-23.8-27.3S189,60.8,189,75.9v55.4C189,135.2,185.9,138.3,182,138.3z"/>
	</g>
</g>
</svg>
