<?xml version="1.0" encoding="utf-8"?>
<!-- Generator: Adobe Illustrator 22.0.0, SVG Export Plug-In . SVG Version: 6.00 Build 0)  -->
<svg version="1.1" id="Capa_1" xmlns="http://www.w3.org/2000/svg" xmlns:xlink="http://www.w3.org/1999/xlink" x="0px" y="0px"
	 viewBox="0 0 362.8 453" style="enable-background:new 0 0 362.8 453;" xml:space="preserve">
<style type="text/css">
	.st0{fill:#FFFFFF;}
</style>
<title>rotulo-local</title>
<g id="Layer_2">
	<g id="Layer_1-2">
		<path class="st0" d="M362.8,453H0V125.7h362.8V453z M14,439h334.8V139.7H14V439z"/>
		<path class="st0" d="M41.7,231.7C41.7,231.7,41.6,231.7,41.7,231.7l-0.1-7L41.7,231.7C18.7,231.7,0,213,0,190.1v-64.4h83.3v64.4
			c0,11.1-4.3,21.6-12.2,29.4C63.2,227.4,52.8,231.7,41.7,231.7z M41.6,217.7L41.6,217.7c7.4,0,14.4-2.9,19.6-8.1
			c5.2-5.2,8.1-12.1,8.1-19.5v-50.4H14v50.4C14,205.3,26.4,217.7,41.6,217.7z"/>
		<path class="st0" d="M110.9,231.7L110.9,231.7c-22.9,0-41.6-18.7-41.6-41.6v-64.4h83.3v64.4C152.5,213,133.8,231.7,110.9,231.7z
			 M83.3,139.7v50.4c0,15.2,12.4,27.6,27.6,27.6c15.2,0,27.6-12.4,27.7-27.6v-50.4H83.3z"/>
		<path class="st0" d="M180.2,231.7L180.2,231.7c-22.9,0-41.6-18.7-41.6-41.6v-64.4h83.3v64.4C221.8,213,203.1,231.7,180.2,231.7z
			 M152.6,139.7v50.4c0,15.2,12.4,27.6,27.6,27.6c15.2,0,27.6-12.4,27.7-27.6v-50.4H152.6z"/>
		<path class="st0" d="M249.5,231.7C249.5,231.7,249.4,231.7,249.5,231.7l-0.1-7L249.5,231.7c-23,0-41.7-18.7-41.7-41.6v-64.4h83.3
			v64.4c0,11.1-4.3,21.6-12.2,29.4C271,227.4,260.6,231.7,249.5,231.7z M249.4,217.7L249.4,217.7
			C249.4,217.7,249.5,217.7,249.4,217.7c7.4,0,14.4-2.9,19.6-8.1c5.2-5.2,8.1-12.1,8.1-19.5v-50.4h-55.3v50.4
			C221.8,205.3,234.2,217.7,249.4,217.7z"/>
		<path class="st0" d="M318.7,231.7L318.7,231.7c-22.9,0-41.6-18.7-41.6-41.6v-64.4h83.3v64.4C360.3,213,341.6,231.7,318.7,231.7z
			 M291.1,139.7v50.4c0,15.2,12.4,27.6,27.6,27.6c15.2,0,27.6-12.4,27.7-27.6v-50.4H291.1z"/>
		<path class="st0" d="M251,415.8c-42.5,0-77.1-34.6-77.1-77.1s34.6-77.1,77.1-77.1s77.1,34.6,77.1,77.1S293.5,415.8,251,415.8z
			 M251,275.6c-34.8,0-63.1,28.3-63.1,63.1s28.3,63.1,63.1,63.1c34.8,0,63.1-28.3,63.1-63.1S285.8,275.6,251,275.6z"/>
		<path class="st0" d="M289.7,298.5c-8-8-21.1-8-29.2,0l-47.3,47.3l0.2,29.1l29.2,0.2l47.2-47.4
			C297.7,319.7,297.7,306.6,289.7,298.5z M279.8,308.4c2.6,2.6,2.6,6.8,0,9.4l-0.4,0.4l-9.4-9.4l0.4-0.4
			C273,305.9,277.3,305.9,279.8,308.4z M236.8,361.1l-9.4,0l0-9.5l32.8-32.8l9.4,9.4L236.8,361.1z"/>
		<path class="st0" d="M152.6,453H41V325.3h111.6V453z M55,439h83.6v-99.7H55V439z"/>
		<path class="st0" d="M152.5,339.3H40.9v-24.8c0-30.8,25-55.8,55.8-55.8c30.8,0,55.8,25,55.8,55.8V339.3z M54.9,325.3h83.6v-10.8
			c0-23-18.8-41.8-41.8-41.8c-23,0-41.8,18.8-41.8,41.8V325.3z"/>
		<rect x="86.4" y="334.5" class="st0" width="14" height="108"/>
		<g>
			<polygon class="st0" points="227.3,38.1 203.2,62.2 201,79.1 217.9,76.9 241.4,53.4 			"/>
			<path class="st0" d="M251.3,43.5l1-1c0,0,0.1-0.1,0.1-0.1c4-4.1,4-10.6-0.1-14.6c0,0-0.1-0.1-0.1-0.1c-4.1-4-10.6-4-14.6,0.1
				l-0.4,0.4L251.3,43.5z"/>
		</g>
		<path class="st0" d="M281.9,107.5H69.3V0h212.6V107.5z M83.3,93.5h184.6V14H83.3V93.5z"/>
		<rect x="103.4" y="101.5" class="st0" width="14" height="34"/>
		<rect x="236.4" y="101.5" class="st0" width="14" height="34"/>
		<path class="st0" d="M181.4,105.1c-2.3,0-4.5-1.1-5.9-3.2c-19.1-29.3-16.8-54.8-11.5-71.1c5.7-17.6,16-28.3,16.4-28.7
			c2.7-2.8,7.1-2.8,9.9-0.1c2.8,2.7,2.8,7.1,0.1,9.9l0,0c-1.4,1.4-33.6,35.7-3.2,82.4c2.1,3.2,1.2,7.6-2,9.7
			C184,104.7,182.7,105.1,181.4,105.1z"/>
	</g>
</g>
</svg>
