<?xml version="1.0" encoding="utf-8"?>
<!-- Generator: Adobe Illustrator 22.0.0, SVG Export Plug-In . SVG Version: 6.00 Build 0)  -->
<svg version="1.1" id="Capa_1" xmlns="http://www.w3.org/2000/svg" xmlns:xlink="http://www.w3.org/1999/xlink" x="0px" y="0px"
	 viewBox="0 0 549 420" style="enable-background:new 0 0 549 420;" xml:space="preserve">
<style type="text/css">
	.st0{fill:#FFFFFF;}
</style>
<title>ritulo-furgoneta</title>
<g id="Layer_2">
	<g id="Layer_1-2">
		<path class="st0" d="M400.8,420c-42.8,0-77.6-34.8-77.6-77.6c0-42.8,34.8-77.6,77.6-77.6c42.8,0,77.6,34.8,77.6,77.6
			C478.4,385.2,443.6,420,400.8,420z M400.8,278.8c-35.1,0-63.6,28.5-63.6,63.6s28.5,63.6,63.6,63.6s63.6-28.5,63.6-63.6
			S435.9,278.8,400.8,278.8z"/>
		<path class="st0" d="M144.4,420C144.4,420,144.4,420,144.4,420c-42.8,0-77.6-34.8-77.6-77.6c0-3.7,0.2-7.4,0.8-11
			c3-20.5,13.7-38.6,30.3-51.1c16.6-12.4,37-17.6,57.6-14.7c18.5,2.7,35.4,11.9,47.6,26s19,32.1,19,50.8v0
			C222,385.2,187.2,420,144.4,420z M144.3,278.8c-13.6,0-26.9,4.4-38,12.7c-13.6,10.2-22.4,25-24.8,41.9c-0.4,3-0.6,6-0.6,9
			c0,35.1,28.5,63.6,63.6,63.6c0,0,0,0,0,0c35.1,0,63.6-28.5,63.6-63.6c0-31.4-23.5-58.4-54.5-62.9
			C150.4,279.1,147.3,278.8,144.3,278.8z"/>
		<path class="st0" d="M549,348h-78c-3.9,0-7-3.1-7-7s3.1-7,7-7h64V192h-89.7L405.5,78H308V14H14v320h59c3.9,0,7,3.1,7,7s-3.1,7-7,7
			H0V0h322v64h93.5l39.8,114H549V348z"/>
		<path class="st0" d="M321,348H215c-3.9,0-7-3.1-7-7s3.1-7,7-7h106c3.9,0,7,3.1,7,7S324.9,348,321,348z"/>
		<path class="st0" d="M416.8,192H308v-91h77L416.8,192z M322,178h75l-22-63h-53V178z"/>
		<path class="st0" d="M166,243c-55.9,0-101.3-45.4-101.3-101.3S110.1,40.4,166,40.4s101.3,45.4,101.3,101.3S221.9,243,166,243z
			 M166,54.4c-48.1,0-87.3,39.2-87.3,87.3S117.9,229,166,229s87.3-39.2,87.3-87.3S214.1,54.4,166,54.4z"/>
		<path class="st0" d="M109,197.4l5.3-42l64.1-64.1c10-10.1,26.4-10.1,36.5-0.1l0.1,0.1c10.1,10,10.1,26.4,0.1,36.5l-0.1,0.1
			l-64,64.2L109,197.4z M147.8,185.4L147.8,185.4L147.8,185.4z M127.6,161.9l-2.5,19.4l19.4-2.5l60.6-60.8c4.7-4.7,4.6-12.2,0-16.8
			l-0.1-0.1c-4.6-4.6-12.1-4.6-16.7,0.1L127.6,161.9z"/>
		<path class="st0" d="M200.2,134.7c-1.8,0-3.6-0.7-4.9-2.1l-21-21c-2.7-2.7-2.7-7.2,0-9.9c2.7-2.7,7.2-2.7,9.9,0l21,21
			c2.7,2.7,2.7,7.2,0,9.9C203.8,134,202,134.7,200.2,134.7z"/>
	</g>
</g>
</svg>
