<?xml version="1.0" encoding="utf-8"?>
<!-- Generator: Adobe Illustrator 22.0.0, SVG Export Plug-In . SVG Version: 6.00 Build 0)  -->
<svg version="1.1" id="Capa_1" xmlns="http://www.w3.org/2000/svg" xmlns:xlink="http://www.w3.org/1999/xlink" x="0px" y="0px"
	 viewBox="0 0 655 465.1" style="enable-background:new 0 0 655 465.1;" xml:space="preserve">
<style type="text/css">
	.st0{fill:#FFFFFF;}
</style>
<title>ritulo-vehicular</title>
<g id="Layer_2">
	<g id="Layer_1-2">
		<path class="st0" d="M435.6,407.6h-206c-3.9,0-7-3.1-7-7s3.1-7,7-7h206c3.9,0,7,3.1,7,7S439.5,407.6,435.6,407.6z"/>
		<path class="st0" d="M174.4,283.9c-71.5,0-129.6-58.1-129.6-129.6c0-71.5,58.1-129.6,129.6-129.6S304,82.8,304,154.3
			C304,225.8,245.9,283.9,174.4,283.9z M174.4,38.7c-63.7,0-115.6,51.9-115.6,115.6c0,63.7,51.9,115.6,115.6,115.6
			S290,218,290,154.3C290,90.5,238.1,38.7,174.4,38.7z"/>
		<path class="st0" d="M236.8,90.4c-12.3-12.3-32.3-12.2-44.5,0.1l-82.8,82.8l-6.6,51.2l51.2-6.6l82.8-82.8c5.9-6,9.2-13.9,9.2-22.3
			S242.8,96.4,236.8,90.4z M147.5,204.6l-28.4,3.6l3.6-28.4l64.9-64.9l24.8,24.8L147.5,204.6z M227,125.1l-4.7,4.7L197.5,105
			l4.7-4.7c6.8-6.8,17.9-6.8,24.8,0c3.3,3.3,5.1,7.7,5.1,12.4C232.1,117.4,230.3,121.8,227,125.1z"/>
		<path class="st0" d="M506.4,465.1c-44.2,0-80.1-38.8-80.1-86.5s35.9-86.5,80.1-86.5c44.2,0,80.1,38.8,80.1,86.5
			S550.6,465.1,506.4,465.1z M506.4,306.1c-36.4,0-66.1,32.5-66.1,72.5s29.7,72.5,66.1,72.5c36.4,0,66.1-32.5,66.1-72.5
			S542.8,306.1,506.4,306.1z"/>
		<path class="st0" d="M151.6,465.1c-47.7,0-86.5-38.8-86.5-86.5s38.8-86.5,86.5-86.5s86.5,38.8,86.5,86.5S199.3,465.1,151.6,465.1z
			 M151.6,306.1c-40,0-72.5,32.5-72.5,72.5s32.5,72.5,72.5,72.5s72.5-32.5,72.5-72.5S191.6,306.1,151.6,306.1z"/>
		<path class="st0" d="M75.3,407.5H54.8c-16.5,0-31.2-10.5-38.4-27.5C2.8,348.2-2.5,306.7,1,260c3.3-43.5,14.2-88.9,30.7-127.8
			C54.7,78.2,86,41.3,120,28.3C199.3-2.2,255.6-0.5,285.8,0.4c4.2,0.1,7.9,0.2,11,0.2c52.8,0,100.6,17.4,142,51.6
			c34.1,28.2,56.7,62,70.2,82.2c4.3,6.5,7.8,11.6,10.4,14.8c5.6,6.9,16.7,14.3,29.6,22.8c42.2,28,105.9,70.3,105.9,175.2
			c0,29-19.4,60.1-48.3,60.1h-27.2c-3.9,0-7-3.1-7-7s3.1-7,7-7h27.2c20.2,0,34.3-24.3,34.3-46.1c0-97.4-57.6-135.6-99.7-163.5
			c-13.9-9.2-25.8-17.1-32.8-25.7c-3-3.7-6.6-9.1-11.1-15.8C469.7,100.8,412,14.6,296.8,14.6c-3.3,0-7-0.1-11.4-0.2
			c-29.3-0.9-83.7-2.5-160.4,27c-30.4,11.7-59,45.9-80.4,96.3C10.5,218,4.2,315.5,29.2,374.6c5,11.7,14.8,18.9,25.6,18.9h20.5
			c3.9,0,7,3.1,7,7S79.2,407.5,75.3,407.5z"/>
		<path class="st0" d="M448.6,209.9H352c-9.9,0-17.9-10.1-19.4-24.7L319.2,58.4l5.9-1.5c18.2-4.5,46,4.9,74.2,25.1
			c29,20.7,53.8,49.3,68.1,78.4c6.6,13.4,3.5,29.4-2.2,38.6C461,206.1,455.1,209.9,448.6,209.9z M334.5,69.8l12.1,113.9
			c0.9,8.4,4.5,12.1,5.4,12.1h96.6c1.3,0,3.2-1.6,4.8-4.1c3.8-6.1,5.6-16.9,1.6-25.1c-13.4-27.1-36.6-53.8-63.7-73.2
			c-21-15-41.7-23.6-56-23.6C334.9,69.8,334.7,69.8,334.5,69.8z"/>
	</g>
</g>
</svg>
