<?xml version="1.0" encoding="utf-8"?>
<!-- Generator: Adobe Illustrator 22.0.0, SVG Export Plug-In . SVG Version: 6.00 Build 0)  -->
<svg version="1.1" id="Capa_1" xmlns="http://www.w3.org/2000/svg" xmlns:xlink="http://www.w3.org/1999/xlink" x="0px" y="0px"
	 viewBox="0 0 440.7 410" style="enable-background:new 0 0 440.7 410;" xml:space="preserve">
<style type="text/css">
	.st0{fill:#FFFFFF;}
</style>
<title>rotulo-vestimenta</title>
<g id="Layer_2">
	<g id="Layer_1-2">
		<path class="st0" d="M235.7,204.4l-0.1-0.1c-5.1-5-11.9-7.8-19-7.8c-7.2,0-13.9,2.8-18.9,7.9L130,272.1l0.1,37.9l37.9,0.1
			l67.6-67.6c0.1-0.1,0.1-0.1,0.1-0.1C246.2,231.8,246.2,214.8,235.7,204.4z M162.3,296.1l-18.1-0.1l-0.1-18.1l50.8-50.8l18.2,18.2
			L162.3,296.1z M225.9,232.5l-2.9,2.9l-18.2-18.2l2.8-2.8c2.4-2.4,5.6-3.8,9-3.8c3.4,0,6.6,1.3,9.1,3.7l0.1,0.1
			C230.8,219.3,230.9,227.5,225.9,232.5z"/>
		<path class="st0" d="M220.4,86.8c-25.5,0-44.5-7.5-56.3-22.3C145,40.6,152.3,6.9,152.6,5.5c0.9-3.8,4.6-6.1,8.4-5.3
			c3.8,0.9,6.1,4.6,5.3,8.4l0,0c-0.1,0.3-6.1,28.7,8.8,47.3c9,11.3,24.3,17,45.3,17c20.9,0,36-5.7,44.7-16.8
			c14.5-18.7,7.6-47,7.5-47.3c-0.9-3.7,1.3-7.6,5.1-8.5c3.7-0.9,7.6,1.3,8.5,5.1c0.4,1.4,8.6,35.3-10.1,59.3
			C264.6,79.3,245.8,86.8,220.4,86.8z"/>
		<path class="st0" d="M345.7,410h-249V163.1l-24.6,16.5L0,60.7L102.4,0h237.9l100.4,60.7l-71.7,119.4l-23.4-18.3V410z M110.6,396
			h221V133.2l33.6,26.1l56.3-93.8L336.4,14H106.3l-87,51.5l57.1,94.3l34.2-22.9V396z"/>
		<path class="st0" d="M181.8,369.4c-52.8,0-82.4-37.6-83.6-39.2c-2.4-3.1-1.8-7.5,1.3-9.8c3.1-2.4,7.4-1.8,9.8,1.3l0,0
			c0.3,0.3,26.8,33.8,72.6,33.8c44.8,0,94.8-38.9,94.8-94.8c0-56.7-49-94.8-94.8-94.8c-47.4,0-72.2,33.3-72.4,33.6
			c-2.3,3.1-6.7,3.8-9.8,1.5c-3.1-2.3-3.8-6.7-1.5-9.8c1.2-1.6,29.3-39.4,83.8-39.4c27.2,0,54.6,11.1,75,30.5
			c21.8,20.6,33.8,48.4,33.8,78.3c0,29.7-12.2,57.5-34.4,78.3C235.5,358.3,208.4,369.4,181.8,369.4z"/>
	</g>
</g>
</svg>
