<?xml version="1.0" encoding="utf-8"?>
<!-- Generator: Adobe Illustrator 22.0.0, SVG Export Plug-In . SVG Version: 6.00 Build 0)  -->
<svg version="1.1" id="Capa_1" xmlns="http://www.w3.org/2000/svg" xmlns:xlink="http://www.w3.org/1999/xlink" x="0px" y="0px"
	 viewBox="0 0 96.3 62" style="enable-background:new 0 0 96.3 62;" xml:space="preserve">
<style type="text/css">
	.st0{fill:#FFFFFF;}
</style>
<title>sitio-web-profesional</title>
<g id="Layer_2">
	<g id="Layer_1-2">
		<path class="st0" d="M84.8,52.2H11.1c-1.1,0-2-0.9-2-2V6.3c0-3.5,2.8-6.3,6.3-6.4h0h65c3.5,0,6.3,2.8,6.3,6.4v43.8
			C86.8,51.3,85.9,52.2,84.8,52.2z M13.1,48.2h69.7V6.3c0-1.3-1.1-2.3-2.3-2.4h-65h0c-1.3,0-2.4,1.1-2.4,2.4V48.2z"/>
		<path class="st0" d="M32.6,28.1H20.3c-1.1,0-2-0.9-2-2V13.8c0-1.1,0.9-2,2-2h12.3c1.1,0,2,0.9,2,2v12.3
			C34.6,27.2,33.7,28.1,32.6,28.1z M22.3,24.1h8.3v-8.3h-8.3V24.1z"/>
		<path class="st0" d="M54,28.1H41.7c-1.1,0-2-0.9-2-2V13.8c0-1.1,0.9-2,2-2H54c1.1,0,2,0.9,2,2v12.3C56,27.2,55.1,28.1,54,28.1z
			 M43.7,24.1H52v-8.3h-8.3V24.1z"/>
		<path class="st0" d="M75.4,28.1H63.1c-1.1,0-2-0.9-2-2V13.8c0-1.1,0.9-2,2-2h12.3c1.1,0,2,0.9,2,2v12.3
			C77.4,27.2,76.5,28.1,75.4,28.1z M65.1,24.1h8.3v-8.3h-8.3V24.1z"/>
		<path class="st0" d="M94.3,62H2c-0.8,0-1.5-0.5-1.8-1.2c-0.3-0.7-0.2-1.6,0.3-2.1l9.1-10.2c0.4-0.4,0.9-0.7,1.5-0.7c0,0,0,0,0,0
			l73.8,0.3c0.5,0,1.1,0.2,1.4,0.6l9.5,9.9c0.6,0.6,0.7,1.4,0.4,2.2C95.9,61.5,95.1,62,94.3,62z M6.5,58h83.2L84,52.1l-72-0.3
			L6.5,58z"/>
		<path class="st0" d="M32,36H20c-1.1,0-2-0.9-2-2s0.9-2,2-2h12c1.1,0,2,0.9,2,2S33.1,36,32,36z"/>
		<path class="st0" d="M26,42h-6c-1.1,0-2-0.9-2-2s0.9-2,2-2h6c1.1,0,2,0.9,2,2S27.1,42,26,42z"/>
		<path class="st0" d="M53,36H41c-1.1,0-2-0.9-2-2s0.9-2,2-2h12c1.1,0,2,0.9,2,2S54.1,36,53,36z"/>
		<path class="st0" d="M48,42h-7c-1.1,0-2-0.9-2-2s0.9-2,2-2h7c1.1,0,2,0.9,2,2S49.1,42,48,42z"/>
		<path class="st0" d="M75,36H63c-1.1,0-2-0.9-2-2s0.9-2,2-2h12c1.1,0,2,0.9,2,2S76.1,36,75,36z"/>
		<path class="st0" d="M70,42h-7c-1.1,0-2-0.9-2-2s0.9-2,2-2h7c1.1,0,2,0.9,2,2S71.1,42,70,42z"/>
	</g>
</g>
</svg>
