<svg xmlns="http://www.w3.org/2000/svg" viewBox="0 0 260.8 220.8"><title>whatsapp</title><g id="Layer_2" data-name="Layer 2"><g id="Layer_1-2" data-name="Layer 1"><circle cx="92.9" cy="92.9" r="92.9" style="stroke:#fff; fill: transparent; stroke-width:5px;"/><g id="_Group_" data-name="&lt;Group&gt;"><g id="_Group_2" data-name="&lt;Group&gt;"><path id="_Path_" data-name="&lt;Path&gt;" d="M93.4,38.9A49.54,49.54,0,0,0,51,114l-8.9,26.6,27.4-8.8A49.52,49.52,0,1,0,93.4,38.9Z" style="fill:none;stroke:#fff;stroke-miterlimit:10;stroke-width:4.946499824523926px"/></g><path id="_Path_2" data-name="&lt;Path&gt;" d="M125.2,107a3.69,3.69,0,0,0-.4-5.5l-9.7-7.4a3.75,3.75,0,0,0-4.6.1l-3.7,3.1a4.83,4.83,0,0,1-5.6.4c-4.1-2.3-15-13.3-17.4-17.4a5,5,0,0,1,.4-5.6L87.3,71a3.75,3.75,0,0,0,.1-4.6L80,56.7a3.76,3.76,0,0,0-5.5-.4l-7.7,7.5a6.82,6.82,0,0,0-1.1,8.3l7.1,12.2c8.7,11.9,13.6,17.1,24.3,24.3l12.2,7.1a6.82,6.82,0,0,0,8.3-1.1Z" style="fill:#fff"/></g></g></g></svg>