<?xml version="1.0" encoding="UTF-8"?>
<!DOCTYPE svg PUBLIC "-//W3C//DTD SVG 1.1//EN" "http://www.w3.org/Graphics/SVG/1.1/DTD/svg11.dtd">
<!-- Creator: CorelDRAW X7 -->
<svg xmlns="http://www.w3.org/2000/svg" xml:space="preserve" width="200mm" height="200mm" version="1.1" style="shape-rendering:geometricPrecision; text-rendering:geometricPrecision; image-rendering:optimizeQuality; fill-rule:evenodd; clip-rule:evenodd"
viewBox="0 0 13900 13900"
 xmlns:xlink="http://www.w3.org/1999/xlink">
 <defs>
  <style type="text/css">
   <![CDATA[
    .fil0 {fill:#666666}
   ]]>
  </style>
 </defs>
 <g id="Capa_x0020_1">
  <metadata id="CorelCorpID_0Corel-Layer"/>
  <path class="fil0" d="M6519 6415l0 861 -2889 0 0 -861 1011 0 0 -2156c-43,57 -110,115 -203,175 -92,59 -193,115 -302,167 -109,52 -222,95 -338,128 -117,33 -220,50 -310,50l0 -890c85,0 190,-27 313,-82 124,-54 245,-119 363,-195 119,-76 222,-151 310,-224 87,-74 143,-132 167,-175l975 0 0 3202 903 0zm431 -6415c-3820,0 -6950,3105 -6950,6950 0,3845 3105,6950 6950,6950 3820,0 6950,-3105 6950,-6950 0,-3845 -3130,-6950 -6950,-6950zm0 13038c-3352,0 -6087,-2736 -6087,-6088 0,-3352 2735,-6087 6087,-6087 3352,0 6088,2735 6088,6087 0,3352 -2736,6088 -6088,6088zm-3248 -4446l355 0 788 2072 -414 0 -193 -517 -723 0 -190 517 -414 0 791 -2072zm463 1272l-285 -814 -298 814 583 0zm1310 -528l0 1328 -402 0 0 -2072 312 0 1079 1360 0 -1357 403 0 0 2069 -327 0 -1065 -1328zm677 -968c-45,0 -84,-7 -117,-21 -33,-13 -63,-28 -92,-45 -28,-16 -56,-32 -84,-45 -28,-14 -58,-21 -89,-21 -33,0 -59,7 -77,21 -19,13 -33,29 -43,47 -9,17 -15,33 -17,48 -2,14 -3,23 -3,24l-216 0c0,-17 6,-47 17,-89 12,-41 31,-83 57,-125 27,-42 62,-79 105,-111 44,-32 98,-48 162,-48 45,0 83,7 116,22 32,15 62,30 90,47 28,16 56,32 85,46 28,15 59,22 94,22 35,0 63,-7 84,-20 20,-14 35,-29 46,-47 11,-17 18,-34 21,-50 3,-15 4,-25 4,-29l216 0c0,14 -6,41 -18,82 -11,41 -31,83 -59,125 -29,43 -66,82 -111,116 -46,34 -103,51 -171,51zm2030 2310c-151,0 -289,-29 -412,-89 -124,-59 -230,-138 -318,-236 -89,-98 -157,-211 -206,-337 -49,-126 -73,-256 -73,-388 0,-138 26,-270 77,-397 52,-126 123,-238 213,-335 91,-98 198,-175 323,-232 124,-58 259,-86 405,-86 150,0 287,30 410,92 124,61 229,141 317,240 87,100 155,212 204,339 48,126 73,255 73,385 0,138 -26,270 -76,395 -51,126 -121,236 -210,333 -90,96 -197,173 -321,230 -125,57 -260,86 -406,86zm-600 -1050c0,89 13,176 40,260 28,83 67,157 118,221 52,65 115,116 190,155 75,39 160,58 255,58 98,0 184,-20 259,-60 74,-39 138,-92 189,-159 52,-66 91,-140 117,-223 26,-82 39,-166 39,-252 0,-89 -14,-176 -42,-260 -28,-83 -68,-157 -120,-221 -51,-65 -114,-116 -189,-154 -75,-37 -159,-56 -253,-56 -97,0 -183,20 -259,59 -76,40 -139,93 -190,158 -50,65 -89,139 -115,222 -26,82 -39,166 -39,252zm3156 -493c-14,-14 -38,-32 -74,-55 -36,-24 -80,-47 -132,-69 -51,-22 -107,-41 -167,-57 -61,-15 -122,-23 -184,-23 -111,0 -194,20 -248,61 -55,41 -82,98 -82,172 0,43 10,78 31,107 20,28 50,53 89,74 39,21 88,41 147,58 59,18 128,36 206,56 101,27 193,56 275,87 83,31 153,70 210,117 58,47 102,103 133,168 31,65 47,145 47,240 0,111 -21,206 -63,285 -42,79 -98,142 -169,191 -71,49 -153,84 -245,106 -93,23 -189,34 -290,34 -156,0 -310,-23 -461,-70 -152,-47 -288,-113 -409,-198l178 -348c18,18 49,41 95,69 46,28 100,56 162,85 62,28 131,52 207,71 76,19 154,29 233,29 222,0 333,-71 333,-213 0,-45 -13,-82 -38,-114 -25,-31 -61,-58 -108,-81 -47,-24 -103,-45 -169,-64 -66,-20 -140,-41 -222,-65 -99,-27 -185,-56 -258,-89 -73,-32 -134,-70 -182,-113 -49,-44 -85,-95 -110,-152 -24,-57 -36,-126 -36,-206 0,-105 19,-198 58,-280 39,-81 93,-150 162,-204 69,-54 149,-96 241,-124 91,-28 189,-42 294,-42 146,0 280,23 403,68 123,46 230,100 321,162l-178 327zm-1984 -4129c237,0 458,40 662,118 204,78 379,188 526,331 147,142 262,313 345,512 83,199 125,420 125,662 0,256 -46,488 -139,697 -92,209 -222,388 -388,537 -166,150 -363,266 -590,349 -228,83 -475,125 -740,125 -370,0 -701,-79 -993,-235 -292,-157 -514,-370 -665,-641l548 -569c132,185 298,332 498,441 199,109 405,164 619,164 256,0 466,-77 630,-231 163,-154 245,-360 245,-616 0,-246 -77,-446 -231,-598 -154,-151 -350,-227 -587,-227 -157,0 -303,35 -438,106 -135,72 -243,169 -324,292l-832 0c0,-14 9,-67 28,-160 19,-92 43,-211 71,-356 29,-144 60,-306 93,-484 33,-177 69,-359 107,-544 85,-436 180,-925 284,-1466l2491 0 0 868 -1801 0 -206 1132c57,-62 141,-112 253,-150 111,-38 248,-57 409,-57z"/>
 </g>
</svg>
