<?xml version="1.0" encoding="utf-8"?>
<!-- Generator: Adobe Illustrator 19.0.1, SVG Export Plug-In . SVG Version: 6.00 Build 0)  -->
<svg version="1.1" id="Capa_1" xmlns="http://www.w3.org/2000/svg" xmlns:xlink="http://www.w3.org/1999/xlink" x="0px" y="0px"
	 viewBox="-14 138 566.9 566.9" style="enable-background:new -14 138 566.9 566.9;" xml:space="preserve">
<style type="text/css">
	.st0{fill:#666666;}
</style>
<g>
	<path class="st0" d="M270.4,138C114.6,138-13.1,264.6-13.1,421.4s126.6,283.5,283.5,283.5c155.8,0,283.5-126.6,283.5-283.5
		S426.2,138,270.4,138z M270.4,669.7c-136.7,0-248.3-111.6-248.3-248.3s111.6-248.3,248.3-248.3s248.3,111.6,248.3,248.3
		S407.1,669.7,270.4,669.7z"/>
	<path class="st0" d="M237.8,479.3c-1.8,0-3.4-0.3-4.8-0.9c-1.3-0.5-2.6-1.1-3.8-1.8c-1.1-0.7-2.3-1.3-3.4-1.8
		c-1.1-0.6-2.4-0.9-3.6-0.9c-1.3,0-2.4,0.3-3.1,0.9c-0.8,0.5-1.3,1.2-1.8,1.9c-0.4,0.7-0.6,1.3-0.7,2c-0.1,0.6-0.1,0.9-0.1,1h-8.8
		c0-0.7,0.2-1.9,0.7-3.6s1.3-3.4,2.3-5.1c1.1-1.7,2.5-3.2,4.3-4.5s4-2,6.6-2c1.8,0,3.4,0.3,4.7,0.9s2.5,1.2,3.7,1.9
		c1.1,0.7,2.3,1.3,3.5,1.9c1.1,0.6,2.4,0.9,3.8,0.9s2.6-0.3,3.4-0.8c0.8-0.6,1.4-1.2,1.9-1.9c0.4-0.7,0.7-1.4,0.9-2
		c0.1-0.6,0.2-1,0.2-1.2h8.8c0,0.6-0.2,1.7-0.7,3.3c-0.4,1.7-1.3,3.4-2.4,5.1c-1.2,1.8-2.7,3.3-4.5,4.7
		C242.9,478.6,240.6,479.3,237.8,479.3z"/>
	<g>
		<path class="st0" d="M152.4,488.4h-14.5l-32.3,84.5h16.9l7.7-21.1h29.5l7.9,21.1h16.9L152.4,488.4z M133,540.3l12.2-33.2
			l11.6,33.2H133z"/>
		<polygon class="st0" points="210.2,518.7 210.2,572.9 193.8,572.9 193.8,488.4 206.5,488.4 250.5,543.9 250.5,488.5 267,488.5 
			267,572.9 253.6,572.9 		"/>
		<path class="st0" d="M359,515.2c-2-5.2-4.8-9.7-8.3-13.8c-3.6-4-7.9-7.3-12.9-9.8s-10.6-3.8-16.7-3.8c-6,0-11.5,1.1-16.5,3.5
			c-5.1,2.3-9.5,5.5-13.2,9.5s-6.6,8.5-8.7,13.7s-3.1,10.6-3.1,16.2c0,5.4,1,10.7,3,15.8s4.8,9.7,8.4,13.7s7.9,7.2,13,9.6
			c5,2.4,10.6,3.6,16.8,3.6c6,0,11.5-1.2,16.6-3.5s9.4-5.5,13.1-9.4c3.6-4,6.5-8.4,8.6-13.6c2-5.1,3.1-10.5,3.1-16.1
			C361.9,525.6,360.9,520.3,359,515.2z M343.8,540.9c-1.1,3.4-2.7,6.4-4.8,9.1c-2.1,2.7-4.7,4.9-7.7,6.5c-3.1,1.6-6.6,2.4-10.6,2.4
			c-3.9,0-7.3-0.8-10.4-2.4c-3.1-1.6-5.6-3.7-7.7-6.3s-3.7-5.6-4.8-9c-1.1-3.4-1.6-7-1.6-10.6c0-3.5,0.5-6.9,1.6-10.3
			c1.1-3.4,2.7-6.4,4.7-9.1c2.1-2.7,4.6-4.8,7.7-6.4s6.6-2.4,10.6-2.4c3.8,0,7.3,0.8,10.3,2.3c3.1,1.5,5.6,3.6,7.7,6.3
			c2.1,2.6,3.8,5.6,4.9,9c1.1,3.4,1.7,7,1.7,10.6C345.4,534.2,344.8,537.6,343.8,540.9z"/>
		<path class="st0" d="M424.9,510.5c-0.6-0.6-1.5-1.3-3-2.2c-1.5-1-3.3-1.9-5.4-2.8s-4.4-1.7-6.8-2.3c-2.5-0.6-5-0.9-7.5-0.9
			c-4.5,0-7.9,0.8-10.1,2.5s-3.3,4-3.3,7c0,1.8,0.4,3.2,1.3,4.4c0.8,1.1,2,2.2,3.6,3c1.6,0.9,3.6,1.7,6,2.4s5.2,1.5,8.4,2.3
			c4.1,1.1,7.9,2.3,11.2,3.5c3.4,1.3,6.2,2.9,8.6,4.8c2.4,1.9,4.2,4.2,5.4,6.9c1.3,2.7,1.9,5.9,1.9,9.8c0,4.5-0.9,8.4-2.6,11.6
			c-1.7,3.2-4,5.8-6.9,7.8s-6.2,3.4-10,4.3c-3.8,0.9-7.7,1.4-11.8,1.4c-6.4,0-12.6-0.9-18.8-2.9c-6.2-1.9-11.7-4.6-16.7-8.1
			l7.3-14.2c0.7,0.7,2,1.7,3.9,2.8s4.1,2.3,6.6,3.5c2.5,1.1,5.3,2.1,8.4,2.9s6.3,1.2,9.5,1.2c9.1,0,13.6-2.9,13.6-8.7
			c0-1.8-0.5-3.3-1.5-4.6s-2.5-2.4-4.4-3.3c-1.9-1-4.2-1.8-6.9-2.6c-2.7-0.8-5.7-1.7-9.1-2.7c-4-1.1-7.5-2.3-10.5-3.6
			s-5.5-2.9-7.4-4.6c-2-1.8-3.5-3.9-4.5-6.2s-1.5-5.1-1.5-8.4c0-4.3,0.8-8.1,2.4-11.4s3.8-6.1,6.6-8.3c2.8-2.2,6.1-3.9,9.8-5.1
			c3.7-1.1,7.7-1.7,12-1.7c6,0,11.4,0.9,16.4,2.8s9.4,4.1,13.1,6.6L424.9,510.5z"/>
	</g>
	<g>
		<path class="st0" d="M167.2,289.9h-28.9v-45.6h83.2V447h-54.2V289.9H167.2z"/>
		<path class="st0" d="M416.6,374.8c0,42.6-35.8,75.1-84.3,75.1c-47.7,0-83.2-32.5-83.2-73.9c0-21.5,6.9-39,18.8-56l53.1-75.7h56
			l-43.2,61.4C385.3,301.2,416.6,337.3,416.6,374.8z M362.7,374.8c0-16.4-11-31.3-30.7-31.3c-19.1,0-30.7,14.3-30.7,31.3
			c0,16.1,11.6,31,30.7,31C351.4,405.8,362.7,390.9,362.7,374.8z"/>
	</g>
</g>
</svg>
