<svg xmlns="http://www.w3.org/2000/svg" viewBox="0 0 201.6 302.8"><title>app</title><g id="Layer_2" data-name="Layer 2"><g id="Layer_1-2" data-name="Layer 1"><path d="M179,295.8H22.6A15.62,15.62,0,0,1,7,280.2V22.6A15.62,15.62,0,0,1,22.6,7H179a15.62,15.62,0,0,1,15.6,15.6V280.2A15.62,15.62,0,0,1,179,295.8Z" style="fill:none;stroke:#cccccc;stroke-miterlimit:10;stroke-width:14px"/><line x1="77.4" y1="33.7" x2="123.6" y2="33.7" style="fill:none;stroke:#cccccc;stroke-linecap:round;stroke-linejoin:round;stroke-width:14px"/><line x1="7" y1="62.3" x2="194.6" y2="62.3" style="fill:none;stroke:#cccccc;stroke-miterlimit:10;stroke-width:14px"/><line x1="7" y1="262.3" x2="194.6" y2="262.3" style="fill:none;stroke:#cccccc;stroke-miterlimit:10;stroke-width:14px"/><rect x="39.6" y="99.5" width="31.9" height="31.9" style="fill:#cccccc"/><rect x="85.3" y="99.5" width="31.9" height="31.9" style="fill:#cccccc"/><rect x="129.5" y="99.5" width="31.9" height="31.9" style="fill:#cccccc"/><rect x="39.6" y="149.4" width="31.9" height="31.9" style="fill:#cccccc"/><rect x="85.3" y="149.4" width="31.9" height="31.9" style="fill:#cccccc"/><rect x="129.5" y="149.4" width="31.9" height="31.9" style="fill:#cccccc"/><rect x="39.6" y="199.2" width="31.9" height="31.9" style="fill:#cccccc"/><rect x="85.3" y="199.2" width="31.9" height="31.9" style="fill:#cccccc"/><rect x="129.5" y="199.2" width="31.9" height="31.9" style="fill:#cccccc"/></g></g></svg>