<?xml version="1.0" encoding="utf-8"?>
<!-- Generator: Adobe Illustrator 21.1.0, SVG Export Plug-In . SVG Version: 6.00 Build 0)  -->
<svg version="1.1" id="Layer_1" xmlns="http://www.w3.org/2000/svg" xmlns:xlink="http://www.w3.org/1999/xlink" x="0px" y="0px"
	 viewBox="0 0 500 500" style="enable-background:new 0 0 500 500;" xml:space="preserve">
<style type="text/css">
	.st0{fill:none;stroke:#ccc;stroke-width:14;stroke-miterlimit:10;}
	.st1{fill:none;stroke:#ccc;stroke-width:14;stroke-linecap:round;stroke-linejoin:round;}
	.st2{fill:#ccc;}
</style>
<g id="Layer_2_1_">
	<g id="Layer_1-2_1_">
		<path class="st0" d="M328.2,394.4H171.8c-8.6,0-15.6-7-15.6-15.6V121.2c0-8.6,7-15.6,15.6-15.6h156.4c8.6,0,15.6,7,15.6,15.6
			v257.6C343.8,387.4,336.8,394.4,328.2,394.4z"/>
		<line class="st1" x1="226.6" y1="132.3" x2="272.8" y2="132.3"/>
		<line class="st0" x1="156.2" y1="160.9" x2="343.8" y2="160.9"/>
		<line class="st0" x1="156.2" y1="360.9" x2="343.8" y2="360.9"/>
		<rect x="188.8" y="198.1" class="st2" width="31.9" height="31.9"/>
		<rect x="234.5" y="198.1" class="st2" width="31.9" height="31.9"/>
		<rect x="278.7" y="198.1" class="st2" width="31.9" height="31.9"/>
		<rect x="188.8" y="248" class="st2" width="31.9" height="31.9"/>
		<rect x="234.5" y="248" class="st2" width="31.9" height="31.9"/>
		<rect x="278.7" y="248" class="st2" width="31.9" height="31.9"/>
		<rect x="188.8" y="297.8" class="st2" width="31.9" height="31.9"/>
		<rect x="234.5" y="297.8" class="st2" width="31.9" height="31.9"/>
		<rect x="278.7" y="297.8" class="st2" width="31.9" height="31.9"/>
	</g>
</g>
</svg>
