<?xml version="1.0" encoding="utf-8"?>
<!-- Generator: Adobe Illustrator 18.1.1, SVG Export Plug-In . SVG Version: 6.00 Build 0)  -->
<svg version="1.1" id="Layer_1" xmlns="http://www.w3.org/2000/svg" xmlns:xlink="http://www.w3.org/1999/xlink" x="0px" y="0px"
	 viewBox="0 88 612 607.7" enable-background="new 0 88 612 607.7" xml:space="preserve">
<g>
	<g>
		<path fill="#666666" d="M306,694.3c-80.8,0-156.8-31.5-213.9-88.6C35,548.6,3.5,472.6,3.5,391.8S35,235.1,92.1,178
			c57.1-57.1,133.1-88.6,213.9-88.6c80.8,0,156.8,31.5,213.9,88.6c57.1,57.1,88.6,133.1,88.6,213.9S577,548.6,519.9,605.7
			C462.8,662.9,386.8,694.3,306,694.3z M306,125.6c-146.8,0-266.2,119.4-266.2,266.2C39.8,538.6,159.2,658,306,658
			c146.8,0,266.2-119.4,266.2-266.2C572.2,245.1,452.8,125.6,306,125.6z"/>
	</g>
</g>
<g>
	<g>
		<path fill="#666666" d="M451.5,555.8H199.8c-5,0-9.7-2.3-12.7-6.3c-3-4-4-9.1-2.7-13.9l66-243c1.9-7,8.2-11.8,15.4-11.8h109
			c4.5,0,8.7,1.9,11.7,5.1c3,3.3,4.6,7.6,4.2,12.1l-1.1,14.8h114c4.9,0,9.6,2.3,12.6,6.1c3,3.9,4.1,8.9,2.9,13.7l-52.1,211
			C465.3,550.8,458.9,555.8,451.5,555.8z M220.7,523.8H439l44.2-179H372.4c-4.5,0-8.7-1.9-11.7-5.1c-3-3.3-4.6-7.6-4.2-12.1
			l1.1-14.8H278L220.7,523.8z"/>
	</g>
	<g>
		<path fill="#666666" d="M195.7,551.3c-6.6,0-12.7-4.1-15-10.5L93.4,302.3c-1.8-4.9-1.1-10.4,1.9-14.7c3-4.3,7.9-6.8,13.1-6.8H161
			l-2.6-35.8c-0.3-4.4,1.2-8.8,4.2-12.1c3-3.3,7.3-5.1,11.7-5.1h294.5c4.4,0,8.6,1.8,11.6,5c3,3.2,4.6,7.4,4.4,11.8l-3.8,78
			c-0.4,8.8-7.9,15.6-16.8,15.2c-8.8-0.4-15.6-7.9-15.2-16.8l3-61.2H191.6l20,274.2c0.6,8-4.8,15.1-12.6,16.8
			C197.9,551.1,196.8,551.3,195.7,551.3z M131.3,312.8l40.1,109.5l-8-109.5H131.3z"/>
	</g>
</g>
</svg>
