<?xml version="1.0" encoding="utf-8"?>
<!-- Generator: Adobe Illustrator 22.0.0, SVG Export Plug-In . SVG Version: 6.00 Build 0)  -->
<svg version="1.1" id="Capa_1" xmlns="http://www.w3.org/2000/svg" xmlns:xlink="http://www.w3.org/1999/xlink" x="0px" y="0px"
	 viewBox="0 0 400 400" style="enable-background:new 0 0 400 400;" xml:space="preserve">
<style type="text/css">
	.st0{fill:none;stroke:#676767;stroke-width:23;stroke-miterlimit:10;}
	.st1{fill:none;stroke:#676767;stroke-width:23;stroke-linecap:round;stroke-miterlimit:10;}
	.st2{fill:#FFFFFF;}
	.st3{fill:none;stroke:#676767;stroke-width:23;stroke-linejoin:round;stroke-miterlimit:10;}
	.st4{fill:#676767;}
	.st5{fill:none;stroke:#676767;stroke-width:23;stroke-linecap:round;stroke-linejoin:round;stroke-miterlimit:10;}
</style>
<g>
	<g>
		<path class="st0" d="M256.8,168.7c5.5,4.4,12.2,7,19.5,7c18.7,0,33.9-17.3,33.9-38.6S295,98.5,276.3,98.5
			c-10.2,0-19.3,5.1-25.5,13.2"/>
		<path class="st0" d="M276.3,235.1c1,0,2,0,2.9,0c35.1,0,60.6-11.3,60.6-11.3c0-19.8-21.8-45-50.8-51"/>
	</g>
	<g>
		<path class="st0" d="M143.2,168.7c-5.5,4.4-12.2,7-19.5,7c-18.7,0-33.9-17.3-33.9-38.6s15.2-38.6,33.9-38.6
			c10.2,0,19.3,5.1,25.5,13.2"/>
		<path class="st0" d="M123.7,235.1c-1,0-2,0-2.9,0c-35.1,0-60.6-11.3-60.6-11.3c0-19.8,21.8-45,50.8-51"/>
	</g>
	<g>
		<ellipse class="st0" cx="200" cy="147.6" rx="59.8" ry="68.2"/>
		<path class="st0" d="M177.8,210.9c-51.4,11.7-90.1,61.3-90.1,85.7c0,0,55.4,23.9,117.4,23.9s107-19.9,107-19.9
			c0-34.9-38.5-79.4-89.6-89.9"/>
		<polyline class="st0" points="196.3,215.6 167.3,280.2 198,312.1 227.9,280.2 203.7,215.6 		"/>
	</g>
</g>
</svg>
