<?xml version="1.0" encoding="utf-8"?>
<!-- Generator: Adobe Illustrator 18.1.1, SVG Export Plug-In . SVG Version: 6.00 Build 0)  -->
<svg version="1.1" id="Layer_1" xmlns="http://www.w3.org/2000/svg" xmlns:xlink="http://www.w3.org/1999/xlink" x="0px" y="0px"
	 viewBox="258.8 202.3 58.2 58" enable-background="new 258.8 202.3 58.2 58" xml:space="preserve">
<g>
	<g>
		<g>
			<g>
				<path fill="#666666" d="M287.9,202.6c-15.8,0-28.7,12.9-28.7,28.7c0,9,4.1,17,10.6,22.2c0.7,0.6,1.5,1.2,2.3,1.7
					c4.5,3,9.9,4.7,15.8,4.7c5.6,0,10.9-1.6,15.3-4.4c0.8-0.5,1.6-1.1,2.3-1.6c6.7-5.3,11-13.4,11-22.6
					C316.6,215.5,303.7,202.6,287.9,202.6z M287.9,256.7c-5.5,0-10.6-1.7-14.7-4.7c1.1-3.7,3-7.6,6.1-10.2c2.5,1.6,5.5,2.6,8.7,2.6
					c3.1,0,5.9-0.9,8.3-2.4c3,2.7,4.8,6.6,5.9,10.3C298.1,255.1,293.2,256.7,287.9,256.7z M302.4,228.6L302.4,228.6L302.4,228.6
					L302.4,228.6z M274.7,228.2c1.3-0.1,3.4-0.4,5.7-1.3c2.7-1,5.7-2.9,7.7-6.1c1.2,1.9,3.5,4.5,7,6.1c1.7,0.8,3.8,1.3,6.2,1.5
					c0,0,0,0.7,0,0.7c0,0,0,0.8,0,0.8h-0.1c0,0,0-0.2,0,0c-0.1,0.8-0.5,1.2-1.1,1.8c-1.7,1.6-5.1,2-7.7,2.1c0,0,0-0.1-0.1-0.2
					c-0.7-0.8-1.9-1.4-3.3-1.4c-2.1,0-3.8,1.2-3.8,2.6c0,1.4,1.7,2.6,3.8,2.6c1.3,0,2.5-0.5,3.2-1.2c2.2-0.1,5.2-0.4,7.6-1.6
					c-2.2,4.2-6.6,7.1-11.7,7.1c-7.3,0-13.3-6-13.3-13.3C274.6,228.4,274.7,228.3,274.7,228.2z M275,225.5
					c1.3-5.8,6.5-10.2,12.6-10.3l-0.9,2.3C284.4,223.6,278,225.1,275,225.5z M288.3,215.2c6.3,0.2,11.5,4.7,12.7,10.6
					c-8.8-0.7-11.7-7.9-11.8-8.2L288.3,215.2z M304.4,250.6c-1.2-3.7-3.1-7.5-6-10.3c3.3-2.9,5.4-7.2,5.4-11.9
					c0-8.7-7.1-15.9-15.9-15.9s-15.9,7.1-15.9,15.9c0,4.6,2,8.8,5.1,11.7c-3,2.7-4.9,6.5-6.1,10.2c-5.3-4.7-8.6-11.5-8.6-19
					c0-14,11.4-25.4,25.4-25.4s25.4,11.4,25.4,25.4C313.3,239,309.8,246,304.4,250.6z"/>
			</g>
		</g>
	</g>
</g>
</svg>
