<?xml version="1.0" encoding="utf-8"?>
<!-- Generator: Adobe Illustrator 18.1.1, SVG Export Plug-In . SVG Version: 6.00 Build 0)  -->
<svg version="1.1" id="Layer_1" xmlns="http://www.w3.org/2000/svg" xmlns:xlink="http://www.w3.org/1999/xlink" x="0px" y="0px"
	 viewBox="258.8 202.3 58.2 58" enable-background="new 258.8 202.3 58.2 58" xml:space="preserve">
<g>
	<path fill="#666666" d="M280.1,250.9h8.9v-9h-8.9V250.9z M282.1,243.8h5v5.1h-5V243.8z"/>
	<rect x="293.3" y="216.9" fill="#666666" width="12.7" height="2"/>
	<rect x="293.3" y="220.8" fill="#666666" width="8.8" height="2"/>
	<rect x="293.3" y="229.6" fill="#666666" width="12.7" height="2"/>
	<rect x="293.3" y="234.5" fill="#666666" width="8.8" height="2"/>
	<rect x="293.3" y="242.3" fill="#666666" width="12.7" height="2"/>
	<rect x="293.3" y="247.2" fill="#666666" width="8.8" height="2"/>
	<path fill="#666666" d="M316.8,202.3h-36.1v3.9h-6.1V218l-9.1-9.2c-1.4-1.4-3.9-1.4-5.3,0c-1.4,1.5-1.4,3.8,0,5.3l14.4,14.5v31.7
		h38.6V255h3.7V202.3z M284.8,230.7h2.3v5.1h-5v-2.1l3.1,0.4L284.8,230.7z M280.1,231.5l-16.2-16.3l2.2-2.9l16.4,16.6l0.4,3
		L280.1,231.5z M261.5,210.2c0.7-0.7,1.8-0.7,2.5,0l0.8,0.8l-2.2,2.9l-1-1.1C260.8,212,260.8,210.9,261.5,210.2z M311.1,258.3h-34.7
		v-27.7l2.7,2.7l1,0.1v4.3h8.9v-9h-4.5l-0.1-0.7l-3.4-3.4h8v-9h-8.9v8.1l-3.7-3.7v-11.8h34.7V258.3z M282.1,222.6v-5.1h5v5.1H282.1z
		 M314.8,253.1h-1.7v-46.9h-30.5v-2h32.2V253.1z"/>
</g>
</svg>
