<?xml version="1.0" encoding="utf-8"?>
<!-- Generator: Adobe Illustrator 18.1.1, SVG Export Plug-In . SVG Version: 6.00 Build 0)  -->
<svg version="1.1" id="Layer_1" xmlns="http://www.w3.org/2000/svg" xmlns:xlink="http://www.w3.org/1999/xlink" x="0px" y="0px"
	 viewBox="0 88 612 607.7" enable-background="new 0 88 612 607.7" xml:space="preserve">
<g>
	<path fill="#666666" d="M518,179.6C461.3,122.9,386,91.7,305.8,91.7s-155.5,31.2-212.2,87.9C36.9,236.3,5.7,311.7,5.7,391.8
		c0,80.2,31.2,155.5,87.9,212.2c56.7,56.7,132.1,87.9,212.2,87.9s155.5-31.2,212.2-87.9c56.7-56.7,87.9-132.1,87.9-212.2
		C605.9,311.7,574.7,236.3,518,179.6z M305.8,654.9c-145.1,0-263.1-118-263.1-263.1c0-145.1,118-263.1,263.1-263.1
		c145.1,0,263.1,118,263.1,263.1C568.9,536.9,450.9,654.9,305.8,654.9z"/>
	<path fill="#666666" d="M466.4,246.5H138.8c-10.2,0-18.5,8.3-18.5,18.5v262c0,10.2,8.3,18.5,18.5,18.5h327.5
		c10.2,0,18.5-8.3,18.5-18.5V265C484.9,254.8,476.6,246.5,466.4,246.5z M173,508.5l46.3-99.5l64.6,87.7c2.9,4,7.3,6.6,12.2,7.3
		c4.9,0.7,9.8-0.5,13.8-3.5l29.7-22.2l29.9,30.2H173z M447.8,508.5h-26.1l-67.1-67.7c-6.5-6.6-16.8-7.3-24.2-1.8l-27.6,20.6
		l-72-97.8c-3.9-5.3-10.2-8.1-16.7-7.4c-6.5,0.6-12.2,4.7-14.9,10.6l-41.6,89.4V283.6h290.5V508.5z"/>
	<path fill="#666666" d="M371.3,417.6c31,0,56.3-25.2,56.3-56.3c0-31-25.2-56.3-56.3-56.3S315,330.3,315,361.3
		C315,392.3,340.2,417.6,371.3,417.6z M371.3,342.1c10.6,0,19.2,8.6,19.2,19.2c0,10.6-8.6,19.2-19.2,19.2s-19.2-8.6-19.2-19.2
		C352,350.7,360.7,342.1,371.3,342.1z"/>
</g>
</svg>
