<?xml version="1.0" encoding="utf-8"?>
<!-- Generator: Adobe Illustrator 18.1.1, SVG Export Plug-In . SVG Version: 6.00 Build 0)  -->
<svg version="1.1" id="Layer_1" xmlns="http://www.w3.org/2000/svg" xmlns:xlink="http://www.w3.org/1999/xlink" x="0px" y="0px"
	 viewBox="260.6 202.3 39.9 58" enable-background="new 260.6 202.3 39.9 58" xml:space="preserve">
<g>
	<path fill="#666666" d="M299.9,251.9c-2.3-1-4.7-5-6-7.3c0.1-0.2,0.3-0.3,0.4-0.5c0.4-0.6,0.5-1.4,0.5-2.1c1.1-0.4,2-1.4,2.3-2.6
		c0.3-1.1,0-2.3-0.8-3.1c0.6-0.9,0.8-1.9,0.5-3c-0.4-1.3-1.4-2.2-2.6-2.5c0-0.7-0.2-1.3-0.6-1.8c-0.3-0.4-0.6-0.7-0.9-0.9
		c-4-9.4-4.6-17.6-1.9-24.3c0.2-0.4,0.1-0.9-0.2-1.2c-0.3-0.3-0.8-0.5-1.2-0.4l-18,4.8c0,0,0,0,0,0c-0.1,0-0.2,0.1-0.3,0.1
		c0,0,0,0,0,0c-0.5,0.3-11.4,7.1-10.4,20.7c1,13.6,7.5,27.2,10.3,32.3c0.2,0.3,0.4,0.5,0.7,0.6c0.1,0,0.2,0,0.3,0
		c0.2,0,0.4-0.1,0.6-0.1l14.4-8c1.3,2.1,3,4.4,5.4,6.6c0.2,0.2,0.5,0.3,0.8,0.3c0.2,0,0.3,0,0.5-0.1c0.4-0.2,0.7-0.6,0.7-1.1l0-4.5
		l4.8,0.4c0.6,0,1.1-0.3,1.2-0.9C300.7,252.8,300.4,252.2,299.9,251.9z M293,233c0.1,0,0.2,0,0.3,0c1.2,0,1.7,1.6,0.6,2.3
		c-0.8,0.5-0.8,1.8,0.1,2.2c1.2,0.6,0.8,2.4-0.5,2.4c0,0-0.1,0-0.1,0c0,0-0.1,0-0.1,0c-0.9,0-1.5,1-1.1,1.8c0.3,0.5,0.2,0.9-0.1,1.3
		c-0.1,0-0.3,0-0.4,0.1c-0.2,0.1-0.4,0.3-0.5,0.4c-0.1,0-0.1,0-0.2,0c-0.3,0-0.5-0.1-0.8-0.3c-0.2-0.2-0.5-0.3-0.8-0.3
		c-0.6,0-1.1,0.4-1.2,1.1v0c-0.1,0.7-0.7,1.1-1.2,1.1c-0.3,0-0.6-0.1-0.9-0.4c0-0.1-0.1-0.1-0.2-0.2c-0.1-0.1-0.1-0.2-0.2-0.4
		c-0.1-0.6-0.7-0.9-1.2-0.9c-0.3,0-0.6,0.1-0.9,0.4c-0.3,0.3-0.6,0.4-0.9,0.4c-0.8,0-1.5-0.8-1.2-1.7c0.3-0.8-0.3-1.7-1.1-1.7
		c-0.1,0-0.2,0-0.2,0c-0.1,0-0.2,0-0.3,0c-1.2,0-1.7-1.6-0.6-2.3c0.8-0.5,0.8-1.8-0.1-2.2c-1.2-0.6-0.8-2.4,0.5-2.4c0,0,0.1,0,0.1,0
		c0,0,0.1,0,0.1,0c0.9,0,1.5-1,1.1-1.8c-0.5-0.9,0.2-1.8,1.1-1.8c0.3,0,0.5,0.1,0.8,0.3c0.2,0.2,0.5,0.3,0.8,0.3
		c0.6,0,1.1-0.4,1.2-1.1c0.1-0.7,0.7-1.1,1.2-1.1c0.5,0,1,0.3,1.2,0.9c0.1,0.6,0.7,0.9,1.2,0.9c0.3,0,0.6-0.1,0.9-0.4
		c0.3-0.3,0.6-0.4,0.9-0.4c0.8,0,1.5,0.8,1.2,1.7c-0.3,0.8,0.3,1.7,1.1,1.7C292.9,233,293,233,293,233z M269,211.7
		c-0.2,3.1,1.5,5.9,3.2,7.9c-5.3,1.6-7.9,5-9.2,8.3c0-0.1,0-0.2,0-0.4C262.5,219.9,266.2,214.6,269,211.7z M272.6,257.8
		c-2.3-4.4-6.3-13-8.3-22.4c0-0.1,0.1-0.3,0-0.5c0-0.5-1-11.3,10.6-13.5c0.5-0.1,0.8-0.4,0.9-0.9c0.1-0.4,0-0.9-0.4-1.2
		c-0.3-0.2-6.4-5.3-3-10.3l15.4-4.1c-1.9,6.5-1.2,14,2,22.4c-0.2,0-0.4,0.1-0.7,0.2c-0.7-0.8-1.7-1.4-2.8-1.4
		c-1.3,0-2.4,0.7-3.1,1.7c-0.3-0.1-0.6-0.1-1-0.1c-1.3,0-2.5,0.7-3.1,1.8c-0.4,0.6-0.5,1.4-0.5,2.1c-1.1,0.4-2,1.4-2.3,2.6
		c-0.3,1.1,0,2.3,0.8,3.1c-0.6,0.9-0.8,1.9-0.5,3c0.4,1.3,1.4,2.2,2.6,2.5c0,0.7,0.2,1.3,0.6,1.8c0.7,1,1.8,1.6,3,1.6
		c0.4,0,0.9-0.1,1.3-0.2c0.2,0.8,0.7,2.4,1.7,4.4L272.6,257.8z M293.3,251.4c-0.3,0-0.7,0.1-0.9,0.3c-0.2,0.2-0.4,0.5-0.4,0.9l0,2.8
		c-2.7-3-4.1-6-4.9-8c1.3,0,2.4-0.7,3-1.7c0.3,0.1,0.6,0.1,1,0.1c0.2,0,0.5,0,0.7-0.1c0.8,1.4,2.2,3.8,3.9,5.7L293.3,251.4z"/>
	<path fill="#666666" d="M286.6,230.9c-1.3,0-2.6,0.5-3.7,1.3c-1.2,1-1.9,2.4-2.1,3.9c-0.2,1.5,0.3,3,1.3,4.2
		c1.1,1.4,2.7,2.1,4.5,2.1c1.3,0,2.6-0.5,3.7-1.3c1.2-1,1.9-2.4,2.1-3.9c0.2-1.5-0.3-3-1.3-4.2C290,231.7,288.4,230.9,286.6,230.9z
		 M290,237c-0.1,0.9-0.5,1.7-1.2,2.3c-0.6,0.5-1.4,0.8-2.2,0.8c-1,0-2-0.5-2.6-1.3c-0.6-0.7-0.8-1.6-0.8-2.5s0.5-1.7,1.2-2.3
		c0.6-0.5,1.4-0.8,2.2-0.8c1,0,2,0.5,2.6,1.3C289.8,235.2,290.1,236.1,290,237z"/>
</g>
</svg>
