<?xml version="1.0" encoding="utf-8"?>
<!-- Generator: Adobe Illustrator 18.1.1, SVG Export Plug-In . SVG Version: 6.00 Build 0)  -->
<svg version="1.1" id="Layer_1" xmlns="http://www.w3.org/2000/svg" xmlns:xlink="http://www.w3.org/1999/xlink" x="0px" y="0px"
	 viewBox="1003 74 254 206.4" enable-background="new 1003 74 254 206.4" xml:space="preserve">
<g>
	<path fill="#666666" d="M1208.5,135.8c-2.5-34.2-28.2-58.7-62.3-58.7c-23.1,0-43.5,11.7-54.4,30.8c-5.5-4-11.8-6.1-18.2-6.1
		c-17.5,0-31.7,14.1-31.7,31.5c0,0.2,0,0.4,0,0.6c-21.3,5.3-37,25.4-37,48.3c0,23.1,16.1,43.5,38.2,48.6c3.9,0.9,22.4,1.2,24,1.2
		c2.2,0,4.1-1.8,4.1-4.1s-1.8-4.1-4.1-4.1c-4.4,0-19.9-0.4-22.2-1c-18.5-4.2-31.9-21.3-31.9-40.6c0-20.2,14.5-37.9,33.8-41
		c2.2-0.4,3.7-2.4,3.4-4.6c-0.1-1-0.3-2.1-0.3-3.2c0-12.9,10.6-23.4,23.6-23.4c6,0,11.9,2.6,16.6,7.3c0.9,0.9,2.3,1.4,3.6,1.1
		c1.3-0.2,2.4-1.1,3-2.3c8.8-19,27.7-30.8,49.4-30.8c30.8,0,53.6,23,54.3,54.7c0,2.2,1.9,4,4.1,4h1.8c22.3,0,40.4,17.9,40.4,39.9
		s-18.1,39.9-40.4,39.9c-2.2,0-4.1,1.8-4.1,4.1s1.8,4.1,4.1,4.1c26.8,0,48.5-21.6,48.5-48.1C1255,158,1234.4,136.9,1208.5,135.8z"/>
	<path fill="#666666" d="M1112.3,177.9c2.1-1.6,4.5-2.9,6.9-4c-0.3,3.6,1.1,7.4,3.9,10c2.3,2.2,5.3,3.3,8.5,3.3c3.4,0,6.8-1.4,9.1-4
		l13.5-14.5c4.5-4.9,4.4-12.4-0.2-17.2l-15-15.4c-2.4-2.4-5.5-3.8-8.9-3.8c-3.3,0-6.3,1.3-8.7,3.5c-3.3,3.3-4.5,8-3.3,12.2
		c-7.4,1.8-14.5,5.2-20.7,9.8c-12.4,9.2-20.4,22.8-22.7,38.1c-0.5,3.3,0.3,6.6,2.3,9.2c2,2.7,4.9,4.4,8.2,4.9
		c0.6,0.1,1.2,0.1,1.8,0.1c6.1,0,11.4-4.6,12.3-10.6C1100.6,190.9,1105.2,183.1,1112.3,177.9z M1091.3,198.4
		c-0.3,2.1-2.1,3.7-4.3,3.7c-0.2,0-0.4,0-0.6,0c-1.1-0.2-2.1-0.8-2.8-1.7c-0.7-0.9-1-2.1-0.8-3.2c1.9-13.2,8.8-24.8,19.5-32.7
		c6.7-5,14.5-8.2,22.7-9.4c1.5-0.2,2.8-1.3,3.3-2.7c0.5-1.4,0.1-3.1-0.9-4.2l-0.3-0.3c-1.7-1.7-1.6-4.4,0.1-6.1
		c0.8-0.8,1.9-1.2,3-1.2c1.2,0,2.3,0.5,3.1,1.3l15,15.4c1.6,1.7,1.6,4.3,0.1,5.9l-13.5,14.5c-0.8,0.9-1.9,1.4-3.2,1.4
		c-1.1,0-2.1-0.4-2.9-1.2c-1.7-1.6-1.8-4.4-0.2-6.1l1.4-1.5c1.2-1.3,1.4-3.1,0.6-4.6s-2.5-2.4-4.2-2.2c-6.8,0.9-13.4,3.6-18.9,7.8
		C1098.6,177.9,1092.9,187.5,1091.3,198.4z"/>
	<path fill="#666666" d="M1180.4,199.6c-0.6-0.1-1.2-0.1-1.7-0.1c-6.2,0-11.5,4.6-12.3,10.6c-1.3,8.7-5.9,16.4-12.9,21.7
		c-2.1,1.6-4.5,2.9-6.9,4c0.3-3.6-1.1-7.4-3.9-10c-2.3-2.1-5.3-3.3-8.5-3.3c-3.4,0-6.8,1.4-9.1,4l-13.5,14.5
		c-4.5,4.9-4.4,12.4,0.2,17.2l15,15.4c2.4,2.4,5.5,3.8,8.9,3.8c3.3,0,6.3-1.3,8.7-3.5c3.3-3.3,4.5-8,3.3-12.2
		c7.4-1.8,14.5-5.2,20.7-9.8c12.4-9.2,20.4-22.8,22.7-38.1c0.5-3.3-0.4-6.6-2.3-9.2C1186.6,201.8,1183.7,200.1,1180.4,199.6z
		 M1182.9,212.5c-1.9,13.2-8.8,24.8-19.5,32.7c-6.7,5-14.5,8.2-22.7,9.4c-1.5,0.2-2.8,1.3-3.3,2.7c-0.5,1.5-0.1,3.1,0.9,4.2l0.3,0.3
		c1.7,1.7,1.6,4.4-0.1,6.1c-0.8,0.8-1.9,1.2-3,1.2c-1.2,0-2.3-0.5-3.1-1.3l-15-15.4c-1.6-1.7-1.6-4.3-0.1-5.9l13.5-14.5
		c0.8-0.9,1.9-1.4,3.2-1.4c1.1,0,2.1,0.4,2.9,1.2c1.7,1.6,1.8,4.4,0.2,6.1l-1.4,1.5c-1.2,1.3-1.4,3.1-0.6,4.6s2.5,2.4,4.2,2.2
		c6.8-0.9,13.3-3.6,18.9-7.8c8.8-6.6,14.5-16.2,16.1-27c0.3-2.1,2.1-3.7,4.3-3.7c0.2,0,0.4,0,0.6,0c1.1,0.2,2.1,0.8,2.8,1.7
		C1182.8,210.2,1183.1,211.4,1182.9,212.5z"/>
</g>
</svg>
