<?xml version="1.0" encoding="utf-8"?>
<!-- Generator: Adobe Illustrator 18.1.1, SVG Export Plug-In . SVG Version: 6.00 Build 0)  -->
<svg version="1.1" id="Layer_1" xmlns="http://www.w3.org/2000/svg" xmlns:xlink="http://www.w3.org/1999/xlink" x="0px" y="0px"
	 viewBox="263.9 202.3 48 58" enable-background="new 263.9 202.3 48 58" xml:space="preserve">
<g>
	<path fill="#1d8127" d="M307.3,220.1c-0.3-0.4-0.9-0.5-1.3-0.2c0,0-0.7,0.5-1.7,1c-1-1.8-2.9-3-5.1-3c-2.2,0-4.1,1.2-5.1,3
		c-1.1-0.5-1.8-1.1-1.8-1.1c-0.4-0.3-1-0.2-1.3,0.2c-0.3,0.4-0.2,1,0.2,1.3c0.1,0.1,1,0.7,2.3,1.4c0,0.3-0.1,0.6-0.1,0.9
		c0,3.2,2.6,5.7,5.7,5.7s5.7-2.6,5.7-5.7c0-0.3,0-0.6-0.1-0.9c1.3-0.7,2.2-1.3,2.3-1.3C307.6,221.1,307.6,220.5,307.3,220.1z
		 M299.2,219.8c1.4,0,2.6,0.8,3.3,1.9c-1,0.3-2.1,0.6-3.3,0.6c-1.2,0-2.3-0.3-3.3-0.6C296.6,220.6,297.8,219.8,299.2,219.8z
		 M303.1,223.7c0,2.1-1.7,3.9-3.9,3.9c-2.1,0-3.9-1.7-3.9-3.9c0-0.1,0-0.1,0-0.2c1.2,0.4,2.5,0.7,3.9,0.7c1.4,0,2.7-0.3,3.9-0.7
		C303.1,223.5,303.1,223.6,303.1,223.7z"/>
	<path fill="#1d8127" d="M275.2,225.1c6.3,0,11.4-5.1,11.4-11.4s-5.1-11.4-11.4-11.4c-6.3,0-11.4,5.1-11.4,11.4
		S269,225.1,275.2,225.1z M275.2,204.2c5.2,0,9.5,4.3,9.5,9.5s-4.3,9.5-9.5,9.5c-5.2,0-9.5-4.3-9.5-9.5S270,204.2,275.2,204.2z"/>
	<path fill="#1d8127" d="M271.7,215.2l-1,3c-0.1,0.4-0.1,0.8,0.2,1.2c0.3,0.3,0.7,0.6,1.1,0.6c0.3,0,0.6-0.1,0.8-0.3l2.5-1.8
		l2.5,1.8c0.6,0.4,1.4,0.3,1.9-0.3c0.3-0.3,0.3-0.8,0.2-1.2l-1-2.9l2.5-1.9c0.5-0.3,0.7-0.9,0.5-1.5c-0.2-0.5-0.7-0.9-1.3-0.9h-3.1
		l-0.9-2.9c-0.2-0.6-0.7-0.9-1.3-0.9c-0.6,0-1.1,0.4-1.3,0.9l-0.9,2.9H270c-0.6,0-1.1,0.4-1.3,0.9c-0.2,0.5,0,1.1,0.5,1.5
		L271.7,215.2z M273.8,212.8c0.4,0,0.8-0.3,0.9-0.6l0.6-2l0.6,2c0.1,0.4,0.5,0.6,0.9,0.6h2.1l-1.7,1.3c-0.3,0.2-0.5,0.7-0.3,1l0.7,2
		l-1.7-1.2c-0.3-0.2-0.8-0.2-1.1,0l-1.7,1.2l0.7-2.1c0.1-0.4,0-0.8-0.3-1l-1.7-1.3H273.8z"/>
	<path fill="#1d8127" d="M288.9,233c-1.1,0-2.2,0.4-3,1.2L275,245.2c-0.1,0.1-0.2,0.3-0.3,0.5l-0.7,5.3c0,0.3,0.1,0.6,0.3,0.8
		c0.2,0.2,0.4,0.3,0.7,0.3c0,0,0.1,0,0.1,0l5.3-0.7c0.2,0,0.4-0.1,0.5-0.3l10.9-10.9c1.6-1.6,1.6-4.3,0-6
		C291.1,233.5,290,233,288.9,233z M279.9,249.6l-3.8,0.5l0.5-3.8l8.7-8.7l3.3,3.3L279.9,249.6z M290.6,238.9l-0.6,0.6l-3.3-3.3
		l0.6-0.6c0.9-0.9,2.4-0.9,3.3,0C291.5,236.5,291.5,238,290.6,238.9z"/>
	<path fill="#1d8127" d="M311.9,223.1c0-2.7-1.2-6.6-4-9.3c-2.3-2.3-5.2-3.4-8.7-3.4c-8.7,0.1-11.9,6.8-12.5,10.4
		c-0.3,1.9-0.1,3.8,0.1,5c-1.1-0.2-2.2-0.3-3.3-0.3c-9.6,0-17.4,7.8-17.4,17.4c0,9.6,7.8,17.4,17.4,17.4s17.4-7.8,17.4-17.4
		c0-2.5-0.5-4.9-1.5-7c3.3-0.1,6.2-1.2,8.5-3.3C310.4,230.2,311.9,226.6,311.9,223.1z M283.5,258.4c-8.6,0-15.5-7-15.5-15.5
		c0-8.6,7-15.5,15.5-15.5s15.5,7,15.5,15.5C299,251.4,292.1,258.4,283.5,258.4z M298.4,234c-2.1-3.6-5.5-6.3-9.6-7.6
		c-0.2-0.9-0.6-3.1-0.3-5.3c0.1-0.4,1.4-8.7,10.7-8.8c3,0,5.4,0.9,7.4,2.8c2.4,2.4,3.5,5.8,3.5,8c0,2.3-0.9,5.7-3.5,8
		C304.5,233.1,301.7,234.1,298.4,234z"/>
</g>
</svg>
