<svg xmlns="http://www.w3.org/2000/svg" viewBox="0 0 407.92 448.62"><title>desarrollo</title><g id="Layer_2" data-name="Layer 2"><g id="Layer_1-2" data-name="Layer 1"><polyline points="217.81 301.11 12.01 301.11 12.01 12.01 336.51 12.01 336.51 121.41" style="fill:none;stroke:#666;stroke-miterlimit:10;stroke-width:24.01849937438965px"/><path d="M20,20.31v54H338v-54Zm36.5,31.3a12.4,12.4,0,1,1,12.4-12.4A12.46,12.46,0,0,1,56.51,51.61Zm47.4,0a12.4,12.4,0,1,1,12.4-12.4A12.46,12.46,0,0,1,103.91,51.61Zm51.7,0A12.4,12.4,0,1,1,168,39.21,12.46,12.46,0,0,1,155.61,51.61Z" style="fill:#666"/><path d="M56.61,201.51l45.6-39.2c3.9-3.4,3.4-9.1-1.2-11.9l-48.4-29.1" style="fill:none;stroke:#666;stroke-linecap:round;stroke-miterlimit:10;stroke-width:24.01849937438965px"/><line x1="116.01" y1="199.81" x2="164.01" y2="199.81" style="fill:none;stroke:#666;stroke-linecap:round;stroke-miterlimit:10;stroke-width:23px"/><path d="M372.31,436.61H241.41a23.58,23.58,0,0,1-23.6-23.6V146.51a23.58,23.58,0,0,1,23.6-23.6h130.9a23.58,23.58,0,0,1,23.6,23.6v266.4A23.54,23.54,0,0,1,372.31,436.61Z" style="fill:none;stroke:#666;stroke-linecap:round;stroke-linejoin:round;stroke-width:24.01849937438965px"/><rect x="266.91" y="122.91" width="80" height="35.3" style="fill:#666"/><circle cx="306.91" cy="381.11" r="19.1" style="fill:#666"/></g></g></svg>