<svg xmlns="http://www.w3.org/2000/svg" viewBox="0 0 469.38 480.88"><title>diseno-conceptual</title><g id="Layer_2" data-name="Layer 2"><g id="Layer_1-2" data-name="Layer 1"><path d="M125.89,350.49H27.19a17.84,17.84,0,0,1-17.8-17.8V127.19a17.84,17.84,0,0,1,17.8-17.8h98.7a17.84,17.84,0,0,1,17.8,17.8v205.5A17.71,17.71,0,0,1,125.89,350.49Z" style="fill:none;stroke:#666;stroke-linecap:round;stroke-linejoin:round;stroke-width:18.776899337768555px"/><rect x="46.39" y="109.29" width="60.4" height="26.6" style="fill:#666"/><circle cx="76.59" cy="204.99" r="25.4" style="fill:none;stroke:#666;stroke-linecap:round;stroke-linejoin:round;stroke-width:18.776899337768555px"/><rect x="35.19" y="251.79" width="83.7" height="25.8" style="fill:#666"/><rect x="35.19" y="291.39" width="83.7" height="25.8" style="fill:#666"/><path d="M460,199.29V298a17.84,17.84,0,0,1-17.8,17.8H236.69a17.84,17.84,0,0,1-17.8-17.8v-98.7a17.84,17.84,0,0,1,17.8-17.8h205.5A17.84,17.84,0,0,1,460,199.29Z" style="fill:none;stroke:#666;stroke-linecap:round;stroke-linejoin:round;stroke-width:18.776899337768555px"/><rect x="218.89" y="218.49" width="26.6" height="60.4" style="fill:#666"/><rect x="281.29" y="219.69" width="49.3" height="41.6" style="fill:none;stroke:#666;stroke-linecap:round;stroke-linejoin:round;stroke-width:18.776899337768555px"/><rect x="371.49" y="219.69" width="49.3" height="41.6" style="fill:none;stroke:#666;stroke-linecap:round;stroke-linejoin:round;stroke-width:18.776899337768555px"/><line x1="281.79" y1="285.79" x2="327.79" y2="285.79" style="fill:none;stroke:#666;stroke-linecap:round;stroke-linejoin:round;stroke-width:19px"/><line x1="370.79" y1="285.79" x2="412.79" y2="285.79" style="fill:none;stroke:#666;stroke-linecap:round;stroke-linejoin:round;stroke-width:19px"/><polygon points="145.89 418.79 115.99 394.09 92.59 418.79 145.89 418.79" style="fill:none;stroke:#666;stroke-linecap:round;stroke-linejoin:round;stroke-width:19px"/><path d="M320.79,374.39s-16.5,97.1-113.5,97.1c-76.4,0-87.9-58.1-87.9-58.1" style="fill:none;stroke:#666;stroke-linecap:round;stroke-linejoin:round;stroke-width:18.776899337768555px"/><polygon points="351.09 111.09 325.09 131.49 296.09 111.09 351.09 111.09" style="fill:none;stroke:#666;stroke-linecap:round;stroke-linejoin:round;stroke-width:18.776899337768555px"/><path d="M323.59,109.49S310.69,9.39,210.79,9.39c-78.7,0-94.7,61.2-94.7,61.2" style="fill:none;stroke:#666;stroke-linecap:round;stroke-linejoin:round;stroke-width:18.776899337768555px"/></g></g></svg>