<?xml version="1.0" encoding="utf-8"?>
<!-- Generator: Adobe Illustrator 21.1.0, SVG Export Plug-In . SVG Version: 6.00 Build 0)  -->
<svg version="1.1" id="Layer_1" xmlns="http://www.w3.org/2000/svg" xmlns:xlink="http://www.w3.org/1999/xlink" x="0px" y="0px"
	 viewBox="0 0 500 500" style="enable-background:new 0 0 500 500;" xml:space="preserve">
<style type="text/css">
	.st0{fill:none;stroke:#434343;stroke-width:14;stroke-miterlimit:10;}
	.st1{fill:none;stroke:#434343;stroke-width:14;stroke-linecap:round;stroke-linejoin:round;}
</style>
<g id="Layer_2">
	<g id="Layer_1-2">
		<path class="st0" d="M390.1,368.6H112.9c-18.1,0-32.7-14.7-32.7-32.7V139.5c0-18.1,14.7-32.7,32.7-32.7h277.2
			c18.1,0,32.7,14.7,32.7,32.7c0,0,0,0,0,0v196.4C422.8,354,408.2,368.6,390.1,368.6L390.1,368.6z"/>
		<line class="st0" x1="417" y1="321.3" x2="83.7" y2="321.3"/>
		<line class="st1" x1="172.6" y1="410.1" x2="328.1" y2="410.1"/>
		<rect x="197.3" y="368.6" class="st0" width="108.4" height="40.1"/>
		<circle class="st0" cx="302.7" cy="273.3" r="10.7"/>
		<circle class="st0" cx="340" cy="273.3" r="10.7"/>
		<polyline class="st1" points="248.1,168 264.8,168 291.4,248 358.3,248 378.8,194.6 279.2,194.6 		"/>
		<polyline class="st1" points="280.5,190.9 309.8,161.6 340.5,189.3 		"/>
		<polyline class="st1" points="326.4,176.2 354.7,165.4 370.7,190.9 		"/>
		<line class="st1" x1="132.6" y1="188" x2="217" y2="188"/>
		<line class="st1" x1="132.6" y1="223.5" x2="217" y2="223.5"/>
		<line class="st1" x1="132.6" y1="259.1" x2="181.5" y2="259.1"/>
	</g>
</g>
</svg>
