<svg xmlns="http://www.w3.org/2000/svg" viewBox="0 0 81.12 72.28"><defs><style>.cls-1,.cls-2,.cls-4,.cls-5{fill:none;stroke:#666;}.cls-1{stroke-miterlimit:10;}.cls-1,.cls-2{stroke-width:4px;}.cls-2,.cls-4,.cls-5{stroke-linecap:round;stroke-linejoin:round;}.cls-3{fill:#666;}.cls-4{stroke-width:3px;}.cls-5{stroke-width:2.5px;}</style></defs><title>ecommerce</title><g id="Layer_2" data-name="Layer 2"><g id="Layer_1-2" data-name="Layer 1"><path class="cls-1" d="M71.75,60.94H9.37A7.37,7.37,0,0,1,2,53.57V9.37A7.37,7.37,0,0,1,9.37,2H71.75a7.37,7.37,0,0,1,7.37,7.37v44.2A7.37,7.37,0,0,1,71.75,60.94Z"/><line class="cls-1" x1="77.8" y1="50.28" x2="2.8" y2="50.28"/><line class="cls-2" x1="22.8" y1="70.28" x2="57.8" y2="70.28"/><rect class="cls-1" x="28.37" y="60.94" width="24.39" height="9.03"/><circle class="cls-3" cx="52.08" cy="39.49" r="2.4"/><circle class="cls-3" cx="60.48" cy="39.49" r="2.4"/><polyline class="cls-4" points="39.8 15.78 43.55 15.78 49.55 33.78 64.59 33.78 69.2 21.78 46.8 21.78"/><polyline class="cls-5" points="47.09 20.93 53.67 14.34 60.58 20.58"/><polyline class="cls-5" points="57.42 17.64 63.78 15.19 67.39 20.93"/><line class="cls-2" x1="13.8" y1="20.28" x2="32.8" y2="20.28"/><line class="cls-2" x1="13.8" y1="28.28" x2="32.8" y2="28.28"/><line class="cls-2" x1="13.8" y1="36.28" x2="24.8" y2="36.28"/></g></g></svg>