<?xml version="1.0" encoding="utf-8"?>
<!-- Generator: Adobe Illustrator 18.1.1, SVG Export Plug-In . SVG Version: 6.00 Build 0)  -->
<svg version="1.1" id="Layer_1" xmlns="http://www.w3.org/2000/svg" xmlns:xlink="http://www.w3.org/1999/xlink" x="0px" y="0px"
	 viewBox="260.6 202.3 64.9 58" enable-background="new 260.6 202.3 64.9 58" xml:space="preserve">
<g>
	<path fill="#666666" d="M284.6,224.4c-0.9,0-1.8,0.3-2.5,0.7c-1.1,0.7-1.8,1.7-2.1,3c-0.3,1.2-0.1,2.5,0.6,3.6
		c0.9,1.4,2.4,2.2,4,2.2c0.9,0,1.8-0.3,2.5-0.7c2.2-1.4,2.8-4.3,1.4-6.5C287.8,225.2,286.3,224.4,284.6,224.4z M286.3,231.8
		c-0.5,0.3-1.1,0.5-1.7,0.5c-1.1,0-2-0.5-2.6-1.4c-0.4-0.7-0.6-1.5-0.4-2.3c0.2-0.8,0.7-1.5,1.4-1.9c0.5-0.3,1.1-0.5,1.7-0.5
		c1.1,0,2,0.5,2.6,1.4C288.2,228.9,287.7,230.8,286.3,231.8z"/>
	<circle fill="#666666" cx="279" cy="207.5" r="1.5"/>
	<path fill="#666666" d="M274.9,223.7h-6.1c-0.5,0-0.9,0.4-0.9,0.9s0.4,0.9,0.9,0.9h6.1c0.5,0,0.9-0.4,0.9-0.9
		S275.4,223.7,274.9,223.7z"/>
	<path fill="#666666" d="M273.2,228.1h-4.4c-0.5,0-0.9,0.4-0.9,0.9c0,0.5,0.4,0.9,0.9,0.9h4.4c0.5,0,0.9-0.4,0.9-0.9
		C274.1,228.5,273.7,228.1,273.2,228.1z"/>
	<path fill="#666666" d="M273.2,232.4h-4.4c-0.5,0-0.9,0.4-0.9,0.9c0,0.5,0.4,0.9,0.9,0.9h4.4c0.5,0,0.9-0.4,0.9-0.9
		C274.1,232.8,273.7,232.4,273.2,232.4z"/>
	<path fill="#666666" d="M301.5,212.4l-4.9,1.6v-3.5h-6.8v-1.6h-6c0.1-0.7,0.2-1.3,0.2-1.8c0-2.7-2.1-4.7-5-4.7c-2.8,0-5,2-5,4.7
		c0,0.4,0.1,1.1,0.2,1.7h-5.4v1.6h-8.2v50.1h36v-2.3l4.8,1.9l24.2-9.3v-31.2L301.5,212.4z M301.5,214.2l20.4,6.3l-5.5,1.9l-19.7-6.6
		L301.5,214.2z M301.5,227.3l-4.9-1.8v-3.9l11.3,3.5L301.5,227.3z M311.4,225.7l4.1-1.4v11.4l-4.1,1.8V225.7z M310.6,224.2l-14-4.4
		v-2.4l17.2,5.7L310.6,224.2z M291.9,225.5c-0.2-0.1-0.5-0.3-0.7-0.3c0.1-0.6,0-1.3-0.3-1.9c-0.5-0.8-1.4-1.3-2.3-1.3
		c-0.3,0-0.7,0.1-1,0.2c-0.4-0.9-1.4-1.5-2.4-1.5c-1,0-1.8,0.5-2.3,1.3c-0.4-0.2-0.8-0.3-1.3-0.3c-0.9,0-1.8,0.5-2.3,1.2
		c-0.3,0.5-0.5,1.1-0.4,1.7c-1.1,0.1-1.9,0.9-2.2,1.9c-0.3,0.9,0,1.8,0.5,2.5c-0.7,0.6-1,1.6-0.8,2.5c0.2,1,1,1.8,2,2
		c-0.1,0.6,0,1.3,0.3,1.9c0.4,0.6,1,1.1,1.7,1.3v10.4c0,0.4,0.2,0.7,0.6,0.8c0.4,0.1,0.7,0,1-0.3l2.3-3.3l2.3,3.3
		c0.2,0.2,0.4,0.4,0.7,0.4c0.1,0,0.2,0,0.3,0c0.4-0.1,0.6-0.4,0.6-0.8V237c0.9,0,1.7-0.5,2.2-1.2c0.3-0.5,0.5-1.1,0.4-1.7
		c0.5-0.1,0.9-0.2,1.3-0.5v21.9H280c-0.8,0-1.5,0-2.1-0.1c-3.4-2.5-4.2-3.5-2.6-9l0.3-1.1l-1.1,0.1c-6.3,0.3-8.5-5.2-9-6.7
		c0-0.7-0.1-1.3-0.1-1.9v-20.7h3.4v2.3h21v-2.3h2.1V225.5z M290.8,230.6c0.9,0.6,0.5,1.9-0.5,1.9c-0.1,0-0.1,0-0.2,0v0
		c-0.1,0-0.1,0-0.2,0c-0.7,0-1.3,0.7-1,1.4c0.3,0.8-0.3,1.5-1,1.5c-0.1,0-0.3,0-0.4-0.1c0,0,0,0,0,0c-0.1-0.1-0.2-0.1-0.3-0.2h0
		c-0.2-0.2-0.5-0.3-0.8-0.3c-0.5,0-0.9,0.3-1,0.8c-0.1,0.5-0.6,0.8-1,0.8c-0.5,0-1-0.3-1-0.9c-0.1-0.6-0.5-0.9-1-0.9
		c-0.2,0-0.5,0.1-0.7,0.2c-0.2,0.2-0.4,0.3-0.7,0.3c-0.7,0-1.4-0.8-0.9-1.6c0.4-0.7-0.1-1.6-0.9-1.6c0,0-0.1,0-0.1,0
		c0,0-0.1,0-0.1,0c-1.1,0-1.5-1.5-0.4-2c0.8-0.4,0.8-1.4,0.1-1.8c-0.9-0.6-0.5-1.9,0.5-1.9c0.1,0,0.1,0,0.2,0c0.1,0,0.1,0,0.2,0
		c0.7,0,1.3-0.7,1-1.4c-0.3-0.8,0.3-1.5,1-1.5c0.3,0,0.5,0.1,0.8,0.3h0c0.2,0.2,0.5,0.3,0.8,0.3c0.5,0,0.9-0.3,1-0.8
		c0.1-0.5,0.6-0.8,1-0.8c0.5,0,1,0.3,1,0.9c0.1,0.6,0.5,0.9,1,0.9c0.2,0,0.5-0.1,0.7-0.2c0.2-0.2,0.4-0.3,0.7-0.3
		c0.7,0,1.4,0.8,0.9,1.6c-0.4,0.7,0.1,1.6,0.9,1.6c0,0,0.1,0,0.1,0c0,0,0.1,0,0.1,0c1.1,0,1.5,1.5,0.4,2
		C290.2,229.1,290.1,230.1,290.8,230.6z M282,236.5c0.5,0.8,1.3,1.4,2.4,1.4c0.8,0,1.4-0.3,1.9-0.8v7.1l-1.4-2.1
		c-0.3-0.5-1.1-0.5-1.4,0l-1.4,2.1V236.5z M274.8,254.9c-2.9-0.7-4.8-2.1-6-4.2l-0.3-0.6c-1.1-2-1.9-4.5-2.4-7
		c1.5,1.9,3.8,3.7,7.4,3.9C272.4,251.1,272.9,253.1,274.8,254.9z M270.6,210.6h5.8l-0.3-1.1c-0.2-0.8-0.3-1.8-0.3-2.4
		c0-1.7,1.4-3,3.2-3s3.2,1.2,3.2,2.9c0,0.6-0.1,1.7-0.3,2.4l-0.3,1.1h6.5v6.1h-17.5V210.6z M295,258.9h-32.7v-46.8h6.5v2.4h-5.1
		v22.4c0,0.6,0,1.3,0.1,1.9l0,0c0,0,0,0.1,0.1,0.2c0.3,3.8,1.3,8.6,3.2,12l0.3,0.6c2.8,4.9,8.3,5.6,12.7,5.6h13.5v-42.6h-3.8v-2.4
		h5.2V258.9z M296.6,227.3l4.5,1.6v29.3l-4.5-1.8V227.3z M302.9,257.8v-29.2l6.9-2.3v13.8l7.4-3.3v-13.1l6.6-2.2v28.2L302.9,257.8z"
		/>
</g>
</svg>
