<?xml version="1.0" encoding="utf-8"?>
<!-- Generator: Adobe Illustrator 18.1.1, SVG Export Plug-In . SVG Version: 6.00 Build 0)  -->
<svg version="1.1" id="Layer_1" xmlns="http://www.w3.org/2000/svg" xmlns:xlink="http://www.w3.org/1999/xlink" x="0px" y="0px"
	 viewBox="1062.9 -22.8 313.5 303.2" enable-background="new 1062.9 -22.8 313.5 303.2" xml:space="preserve">
<g>
	<path fill="#676767" d="M1219.6-16.9c-80.3,0-145.7,65.4-145.7,145.7s65.4,145.7,145.7,145.7s145.7-65.4,145.7-145.7
		S1300-16.9,1219.6-16.9z M1219.6,257c-70.7,0-128.2-57.5-128.2-128.2S1148.9,0.6,1219.6,0.6c70.7,0,128.2,57.5,128.2,128.2
		S1290.3,257,1219.6,257z"/>
	<path fill="#676767" d="M1288.1,119.5c6.6-7,10.6-16.4,10.6-26.7c0-21.6-17.5-39.1-39.1-39.1c-4.4,0-8.8,0.7-12.9,2.2
		c-8.1-7.2-18.8-11.6-30.5-11.6c-11.4,0-21.9,4.2-29.9,11.1c-3.7-1.1-7.5-1.7-11.4-1.7c-21.6,0-39.1,17.5-39.1,39.1
		c0,10.3,4,19.7,10.6,26.7c-12.9,11.7-22.1,30.6-22.1,46.7c0,15.2,14,26.6,36.6,30.1c3.1,4,8.2,8,16.4,11.2
		c10.4,4.1,24.2,6.3,38.8,6.3c22.5,0,45.2-5.4,55-17.2c24.1-3,39-14.5,39-30.4C1310.2,149.9,1301,131.2,1288.1,119.5z M1283.1,92.7
		c0,8.7-4.7,16.2-11.7,20.3c0,0,0,0,0,0c-3.5,2-7.5,3.2-11.8,3.2c-1.7,0-3.4-0.2-5-0.5c4.8-7.3,7.7-16,7.7-25.4
		c0-7.6-1.8-14.7-5.1-21c0.8-0.1,1.6-0.1,2.4-0.1C1272.5,69.2,1283.1,79.7,1283.1,92.7z M1246.7,90.3c0,16.8-13.7,30.5-30.5,30.5
		c-16.8,0-30.5-13.7-30.5-30.5c0-16.8,13.7-30.5,30.5-30.5C1233,59.8,1246.7,73.5,1246.7,90.3z M1174.9,69.2c0.1,0,0.2,0,0.3,0
		c-3.3,6.3-5.1,13.5-5.1,21.1c0,9.6,2.9,18.5,8,25.9c-0.9,0-2,0.1-3.2,0.1c-13,0-23.5-10.6-23.5-23.5
		C1151.3,79.7,1161.9,69.2,1174.9,69.2z M1139.9,166.1c0-11.4,7.8-28.4,19.7-37.4c4.2,1.8,8.8,2.9,13.7,3.1
		c-10.8,11.7-16.5,27.5-17.1,47.5C1147.2,176.8,1139.9,172.3,1139.9,166.1z M1216.2,198.3c-26.7,0-44.6-8-44.6-15.5
		c0-25.1,8.3-41.1,26.1-50.3c5.7,2.5,11.9,3.9,18.5,3.9c6.7,0,13-1.4,18.7-4c17.4,9.1,25.9,25.6,25.9,50.4
		C1260.8,190.3,1242.8,198.3,1216.2,198.3z M1276.2,179.8c-0.5-20.2-6.2-36.2-16.9-48c0.1,0,0.1,0,0.2,0c5.4,0,10.6-1.1,15.3-3.1
		c11.9,9,19.7,25.9,19.7,37.4C1294.6,172.8,1286.3,177.5,1276.2,179.8z"/>
</g>
</svg>
