<?xml version="1.0" encoding="utf-8"?>
<!-- Generator: Adobe Illustrator 18.1.1, SVG Export Plug-In . SVG Version: 6.00 Build 0)  -->
<svg version="1.1" id="Layer_1" xmlns="http://www.w3.org/2000/svg" xmlns:xlink="http://www.w3.org/1999/xlink" x="0px" y="0px"
	 viewBox="0 83.8 612 623.3" enable-background="new 0 83.8 612 623.3" xml:space="preserve">
<path fill="#666666" d="M519,182.5c-56.9-56.9-132.6-88.2-213-88.2c-80.5,0-156.1,31.3-213,88.2S4.7,315,4.7,395.5
	c0,80.5,31.3,156.1,88.2,213s132.6,88.2,213,88.2c80.5,0,156.1-31.3,213-88.2s88.2-132.6,88.2-213C607.3,315,575.9,239.4,519,182.5z
	 M306,660.6c-146.2,0-265.1-118.9-265.1-265.1S159.8,130.3,306,130.3s265.1,118.9,265.1,265.1S452.2,660.6,306,660.6z"/>
<g>
	<path fill="#666666" d="M476.3,246.8H145.4c-10,0-18.1,8.1-18.1,18.1v242.2c0,10,8.1,18.1,18.1,18.1h88.6v26h-15
		c-10,0-18.1,8.1-18.1,18.1s8.1,18.1,18.1,18.1h15h145.1h17.6c10,0,18.1-8.1,18.1-18.1s-8.1-18.1-18.1-18.1h-17.6v-26h97.1
		c10,0,18.1-8.1,18.1-18.1V264.9C494.3,254.9,486.2,246.8,476.3,246.8z M343,551.2h-72.8v-26H343V551.2z M458.2,489h-79H234.1h-70.5
		V283h294.7V489z"/>
	<path fill="#666666" d="M310,469.7c71.7,0,116.2-56,118.1-58.3c4-5.1,4.9-11.9,2.5-17.9c-0.3-0.8-8.5-20.7-27-40.3
		c-24.9-26.4-56.9-40.4-92.5-40.4c-35.5,0-67.8,13.9-93.4,40.2c-19,19.5-27.8,39.3-28.1,40.1c-2.7,6.1-1.8,13.1,2.3,18.4
		C193.8,413.7,238.3,469.7,310,469.7z M244.4,377.3c18.8-18.9,41.2-28.4,66.7-28.4c25.4,0,47.4,9.5,65.4,28.2
		c7,7.3,12.1,14.7,15.5,20.3c-13.1,12.8-42.5,36.2-82,36.2c-39,0-68.4-23.2-81.7-36C231.9,391.9,237.2,384.5,244.4,377.3z"/>
	<circle fill="#666666" cx="311" cy="391.2" r="41.9"/>
</g>
</svg>
