<?xml version="1.0" encoding="utf-8"?>
<!-- Generator: Adobe Illustrator 18.1.1, SVG Export Plug-In . SVG Version: 6.00 Build 0)  -->
<svg version="1.1" id="Layer_1" xmlns="http://www.w3.org/2000/svg" xmlns:xlink="http://www.w3.org/1999/xlink" x="0px" y="0px"
	 viewBox="258.8 202.3 58.2 58" enable-background="new 258.8 202.3 58.2 58" xml:space="preserve">
<g>
	<g>
		<path fill="#666666" d="M287.9,259.4c-15.5,0-28.1-12.6-28.1-28.1s12.6-28.1,28.1-28.1s28.1,12.6,28.1,28.1
			S303.4,259.4,287.9,259.4z M287.9,206.6c-13.6,0-24.7,11.1-24.7,24.7s11.1,24.7,24.7,24.7s24.7-11.1,24.7-24.7
			S301.5,206.6,287.9,206.6z"/>
	</g>
	<g>
		<path fill="#666666" d="M287.8,248.5c-0.3,0-0.7-0.1-1-0.3c-1.7-1.2-16.9-12.2-16.9-21.6c0-5.4,4.4-9.8,9.8-9.8
			c3.7,0,6.4,2.7,8,4.7c1.6-2.1,4.3-4.7,8.3-4.7c5.4,0,9.8,4.4,9.8,9.8c0,9.7-16.4,21.1-17.1,21.6
			C288.5,248.4,288.2,248.5,287.8,248.5z M279.7,220.1c-3.5,0-6.4,2.9-6.4,6.4c0,6,9.7,14.5,14.5,18.1c4.8-3.5,14.6-11.9,14.6-18.1
			c0-3.6-2.9-6.4-6.4-6.4c-4.3,0-6.7,5.2-6.8,5.2c-0.3,0.6-0.9,1-1.5,1c-0.6,0-1.2-0.4-1.5-0.9C286.2,225.4,283.6,220.1,279.7,220.1
			z"/>
	</g>
</g>
</svg>
