<?xml version="1.0" encoding="utf-8"?>
<!-- Generator: Adobe Illustrator 18.1.1, SVG Export Plug-In . SVG Version: 6.00 Build 0)  -->
<svg version="1.1" id="Layer_1" xmlns="http://www.w3.org/2000/svg" xmlns:xlink="http://www.w3.org/1999/xlink" x="0px" y="0px"
	 viewBox="1062.9 39.3 233.5 241.1" enable-background="new 1062.9 39.3 233.5 241.1" xml:space="preserve">
<g>
	
		<circle fill="none" stroke="#666666" stroke-width="8.3213" stroke-linecap="round" stroke-linejoin="round" stroke-miterlimit="10" cx="1238.7" cy="203" r="50.8"/>
	<g>
		
			<rect x="1219.1" y="193.2" fill="none" stroke="#666666" stroke-width="8.3213" stroke-linecap="round" stroke-linejoin="round" stroke-miterlimit="10" width="39.2" height="39.2"/>
		
			<path fill="none" stroke="#666666" stroke-width="8.3213" stroke-linecap="round" stroke-linejoin="round" stroke-miterlimit="10" d="
			M1226.9,193.2v-7.8c0-6.5,5.3-11.8,11.8-11.8l0,0c6.5,0,11.8,5.3,11.8,11.8v7.8"/>
		<circle fill="#666666" cx="1238.7" cy="212.8" r="4.8"/>
	</g>
	
		<polyline fill="none" stroke="#666666" stroke-width="8.3213" stroke-linecap="round" stroke-linejoin="round" stroke-miterlimit="10" points="
		1237.5,255.9 1237.5,272.1 1109.6,272.1 1109.6,75.7 1198.4,75.7 1237.5,110.8 1237.5,150.9 	"/>
	
		<polygon fill="none" stroke="#666666" stroke-width="9" stroke-linecap="round" stroke-linejoin="round" stroke-miterlimit="10" points="
		1196.5,110.1 1196.5,75.7 1236,110.8 	"/>
	
		<polyline fill="none" stroke="#666666" stroke-width="9" stroke-linecap="round" stroke-linejoin="round" stroke-miterlimit="10" points="
		1109,239.5 1071.5,239.5 1071.5,47.5 1196.5,47.5 1196.5,72 	"/>
	
		<line fill="none" stroke="#666666" stroke-width="9" stroke-linecap="round" stroke-linejoin="round" stroke-miterlimit="10" x1="1134" y1="135.5" x2="1205" y2="135.5"/>
	
		<line fill="none" stroke="#666666" stroke-width="9" stroke-linecap="round" stroke-linejoin="round" stroke-miterlimit="10" x1="1134" y1="164.5" x2="1167" y2="164.5"/>
	
		<line fill="none" stroke="#666666" stroke-width="9" stroke-linecap="round" stroke-linejoin="round" stroke-miterlimit="10" x1="1134" y1="197.5" x2="1167" y2="197.5"/>
	
		<line fill="none" stroke="#666666" stroke-width="9" stroke-linecap="round" stroke-linejoin="round" stroke-miterlimit="10" x1="1134" y1="226.5" x2="1167" y2="226.5"/>
</g>
</svg>
