<?xml version="1.0" encoding="utf-8"?>
<!-- Generator: Adobe Illustrator 18.1.1, SVG Export Plug-In . SVG Version: 6.00 Build 0)  -->
<svg version="1.1" id="Layer_1" xmlns="http://www.w3.org/2000/svg" xmlns:xlink="http://www.w3.org/1999/xlink" x="0px" y="0px"
	 viewBox="1062.9 -22.8 313.5 303.2" enable-background="new 1062.9 -22.8 313.5 303.2" xml:space="preserve">
<g>
	<path fill="#666666" d="M1219.6-20.6c-82.4,0-149.4,67-149.4,149.4c0,82.4,67,149.4,149.4,149.4s149.4-67,149.4-149.4
		C1369,46.4,1302-20.6,1219.6-20.6z M1219.6,260.2c-72.5,0-131.5-59-131.5-131.5s59-131.5,131.5-131.5s131.5,59,131.5,131.5
		S1292.1,260.2,1219.6,260.2z"/>
	<path fill="#666666" d="M1219.6,33.4c-52.6,0-95.4,42.8-95.4,95.4c0,52.6,42.8,95.4,95.4,95.4s95.4-42.8,95.4-95.4
		C1315,76.2,1272.2,33.4,1219.6,33.4z M1219.6,208.2c-7.6,0-17.6-15.5-22.9-41.6h45.8C1237.3,192.8,1227.2,208.2,1219.6,208.2z
		 M1194.3,150.7c-0.7-6.8-1.1-14.1-1.1-21.9c0-5.3,0.2-10.4,0.6-15.3h51.7c0.4,4.9,0.6,10,0.6,15.3c0,7.8-0.4,15.1-1.1,21.9H1194.3z
		 M1140.2,128.8c0-5.2,0.5-10.4,1.5-15.3h36.1c-0.3,5-0.5,10.1-0.5,15.3c0,7.5,0.4,14.8,1,21.9h-35
		C1141.3,143.7,1140.2,136.4,1140.2,128.8z M1219.6,49.3c8.2,0,19.3,18.1,24.1,48.2h-48.1C1200.3,67.4,1211.4,49.3,1219.6,49.3z
		 M1261.5,113.5h36.1c1,5,1.5,10.1,1.5,15.3c0,7.6-1.1,14.9-3.1,21.9h-35c0.7-7.1,1-14.4,1-21.9
		C1262,123.6,1261.8,118.5,1261.5,113.5z M1292.6,97.5h-32.8c-1.8-12.4-4.6-23.8-8.4-33.5c-1.4-3.6-3-6.9-4.6-9.9
		C1267.4,61.6,1284,77.4,1292.6,97.5z M1192.5,54.1c-1.6,3-3.2,6.3-4.6,9.9c-3.8,9.7-6.7,21.1-8.4,33.5h-32.8
		C1155.2,77.4,1171.9,61.6,1192.5,54.1z M1149.8,166.6h30.7c1.8,9.9,4.3,19,7.4,26.9c1.4,3.6,3,6.9,4.6,9.9
		C1174.2,196.8,1159,183.6,1149.8,166.6z M1246.8,203.5c1.6-3,3.2-6.3,4.6-9.9c3.1-7.9,5.6-17,7.4-26.9h30.7
		C1280.3,183.6,1265.1,196.8,1246.8,203.5z"/>
</g>
</svg>
