<?xml version="1.0" encoding="utf-8"?>
<!-- Generator: Adobe Illustrator 18.1.1, SVG Export Plug-In . SVG Version: 6.00 Build 0)  -->
<svg version="1.1" id="Layer_1" xmlns="http://www.w3.org/2000/svg" xmlns:xlink="http://www.w3.org/1999/xlink" x="0px" y="0px"
	 viewBox="260.6 202.3 56.1 58" enable-background="new 260.6 202.3 56.1 58" xml:space="preserve">
<path fill="#666666" d="M316.4,218.5c-0.3-0.3-0.8-0.4-1.3-0.2l-3.5,1.8c-2.1-10.3-11.4-18-22.2-18c-12.7,0-22.2,9.5-22.7,22.7
	c0,0.2,0,0.3,0,0.5l-5.1,2c-0.3,0.1-0.5,0.3-0.6,0.6c-0.1,0.3-0.1,0.6,0,0.8l14.6,31.1c0.2,0.4,0.6,0.5,1,0.5c0,0,0,0,0.1,0
	c0.2,0,0.4,0.1,0.6,0l27.3-10.7c0.3-0.1,0.5-0.3,0.6-0.6l11.6-29.3C316.8,219.3,316.7,218.8,316.4,218.5z M269.1,225
	c0.5-11.8,9-20.3,20.2-20.3c11.3,0,18.6,8.5,19.9,16.7l-13.5,7v-2.5l4.5-4.3c0,0,0.1-0.1,0.1-0.1c1.1-1.3,2.4-4.6,0-7.6
	c-0.8-1-1.9-1.6-3.1-1.8c-2.4-0.2-4.5,1.4-4.7,1.6c0,0-0.1,0.1-0.1,0.1l-14.2,14.2c-0.2,0.2-0.3,0.4-0.4,0.7l-0.9,7
	c0,0.4,0.1,0.8,0.4,1c0.2,0.2,0.5,0.4,0.9,0.4c0.1,0,0.1,0,0.2,0l2.1-0.3l-1.3,5.7C276.3,240.6,268.7,234.8,269.1,225z M282.5,227.7
	l-1.4,6.5l-1.4,0.2l0.6-5l11.4-11.4l4.1,4.4l-2.6,2.5c0,0,0,0,0,0l-9.9,1.9C282.9,227,282.6,227.3,282.5,227.7z M298.5,219.9
	l-0.8,0.8l-4.2-4.5l0.7-0.7c0.2-0.1,0.9-0.6,1.7-0.9c1.4-0.4,2.2,0.2,2.6,0.7C300.1,217.4,298.8,219.5,298.5,219.9z M276.1,256.3
	L263.4,229l3.3-1.3c1,10.4,9.6,15.9,11.9,17.2L276.1,256.3z M303.1,247.9l-25.1,10l6.4-28.9l9.1-1.8v3.1c0,0.4,0.2,0.7,0.5,0.9
	c0.3,0.2,0.7,0.2,1.1,0l18.3-9.5L303.1,247.9z"/>
</svg>
