<svg xmlns="http://www.w3.org/2000/svg" viewBox="0 0 483.3 470.6"><title>logo-y-web</title><g id="Layer_2" data-name="Layer 2"><g id="Layer_1-2" data-name="Layer 1"><path d="M436.5,399.1H98.5a39.82,39.82,0,0,1-39.9-39.9V119.7A39.82,39.82,0,0,1,98.5,79.8H436.4a39.82,39.82,0,0,1,39.9,39.9V359.2A39.86,39.86,0,0,1,436.5,399.1Z" style="fill:none;stroke:#666;stroke-linecap:round;stroke-linejoin:round;stroke-width:14px"/><line x1="472.1" y1="348.4" x2="62" y2="348.4" style="fill:none;stroke:#666;stroke-linecap:round;stroke-linejoin:round;stroke-width:14px"/><line x1="169.5" y1="463.6" x2="369.2" y2="463.6" style="fill:none;stroke:#666;stroke-linecap:round;stroke-linejoin:round;stroke-width:14px"/><rect x="201.5" y="399.1" width="132.1" height="61.1" style="fill:none;stroke:#666;stroke-linecap:round;stroke-linejoin:round;stroke-width:14px"/><circle cx="145.5" cy="145.5" r="138.5" style="fill:#fff;stroke:#666;stroke-linecap:round;stroke-miterlimit:10;stroke-width:14px"/><path d="M118.8,209.7l-45,5.8,5.8-45,91.7-91.7a27.58,27.58,0,0,1,39.2,0h0a27.58,27.58,0,0,1,0,39.2Z" style="fill:none;stroke:#666;stroke-linecap:round;stroke-miterlimit:10;stroke-width:14px"/><line x1="164.9" y1="94.2" x2="195.6" y2="125" style="fill:none;stroke:#666;stroke-linecap:round;stroke-miterlimit:10;stroke-width:14px"/><polyline points="284.7 156.4 426 156.4 426 194.8 277 194.8" style="fill:none;stroke:#666;stroke-linecap:round;stroke-miterlimit:10;stroke-width:14px"/><rect x="333.6" y="239.5" width="91.5" height="54.4" style="fill:none;stroke:#666;stroke-linecap:round;stroke-miterlimit:10;stroke-width:14px"/><polyline points="249.4 240.8 283.2 240.8 283.2 297.7 135.7 297.7" style="fill:none;stroke:#666;stroke-linecap:round;stroke-miterlimit:10;stroke-width:14px"/></g></g></svg>