<?xml version="1.0" encoding="utf-8"?>
<!-- Generator: Adobe Illustrator 18.1.1, SVG Export Plug-In . SVG Version: 6.00 Build 0)  -->
<svg version="1.1" id="Layer_1" xmlns="http://www.w3.org/2000/svg" xmlns:xlink="http://www.w3.org/1999/xlink" x="0px" y="0px"
	 viewBox="257.7 202.3 65.1 58" enable-background="new 257.7 202.3 65.1 58" xml:space="preserve">
<g>
	<path fill="#666666" d="M290.5,208.6c-12.8,0-23.2,10.4-23.2,23.2s10.4,23.2,23.2,23.2c12.8,0,23.2-10.4,23.2-23.2
		S303.3,208.6,290.5,208.6z M290.5,252.2c-11.3,0-20.4-9.2-20.4-20.4s9.2-20.4,20.4-20.4c11.3,0,20.4,9.2,20.4,20.4
		S301.7,252.2,290.5,252.2z"/>
	<path fill="#666666" d="M297.6,218.7c-1.5,0-3,0.6-4.1,1.7l-14.8,14.8l-1.2,9.3l9.3-1.2l14.8-14.8c1.1-1.1,1.7-2.5,1.7-4.1
		s-0.6-3-1.7-4.1C300.6,219.3,299.2,218.7,297.6,218.7z M285.6,240.6l-4.8,0.6l0.6-4.8l11.4-11.4l4.2,4.2L285.6,240.6z M299.7,226.5
		l-0.7,0.7l-4.2-4.2l0.7-0.7c1.1-1.1,3.1-1.1,4.2,0c0.6,0.6,0.9,1.3,0.9,2.1S300.3,226,299.7,226.5z"/>
	<path fill="#666666" d="M309.3,210.6c-0.6-0.5-1.5-0.3-1.9,0.3c-0.5,0.6-0.3,1.5,0.3,1.9c0,0,4,3.1,6.2,9.4
		c0.2,0.6,0.7,0.9,1.3,0.9c0.2,0,0.3,0,0.5-0.1c0.7-0.3,1.1-1,0.9-1.8C314,214.2,309.5,210.8,309.3,210.6z"/>
	<path fill="#666666" d="M306.1,202.6c-0.7-0.3-1.5,0-1.8,0.7c-0.3,0.7,0,1.5,0.7,1.8c4.3,2,14.3,8.3,15,23.2c0,0.7,0.6,1.3,1.4,1.3
		c0,0,0,0,0.1,0c0.8,0,1.4-0.7,1.3-1.5C321.9,211.8,310.8,204.8,306.1,202.6z"/>
	<path fill="#666666" d="M271.1,251.9c0.2,0.2,0.5,0.3,0.8,0.3c0.4,0,0.8-0.2,1.1-0.6c0.5-0.6,0.3-1.5-0.3-1.9c0,0-4-3.1-6.2-9.4
		c-0.3-0.7-1-1.1-1.8-0.9c-0.7,0.3-1.1,1-0.9,1.8C266.4,248.3,270.9,251.8,271.1,251.9z"/>
	<path fill="#666666" d="M275.5,257.4c-4.3-2-14.3-8.3-15-23.2c0-0.8-0.7-1.4-1.5-1.3c-0.8,0-1.4,0.7-1.3,1.5
		c0.8,16.5,11.9,23.4,16.6,25.6c0.2,0.1,0.4,0.1,0.6,0.1c0.5,0,1-0.3,1.3-0.8C276.5,258.6,276.2,257.7,275.5,257.4z"/>
</g>
</svg>
