<?xml version="1.0" encoding="utf-8"?>
<!-- Generator: Adobe Illustrator 21.1.0, SVG Export Plug-In . SVG Version: 6.00 Build 0)  -->
<svg version="1.1" id="Layer_1" xmlns="http://www.w3.org/2000/svg" xmlns:xlink="http://www.w3.org/1999/xlink" x="0px" y="0px"
	 viewBox="0 0 483.3 470.6" style="enable-background:new 0 0 483.3 470.6;" xml:space="preserve">
<style type="text/css">
	.st0{fill:none;stroke:#666666;stroke-width:16;stroke-linecap:round;stroke-linejoin:round;}
	.st1{fill:#FFFFFF;stroke:#666666;stroke-width:16;stroke-linecap:round;stroke-miterlimit:10;}
	.st2{fill:none;stroke:#666666;stroke-width:16;stroke-linecap:round;stroke-miterlimit:10;}
</style>
<title>logo-y-web</title>
<g id="Layer_2">
	<g id="Layer_1-2">
		<path class="st0" d="M434,398.9H100.3c-21.7,0-39.3-17.5-39.4-39.2c0-0.1,0-0.1,0-0.2V123.1c0-21.7,17.5-39.3,39.2-39.4
			c0.1,0,0.1,0,0.2,0h333.6c21.7,0,39.3,17.5,39.4,39.2c0,0.1,0,0.1,0,0.2v236.4C473.3,381.3,455.7,398.9,434,398.9z"/>
		<line class="st0" x1="469.2" y1="348.9" x2="64.3" y2="348.9"/>
		<line class="st0" x1="170.4" y1="462.6" x2="367.6" y2="462.6"/>
		<rect x="202" y="398.9" class="st0" width="130.4" height="60.3"/>
		<circle class="st1" cx="146.7" cy="148.6" r="136.7"/>
		<path class="st2" d="M120.4,211.9l-44.4,5.7l5.7-44.4l90.5-90.5c10.6-10.7,27.8-10.8,38.5-0.2c0.1,0.1,0.1,0.1,0.2,0.2l0,0
			c10.7,10.6,10.8,27.8,0.2,38.5c-0.1,0.1-0.1,0.1-0.2,0.2L120.4,211.9z"/>
		<line class="st2" x1="165.9" y1="97.9" x2="196.2" y2="128.3"/>
		<polyline class="st2" points="284.1,159.3 423.6,159.3 423.6,197.2 276.5,197.2 		"/>
		<rect x="332.4" y="241.4" class="st2" width="90.3" height="53.7"/>
		<polyline class="st2" points="249.3,242.6 282.7,242.6 282.7,298.8 137.1,298.8 		"/>
	</g>
</g>
</svg>
