<?xml version="1.0" encoding="utf-8"?>
<!-- Generator: Adobe Illustrator 22.0.0, SVG Export Plug-In . SVG Version: 6.00 Build 0)  -->
<svg version="1.1" id="Capa_1" xmlns="http://www.w3.org/2000/svg" xmlns:xlink="http://www.w3.org/1999/xlink" x="0px" y="0px"
	 viewBox="0 0 400 400" style="enable-background:new 0 0 400 400;" xml:space="preserve">
<style type="text/css">
	.st0{fill:none;stroke:#676767;stroke-width:23;stroke-miterlimit:10;}
	.st1{fill:none;stroke:#676767;stroke-width:23;stroke-linecap:round;stroke-miterlimit:10;}
	.st2{fill:#FFFFFF;}
	.st3{fill:none;stroke:#676767;stroke-width:23;stroke-linejoin:round;stroke-miterlimit:10;}
	.st4{fill:#676767;}
	.st5{fill:none;stroke:#676767;stroke-width:23;stroke-linecap:round;stroke-linejoin:round;stroke-miterlimit:10;}
</style>
<path class="st0" d="M203.2,62.6l32.3,99.5c0.5,1.4,1.7,2.3,3.2,2.3h104.6c3.3,0,4.6,4.2,2,6.1L260.7,232c-1.2,0.9-1.7,2.4-1.2,3.8
	l32.3,99.5c1,3.1-2.5,5.7-5.2,3.8L202,277.6c-1.2-0.9-2.8-0.9-4,0l-84.6,61.5c-2.6,1.9-6.2-0.7-5.2-3.8l32.3-99.5
	c0.5-1.4,0-2.9-1.2-3.8l-84.6-61.5c-2.6-1.9-1.3-6.1,2-6.1h104.6c1.5,0,2.8-0.9,3.2-2.3l32.3-99.5C197.8,59.5,202.2,59.5,203.2,62.6
	z"/>
</svg>
