<?xml version="1.0" encoding="utf-8"?>
<!-- Generator: Adobe Illustrator 18.1.1, SVG Export Plug-In . SVG Version: 6.00 Build 0)  -->
<svg version="1.1" id="Layer_1" xmlns="http://www.w3.org/2000/svg" xmlns:xlink="http://www.w3.org/1999/xlink" x="0px" y="0px"
	 viewBox="0 0 500 500" enable-background="new 0 0 500 500" xml:space="preserve">
<g>
	<g>
		
			<path fill="none" stroke="#CCCCCC" stroke-width="14.7966" stroke-linecap="round" stroke-linejoin="round" stroke-miterlimit="10" d="
			M376.8,357h-220c-14.4,0-26-11.6-26-26v-24.6V175.1c0-14.4,11.6-26,26-26h220c14.4,0,26,11.6,26,26V331
			C402.8,345.4,391.1,357,376.8,357z"/>
		
			<line fill="none" stroke="#CCCCCC" stroke-width="14" stroke-linecap="round" stroke-linejoin="round" stroke-miterlimit="10" x1="400" y1="324" x2="133" y2="324"/>
		
			<line fill="none" stroke="#CCCCCC" stroke-width="14" stroke-linecap="round" stroke-linejoin="round" stroke-miterlimit="10" x1="203" y1="399" x2="333" y2="399"/>
		
			<rect x="223.8" y="357" fill="none" stroke="#CCCCCC" stroke-width="14.7966" stroke-linecap="round" stroke-linejoin="round" stroke-miterlimit="10" width="86" height="39.8"/>
	</g>
	<g>
		
			<circle fill="#FFFFFF" stroke="#CCCCCC" stroke-width="14.7966" stroke-linecap="round" stroke-miterlimit="10" cx="187.4" cy="191.9" r="90.2"/>
		<g>
			<path fill="none" stroke="#CCCCCC" stroke-width="14.7966" stroke-linecap="round" stroke-miterlimit="10" d="M170,233.7
				l-29.3,3.8l3.8-29.3l59.7-59.7c7.1-7.1,18.5-7.1,25.5,0l0,0c7.1,7.1,7.1,18.5,0,25.5L170,233.7z"/>
			
				<line fill="none" stroke="#CCCCCC" stroke-width="14.7966" stroke-linecap="round" stroke-miterlimit="10" x1="200" y1="158.5" x2="220" y2="178.6"/>
		</g>
	</g>
	<polyline fill="none" stroke="#CCCCCC" stroke-width="14" stroke-linecap="round" stroke-miterlimit="10" points="278,199 370,199 
		370,224 273,224 	"/>
	
		<rect x="309.8" y="253.1" fill="none" stroke="#CCCCCC" stroke-width="14.7966" stroke-linecap="round" stroke-miterlimit="10" width="59.6" height="35.4"/>
	<polyline fill="none" stroke="#CCCCCC" stroke-width="14" stroke-linecap="round" stroke-miterlimit="10" points="255,254 277,254 
		277,291 181,291 	"/>
</g>
</svg>
