<?xml version="1.0" encoding="utf-8"?>
<!-- Generator: Adobe Illustrator 18.1.1, SVG Export Plug-In . SVG Version: 6.00 Build 0)  -->
<svg version="1.1" id="Layer_1" xmlns="http://www.w3.org/2000/svg" xmlns:xlink="http://www.w3.org/1999/xlink" x="0px" y="0px"
	 viewBox="1051.7 39.3 244.7 241.1" enable-background="new 1051.7 39.3 244.7 241.1" xml:space="preserve">
<g>
	<path fill="#666666" d="M1175.7,44.7h-3.4c-63.9,0-115.8,52-115.8,115.8v110.7c0,2.1,1.7,3.8,3.8,3.8h227.5c2.1,0,3.8-1.7,3.8-3.8
		V160.5C1291.5,96.6,1239.6,44.7,1175.7,44.7z M1239.9,267.5h-15.6v-43.1c0-2.1-1.7-3.8-3.8-3.8h-17.4h-2.2v-43.1
		c0-2.1-1.7-3.8-3.8-3.8h-17.4h-12h-17.4c-2.1,0-3.8,1.7-3.8,3.8v43.1h-2.2h-17.4c-2.1,0-3.8,1.7-3.8,3.8v43.1h-15v-127h131.9V267.5
		z M1130.7,267.5v-39.3h9.9v14.1c0,2.1,1.7,3.8,3.8,3.8h12c2.1,0,3.8-1.7,3.8-3.8v-14.1h9.9v39.3H1130.7z M1171.5,181.3h4.5v10.4
		h-4.5V181.3z M1167.7,199.3h12c2.1,0,3.8-1.7,3.8-3.8v-14.1h9.9v39.3h-2.2h-17.4h-17.4h-2.2v-39.3h9.9v14.1
		C1163.9,197.6,1165.6,199.3,1167.7,199.3z M1194.9,228.2h2.2h2.2v10.4h-4.5V228.2z M1150.3,228.2h2.2v10.4h-4.5v-10.4H1150.3z
		 M1177.5,267.5v-39.3h9.9v14.1c0,2.1,1.7,3.8,3.8,3.8h12c2.1,0,3.8-1.7,3.8-3.8v-14.1h9.9v39.3H1177.5z M1284,267.5h-36.5V136.7
		c0-2.1-1.7-3.8-3.8-3.8h-139.4c-2.1,0-3.8,1.7-3.8,3.8v130.8H1064v-107c0-59.7,48.6-108.3,108.3-108.3h3.4
		c59.7,0,108.3,48.6,108.3,108.3V267.5z"/>
	<path fill="#666666" d="M1135.6,93.1h-31.3c-2.1,0-3.8,1.7-3.8,3.8v14.5c0,2.1,1.7,3.8,3.8,3.8h31.3c2.1,0,3.8-1.7,3.8-3.8V96.8
		C1139.4,94.8,1137.7,93.1,1135.6,93.1z M1131.9,107.5h-23.8v-6.9h23.8V107.5z"/>
	<path fill="#666666" d="M1189.4,93.1h-31.3c-2.1,0-3.8,1.7-3.8,3.8v14.5c0,2.1,1.7,3.8,3.8,3.8h31.3c2.1,0,3.8-1.7,3.8-3.8V96.8
		C1193.2,94.8,1191.5,93.1,1189.4,93.1z M1185.6,107.5h-23.8v-6.9h23.8V107.5z"/>
	<path fill="#666666" d="M1243.2,93.1h-31.3c-2.1,0-3.8,1.7-3.8,3.8v14.5c0,2.1,1.7,3.8,3.8,3.8h31.3c2.1,0,3.8-1.7,3.8-3.8V96.8
		C1247,94.8,1245.3,93.1,1243.2,93.1z M1239.4,107.5h-23.8v-6.9h23.8V107.5z"/>
</g>
</svg>
