<?xml version="1.0" encoding="utf-8"?>
<!-- Generator: Adobe Illustrator 18.1.1, SVG Export Plug-In . SVG Version: 6.00 Build 0)  -->
<svg version="1.1" id="Layer_1" xmlns="http://www.w3.org/2000/svg" xmlns:xlink="http://www.w3.org/1999/xlink" x="0px" y="0px"
	 viewBox="1062.9 39.3 291.5 241.1" enable-background="new 1062.9 39.3 291.5 241.1" xml:space="preserve">
<g>
	<path fill="#666666" d="M1344.5,83.8c-7.9-2.9-16.2-4.9-24.9-5.9V57.8c0-2-1.2-3.9-3-4.7c-45.5-20.7-94.8,12.5-108,22.4
		c-13.1-9.9-62.5-43.1-108-22.4c-1.8,0.8-3,2.7-3,4.7v20.1c-8.7,1-17.1,3-24.9,5.9c-2,0.7-3.4,2.7-3.4,4.8v179.5
		c0,1.7,0.8,3.3,2.3,4.3c0.9,0.6,1.9,0.9,2.9,0.9c0.6,0,1.3-0.1,1.9-0.4c72.3-28.8,129.4-1.4,129.9-1.2c0,0,0.1,0,0.1,0
		c0.1,0,0.1,0.1,0.2,0.1c0,0,0.1,0,0.1,0.1c0,0,0.1,0,0.1,0c0.1,0,0.2,0.1,0.3,0.1c0.1,0,0.2,0.1,0.3,0.1c0.1,0,0.1,0,0.2,0
		c0.1,0,0.1,0,0.2,0c0.1,0,0.2,0,0.3,0c0.1,0,0.2,0,0.4,0c0,0,0.1,0,0.1,0c0,0,0.1,0,0.1,0c0.1,0,0.2,0,0.4,0c0.1,0,0.2,0,0.3,0
		c0.1,0,0.1,0,0.2,0c0,0,0.1,0,0.1,0c0.1,0,0.2-0.1,0.3-0.1c0.1,0,0.2,0,0.3-0.1c0,0,0.1,0,0.1,0c0.1,0,0.1-0.1,0.2-0.1
		c0.1,0,0.1,0,0.2-0.1c0,0,0.1,0,0.1,0c0.6-0.3,57.5-27.7,129.9,1.2c0.6,0.2,1.3,0.4,1.9,0.4c1,0,2-0.3,2.9-0.9
		c1.4-1,2.3-2.6,2.3-4.3V88.6C1347.9,86.5,1346.5,84.5,1344.5,83.8z M1309.3,61.2v163.9c-44.3-8.6-79.7,16-95.5,29.9V110.7V84.6
		C1223.4,77.3,1268.8,45.4,1309.3,61.2z M1107.9,61.2c40.5-15.9,85.9,16,95.5,23.4V255c-13.6-11.9-41.6-31.6-77.2-31.6
		c-5.9,0-12.1,0.5-18.4,1.8V61.2z M1079.6,260.6V92.3c5.7-1.9,11.7-3.2,18-4v143.3c0,1.6,0.7,3.1,2,4.1c1.3,1,2.9,1.3,4.5,0.9
		c33.6-8.8,62.8,4.8,81,17.3C1161.5,248.4,1123.7,244.9,1079.6,260.6z M1337.6,260.6c-44.1-15.8-81.8-12.3-105.4-6.8
		c18.2-12.5,47.3-26.1,80.9-17.3c1.5,0.4,3.2,0.1,4.5-0.9c1.3-1,2-2.5,2-4.1V88.3c6.2,0.8,12.2,2.1,18,4V260.6z"/>
	<path fill="#666666" d="M1131.5,137c0,0,5-0.6,11.7-0.6c13.6,0,24.5,2.6,30.5,7.2c0.9,0.7,2,1.1,3.2,1.1c0.8,0,1.5-0.2,2.3-0.5
		c1.8-0.9,2.9-2.7,2.9-4.6V96.3c0-1.8-0.9-3.4-2.4-4.3c-12.8-8.2-26.2-9.9-35.1-9.9c-8.7,0-14.7,1.6-14.9,1.7
		c-2.2,0.6-3.8,2.6-3.8,5v43.2c0,1.5,0.6,2.9,1.8,3.9C1128.5,136.7,1130,137.1,1131.5,137z M1136,92.9c2.1-0.3,5-0.6,8.4-0.6
		c7,0,17.2,1.2,27.2,6.9v31.5c-9.1-3.8-20-4.7-28.5-4.7c-2.7,0-5.2,0.1-7.2,0.2V92.9z"/>
	<path fill="#666666" d="M1128.7,169.4c0.3-0.1,26.5-10,52,12.6c1,0.9,2.2,1.3,3.4,1.3c1.4,0,2.8-0.6,3.9-1.7
		c1.9-2.1,1.7-5.4-0.4-7.3c-30.1-26.7-61.3-15-62.6-14.5c-2.7,1-4,4-2.9,6.7C1123.1,169.1,1126,170.4,1128.7,169.4z"/>
	<path fill="#666666" d="M1128.7,198.5c0.3-0.1,26.5-10,52,12.6c1,0.9,2.2,1.3,3.4,1.3c1.4,0,2.8-0.6,3.9-1.7
		c1.9-2.1,1.7-5.4-0.4-7.3c-30.2-26.8-61.3-15-62.6-14.5c-2.7,1-4,4-2.9,6.7C1123.1,198.2,1126,199.6,1128.7,198.5z"/>
	<path fill="#666666" d="M1237.2,209.2c0.7,0.4,1.5,0.6,2.3,0.6c1.1,0,2.1-0.3,3-1c0.1-0.1,14.1-10,34.3-10c2,0,4.1,0.1,6.1,0.3
		c1.4,0.1,2.9-0.3,4-1.3c1.1-1,1.7-2.4,1.7-3.8V89.4c0-2.1-1.3-4.1-3.3-4.8c-4.2-1.6-8.7-2.4-13.3-2.4c-19,0-35.1,13.4-35.8,13.9
		c-1.2,1-1.8,2.4-1.8,3.9v104.5C1234.4,206.6,1235.5,208.3,1237.2,209.2z M1244.7,102.7c4.2-3.1,15.3-10.1,27.3-10.1
		c2.2,0,4.3,0.2,6.3,0.7v95.2c-0.5,0-1,0-1.5,0c-13.9,0-25.1,3.9-32.2,7.3V102.7z"/>
</g>
</svg>
