<?xml version="1.0" encoding="utf-8"?>
<!-- Generator: Adobe Illustrator 18.1.1, SVG Export Plug-In . SVG Version: 6.00 Build 0)  -->
<svg version="1.1" id="Layer_1" xmlns="http://www.w3.org/2000/svg" xmlns:xlink="http://www.w3.org/1999/xlink" x="0px" y="0px"
	 viewBox="0 0 500 500" enable-background="new 0 0 500 500" xml:space="preserve">
<g>
	<path fill="#0088C5" d="M356.5,85.1h-213c-18.5,0-33.5,15-33.5,33.5v213c0,18.5,15,33.5,33.5,33.5h178.7l67.8,49.7v-83.2v-45.8
		V118.6C390,100.1,375,85.1,356.5,85.1z"/>
	<g>
		<path fill="#FFFFFF" d="M311,164.4H189c-10.5,0-19,8.2-19,18.2v85c0,10.1,8.5,18.2,19,18.2h122c10.5,0,19-8.2,19-18.2v-85
			C330,172.6,321.5,164.4,311,164.4L311,164.4z M311,269.8H189c-1.5,0-2.9-1-2.9-2.1v-73.8l55.2,46.6c1.1,1,2.6,1.5,4.1,1.5l9.3,0
			c1.5,0,2.9-0.5,4.1-1.5l55.2-46.6v73.8C313.9,268.8,312.5,269.8,311,269.8L311,269.8z M250,226l-53.7-45.5h107.3L250,226z
			 M250,226"/>
	</g>
</g>
</svg>
