<?xml version="1.0" encoding="utf-8"?>
<!-- Generator: Adobe Illustrator 21.1.0, SVG Export Plug-In . SVG Version: 6.00 Build 0)  -->
<svg version="1.1" id="Layer_1" xmlns="http://www.w3.org/2000/svg" xmlns:xlink="http://www.w3.org/1999/xlink" x="0px" y="0px"
	 viewBox="0 0 500 500" style="enable-background:new 0 0 500 500;" xml:space="preserve">
<style type="text/css">
	.st0{fill:none;stroke:#ccc;stroke-width:12;stroke-linecap:round;stroke-miterlimit:10;}
	.st1{fill:#ccc;}
</style>
<g id="Layer_2_1_">
	<g id="Layer_1-2_1_">
		<path class="st0" d="M269.7,105.6c0,13.3-37.2,24.1-83,24.1s-85-10.8-85-24.1s39.1-24.1,85-24.1S269.7,92.2,269.7,105.6z"/>
		<ellipse class="st1" cx="161.9" cy="104.5" rx="24.4" ry="7.1"/>
		<path class="st0" d="M120.1,291.6h-18.5v-26.5l48.5-48.5c6.2-6.2,16.3-6.2,22.5,0c0,0,0,0,0,0l0,0c6.2,6.2,6.2,16.3,0,22.5
			c0,0,0,0,0,0L120.1,291.6z"/>
		<line class="st0" x1="146.9" y1="225.5" x2="164.6" y2="243.1"/>
		<path class="st1" d="M281.9,314.6l-0.6,0.6l10.2,10.2l0.6-0.6c2.8-2.8,2.8-7.4,0-10.2c-2.6-2.8-7-3-9.8-0.4
			C282.1,314.4,282,314.5,281.9,314.6z"/>
		<polygon class="st1" points="258.2,338.4 258.2,348.5 268.4,348.6 286.7,330.2 276.5,320.1 		"/>
		<polygon class="st0" points="194.1,265.3 194.1,220.8 271.1,190 413.6,190 413.6,233.3 348.9,265.3 		"/>
		<line class="st0" x1="269.7" y1="105.9" x2="269.7" y2="190"/>
		<path class="st0" d="M101.7,105.9v249.7c0,0,35.4,23.1,103.8,8.2"/>
		<path class="st0" d="M105,184.4c8.5-14.7,72.3-34.2,100.4,36.4"/>
		<path class="st0" d="M101.7,320.9c2.8,9.7,80.2,39.8,103.8-40.2"/>
		<polyline class="st0" points="194.1,220.8 348.9,220.8 413.6,190 		"/>
		<polyline class="st0" points="205.5,265.3 205.5,398.4 348.9,398.4 401.9,363.9 401.9,245.3 		"/>
		<line class="st0" x1="348.9" y1="265.3" x2="348.9" y2="398.4"/>
		<circle class="st0" cx="275.1" cy="330.5" r="36.6"/>
		<line class="st0" x1="348.9" y1="220.8" x2="348.9" y2="265.3"/>
	</g>
</g>
</svg>
