<svg xmlns="http://www.w3.org/2000/svg" viewBox="0 0 298.6 307.5"><title>pack-identidad</title><g id="Layer_2" data-name="Layer 2"><g id="Layer_1-2" data-name="Layer 1"><polyline points="151.2 300.7 151.2 157.7 55.2 107.3" style="fill:none;stroke:#666;stroke-linecap:round;stroke-linejoin:round;stroke-width:12px"/><polygon points="250.6 109 151.6 157.7 184.1 208.1 292.6 155.6 250.6 109" style="fill:none;stroke:#666;stroke-linecap:round;stroke-linejoin:round;stroke-width:12px"/><polyline points="75.6 58.1 73 28.3 149.3 18.2 154.7 156.1" style="fill:none;stroke:#666;stroke-linecap:round;stroke-linejoin:round;stroke-width:12px"/><polyline points="65.7 113.4 49.7 64.9 115.9 50.6 151.6 157.7" style="fill:none;stroke:#666;stroke-linecap:round;stroke-linejoin:round;stroke-width:12px"/><polygon points="53.8 107.3 6 155.6 113 210.2 151.6 157.7 53.8 107.3" style="fill:none;stroke:#666;stroke-linecap:round;stroke-linejoin:round;stroke-width:12px"/><polygon points="156 155.6 199 28.8 229.1 6 235.3 40.5 204 132.1 156 155.6" style="fill:none;stroke:#666;stroke-linecap:round;stroke-linejoin:round;stroke-width:12px"/><polyline points="49.2 179.7 49.2 251.4 152 301.5 248.2 251.4 248.2 182.7" style="fill:none;stroke:#666;stroke-linecap:round;stroke-linejoin:round;stroke-width:12px"/><line x1="151.6" y1="76.6" x2="178.2" y2="85" style="fill:none;stroke:#666;stroke-linecap:round;stroke-linejoin:round;stroke-width:12px"/><line x1="218.5" y1="96.6" x2="249.4" y2="106" style="fill:none;stroke:#666;stroke-linecap:round;stroke-linejoin:round;stroke-width:12px"/></g></g></svg>