<?xml version="1.0" encoding="utf-8"?>
<!-- Generator: Adobe Illustrator 18.1.1, SVG Export Plug-In . SVG Version: 6.00 Build 0)  -->
<svg version="1.1" id="Layer_1" xmlns="http://www.w3.org/2000/svg" xmlns:xlink="http://www.w3.org/1999/xlink" x="0px" y="0px"
	 viewBox="0 0 500 500" enable-background="new 0 0 500 500" xml:space="preserve">
<g>
	
		<polyline fill="none" stroke="#CCCCCC" stroke-width="12" stroke-linecap="round" stroke-linejoin="round" stroke-miterlimit="10" points="
		252,398 252,255 156,204.6 	"/>
	
		<polygon fill="none" stroke="#CCCCCC" stroke-width="12" stroke-linecap="round" stroke-linejoin="round" stroke-miterlimit="10" points="
		351.4,206.3 252.4,255 284.9,305.4 393.4,252.9 	"/>
	
		<polyline fill="none" stroke="#CCCCCC" stroke-width="12" stroke-linecap="round" stroke-linejoin="round" stroke-miterlimit="10" points="
		176.4,155.4 173.8,125.6 250.1,115.5 255.5,253.4 	"/>
	
		<polyline fill="none" stroke="#CCCCCC" stroke-width="12" stroke-linecap="round" stroke-linejoin="round" stroke-miterlimit="10" points="
		166.5,210.7 150.5,162.2 216.7,147.9 252.4,255 	"/>
	
		<polygon fill="none" stroke="#CCCCCC" stroke-width="12" stroke-linecap="round" stroke-linejoin="round" stroke-miterlimit="10" points="
		154.6,204.6 106.8,252.9 213.8,307.5 252.4,255 	"/>
	
		<polygon fill="none" stroke="#CCCCCC" stroke-width="12" stroke-linecap="round" stroke-linejoin="round" stroke-miterlimit="10" points="
		256.8,252.9 299.8,126.1 329.9,103.3 336.1,137.8 304.8,229.4 	"/>
	
		<polyline fill="none" stroke="#CCCCCC" stroke-width="12" stroke-linecap="round" stroke-linejoin="round" stroke-miterlimit="10" points="
		150,277 150,348.7 252.8,398.8 349,348.7 349,280 	"/>
	
		<line fill="none" stroke="#CCCCCC" stroke-width="12" stroke-linecap="round" stroke-linejoin="round" stroke-miterlimit="10" x1="252.4" y1="173.9" x2="279" y2="182.3"/>
	
		<line fill="none" stroke="#CCCCCC" stroke-width="12" stroke-linecap="round" stroke-linejoin="round" stroke-miterlimit="10" x1="319.3" y1="193.9" x2="350.2" y2="203.3"/>
</g>
</svg>
