<?xml version="1.0" encoding="utf-8"?>
<!-- Generator: Adobe Illustrator 18.1.1, SVG Export Plug-In . SVG Version: 6.00 Build 0)  -->
<svg version="1.1" id="Layer_1" xmlns="http://www.w3.org/2000/svg" xmlns:xlink="http://www.w3.org/1999/xlink" x="0px" y="0px"
	 viewBox="260.6 202.3 59.1 58" enable-background="new 260.6 202.3 59.1 58" xml:space="preserve">
<g>
	<path fill="#666666" d="M302.3,216.1c-1.1,0-2.2,0.4-2.9,1.2l-10.7,10.7c-0.1,0.1-0.2,0.3-0.3,0.5l-0.7,5.3c0,0.3,0.1,0.6,0.3,0.8
		c0.2,0.2,0.4,0.3,0.6,0.3c0,0,0.1,0,0.1,0l5.3-0.7c0.2,0,0.4-0.1,0.5-0.3l10.7-10.7c0.8-0.8,1.2-1.8,1.2-2.9s-0.4-2.2-1.2-2.9
		C304.5,216.6,303.4,216.1,302.3,216.1z M293.4,232.5l-3.8,0.5l0.5-3.8l8.6-8.6l3.3,3.3L293.4,232.5z M303.9,222l-0.6,0.6l-3.3-3.3
		l0.6-0.6c0.9-0.9,2.4-0.9,3.3,0C304.9,219.6,304.9,221,303.9,222z"/>
	<path fill="#666666" d="M275.8,231.4c3.3,0,6-2.7,6-6c0-3.3-2.7-6-6-6c-3.3,0-6,2.7-6,6C269.9,228.7,272.5,231.4,275.8,231.4z
		 M275.8,221.3c2.3,0,4.1,1.9,4.1,4.1c0,2.3-1.9,4.1-4.1,4.1c-2.3,0-4.1-1.9-4.1-4.1C271.7,223.1,273.6,221.3,275.8,221.3z"/>
	<polygon fill="#666666" points="277,225.6 275.6,224.2 273.4,226.3 273.2,228 274.9,227.8 	"/>
	<path fill="#666666" d="M278.2,224.4c0.4-0.4,0.4-1,0-1.4c-0.4-0.4-1-0.4-1.4,0l-0.4,0.4l1.5,1.4L278.2,224.4z"/>
	<path fill="#666666" d="M297.7,243.8c-2.7-0.3-5.1,1.6-5.4,4.2c-0.3,2.6,1.6,5.1,4.2,5.4c0.2,0,0.4,0,0.6,0c2.4,0,4.5-1.8,4.8-4.2
		c0.2-1.3-0.2-2.5-1-3.6C300.2,244.6,299,244,297.7,243.8z M300.1,249c-0.2,1.6-1.7,2.8-3.3,2.6c-1.6-0.2-2.8-1.7-2.6-3.3
		c0.2-1.5,1.5-2.6,3-2.6c0.1,0,0.2,0,0.4,0c0.8,0.1,1.5,0.5,2,1.1C300,247.4,300.2,248.2,300.1,249z"/>
	<polygon fill="#666666" points="295.4,249 295.3,250.1 296.4,250.2 298,249 297.1,247.7 	"/>
	<path fill="#666666" d="M298.1,246.9l-0.3,0.3l0.9,1.3l0.4-0.3c0.3-0.3,0.4-0.8,0.1-1.1C298.9,246.6,298.4,246.6,298.1,246.9z"/>
	<path fill="#666666" d="M283.6,216.9h5.1c1.7,0,3.1-1.4,3.1-3.1v-5.1c0-1.7-1.4-3.1-3.1-3.1h-5.1c-1.7,0-3.1,1.4-3.1,3.1v5.1
		C280.5,215.5,281.9,216.9,283.6,216.9z M282.5,208.8c0-0.7,0.4-1.3,1.1-1.3h4.8c0.5,0,0.9,0.3,1.1,0.7c-0.1-0.2-0.3-0.3-0.6-0.3
		c-0.4,0-0.7,0.3-0.7,0.7c0,0.4,0.3,0.7,0.7,0.7c0.4,0,0.8-0.3,0.8-0.7c0,0.1,0.1,0.1,0.1,0.2v4.8c0,0.7-0.7,1.2-1.4,1.2h-4.8
		c-0.7,0-1.1-0.5-1.1-1.2V208.8z"/>
	<path fill="#666666" d="M286.3,214.2c1.5,0,2.8-1.3,2.8-2.8c0-1.5-1.3-2.8-2.8-2.8c-1.5,0-2.8,1.3-2.8,2.8
		C283.5,213,284.7,214.2,286.3,214.2z M286.3,210.4c0.5,0,1,0.4,1,1c0,0.5-0.4,1-1,1c-0.5,0-1-0.4-1-1
		C285.3,210.9,285.7,210.4,286.3,210.4z"/>
	<path fill="#666666" d="M314.1,226.5c0-0.2,0-0.5,0-0.7c0-9.5-7.7-17.1-17.1-17.1c-0.8,0-1.6,0.1-2.4,0.2c-1.1-3.6-4.5-6.3-8.5-6.3
		c-4.9,0-8.9,4-8.9,8.9c0,1.1,0.2,2.1,0.6,3.1l-12.2,3c0,0,0,0-0.1,0c0,0-0.1,0-0.1,0c0,0,0,0-0.1,0c0,0-0.1,0-0.1,0.1
		c0,0,0,0-0.1,0c0,0-0.1,0-0.1,0.1c0,0,0,0,0,0.1c0,0,0,0.1-0.1,0.1c0,0,0,0,0,0l-4.2,8c0,0,0,0,0,0c0,0.1-0.1,0.2-0.1,0.3
		c0,0,0,0,0,0c0,0.1,0,0.2,0,0.2c0,0,0,0,0,0c0,0,0,0,0,0l6.7,33c0,0.2,0.2,0.5,0.4,0.6c0.1,0.1,0.3,0.1,0.5,0.1c0.1,0,0.1,0,0.2,0
		l11.1-2.7l27.2,1.9c0,0,0,0,0.1,0c0.5,0,0.9-0.4,0.9-0.8l1.3-18.3c0-0.2-0.1-0.5-0.2-0.7c-0.2-0.2-0.4-0.3-0.6-0.3l-0.7-0.1
		c0.5-0.4,1.1-0.9,1.5-1.3c1.1,1,2.6,1.5,4.2,1.5c3.6,0,6.6-3,6.6-6.6C319.8,229.7,317.3,226.9,314.1,226.5z M286,204.3
		c3.9,0,7.1,3.2,7.1,7.1c0,3.9-3.2,7.1-7.1,7.1c-3.9,0-7.1-3.2-7.1-7.1C278.9,207.5,282.1,204.3,286,204.3z M265.4,221l0.8,3.7
		l-3,0.4L265.4,221z M268.9,258.3l-6.3-31.2l4.8-0.7c0.3,0,0.5-0.2,0.6-0.4c0.1-0.2,0.2-0.5,0.1-0.7l-1.4-6.3l11.7-2.9
		c0.8,1.2,1.8,2.2,3,2.9l3.6,17.6l-12.7,0.7c0,0,0,0,0,0c0,0-0.1,0-0.1,0c0,0,0,0-0.1,0c0,0-0.1,0-0.1,0c0,0,0,0-0.1,0
		c0,0-0.1,0-0.1,0.1c0,0,0,0-0.1,0c0,0,0,0-0.1,0.1c0,0,0,0,0,0c0,0,0,0,0,0c0,0,0,0-0.1,0.1c0,0,0,0.1-0.1,0.1c0,0,0,0,0,0
		c0,0,0,0,0,0c0,0,0,0.1,0,0.1c0,0,0,0.1,0,0.1c0,0,0,0.1,0,0.1c0,0,0,0.1,0,0.1c0,0,0,0,0,0l1,18.3c0,0.3,0.2,0.5,0.4,0.7
		L268.9,258.3z M299.5,237.8l-11.3,7L276,239L299.5,237.8z M274.2,255.6l-0.8-15.8l14.5,6.9c0.1,0.1,0.3,0.1,0.4,0.1
		c0.2,0,0.3,0,0.5-0.1l13.4-8.4l0.8,15.8L274.2,255.6z M305.9,257.6l-14.8-1.1l12.9-0.7c0.5,0,0.9-0.5,0.9-1l-0.7-13.6
		c0.2-0.1,0.4-0.2,0.6-0.3l2.3,0.2L305.9,257.6z M304.4,239.1l-0.3,0l-0.1-2.5c0,0,0,0,0,0c0,0,0-0.1,0-0.1c0,0,0-0.1,0-0.1
		c0,0,0-0.1,0-0.1c0,0,0-0.1,0-0.1c0,0,0,0,0,0c0,0,0,0,0,0c0,0,0-0.1-0.1-0.1c0,0,0,0-0.1-0.1c0,0,0,0,0,0c0,0,0,0,0,0
		c0,0-0.1,0-0.1-0.1c0,0,0,0-0.1,0c0,0-0.1,0-0.1,0c0,0,0,0-0.1,0c0,0-0.1,0-0.1,0c0,0,0,0-0.1,0c0,0-0.1,0-0.1,0c0,0,0,0,0,0
		l-16.1,0.9l-3.4-16.6c0.8,0.2,1.6,0.4,2.5,0.4c4.9,0,8.9-4,8.9-8.9c0-0.3,0-0.6,0-0.8c0.7-0.1,1.3-0.1,2-0.1
		c8.4,0,15.3,6.9,15.3,15.3c0,0.2,0,0.5,0,0.7c-3.2,0.4-5.7,3.2-5.7,6.5c0,1.4,0.4,2.6,1.1,3.7C306.7,237.6,305.6,238.5,304.4,239.1
		z M313.2,237.7c-2.6,0-4.8-2.1-4.8-4.8s2.1-4.8,4.8-4.8c2.6,0,4.8,2.1,4.8,4.8S315.8,237.7,313.2,237.7z"/>
	<path fill="#666666" d="M313.7,231.6c0-0.4,0.1-0.8,0.5-0.8c0.2,0,0.3,0,0.4,0.1l0-1c-0.2-0.1-0.4-0.1-0.7-0.1
		c-0.4,0-0.8,0.1-1.1,0.4c-0.4,0.4-0.5,0.9-0.5,1.5v0.5h-0.7v0.7h0.7v3.3h1.3v-3.3h1.3v-0.7h-1.3V231.6z"/>
</g>
</svg>
