<svg xmlns="http://www.w3.org/2000/svg" viewBox="0 0 394.67 142"><title>paypal</title><g id="Layer_2" data-name="Layer 2"><g id="Layer_1-2" data-name="Layer 1"><path d="M246,43.79H224.44a3,3,0,0,0-3,2.52l-8.7,55.2a1.79,1.79,0,0,0,1.77,2.07h11a2.09,2.09,0,0,0,2.07-1.77l2.47-15.65a3,3,0,0,1,3-2.52h6.81c14.18,0,22.36-6.86,24.5-20.46,1-5.95,0-10.62-2.75-13.89C258.59,45.69,253.17,43.79,246,43.79ZM248.45,64c-1.18,7.73-7.08,7.73-12.79,7.73h-3.25l2.28-14.43a1.79,1.79,0,0,1,1.77-1.51H238c3.89,0,7.56,0,9.45,2.21C248.54,59.28,248.88,61.24,248.45,64Z" style="fill:#575656"/><path d="M92.43,43.79H70.9a3,3,0,0,0-3,2.52l-8.7,55.2A1.79,1.79,0,0,0,61,103.59H71.29a3,3,0,0,0,3-2.52L76.6,86.17a3,3,0,0,1,3-2.52h6.81c14.18,0,22.36-6.86,24.5-20.46,1-5.95,0-10.62-2.75-13.89C105.06,45.69,99.63,43.79,92.43,43.79ZM94.91,64c-1.18,7.73-7.08,7.73-12.79,7.73H78.88l2.28-14.43a1.79,1.79,0,0,1,1.77-1.51h1.49c3.89,0,7.56,0,9.45,2.21C95,59.28,95.34,61.24,94.91,64Z" style="fill:#575656"/><path d="M156.77,63.71H146.46a1.79,1.79,0,0,0-1.77,1.51l-.45,2.88-.72-1c-2.23-3.24-7.21-4.32-12.18-4.32-11.39,0-21.12,8.63-23,20.73-1,6,.41,11.81,3.84,15.84,3.15,3.7,7.63,5.24,13,5.24a19.74,19.74,0,0,0,14.27-5.9l-.46,2.87a1.79,1.79,0,0,0,1.77,2.08H150a3,3,0,0,0,3-2.52l5.57-35.29A1.79,1.79,0,0,0,156.77,63.71ZM142.41,83.77a11.49,11.49,0,0,1-11.63,9.84,8,8,0,0,1-8.54-10,11.54,11.54,0,0,1,11.55-9.92,8.68,8.68,0,0,1,6.87,2.81A8.88,8.88,0,0,1,142.41,83.77Z" style="fill:#575656"/><path d="M310.31,63.71H300a1.79,1.79,0,0,0-1.77,1.51l-.45,2.88-.72-1c-2.23-3.24-7.21-4.32-12.18-4.32-11.39,0-21.12,8.63-23,20.73-1,6,.41,11.81,3.84,15.84,3.15,3.7,7.63,5.24,13,5.24A19.74,19.74,0,0,0,293,98.65l-.46,2.87a1.79,1.79,0,0,0,1.77,2.08h9.28a3,3,0,0,0,3-2.52l5.57-35.29A1.79,1.79,0,0,0,310.31,63.71ZM295.94,83.77a11.49,11.49,0,0,1-11.63,9.84,8,8,0,0,1-8.54-10,11.54,11.54,0,0,1,11.55-9.92,8.68,8.68,0,0,1,6.87,2.81A8.88,8.88,0,0,1,295.94,83.77Z" style="fill:#575656"/><path d="M211.67,63.71H201.31A3,3,0,0,0,198.84,65l-14.29,21-6.06-20.23a3,3,0,0,0-2.87-2.13H165.44a1.8,1.8,0,0,0-1.7,2.37l11.41,33.49-10.73,15.14a1.79,1.79,0,0,0,1.46,2.83h10.35a3,3,0,0,0,2.46-1.29l34.46-49.73A1.8,1.8,0,0,0,211.67,63.71Z" style="fill:#575656"/><path d="M322.46,45.31l-8.84,56.21a1.79,1.79,0,0,0,1.77,2.07h8.89a3,3,0,0,0,3-2.52l8.71-55.2a1.79,1.79,0,0,0-1.77-2.07h-9.94A1.79,1.79,0,0,0,322.46,45.31Z" style="fill:#575656"/><rect x="4" y="4" width="386.67" height="134" rx="12" ry="12" style="fill:none;stroke:#575656;stroke-miterlimit:10;stroke-width:8px"/></g></g></svg>