<?xml version="1.0" encoding="utf-8"?>
<!-- Generator: Adobe Illustrator 18.1.1, SVG Export Plug-In . SVG Version: 6.00 Build 0)  -->
<svg version="1.1" id="Layer_1" xmlns="http://www.w3.org/2000/svg" xmlns:xlink="http://www.w3.org/1999/xlink" x="0px" y="0px"
	 viewBox="0 88 612 607.7" enable-background="new 0 88 612 607.7" xml:space="preserve">
<g>
	<path fill="#666666" d="M519.1,178.8C462.2,121.9,386.5,90.5,306,90.5c-80.5,0-156.2,31.3-213.1,88.3C36,235.7,4.7,311.4,4.7,391.8
		S36,548,92.9,604.9c56.9,56.9,132.6,88.3,213.1,88.3c80.5,0,156.2-31.3,213.1-88.3c56.9-56.9,88.3-132.6,88.3-213.1
		S576,235.7,519.1,178.8z M306,656C160.4,656,41.9,537.5,41.9,391.8c0-145.6,118.5-264.1,264.1-264.1
		c145.6,0,264.1,118.5,264.1,264.1C570.1,537.5,451.6,656,306,656z"/>
	<path fill="#666666" d="M498.2,297c-7.6-6.9-19.4-6.3-26.3,1.3l-29.4,32.6V224.6c0-10.3-8.3-18.6-18.6-18.6H195.7
		c-10.3,0-18.6,8.3-18.6,18.6v327.5c0,10.3,8.3,18.6,18.6,18.6h228.2c10.3,0,18.6-8.3,18.6-18.6V386.4l57-63.1
		C506.4,315.7,505.8,303.9,498.2,297z M405.3,372.1l-43.2,47.8l-20.8-23.2c-6.9-7.6-18.6-8.3-26.3-1.4c-7.6,6.9-8.3,18.6-1.4,26.3
		l34.6,38.5c3.5,3.9,8.5,6.2,13.8,6.2c0,0,0,0,0,0c5.3,0,10.3-2.2,13.8-6.1l29.4-32.6v106.1h-191V243.2h191V372.1z"/>
	<path fill="#666666" d="M261.6,316.5h110.4c9.1,0,16.5-7.4,16.5-16.5s-7.4-16.5-16.5-16.5H261.6c-9.1,0-16.5,7.4-16.5,16.5
		S252.5,316.5,261.6,316.5z"/>
	<path fill="#666666" d="M261.6,371.2h110.4c9.1,0,16.5-7.4,16.5-16.5c0-9.1-7.4-16.5-16.5-16.5H261.6c-9.1,0-16.5,7.4-16.5,16.5
		C245.1,363.8,252.5,371.2,261.6,371.2z"/>
</g>
</svg>
