<svg xmlns="http://www.w3.org/2000/svg" viewBox="0 0 325.9 386.8"><title>perfiles-redes-sociales</title><g id="Layer_2" data-name="Layer 2"><g id="Layer_1-2" data-name="Layer 1"><circle cx="227.9" cy="68.1" r="61.1" style="fill:none;stroke:#666;stroke-linecap:round;stroke-linejoin:round;stroke-width:14px"/><circle cx="272.7" cy="333.6" r="46.2" style="fill:none;stroke:#666;stroke-linecap:round;stroke-linejoin:round;stroke-width:14px"/><g id="_Group_" data-name="&lt;Group&gt;"><path id="_Path_" data-name="&lt;Path&gt;" d="M264.9,359.9V332.4h-4.7v-8.2h4.7v-1.4c0-4.3,1.3-9,4.5-12a14.56,14.56,0,0,1,9.8-3.6,22.62,22.62,0,0,1,5.9.7l-.4,8.5a11.52,11.52,0,0,0-3.6-.5c-3.6,0-5.2,2.8-5.2,6.3V324H283v8.2h-7.1v27.5h-11Z" style="fill:#666"/></g><circle cx="103.8" cy="234.4" r="96.8" style="fill:none;stroke:#666;stroke-linecap:round;stroke-linejoin:round;stroke-width:14px"/><path id="_Path_2" data-name="&lt;Path&gt;" d="M261.3,50.4a22.8,22.8,0,0,1-6.8,1.8,13.22,13.22,0,0,0,5.8-7.3,26.06,26.06,0,0,1-8.3,3.2,12.9,12.9,0,0,0-9.6-4.1,13.08,13.08,0,0,0-13.1,13.1,15.26,15.26,0,0,0,.3,3,37.39,37.39,0,0,1-27.1-13.7,13.3,13.3,0,0,0-1.8,6.6,13,13,0,0,0,5.8,10.9,14,14,0,0,1-5.9-1.6v.2a13.11,13.11,0,0,0,10.5,12.9,13.45,13.45,0,0,1-3.5.5,21.05,21.05,0,0,1-2.5-.2,13.16,13.16,0,0,0,12.3,9.1,26.56,26.56,0,0,1-16.3,5.6,30.28,30.28,0,0,1-3.1-.2s4.8,6.7,21.7,9,46-9.1,35.7-42.2A26.41,26.41,0,0,0,261.3,50.4Z" style="fill:#666"/><g id="_Group_2" data-name="&lt;Group&gt;"><path id="_Path_3" data-name="&lt;Path&gt;" d="M148.3,289.3H64.4a12.93,12.93,0,0,1-12.9-12.9V192.5a12.93,12.93,0,0,1,12.9-12.9h83.9a12.93,12.93,0,0,1,12.9,12.9v83.9A12.93,12.93,0,0,1,148.3,289.3Z" style="fill:none;stroke:#666;stroke-linecap:round;stroke-linejoin:round;stroke-width:14px"/><path id="_Path_4" data-name="&lt;Path&gt;" d="M106.3,211.7a22.7,22.7,0,1,1-22.7,22.7,22.75,22.75,0,0,1,22.7-22.7Z" style="fill:none;stroke:#666;stroke-linecap:round;stroke-linejoin:round;stroke-width:14px"/><path id="_Path_5" data-name="&lt;Path&gt;" d="M139.1,192.8a8.2,8.2,0,1,1-8.2,8.2,8.24,8.24,0,0,1,8.2-8.2Z" style="fill:#666"/></g><line x1="190.9" y1="116.6" x2="166.8" y2="155.2" style="fill:none;stroke:#666;stroke-linecap:round;stroke-linejoin:round;stroke-width:14px"/><line x1="228.5" y1="320.2" x2="183.6" y2="289.3" style="fill:none;stroke:#666;stroke-linecap:round;stroke-linejoin:round;stroke-width:14px"/></g></g></svg>