<?xml version="1.0" encoding="utf-8"?>
<!-- Generator: Adobe Illustrator 18.1.1, SVG Export Plug-In . SVG Version: 6.00 Build 0)  -->
<svg version="1.1" id="Layer_1" xmlns="http://www.w3.org/2000/svg" xmlns:xlink="http://www.w3.org/1999/xlink" x="0px" y="0px"
	 viewBox="0 0 500 500" enable-background="new 0 0 500 500" xml:space="preserve">
<g>
	<path fill="none" stroke="#773EB2" stroke-width="5.8257" stroke-miterlimit="10" d="M470.7,331.4h-81.4c-1.4,0-2.6-1.2-2.6-2.6
		v-49.1c0-1.4,1.2-2.6,2.6-2.6h81.4c1.4,0,2.6,1.2,2.6,2.6v49.1C473.3,330.2,472.1,331.4,470.7,331.4z"/>
	<circle fill="none" stroke="#773EB2" stroke-width="5.8257" stroke-miterlimit="10" cx="430.2" cy="304.2" r="14.5"/>
	
		<path fill="none" stroke="#773EB2" stroke-width="5.8257" stroke-linecap="round" stroke-linejoin="round" stroke-miterlimit="10" d="
		M407.7,295.1c0,0,10.3,7.7,22.5,7.7c12.1,0,22.3-7.7,22.3-7.7"/>
	
		<line fill="none" stroke="#773EB2" stroke-width="6" stroke-linecap="round" stroke-linejoin="round" stroke-miterlimit="10" x1="421" y1="340" x2="439" y2="340"/>
	
		<path fill="none" stroke="#773EB2" stroke-width="5.8257" stroke-linecap="round" stroke-linejoin="round" stroke-miterlimit="10" d="
		M410.6,351.2c0,0,8.3-5,20.4-5c12.1,0,18.3,5,18.3,5"/>
</g>
<g>
	<g>
		<path fill="none" stroke="#773EB2" stroke-width="9.2087" stroke-linecap="round" stroke-linejoin="round" d="M302.8,205.5
			c0,0,1.2-0.3,3.3-0.7"/>
		
			<path fill="none" stroke="#773EB2" stroke-width="9.2087" stroke-linecap="round" stroke-linejoin="round" stroke-dasharray="6.7199,16.7997" d="
			M322.7,202.5c26.7-2.3,73.3,0.2,94.2,40.6"/>
		<path fill="none" stroke="#773EB2" stroke-width="9.2087" stroke-linecap="round" stroke-linejoin="round" d="M420.4,250.8
			c0.4,1,0.8,2.1,1.2,3.1"/>
	</g>
</g>
<g>
	<g>
		<path fill="none" stroke="#773EB2" stroke-width="9.2087" stroke-linecap="round" stroke-linejoin="round" d="M223.2,205.5
			c0,0-1.2-0.3-3.3-0.7"/>
		
			<path fill="none" stroke="#773EB2" stroke-width="9.2087" stroke-linecap="round" stroke-linejoin="round" stroke-dasharray="6.7199,16.7997" d="
			M203.3,202.5c-26.7-2.3-73.3,0.2-94.2,40.6"/>
		<path fill="none" stroke="#773EB2" stroke-width="9.2087" stroke-linecap="round" stroke-linejoin="round" d="M105.6,250.8
			c-0.4,1-0.8,2.1-1.2,3.1"/>
	</g>
</g>
<g>
	<g>
		<path fill="#773EB2" d="M312.6,157.3c-1.2-1.6-3.4-1.8-4.9-0.7c-0.1,0.1-5.3,4-13.5,7.9c-5.2-11.6-17-19.8-30.5-19.8
			c-13.5,0-25.1,8-30.4,19.6c-8.1-3.8-13.2-7.6-13.3-7.7c-1.6-1.2-3.8-0.9-4.9,0.7c-1.2,1.6-0.9,3.8,0.7,4.9
			c0.5,0.3,6.3,4.7,15.3,8.8c-0.5,2.3-0.8,4.7-0.8,7.1c0,11.8,6.1,22.2,15.4,28.1l-6.7,12.9l15.1,18.8H274l14.9-19.1l-6.9-12.7
			c9-6,15-16.3,15-27.9c0-2.4-0.3-4.7-0.7-7c9.2-4.2,15.1-8.7,15.6-9C313.4,161.1,313.7,158.8,312.6,157.3z M263.6,151.8
			c10.6,0,19.8,6.3,24,15.4c-6.9,2.6-15,4.6-23.7,4.6c-8.8,0-17.2-2.1-24.3-4.8C243.8,158,253,151.8,263.6,151.8z M237.1,178.2
			c0-1.5,0.1-2.9,0.4-4.4c6.6,2.5,14.3,4.4,22.6,4.9l-11.3,21.3C241.8,195.3,237.1,187.3,237.1,178.2z M270.6,231h-13.4l-10.6-12.6
			l12.4-24.9v15.1c0,1-1.4,2.5-1.4,4.2c0,2.9,2.7,5.3,5.6,5.3c2.9,0,5.3-2.4,5.3-5.3c0-1.5-0.5-2.8-1.5-3.7v-15.1l13.4,24.3
			L270.6,231z M290,178.2c0,9-4.5,16.9-11.3,21.7l-11.6-21c8.3-0.4,16-2.4,22.6-4.8C289.8,175.4,290,176.8,290,178.2z"/>
		<path fill="#773EB2" d="M276.3,241h-25.7c-2,0-3.5,1.6-3.5,3.5s1.6,3.5,3.5,3.5h25.7c2,0,3.5-1.6,3.5-3.5S278.3,241,276.3,241z"/>
	</g>
</g>
<g>
	<g>
		<path fill="#773EB2" d="M45.8,344c-5.2,0-9.5-4.2-9.5-9.5c0-5.2,4.2-9.5,9.5-9.5s9.5,4.2,9.5,9.5C55.3,339.8,51,344,45.8,344z
			 M45.8,330.9c-2,0-3.7,1.7-3.7,3.7s1.7,3.7,3.7,3.7c2,0,3.7-1.7,3.7-3.7S47.9,330.9,45.8,330.9z"/>
	</g>
	<g>
		<path fill="#773EB2" d="M30.6,351c-3.8,0-6.8-3.1-6.8-6.8c0-3.8,3.1-6.8,6.8-6.8s6.8,3.1,6.8,6.8C37.4,347.9,34.4,351,30.6,351z
			 M30.6,343.1c-0.6,0-1.1,0.5-1.1,1.1s0.5,1.1,1.1,1.1c0.6,0,1.1-0.5,1.1-1.1S31.2,343.1,30.6,343.1z"/>
	</g>
	<g>
		<path fill="#773EB2" d="M103.3,343.2c-6.5,0-12.5-2.7-16.9-7.3c-3.6,3.5-8.4,5.5-13.5,5.5c-9.4,0-17.4-6.8-19-15.9
			c-8.5-2.2-14.7-10-14.7-18.9c0-10.6,8.5-19.3,19.1-19.5c3.2-4.8,8.2-8,13.8-8.8c3.3-6.4,9.8-10.4,17.1-10.4
			c4.6,0,8.9,1.6,12.4,4.5c1.3-0.3,2.6-0.5,3.9-0.5c6.9,0,12.9,4.3,15.4,10.4c1-0.1,1.9-0.2,2.9-0.2c11,0,20,9,20,20
			c0,5.5-2.2,10.7-6.2,14.5c0.3,1.1,0.4,2.3,0.4,3.5c0,7.9-6.4,14.3-14.3,14.3c-0.7,0-1.4-0.1-2.1-0.2
			C117.3,339.9,110.6,343.2,103.3,343.2z M86.6,326.2l2.4,3.5c3.2,4.8,8.6,7.7,14.4,7.7c6,0,11.4-3,14.6-8.1l1.2-1.9l2.1,0.7
			c0.8,0.3,1.7,0.4,2.5,0.4c4.7,0,8.6-3.8,8.6-8.6c0-1.1-0.2-2.3-0.7-3.3l-0.9-2l1.8-1.3c3.5-2.7,5.6-6.8,5.6-11.3
			c0-7.8-6.4-14.2-14.2-14.2c-1.4,0-2.7,0.2-4.1,0.6l-3,0.9l-0.6-3.1c-1-5-5.5-8.6-10.6-8.6c-1.3,0-2.5,0.2-3.7,0.6l-1.7,0.6
			l-1.3-1.3c-2.6-2.6-6-4-9.6-4c-5.5,0-10.4,3.3-12.5,8.4l-0.7,1.7l-1.8,0.1c-5,0.3-9.4,3.2-11.8,7.6l-0.9,1.6l-1.8-0.1
			c-0.4,0-0.7,0-1,0c-7.6,0-13.8,6.2-13.8,13.8c0,6.9,5.1,12.7,11.9,13.7l2.4,0.3l0.1,2.4c0.4,7.1,6.4,12.7,13.5,12.7
			c4.5,0,8.6-2.2,11.2-5.9L86.6,326.2z"/>
	</g>
	<g>
		<path fill="#773EB2" d="M82.9,290.6c2.6-1.9,5.3-2.8,8.2-2.8c3.1,0,5.7,0.9,7.8,2.8c2.1,1.8,3.1,4.2,3.1,7c0,1.9-0.6,3.5-1.8,4.8
			c-1.2,1.2-2.7,2.4-4.6,3.4c-1.5,0.8-2.2,1.7-2.2,2.7c0,0.2,0,0.4,0,0.5c0,0.1,0,0.3,0,0.5c0,0.8-0.3,1.4-0.8,1.9
			c-0.6,0.5-1.3,0.7-2.3,0.7c-1.1,0-2-0.4-2.6-1.2c-0.7-0.8-1-1.8-1-3.1c0-2.2,1.2-4,3.7-5.4c2.1-1.2,3.4-2.1,3.9-2.7
			c0.6-0.7,0.9-1.4,0.9-2.2c0-1.1-0.4-2-1.3-2.7c-0.8-0.7-1.9-1-3.1-1c-1.4,0-2.7,0.5-4.1,1.5c-1.1,0.8-2.1,1.1-2.8,1.1
			c-0.7,0-1.3-0.3-2-1c-0.6-0.7-0.9-1.4-0.9-2.1C81.1,292.3,81.7,291.3,82.9,290.6z M87.6,315.9c0.8-0.7,1.7-1,2.9-1
			c1.1,0,2,0.3,2.7,1c0.7,0.7,1.1,1.5,1.1,2.6c0,1.1-0.4,2-1.2,2.6c-0.8,0.6-1.7,0.9-2.8,0.9c-1.1,0-2.1-0.3-2.8-0.9
			c-0.7-0.6-1.1-1.5-1.1-2.6C86.5,317.4,86.9,316.6,87.6,315.9z"/>
	</g>
</g>
</svg>
