<svg xmlns="http://www.w3.org/2000/svg" viewBox="0 0 811.73 482.43"><title>proceso-creativo</title><g id="Layer_2" data-name="Layer 2"><g id="Layer_1-2" data-name="Layer 1"><path d="M783.45,320.9H651.85a4.23,4.23,0,0,1-4.2-4.2V237.3a4.23,4.23,0,0,1,4.2-4.2h131.6a4.23,4.23,0,0,1,4.2,4.2v79.4A4.29,4.29,0,0,1,783.45,320.9Z" style="fill:none;stroke:#773eb2;stroke-miterlimit:10;stroke-width:10.91100025177002px"/><circle cx="717.95" cy="276.9" r="23.4" style="fill:none;stroke:#773eb2;stroke-miterlimit:10;stroke-width:10.91100025177002px"/><path d="M681.55,262.1s16.7,12.5,36.4,12.5S754,262.1,754,262.1" style="fill:none;stroke:#773eb2;stroke-linecap:round;stroke-linejoin:round;stroke-width:10.91100025177002px"/><line x1="703.05" y1="334.8" x2="732.15" y2="334.8" style="fill:none;stroke:#773eb2;stroke-linecap:round;stroke-linejoin:round;stroke-width:10.91100025177002px"/><path d="M686.25,357.1s13.4-8.1,33-8.1,29.6,8.1,29.6,8.1" style="fill:none;stroke:#773eb2;stroke-linecap:round;stroke-linejoin:round;stroke-width:10.91100025177002px"/><path d="M500.15,107.3s2.1-.5,5.8-1.2" style="fill:none;stroke:#773eb2;stroke-linecap:round;stroke-linejoin:round;stroke-width:10.576399803161621px"/><path d="M535.25,102c47.1-4.1,129.3.4,166.2,71.6" style="fill:none;stroke:#773eb2;stroke-linecap:round;stroke-linejoin:round;stroke-width:10.576399803161621px;stroke-dasharray:7.7179999351501465,19.29490089416504"/><path d="M707.55,187.2c.7,1.8,1.4,3.7,2.1,5.5" style="fill:none;stroke:#773eb2;stroke-linecap:round;stroke-linejoin:round;stroke-width:10.576399803161621px"/><path d="M359.65,107.3s-2.1-.5-5.8-1.2" style="fill:none;stroke:#773eb2;stroke-linecap:round;stroke-linejoin:round;stroke-width:10.576399803161621px"/><path d="M324.55,102c-47.1-4.1-129.3.4-166.2,71.6" style="fill:none;stroke:#773eb2;stroke-linecap:round;stroke-linejoin:round;stroke-width:10.576399803161621px;stroke-dasharray:7.7179999351501465,19.29490089416504"/><path d="M152.25,187.2c-.7,1.8-1.4,3.7-2.1,5.5" style="fill:none;stroke:#773eb2;stroke-linecap:round;stroke-linejoin:round;stroke-width:10.576399803161621px"/><path d="M517.45,22.2a6.11,6.11,0,0,0-8.6-1.2A137.35,137.35,0,0,1,485,34.9a58.87,58.87,0,0,0-107.4-.3A140.24,140.24,0,0,1,354.15,21a6.14,6.14,0,1,0-7.4,9.8,165.13,165.13,0,0,0,27,15.5,58.43,58.43,0,0,0,25.8,62.1l-11.8,22.8,26.6,33.2h35l26.3-33.7-12.2-22.4a59.31,59.31,0,0,0,26.5-49.2,71.22,71.22,0,0,0-1.2-12.3,161,161,0,0,0,27.5-15.9A6.5,6.5,0,0,0,517.45,22.2Zm-86.5-9.7a46.57,46.57,0,0,1,42.3,27.2c-12.2,4.6-26.5,8.1-41.8,8.1-15.5,0-30.3-3.7-42.9-8.5A47,47,0,0,1,430.95,12.5Zm-46.7,46.6a41.89,41.89,0,0,1,.7-7.8,133.65,133.65,0,0,0,39.9,8.6l-19.9,37.6A46.13,46.13,0,0,1,384.25,59.1Zm59.1,93.1h-23.6L400.95,130l21.9-43.9v26.6c0,1.8-2.5,4.4-2.5,7.4,0,5.1,4.8,9.3,9.9,9.3a9.35,9.35,0,0,0,9.3-9.3,8.74,8.74,0,0,0-2.6-6.5V87l23.6,42.9Zm34.2-93.1a46.79,46.79,0,0,1-19.9,38.3l-20.5-37A135.06,135.06,0,0,0,477,51.9C477.15,54.2,477.55,56.6,477.55,59.1Z" style="fill:#773eb2"/><path d="M453.35,169.9H408a6.17,6.17,0,0,0-6.2,6.2,6.23,6.23,0,0,0,6.2,6.2h45.3a6.17,6.17,0,0,0,6.2-6.2A6.1,6.1,0,0,0,453.35,169.9Z" style="fill:#773eb2"/><path d="M41.95,353a16.8,16.8,0,1,1,16.8-16.8A16.77,16.77,0,0,1,41.95,353Zm0-23.1a6.5,6.5,0,1,0,6.5,6.5A6.49,6.49,0,0,0,41.95,329.9Z" style="fill:#773eb2;stroke:#773eb2;stroke-miterlimit:10;stroke-width:2.297100067138672px"/><path d="M13.15,368.3a12,12,0,0,1,0-24,12.17,12.17,0,0,1,12,12A12,12,0,0,1,13.15,368.3Zm0-13.9a1.9,1.9,0,0,0,0,3.8,2,2,0,0,0,1.9-1.9A1.78,1.78,0,0,0,13.15,354.4Z" style="fill:#773eb2;stroke:#773eb2;stroke-miterlimit:10;stroke-width:2.297100067138672px"/><path d="M148.15,350.2a41,41,0,0,1-29.8-12.9A34,34,0,0,1,61,319a34.39,34.39,0,0,1,7.8-67.7,35.13,35.13,0,0,1,24.3-15.5,33.65,33.65,0,0,1,30.2-18.3,34.22,34.22,0,0,1,21.9,7.9,32.64,32.64,0,0,1,6.9-.9,29.55,29.55,0,0,1,27.2,18.3,45.56,45.56,0,0,1,5.1-.4,35.36,35.36,0,0,1,24.4,60.9,25.47,25.47,0,0,1-24.5,31.4,23.26,23.26,0,0,1-3.7-.4A40.69,40.69,0,0,1,148.15,350.2Zm-29.4-30,4.2,6.2a30.47,30.47,0,0,0,51.2-.7l2.1-3.4,3.7,1.2a13.49,13.49,0,0,0,4.4.7,15.19,15.19,0,0,0,15.2-15.2,14.35,14.35,0,0,0-1.2-5.8l-1.6-3.5,3.2-2.3a25,25,0,0,0-22.4-43.9l-5.3,1.6-1.1-5.5a19.16,19.16,0,0,0-18.7-15.2,20.16,20.16,0,0,0-6.5,1.1l-3,1.1-2.3-2.3a23.81,23.81,0,0,0-39,7.7l-1.2,3-3.2.2a25.27,25.27,0,0,0-20.8,13.4l-1.6,2.8-3.2-.2h-1.8a24.37,24.37,0,0,0-3.3,48.5l4.2.5.2,4.2a23.94,23.94,0,0,0,23.8,22.4,24.24,24.24,0,0,0,19.8-10.4Z" style="fill:#773eb2;stroke:#773eb2;stroke-miterlimit:10;stroke-width:2.297100067138672px"/><path d="M112.15,257.4a23.5,23.5,0,0,1,14.5-4.9,19.94,19.94,0,0,1,13.8,4.9,15.63,15.63,0,0,1,5.5,12.3,12.12,12.12,0,0,1-3.2,8.5,35.51,35.51,0,0,1-8.1,6q-3.9,2.1-3.9,4.8v1.8a4.6,4.6,0,0,1-1.4,3.4,5.91,5.91,0,0,1-4.1,1.2,5.61,5.61,0,0,1-4.6-2.1,8.1,8.1,0,0,1-1.8-5.5c0-3.9,2.1-7.1,6.5-9.5q5.55-3.15,6.9-4.8a5.61,5.61,0,0,0,1.6-3.9,5.86,5.86,0,0,0-2.3-4.8A8.46,8.46,0,0,0,126,263a12.24,12.24,0,0,0-7.2,2.6,8.72,8.72,0,0,1-4.9,1.9,4.63,4.63,0,0,1-3.5-1.8,5.52,5.52,0,0,1-1.6-3.7A6.29,6.29,0,0,1,112.15,257.4Zm8.3,44.6a7.39,7.39,0,0,1,5.1-1.8,6.4,6.4,0,0,1,4.8,1.8,6.09,6.09,0,0,1,1.9,4.6,5.48,5.48,0,0,1-2.1,4.6,7.6,7.6,0,0,1-4.9,1.6,7.23,7.23,0,0,1-4.9-1.6,5.94,5.94,0,0,1-1.9-4.6A7,7,0,0,1,120.45,302Z" style="fill:#773eb2;stroke:#773eb2;stroke-miterlimit:10;stroke-width:2.297100067138672px"/><text transform="translate(31.79 407.75)" style="isolation:isolate;font-size:23.822500228881836px;fill:#414042;font-family:ArialMT, Arial">TE ESCUCHAMOS</text><g style="isolation:isolate"><text transform="translate(345.94 326.47)" style="isolation:isolate;font-size:23.822500228881836px;fill:#414042;font-family:ArialMT, Arial">GARANTÍ<tspan x="105.89" y="0" style="letter-spacing:-0.055176959276776em">A</tspan><tspan x="120.46" y="0" xml:space="preserve"> DE</tspan></text><text transform="translate(301.24 355.07)" style="isolation:isolate;font-size:23.822500228881836px;fill:#414042;font-family:ArialMT, Arial">CONFORMIDAD 100%</text></g><g style="isolation:isolate"><text transform="translate(20.09 438.38)" style="isolation:isolate;font-size:16.167600631713867px;fill:#616265;font-family:ArialMT, Arial">Coméntanos tus necesidades</text><text transform="translate(43.49 457.78)" style="isolation:isolate;font-size:16.167600631713867px;fill:#616265;font-family:ArialMT, Arial">preferencias y objetivos</text></g><text transform="translate(671.16 407.75)" style="isolation:isolate;font-size:23.822500228881836px;fill:#414042;font-family:ArialMT, Arial">¡LIS<tspan x="43.69" y="0" style="letter-spacing:-0.018057541278915176em">T</tspan><tspan x="57.81" y="0">O!</tspan></text><g style="isolation:isolate"><text transform="translate(590.63 438.38)" style="isolation:isolate;font-size:16.167600631713867px;fill:#616265;font-family:ArialMT, Arial">Una vez aprobado tu proyecto,</text><text transform="translate(604.93 457.78)" style="isolation:isolate;font-size:16.167600631713867px;fill:#616265;font-family:ArialMT, Arial">te enviamos todo listo para</text><text transform="translate(595.73 477.18)" style="isolation:isolate;font-size:16.167600631713867px;fill:#616265;font-family:ArialMT, Arial">usarlo en diferentes formatos</text></g><rect x="311.55" y="217.8" width="239.5" height="83.5" style="fill:none"/><g style="isolation:isolate"><text transform="translate(320.18 229.75)" style="isolation:isolate;font-size:16.167600631713867px;fill:#616265;font-family:ArialMT, Arial">Nuestro equipo de expertos </text><text transform="translate(321.88 249.15)" style="isolation:isolate;font-size:16.167600631713867px;fill:#616265;font-family:ArialMT, Arial">desarrollará tu proyecto, de </text><text transform="translate(318.48 268.55)" style="isolation:isolate;font-size:16.167600631713867px;fill:#616265;font-family:ArialMT, Arial">manera personalizada hasta </text><text transform="translate(347.08 287.95)" style="isolation:isolate;font-size:16.167600631713867px;fill:#616265;font-family:ArialMT, Arial">tu entera aprobación</text></g><rect x="304.35" y="407.8" width="249.5" height="51.9" style="fill:#08c654"/><text transform="translate(333.22 442.98)" style="isolation:isolate;font-size:31.849700927734375px;fill:#fff;font-family:ArialMT, Arial">COMENZAR</text></g></g></svg>