<?xml version="1.0" encoding="utf-8"?>
<!-- Generator: Adobe Illustrator 18.1.1, SVG Export Plug-In . SVG Version: 6.00 Build 0)  -->
<svg version="1.1" id="Layer_1" xmlns="http://www.w3.org/2000/svg" xmlns:xlink="http://www.w3.org/1999/xlink" x="0px" y="0px"
	 viewBox="1062.9 39.3 291.5 241.1" enable-background="new 1062.9 39.3 291.5 241.1" xml:space="preserve">
<g>
	<path fill="#666666" d="M1348.9,143.5c-0.1-7-4.8-11.6-11.9-11.7c-1.9,0-3.7,0-5.6,0c-1.6,0-3.2,0-4.7,0c-1.8,0-2.2-0.2-3-2.3
		c-2.2-5.6-4.3-10.6-6.4-15.5c-0.9-2.1-0.8-2.4,0.5-3.8c1.1-1.2,2.3-2.3,3.4-3.4c1.2-1.2,2.4-2.4,3.6-3.7c5.1-5.3,5.2-11.9,0.1-17.2
		c-4-4.2-8.3-8.4-12.6-12.6c-5.1-4.9-11.8-4.9-17,0.1c-1.3,1.2-2.5,2.4-3.7,3.6c-1.1,1.1-2.3,2.3-3.4,3.4c-1.7,1.6-1.7,1.6-4,0.6
		c-4.9-2.2-10-4.3-15.3-6.3c-2.3-0.9-2.4-1.4-2.4-3c0-1.8,0-3.7,0-5.5c0-1.6,0-3.2,0-4.8c-0.1-7.3-4.7-12-11.9-12.1
		c-6.4-0.1-12.4-0.1-18.2,0c-7,0.1-11.6,4.8-11.7,11.9c0,1.8,0,3.6,0,5.4c0,1.6,0,3.3,0,4.9c0,1.8-0.2,2.2-2.3,3.1
		c-5.6,2.2-10.7,4.3-15.5,6.4l1.3-12.2c0.3-0.7,0.5-1.4,0.5-2.2c0-0.4-0.1-0.9-0.2-1.3l1.6-15.9c0.1-1.4-0.3-2.7-1.2-3.7
		c-0.9-1-2.2-1.6-3.6-1.6h-132.1c-1.4,0-2.7,0.6-3.6,1.6c-0.9,1-1.4,2.4-1.2,3.7l23,222.2c0.3,2.5,2.3,4.3,4.8,4.3h64.1h127.6
		c2.7,0,4.8-2.2,4.8-4.8v-41.3c0.9,0.9,1.8,1.8,2.4,2.4c2.7,2.6,5.7,3.8,8.7,3.8c3,0,6-1.3,8.6-3.8c4-3.9,8.1-8.1,12.3-12.3
		c5.3-5.4,5.3-12,0-17.5c-1.5-1.5-3-3-4.4-4.5c-0.9-0.9-1.8-1.8-2.7-2.6c-0.9-0.9-1.3-1.6-0.4-3.5c2.6-5.7,4.9-11.5,6.6-15.9
		c0.8-2,1.4-2.2,2.8-2.2c1.7,0,3.4,0,5,0c1.9,0,3.8,0,5.6,0c6.8-0.1,11.5-4.8,11.7-11.5C1349,156.2,1349,150.2,1348.9,143.5z
		 M1204.3,152.5c0-10.7,4.2-20.9,12-28.7c7.8-7.9,18-12.2,28.8-12.2c0,0,0,0,0,0c22.7,0,41.2,18.5,41.3,41.3c0,0.7,0,1.4-0.1,2.1
		h-81.9C1204.4,154.2,1204.3,153.3,1204.3,152.5z M1168.3,155h-8.1c-2.7,0-4.8,2.2-4.8,4.8v9.1c-4.9,2.9-10.5,4.4-16.3,4.4
		c-17.9,0-32.5-14.6-32.5-32.5c0-17.9,14.6-32.5,32.5-32.5c17.9,0,32.5,14.6,32.5,32.5C1171.6,145.9,1170.5,150.6,1168.3,155z
		 M1165,171.7c0-0.1,0-0.1,0-0.2v-6.8h118v16.7h-118V171.7z M1199.8,53.6l-0.8,7.8h-116.5c-1.2,0-2.3,0.4-3.1,1.1l-0.9-9H1199.8z
		 M1080.2,70.8c0.7,0.4,1.4,0.6,2.3,0.6h115.5l-8.7,83.6h-10.6c1.6-4.5,2.5-9.3,2.5-14.2c0-23.2-18.9-42.1-42.1-42.1
		s-42.1,18.9-42.1,42.1c0,23.2,18.9,42.1,42.1,42.1c5.7,0,11.2-1.1,16.3-3.3v44.7h-57.9c-0.5,0-0.9,0.1-1.3,0.2L1080.2,70.8z
		 M1097.1,234.4c0.1,0,0.2,0,0.3,0h57.9v31.7h-55L1097.1,234.4z M1165,266.1v-74.7h118v74.7H1165z M1339.2,161.8
		c0,1.5-0.4,2.1-2.3,2.1c-1.8,0-3.6,0-5.4,0c-1.7,0-3.5,0-5.2,0c-5.6,0.1-9.5,2.9-11.6,8.3c-1.7,4.3-3.9,9.9-6.4,15.4
		c-3,6.7-0.4,11.4,2.4,14.2c0.9,0.9,1.8,1.8,2.7,2.7c1.4,1.4,2.9,2.9,4.3,4.3c1.8,1.8,1.6,2.5,0.1,4.1c-4.1,4.2-8.2,8.3-12.2,12.2
		c-1.4,1.3-2.2,1.5-3.9-0.1c-1.1-1.1-2.9-2.9-4.8-4.7c-1.5-1.5-3.1-3.1-4.3-4.3v-45.4c0.1-0.2,0.2-0.3,0.2-0.5
		c2-5.4,3.1-11.2,3.2-17.1c0,0,0-0.1,0-0.1c0-13.7-5.3-26.5-14.9-36.1c-9.6-9.6-22.4-14.9-36-14.9c0,0,0,0,0,0
		c-13.3,0-25.9,5.3-35.6,15c-3,3-5.5,6.3-7.7,9.8l3.6-35c1.1-0.2,2.1-0.7,3.3-1.3c0.5-0.3,1-0.5,1.7-0.8c4.7-2.1,9.6-4.1,15.1-6.3
		c5.6-2.2,8.4-6.1,8.5-11.9c0-1.7,0-3.4,0-5.1c0-1.7,0-3.5,0-5.2c0-2,0.6-2.4,2.3-2.4c5.7-0.1,11.5-0.1,17.8,0
		c1.9,0,2.4,0.4,2.5,2.6c0,1.6,0,3.1,0,4.7c0,1.9,0,3.8,0,5.7c0.1,5.8,3,9.6,8.6,11.8c5.1,1.9,10.1,4,14.8,6.1
		c5.9,2.6,10.1,1.9,14.6-2.4c1.2-1.2,2.4-2.4,3.6-3.6c1.2-1.2,2.3-2.3,3.5-3.5c1.6-1.5,2.4-1.3,3.7-0.1c4.2,4.1,8.4,8.3,12.4,12.4
		c1.4,1.4,1.6,2.2-0.1,3.9c-1.1,1.2-2.3,2.3-3.5,3.5c-1.2,1.2-2.4,2.4-3.6,3.6c-4.1,4.3-4.9,8.7-2.4,14.3c2.1,4.8,4.1,9.7,6.3,15.1
		c2.2,5.6,6.1,8.4,11.9,8.5c1.6,0,3.3,0,4.9,0c1.8,0,3.6,0,5.4,0c2.1,0,2.4,0.7,2.4,2.3C1339.4,150.2,1339.4,156.2,1339.2,161.8z"/>
	<path fill="#666666" d="M1260.2,206.1h-71.8c-2.7,0-4.8,2.2-4.8,4.8v35.3c0,2.7,2.2,4.8,4.8,4.8h71.8c2.7,0,4.8-2.2,4.8-4.8v-35.3
		C1265,208.2,1262.8,206.1,1260.2,206.1z M1255.4,241.3h-62.2v-25.6h62.2V241.3z"/>
</g>
</svg>
