<?xml version="1.0" encoding="utf-8"?>
<!-- Generator: Adobe Illustrator 22.0.0, SVG Export Plug-In . SVG Version: 6.00 Build 0)  -->
<svg version="1.1" id="Capa_1" xmlns="http://www.w3.org/2000/svg" xmlns:xlink="http://www.w3.org/1999/xlink" x="0px" y="0px"
	 viewBox="0 0 400 400" style="enable-background:new 0 0 400 400;" xml:space="preserve">
<style type="text/css">
	.st0{fill:none;stroke:#676767;stroke-width:23;stroke-miterlimit:10;}
	.st1{fill:none;stroke:#676767;stroke-width:23;stroke-linecap:round;stroke-miterlimit:10;}
	.st2{fill:#FFFFFF;}
	.st3{fill:none;stroke:#676767;stroke-width:23;stroke-linejoin:round;stroke-miterlimit:10;}
	.st4{fill:#676767;}
	.st5{fill:none;stroke:#676767;stroke-width:23;stroke-linecap:round;stroke-linejoin:round;stroke-miterlimit:10;}
</style>
<path class="st0" d="M156.1,249c-11.6,9.4-26.6,14.7-42.9,13.9c-32.3-1.7-58.3-28.1-59.6-60.4C52.3,166.6,81,137,116.6,137
	c18.6,0,35.2,8,46.8,20.8l73.3,84.3c12.4,13.8,30.8,22.1,51.1,20.7c31.9-2.1,57.4-28.4,58.6-60.4c1.4-35.9-27.3-65.4-62.9-65.4
	c-8.3,0-16.3,1.6-23.5,4.5c-9.1,3.7-17,9.6-23.5,17l-73,83.3C161.1,244.5,158.8,246.9,156.1,249z"/>
</svg>
