<?xml version="1.0" encoding="utf-8"?>
<!-- Generator: Adobe Illustrator 18.1.1, SVG Export Plug-In . SVG Version: 6.00 Build 0)  -->
<svg version="1.1" id="Layer_1" xmlns="http://www.w3.org/2000/svg" xmlns:xlink="http://www.w3.org/1999/xlink" x="0px" y="0px"
	 viewBox="1051.7 74 193.3 206.4" enable-background="new 1051.7 74 193.3 206.4" xml:space="preserve">
<g>
	<path fill="#666666" d="M1166,80.4c-0.6-1.4-1.9-2.4-3.4-2.4c0,0,0,0,0,0c-1.5,0-2.9,1-3.5,2.4c-18.5,43.5-38.2,59.7-44.2,63.9
		c-2.5-2.4-5.9-3.8-9.6-3.8c-1.8,0-3.6,0.3-5.3,1l-29.1,11.8c-7.2,2.9-10.7,11.1-7.7,18.3l0.8,1.9l0,0c-6.5,2.6-9.7,10.1-7.1,16.7
		l7.2,17.9c2,4.9,6.6,8,11.9,8c0,0,0,0,0,0c1.6,0,3.3-0.3,4.8-0.9l0,0l0.1,0.3c2.2,5.3,7.3,8.8,13,8.8c1.3,0,2.6-0.2,3.8-0.5
		l37.2,46.1c2,2.8,5.1,4.3,8.4,4.3c1.3,0,2.6-0.3,3.9-0.8l14.3-5.8c3-1.2,5.2-3.7,6.1-6.7s0.4-6.3-1.5-9c0-0.1-0.1-0.1-0.1-0.2
		l-34.3-42.2c1.9-1.5,3.3-3.4,4.3-5.6c0.3-0.8,0.6-1.6,0.8-2.4c6.7-1.9,13.8-2.9,21.2-2.9c29.4,0,54.5,15.3,54.8,15.4
		c0.6,0.4,1.3,0.6,2,0.6c0.9,0,1.7-0.3,2.4-0.9c1.2-1,1.7-2.8,1.1-4.3L1166,80.4z M1078,208.2L1078,208.2c-0.7,0.3-1.3,0.4-2,0.4h0
		c-2.2,0-4.1-1.3-4.9-3.3l-7.2-17.9c-1.1-2.7,0.2-5.8,2.9-6.9l0,0l0.4,1L1078,208.2z M1087.9,212.7l-1.5-3.8c0,0,0,0,0,0l-14-34.7
		c0,0,0,0,0,0l-2.2-5.4c-1.4-3.3,0.3-7.2,3.6-8.5l29.1-11.8c0.8-0.3,1.6-0.5,2.4-0.5c2.7,0,5.1,1.6,6.1,4.1l17.8,43.9
		c0.7,1.6,0.6,3.4,0,5c-0.7,1.6-1.9,2.8-3.5,3.5c-0.7,0.1-1.5,0.3-2.1,0.8c0,0,0,0,0,0l-27,10.9c-0.8,0.3-1.6,0.5-2.4,0.5
		C1091.3,216.7,1088.9,215.1,1087.9,212.7z M1160.4,258.7c-0.1,0.5-0.6,1.4-1.7,1.9l-14.3,5.8c-1.3,0.5-2.7,0.1-3.5-1
		c0-0.1-0.1-0.1-0.1-0.2l-35.8-44.3l19.7-8l35.3,43.4C1160.7,257.3,1160.5,258.2,1160.4,258.7z M1157.9,191.1
		c-7.3,0-14.3,0.9-21,2.6l-17.5-43.3c7-4.8,25.1-20.2,43-58.7l45,111.2C1196.9,197.9,1178.6,191.1,1157.9,191.1z"/>
	<path fill="#666666" d="M1193.8,123.4c0.3,0.1,7.9,2.9,13.1,15.6c5.3,13.1,2.3,23.3,2.3,23.4c-0.6,2,0.5,4.1,2.4,4.7
		c0.4,0.1,0.8,0.2,1.1,0.2c1.6,0,3.1-1,3.6-2.6c0.2-0.5,3.9-12.7-2.4-28.5c-6.5-16.1-17.2-19.8-17.7-19.9c-2-0.6-4,0.4-4.7,2.4
		C1190.8,120.6,1191.8,122.7,1193.8,123.4z"/>
	<path fill="#666666" d="M1233.3,127.4c-10.2-25.1-26.5-30.7-27.2-30.9c-2-0.6-4.1,0.4-4.7,2.4c-0.6,2,0.4,4.1,2.4,4.7
		c0.1,0,13.6,4.6,22.5,26.6c9,22.1,3.8,39.3,3.7,39.5c-0.6,2,0.5,4.1,2.4,4.7c0.4,0.1,0.8,0.2,1.1,0.2c1.6,0,3.1-1,3.6-2.6
		C1237.4,171.2,1243.3,152.2,1233.3,127.4z"/>
</g>
</svg>
