<svg xmlns="http://www.w3.org/2000/svg" viewBox="0 0 193.8 175.2"><title>puntos-fondo</title><g id="Layer_2" data-name="Layer 2"><g id="Layer_1-2" data-name="Layer 1"><circle cx="8" cy="8" r="8" style="fill:#ececec"/><circle cx="43.5" cy="8" r="8" style="fill:#ececec"/><circle cx="79.1" cy="8" r="8" style="fill:#ececec"/><circle cx="114.7" cy="8" r="8" style="fill:#ececec"/><circle cx="150.3" cy="8" r="8" style="fill:#ececec"/><circle cx="185.8" cy="8" r="8" style="fill:#ececec"/><circle cx="8" cy="39.9" r="8" style="fill:#ececec"/><circle cx="43.5" cy="39.9" r="8" style="fill:#ececec"/><circle cx="79.1" cy="39.9" r="8" style="fill:#ececec"/><circle cx="114.7" cy="39.9" r="8" style="fill:#ececec"/><circle cx="150.3" cy="39.9" r="8" style="fill:#ececec"/><circle cx="185.8" cy="39.9" r="8" style="fill:#ececec"/><circle cx="8" cy="71.7" r="8" style="fill:#ececec"/><circle cx="43.5" cy="71.7" r="8" style="fill:#ececec"/><circle cx="79.1" cy="71.7" r="8" style="fill:#ececec"/><circle cx="114.7" cy="71.7" r="8" style="fill:#ececec"/><circle cx="150.3" cy="71.7" r="8" style="fill:#ececec"/><circle cx="185.8" cy="71.7" r="8" style="fill:#ececec"/><circle cx="8" cy="103.5" r="8" style="fill:#ececec"/><circle cx="43.5" cy="103.5" r="8" style="fill:#ececec"/><circle cx="79.1" cy="103.5" r="8" style="fill:#ececec"/><circle cx="114.7" cy="103.5" r="8" style="fill:#ececec"/><circle cx="150.3" cy="103.5" r="8" style="fill:#ececec"/><circle cx="185.8" cy="103.5" r="8" style="fill:#ececec"/><circle cx="8" cy="135.3" r="8" style="fill:#ececec"/><circle cx="43.5" cy="135.3" r="8" style="fill:#ececec"/><circle cx="79.1" cy="135.3" r="8" style="fill:#ececec"/><circle cx="114.7" cy="135.3" r="8" style="fill:#ececec"/><circle cx="150.3" cy="135.3" r="8" style="fill:#ececec"/><circle cx="185.8" cy="135.3" r="8" style="fill:#ececec"/><circle cx="8" cy="167.2" r="8" style="fill:#ececec"/><circle cx="43.5" cy="167.2" r="8" style="fill:#ececec"/><circle cx="79.1" cy="167.2" r="8" style="fill:#ececec"/><circle cx="114.7" cy="167.2" r="8" style="fill:#ececec"/><circle cx="150.3" cy="167.2" r="8" style="fill:#ececec"/><circle cx="185.8" cy="167.2" r="8" style="fill:#ececec"/></g></g></svg>