<?xml version="1.0" encoding="utf-8"?>
<!-- Generator: Adobe Illustrator 18.1.1, SVG Export Plug-In . SVG Version: 6.00 Build 0)  -->
<svg version="1.1" id="Layer_1" xmlns="http://www.w3.org/2000/svg" xmlns:xlink="http://www.w3.org/1999/xlink" x="0px" y="0px"
	 viewBox="0 0 500 500" enable-background="new 0 0 500 500" xml:space="preserve">
<g>
	<circle fill="#ECECEC" cx="161.1" cy="170.4" r="8"/>
	<circle fill="#ECECEC" cx="196.6" cy="170.4" r="8"/>
	<circle fill="#ECECEC" cx="232.2" cy="170.4" r="8"/>
	<circle fill="#ECECEC" cx="267.8" cy="170.4" r="8"/>
	<circle fill="#ECECEC" cx="303.4" cy="170.4" r="8"/>
	<circle fill="#ECECEC" cx="338.9" cy="170.4" r="8"/>
	<circle fill="#ECECEC" cx="161.1" cy="202.3" r="8"/>
	<circle fill="#ECECEC" cx="196.6" cy="202.3" r="8"/>
	<circle fill="#ECECEC" cx="232.2" cy="202.3" r="8"/>
	<circle fill="#ECECEC" cx="267.8" cy="202.3" r="8"/>
	<circle fill="#ECECEC" cx="303.4" cy="202.3" r="8"/>
	<circle fill="#ECECEC" cx="338.9" cy="202.3" r="8"/>
	<circle fill="#ECECEC" cx="161.1" cy="234.1" r="8"/>
	<circle fill="#ECECEC" cx="196.6" cy="234.1" r="8"/>
	<circle fill="#ECECEC" cx="232.2" cy="234.1" r="8"/>
	<circle fill="#ECECEC" cx="267.8" cy="234.1" r="8"/>
	<circle fill="#ECECEC" cx="303.4" cy="234.1" r="8"/>
	<circle fill="#ECECEC" cx="338.9" cy="234.1" r="8"/>
	<circle fill="#ECECEC" cx="161.1" cy="265.9" r="8"/>
	<circle fill="#ECECEC" cx="196.6" cy="265.9" r="8"/>
	<circle fill="#ECECEC" cx="232.2" cy="265.9" r="8"/>
	<circle fill="#ECECEC" cx="267.8" cy="265.9" r="8"/>
	<circle fill="#ECECEC" cx="303.4" cy="265.9" r="8"/>
	<circle fill="#ECECEC" cx="338.9" cy="265.9" r="8"/>
	<circle fill="#ECECEC" cx="161.1" cy="297.7" r="8"/>
	<circle fill="#ECECEC" cx="196.6" cy="297.7" r="8"/>
	<circle fill="#ECECEC" cx="232.2" cy="297.7" r="8"/>
	<circle fill="#ECECEC" cx="267.8" cy="297.7" r="8"/>
	<circle fill="#ECECEC" cx="303.4" cy="297.7" r="8"/>
	<circle fill="#ECECEC" cx="338.9" cy="297.7" r="8"/>
	<circle fill="#ECECEC" cx="161.1" cy="329.6" r="8"/>
	<circle fill="#ECECEC" cx="196.6" cy="329.6" r="8"/>
	<circle fill="#ECECEC" cx="232.2" cy="329.6" r="8"/>
	<circle fill="#ECECEC" cx="267.8" cy="329.6" r="8"/>
	<circle fill="#ECECEC" cx="303.4" cy="329.6" r="8"/>
	<circle fill="#ECECEC" cx="338.9" cy="329.6" r="8"/>
</g>
</svg>
