<?xml version="1.0" encoding="utf-8"?>
<!-- Generator: Adobe Illustrator 18.1.1, SVG Export Plug-In . SVG Version: 6.00 Build 0)  -->
<svg version="1.1" id="Layer_1" xmlns="http://www.w3.org/2000/svg" xmlns:xlink="http://www.w3.org/1999/xlink" x="0px" y="0px"
	 viewBox="1007 74 275.4 206.4" enable-background="new 1007 74 275.4 206.4" xml:space="preserve">
<g>
	<path fill="#666666" d="M1256,270.1h-232c-2.2,0-4,1.8-4,4s1.8,4,4,4h232c2.2,0,4-1.8,4-4S1258.2,270.1,1256,270.1z"/>
	<path fill="#666666" d="M1081.1,134c1.3-1.9,0.8-4.4-1.1-5.7c-1.9-1.3-4.4-0.8-5.7,1.1l-20.8,31.1l-10.1-9.5
		c-1.6-1.5-4.2-1.5-5.8,0.2c-1.5,1.6-1.5,4.2,0.2,5.8l13.6,12.9c0.8,0.7,1.8,1.1,2.8,1.1c0.2,0,0.3,0,0.5,0c1.2-0.1,2.3-0.8,2.9-1.8
		L1081.1,134z"/>
	<path fill="#666666" d="M1274.6,115.8h-15.5v-12.6c0-2.3-1.8-4.1-4.1-4.1h-58.6c-2.3,0-4.1,1.8-4.1,4.1v12.6h-15.5
		c-2.3,0-4.1,1.8-4.1,4.1v16.7c0,2.3,1.8,4.1,4.1,4.1h4.3l1.1,8.8c-10.4-5.8-21.7-9.6-33.4-11.2c0-0.2,0.1-0.5,0.1-0.7v-5.8
		c0-7.1-7.2-12.7-16.3-12.7s-16.3,5.6-16.3,12.7v5.8c0,0.5,0.1,0.9,0.2,1.3c-3.9,0.7-7.6,1.6-11.1,2.7v-61c0-2.3-1.8-4.1-4.1-4.1
		h-86.7c-2.3,0-4.1,1.8-4.1,4.1v134.1c0,2.3,1.8,4.1,4.1,4.1h21c-3,10.7-4.6,22.9-4.6,34.5c0,2.2,1.8,4,4,4H1220h16.4h16
		c2,0,3.7-1.5,4-3.5l14.5-112.9h3.8c2.3,0,4.1-1.8,4.1-4.1v-16.7C1278.7,117.6,1276.9,115.8,1274.6,115.8z M1124.6,137.4v-5.8
		c0-2.2,3.5-4.6,8.1-4.6s8.1,2.4,8.1,4.6v5.7c-1.7-0.1-3.4-0.1-5.1-0.1c-3.9,0-7.6,0.2-11.2,0.5
		C1124.5,137.7,1124.6,137.5,1124.6,137.4z M1073,204.7v-13.7h16.7L1073,204.7z M1097.4,84.5v21.6H1020c-0.4,0-0.8,0.1-1.2,0.2V84.5
		H1097.4z M1018.8,113.8c0.4,0.1,0.8,0.2,1.2,0.2h77.4v69H1069c-2.2,0-4,1.8-4,4v23.4h-46.2V113.8z M1220,249.1h-180.9
		c0.3-10.4,2-21,4.8-30.3c0-0.1,0-0.1,0-0.2h23.5c0.3,0,0.7-0.1,1-0.1c0.2,0,0.4,0.1,0.5,0.1c0.9,0,1.8-0.3,2.6-0.9l32.4-27.5
		c0.8-0.6,1.2-1.5,1.4-2.5c0.1-0.3,0.1-0.6,0.1-1v-36.8c8.7-3.1,18.6-4.6,30.2-4.6c52.1,0,94.7,46.2,96.6,103.8H1220z M1212.7,174.9
		c1.8-4.8,6.4-8,11.6-8c6.8,0,12.4,5.5,12.4,12.4c0,6.8-5.5,12.3-12.3,12.4C1221,185.7,1217.1,180.2,1212.7,174.9z M1248.9,249.1
		h-8.6c-0.5-17.5-4.7-34.4-12-49.7c9.4-1.9,16.4-10.2,16.4-20.1c0-11.3-9.2-20.5-20.5-20.5c-7.2,0-13.7,3.7-17.4,9.7
		c-4.9-5.1-10.2-9.6-15.8-13.5l-1.7-12.9h73.2L1248.9,249.1z M1200.6,107.3h50.4v8.5h-50.4V107.3z M1181,124h15.5h58.6h15.5v8.5
		H1181V124z"/>
</g>
</svg>
