<?xml version="1.0" encoding="utf-8"?>
<!-- Generator: Adobe Illustrator 18.1.1, SVG Export Plug-In . SVG Version: 6.00 Build 0)  -->
<svg version="1.1" id="Layer_1" xmlns="http://www.w3.org/2000/svg" xmlns:xlink="http://www.w3.org/1999/xlink" x="0px" y="0px"
	 viewBox="0 0 500 500" enable-background="new 0 0 500 500" xml:space="preserve">
<g>
	
		<rect x="121" y="165.4" fill="#FFFFFF" stroke="#CCCCCC" stroke-width="14" stroke-linecap="round" stroke-linejoin="round" stroke-miterlimit="10" width="133.5" height="133.5"/>
	
		<polygon fill="none" stroke="#CCCCCC" stroke-width="14" stroke-linecap="round" stroke-linejoin="round" stroke-miterlimit="10" points="
		189.6,190.4 201.1,226 238.6,226 208.3,241 219.9,273.2 189.6,249.4 159.3,270.6 170.8,241.5 140.5,226 178,226 	"/>
	
		<circle fill="#FFFFFF" stroke="#CCCCCC" stroke-width="14" stroke-linecap="round" stroke-linejoin="round" stroke-miterlimit="10" cx="284" cy="299.2" r="95.1"/>
	
		<polygon fill="none" stroke="#CCCCCC" stroke-width="14" stroke-linecap="round" stroke-linejoin="round" stroke-miterlimit="10" points="
		283.9,245.8 297.2,287 340.5,287 305.5,306.9 318.9,345.3 283.9,318.5 248.8,343.2 262.2,307.3 227.2,287 270.5,287 	"/>
	<path fill="#CCCCCC" d="M315.5,165h-10c-2.4,0-3.4,3-1.5,4.4l23.5,18.5c1,0.8,2.6,0.7,3.4-0.3l15.8-18.5c1.4-1.6,0.2-4.1-1.9-4.1
		h-8.1c-1.1,0-2.1-0.8-2.4-1.8c-2.8-10.7-19.5-64.4-67.7-64.4c-53.5,0-66.9,45.3-66.9,45.3h21.2c0,0,15.5-30.2,44-30.2
		c38.4,0,50.4,37.1,53.1,48.1C318.3,163.5,317.1,165,315.5,165z"/>
</g>
</svg>