<svg xmlns="http://www.w3.org/2000/svg" viewBox="0 0 272.1 302.5"><title>redisenio</title><g id="Layer_2" data-name="Layer 2"><g id="Layer_1-2" data-name="Layer 1"><rect x="7" y="66.6" width="133.5" height="133.5" style="fill:#fff;stroke:#666;stroke-linecap:round;stroke-linejoin:round;stroke-width:14px"/><polygon points="75.6 91.6 87.1 127.2 124.6 127.2 94.3 142.2 105.9 174.4 75.6 150.6 45.3 171.8 56.8 142.7 26.5 127.2 64 127.2 75.6 91.6" style="fill:none;stroke:#666;stroke-linecap:round;stroke-linejoin:round;stroke-width:14px"/><circle cx="170" cy="200.4" r="95.1" style="fill:#fff;stroke:#666;stroke-linecap:round;stroke-linejoin:round;stroke-width:14px"/><polygon points="169.9 147 183.2 188.2 226.5 188.2 191.5 208.1 204.9 246.5 169.9 219.7 134.8 244.4 148.2 208.5 113.2 188.2 156.5 188.2 169.9 147" style="fill:none;stroke:#666;stroke-linecap:round;stroke-linejoin:round;stroke-width:14px"/><path d="M201.5,66.2h-10a2.44,2.44,0,0,0-1.5,4.4l23.5,18.5a2.48,2.48,0,0,0,3.4-.3l15.8-18.5a2.49,2.49,0,0,0-1.9-4.1h-8.1a2.58,2.58,0,0,1-2.4-1.8C217.5,53.7,200.8,0,152.6,0,99.1,0,85.7,45.3,85.7,45.3h21.2s15.5-30.2,44-30.2c38.4,0,50.4,37.1,53.1,48.1A2.55,2.55,0,0,1,201.5,66.2Z" style="fill:#666"/></g></g></svg>