<svg xmlns="http://www.w3.org/2000/svg" viewBox="0 0 362.8 453"><title>rotulo-local</title><g id="Layer_2" data-name="Layer 2"><g id="Layer_1-2" data-name="Layer 1"><rect x="7" y="132.7" width="348.8" height="313.3" style="fill:none;stroke:#666;stroke-miterlimit:10;stroke-width:14px"/><path d="M41.6,224.7h0A34.61,34.61,0,0,1,7,190.1V132.7H76.3v57.4A34.63,34.63,0,0,1,41.6,224.7Z" style="fill:none;stroke:#666;stroke-miterlimit:10;stroke-width:14px"/><path d="M110.9,224.7h0a34.61,34.61,0,0,1-34.6-34.6V132.7h69.3v57.4A34.76,34.76,0,0,1,110.9,224.7Z" style="fill:none;stroke:#666;stroke-miterlimit:10;stroke-width:14px"/><path d="M180.2,224.7h0a34.61,34.61,0,0,1-34.6-34.6V132.7h69.3v57.4A34.76,34.76,0,0,1,180.2,224.7Z" style="fill:none;stroke:#666;stroke-miterlimit:10;stroke-width:14px"/><path d="M249.4,224.7h0a34.61,34.61,0,0,1-34.6-34.6V132.7h69.3v57.4A34.63,34.63,0,0,1,249.4,224.7Z" style="fill:none;stroke:#666;stroke-miterlimit:10;stroke-width:14px"/><path d="M318.7,224.7h0a34.61,34.61,0,0,1-34.6-34.6V132.7h69.3v57.4A34.76,34.76,0,0,1,318.7,224.7Z" style="fill:none;stroke:#666;stroke-miterlimit:10;stroke-width:14px"/><circle cx="251" cy="338.7" r="70.1" style="fill:none;stroke:#666;stroke-linecap:round;stroke-miterlimit:10;stroke-width:14px"/><path d="M239.7,368.1l-19.3-.1-.1-19.3,45.2-45.2a13.7,13.7,0,0,1,19.3,0h0a13.7,13.7,0,0,1,0,19.3Z" style="fill:none;stroke:#666;stroke-linecap:round;stroke-miterlimit:10;stroke-width:14px"/><line x1="262.3" y1="311" x2="277.5" y2="326.2" style="fill:none;stroke:#666;stroke-linecap:round;stroke-miterlimit:10;stroke-width:14px"/><rect x="48" y="332.3" width="97.6" height="113.7" style="fill:none;stroke:#666;stroke-linecap:round;stroke-miterlimit:10;stroke-width:14px"/><path d="M145.5,332.3H47.9V314.5a48.8,48.8,0,0,1,48.8-48.8h0a48.8,48.8,0,0,1,48.8,48.8Z" style="fill:none;stroke:#666;stroke-linecap:round;stroke-miterlimit:10;stroke-width:14px"/><line x1="93.4" y1="334.5" x2="93.4" y2="442.5" style="fill:none;stroke:#666;stroke-miterlimit:10;stroke-width:14px"/><path d="M217.9,76.9,201,79.1l2.2-16.9,34.4-34.4a10.32,10.32,0,0,1,14.7,0h0a10.32,10.32,0,0,1,0,14.7Z" style="fill:#666"/><line x1="231.1" y1="32" x2="246.9" y2="49" style="fill:none;stroke:#fff;stroke-linecap:round;stroke-miterlimit:10;stroke-width:14px"/><rect x="76.3" y="7" width="198.6" height="93.5" style="fill:none;stroke:#666;stroke-linecap:round;stroke-miterlimit:10;stroke-width:14px"/><line x1="110.4" y1="101.5" x2="110.4" y2="135.5" style="fill:none;stroke:#666;stroke-miterlimit:10;stroke-width:14px"/><line x1="243.4" y1="101.5" x2="243.4" y2="135.5" style="fill:none;stroke:#666;stroke-miterlimit:10;stroke-width:14px"/><path d="M185.4,7s-38,38.9-4,91.1" style="fill:none;stroke:#666;stroke-linecap:round;stroke-miterlimit:10;stroke-width:14px"/></g></g></svg>