<svg xmlns="http://www.w3.org/2000/svg" viewBox="0 0 440.74 410"><title>rotulo-vestimenta</title><g id="Layer_2" data-name="Layer 2"><g id="Layer_1-2" data-name="Layer 1"><path d="M165.15,303.1l-28-.1-.1-28,65.6-65.6a19.8,19.8,0,0,1,28.1,0h0a19.8,19.8,0,0,1,0,28.1Z" style="fill:none;stroke:#666;stroke-linecap:round;stroke-miterlimit:10;stroke-width:14px"/><line x1="198.15" y1="220.4" x2="220.15" y2="242.5" style="fill:none;stroke:#666;stroke-linecap:round;stroke-miterlimit:10;stroke-width:14px"/><path d="M159.45,7S143,79.8,220.35,79.8s59-72.8,59-72.8" style="fill:none;stroke:#666;stroke-linecap:round;stroke-miterlimit:10;stroke-width:14px"/><polygon points="431.15 63.1 338.35 7 104.35 7 9.65 63.1 74.25 169.7 103.65 150 103.65 403 338.65 403 338.65 147.5 367.15 169.7 431.15 63.1" style="fill:none;stroke:#666;stroke-linecap:round;stroke-miterlimit:10;stroke-width:14px"/><path d="M103.65,325.9s28.1,36.5,78.1,36.5,101.8-42.4,101.8-101.8-50.3-101.8-101.8-101.8-78.1,36.5-78.1,36.5" style="fill:none;stroke:#666;stroke-linecap:round;stroke-miterlimit:10;stroke-width:14px"/></g></g></svg>