<?xml version="1.0" encoding="utf-8"?>
<!-- Generator: Adobe Illustrator 21.1.0, SVG Export Plug-In . SVG Version: 6.00 Build 0)  -->
<svg version="1.1" id="Layer_1" xmlns="http://www.w3.org/2000/svg" xmlns:xlink="http://www.w3.org/1999/xlink" x="0px" y="0px"
	 viewBox="0 0 500 500" style="enable-background:new 0 0 500 500;" xml:space="preserve">
<style type="text/css">
	.st0{fill:none;stroke:#666666;stroke-width:12;stroke-miterlimit:10;}
	.st1{fill:none;stroke:#666666;stroke-width:12;stroke-linecap:round;stroke-miterlimit:10;}
	.st2{fill:#666666;}
	.st3{fill:none;stroke:#FFFFFF;stroke-width:12;stroke-linecap:round;stroke-miterlimit:10;}
</style>
<rect x="125.5" y="191.7" class="st0" width="249" height="223.7"/>
<path class="st0" d="M150.2,257.4L150.2,257.4c-13.6,0-24.7-11.1-24.7-24.7v-41H175v41C175,246.4,163.9,257.4,150.2,257.4
	C150.2,257.4,150.2,257.4,150.2,257.4z"/>
<path class="st0" d="M199.7,257.4L199.7,257.4c-13.6,0-24.7-11.1-24.7-24.7v-41h49.5v41C224.4,246.4,213.3,257.4,199.7,257.4z"/>
<path class="st0" d="M249.1,257.4L249.1,257.4c-13.6,0-24.7-11.1-24.7-24.7v-41h49.5v41C273.9,246.4,262.8,257.4,249.1,257.4z"/>
<path class="st0" d="M298.5,257.4L298.5,257.4c-13.6,0-24.7-11.1-24.7-24.7v-41h49.5v41C323.3,246.4,312.2,257.4,298.5,257.4
	C298.6,257.4,298.6,257.4,298.5,257.4z"/>
<path class="st0" d="M348,257.4L348,257.4c-13.6,0-24.7-11.1-24.7-24.7v-41h49.5v41C372.7,246.4,361.7,257.4,348,257.4z"/>
<circle class="st1" cx="299.7" cy="338.8" r="50"/>
<path class="st1" d="M291.6,359.8l-13.8-0.1l-0.1-13.8l32.3-32.3c3.8-3.8,10-3.8,13.8,0l0,0c3.8,3.8,3.8,10,0,13.8L291.6,359.8z"/>
<line class="st1" x1="307.8" y1="319" x2="318.6" y2="329.9"/>
<rect x="154.8" y="334.2" class="st1" width="69.7" height="81.2"/>
<path class="st1" d="M224.4,334.2h-69.7v-12.7c0-19.2,15.6-34.8,34.8-34.8l0,0c19.2,0,34.8,15.6,34.8,34.8V334.2z"/>
<line class="st0" x1="187.2" y1="335.8" x2="187.2" y2="412.9"/>
<path class="st2" d="M276.1,151.9l-12.1,1.6l1.6-12.1l24.6-24.6c2.9-2.9,7.5-2.9,10.4-0.1c0,0,0.1,0.1,0.1,0.1l0,0
	c2.9,2.9,2.9,7.5,0.1,10.4c0,0-0.1,0.1-0.1,0.1L276.1,151.9z"/>
<line class="st3" x1="285.5" y1="119.8" x2="296.8" y2="132"/>
<rect x="175" y="102" class="st1" width="141.8" height="66.7"/>
<line class="st0" x1="199.3" y1="169.5" x2="199.3" y2="193.7"/>
<line class="st0" x1="294.3" y1="169.5" x2="294.3" y2="193.7"/>
<path class="st1" d="M252.9,102c0,0-27.1,27.8-2.9,65"/>
</svg>
