<svg xmlns="http://www.w3.org/2000/svg" viewBox="0 0 406.3 412.4"><title>rotulo-etiqueta</title><g id="Layer_2" data-name="Layer 2"><g id="Layer_1-2" data-name="Layer 1"><path d="M218.4,37.3c0,16.7-46.8,30.3-104.4,30.3S7.1,54,7.1,37.3,56.3,7,114,7,218.4,20.5,218.4,37.3Z" style="fill:none;stroke:#666;stroke-linecap:round;stroke-miterlimit:10;stroke-width:14px"/><ellipse cx="82.8" cy="35.9" rx="30.7" ry="8.9" style="fill:#666"/><path d="M30.3,271.2H7V237.9l61-61a20,20,0,0,1,28.3,0h0a20,20,0,0,1,0,28.3Z" style="fill:none;stroke:#666;stroke-linecap:round;stroke-miterlimit:10;stroke-width:14px"/><line x1="64" y1="188" x2="86.2" y2="210.2" style="fill:none;stroke:#666;stroke-linecap:round;stroke-miterlimit:10;stroke-width:14px"/><path d="M233.7,300.1l-.8.8,12.8,12.8.7-.7a9.11,9.11,0,0,0,0-12.8A8.73,8.73,0,0,0,233.7,300.1Z" style="fill:#666"/><polygon points="203.9 330 203.9 342.7 216.7 342.8 239.7 319.7 226.9 307 203.9 330" style="fill:#666"/><polygon points="123.3 238.1 123.3 182.2 220.1 143.4 399.3 143.4 399.3 197.9 317.9 238.1 123.3 238.1" style="fill:none;stroke:#666;stroke-linecap:round;stroke-miterlimit:10;stroke-width:14px"/><line x1="218.4" y1="37.7" x2="218.4" y2="143.4" style="fill:none;stroke:#666;stroke-linecap:round;stroke-miterlimit:10;stroke-width:14px"/><path d="M7.1,37.7v314s44.5,29,130.5,10.3" style="fill:none;stroke:#666;stroke-linecap:round;stroke-miterlimit:10;stroke-width:14px"/><path d="M11.3,136.4c10.7-18.5,90.9-43,126.3,45.8" style="fill:none;stroke:#666;stroke-linecap:round;stroke-miterlimit:10;stroke-width:14px"/><path d="M7.1,308c3.5,12.2,100.8,50.1,130.5-50.6" style="fill:none;stroke:#666;stroke-linecap:round;stroke-miterlimit:10;stroke-width:14px"/><polyline points="123.3 182.2 317.9 182.2 399.3 143.4" style="fill:none;stroke:#666;stroke-linecap:round;stroke-miterlimit:10;stroke-width:14px"/><polyline points="137.6 238.1 137.6 405.4 317.9 405.4 384.6 362.1 384.6 212.9" style="fill:none;stroke:#666;stroke-linecap:round;stroke-miterlimit:10;stroke-width:14px"/><line x1="317.9" y1="238.1" x2="317.9" y2="405.4" style="fill:none;stroke:#666;stroke-linecap:round;stroke-miterlimit:10;stroke-width:14px"/><circle cx="225.1" cy="320.1" r="46" style="fill:none;stroke:#666;stroke-linecap:round;stroke-miterlimit:10;stroke-width:14px"/><line x1="317.9" y1="182.2" x2="317.9" y2="238.1" style="fill:none;stroke:#666;stroke-linecap:round;stroke-miterlimit:10;stroke-width:14px"/></g></g></svg>