<?xml version="1.0" encoding="utf-8"?>
<!-- Generator: Adobe Illustrator 18.1.1, SVG Export Plug-In . SVG Version: 6.00 Build 0)  -->
<svg version="1.1" id="Layer_1" xmlns="http://www.w3.org/2000/svg" xmlns:xlink="http://www.w3.org/1999/xlink" x="0px" y="0px"
	 viewBox="0 0 1366 768" enable-background="new 0 0 1366 768" xml:space="preserve">
<g>
	<g>
		
			<ellipse fill="none" stroke="#666666" stroke-width="14" stroke-linecap="round" stroke-miterlimit="10" cx="624.9" cy="430.7" rx="93.2" ry="136.7"/>
		<g>
			<path fill="none" stroke="#666666" stroke-width="14" stroke-linecap="round" stroke-miterlimit="10" d="M607.5,494.1l-30.3,5.7
				l3.9-44.4l61.7-90.5c7.3-10.7,19.1-10.7,26.4,0l0,0c7.3,10.7,7.3,28,0,38.7L607.5,494.1z"/>
			
				<line fill="none" stroke="#666666" stroke-width="14" stroke-linecap="round" stroke-miterlimit="10" x1="637.9" y1="380" x2="658.6" y2="410.4"/>
		</g>
	</g>
	<polygon fill="none" stroke="#666666" stroke-width="14" stroke-linecap="round" stroke-miterlimit="10" points="529,596.6 
		529,259.1 835,351.4 835,522.8 	"/>
	<path fill="none" stroke="#666666" stroke-width="14" stroke-linecap="round" stroke-miterlimit="10" d="M711.5,380
		c0,0,18.5,99.9,60.4,99.1s62.4-53,62.4-53"/>
	<polyline fill="none" stroke="#666666" stroke-width="14" stroke-linecap="round" stroke-miterlimit="10" points="528,260 488,260 
		488,598 528,598 	"/>
	<path fill="none" stroke="#666666" stroke-width="14" stroke-linecap="round" stroke-miterlimit="10" d="M569.7,238H617l-10.1-17.6
		c-6.3-11.1-20.9-11.1-27.2,0L569.7,238z"/>
	<path fill="none" stroke="#666666" stroke-width="14" stroke-linecap="round" stroke-miterlimit="10" d="M531.8,259.1v-55.4
		c0-18.9,13.8-34.3,30.8-34.3h0c17,0,30.8,15.3,30.8,34.3v7.9"/>
	<g>
		<path fill="none" stroke="#666666" stroke-width="14" stroke-linecap="round" stroke-miterlimit="10" d="M823.1,311.9h47.4
			l-10.1-17.6c-6.3-11.1-20.9-11.1-27.2,0L823.1,311.9z"/>
		<path fill="none" stroke="#666666" stroke-width="14" stroke-linecap="round" stroke-miterlimit="10" d="M785.2,333v-55.4
			c0-18.9,13.8-34.3,30.8-34.3h0c17,0,30.8,15.3,30.8,34.3v7.9"/>
	</g>
	<g>
		<path fill="none" stroke="#666666" stroke-width="14" stroke-linecap="round" stroke-miterlimit="10" d="M700.9,272.6h47.4
			L738.2,255c-6.3-11.1-20.9-11.1-27.2,0L700.9,272.6z"/>
		<path fill="none" stroke="#666666" stroke-width="14" stroke-linecap="round" stroke-miterlimit="10" d="M663,293.7v-55.4
			c0-18.9,13.8-34.3,30.8-34.3h0c17,0,30.8,15.3,30.8,34.3v7.9"/>
	</g>
</g>
</svg>
