<?xml version="1.0" encoding="utf-8"?>
<!-- Generator: Adobe Illustrator 18.1.1, SVG Export Plug-In . SVG Version: 6.00 Build 0)  -->
<svg version="1.1" id="Layer_1" xmlns="http://www.w3.org/2000/svg" xmlns:xlink="http://www.w3.org/1999/xlink" x="0px" y="0px"
	 viewBox="0 0 500 500" enable-background="new 0 0 500 500" xml:space="preserve">
<g>
	
		<circle fill="none" stroke="#434343" stroke-width="14" stroke-linecap="round" stroke-linejoin="round" stroke-miterlimit="10" cx="335.8" cy="339.9" r="48.1"/>
	<path fill="none" stroke="#434343" stroke-width="14" stroke-linecap="round" stroke-linejoin="round" stroke-miterlimit="10" d="
		M209.2,339.9c0,26.6-21.5,48.1-48.1,48.1S113,366.5,113,339.9c0-2.3,0.2-4.6,0.5-6.8c3.3-23.3,23.4-41.3,47.6-41.3
		C187.7,291.8,209.2,313.3,209.2,339.9z"/>
	
		<polyline fill="none" stroke="#434343" stroke-width="14" stroke-linecap="round" stroke-linejoin="round" stroke-miterlimit="10" points="
		392,342 432,342 432,227 369.5,227 342.4,157 277,157 277,113 68,113 68,342 109,342 	"/>
	
		<line fill="none" stroke="#434343" stroke-width="14" stroke-linecap="round" stroke-linejoin="round" stroke-miterlimit="10" x1="211" y1="342" x2="283" y2="342"/>
	
		<rect x="117.1" y="153" fill="none" stroke="#434343" stroke-width="14" stroke-linecap="round" stroke-linejoin="round" stroke-miterlimit="10" width="111.6" height="95"/>
	
		<polygon fill="none" stroke="#434343" stroke-width="14" stroke-linecap="round" stroke-linejoin="round" stroke-miterlimit="10" points="
		277,187 321.7,187 340,247 277,247 	"/>
</g>
</svg>