<svg xmlns="http://www.w3.org/2000/svg" viewBox="0 0 549 420"><title>ritulo-furgoneta</title><g id="Layer_2" data-name="Layer 2"><g id="Layer_1-2" data-name="Layer 1"><circle cx="400.8" cy="342.4" r="70.6" style="fill:none;stroke:#666;stroke-linecap:round;stroke-miterlimit:10;stroke-width:14px"/><path d="M215,342.4a70.6,70.6,0,0,1-141.2,0,66.32,66.32,0,0,1,.7-10,70.61,70.61,0,0,1,140.5,10Z" style="fill:none;stroke:#666;stroke-linecap:round;stroke-miterlimit:10;stroke-width:14px"/><polyline points="471 341 542 341 542 185 450.3 185 410.5 71 315 71 315 7 7 7 7 341 73 341" style="fill:none;stroke:#666;stroke-linecap:round;stroke-miterlimit:10;stroke-width:14px"/><line x1="215" y1="341" x2="321" y2="341" style="fill:none;stroke:#666;stroke-linecap:round;stroke-miterlimit:10;stroke-width:14px"/><polygon points="315 108 380 108 406.9 185 315 185 315 108" style="fill:none;stroke:#666;stroke-linecap:round;stroke-miterlimit:10;stroke-width:14px"/><circle cx="166" cy="141.7" r="94.3" style="fill:none;stroke:#666;stroke-linecap:round;stroke-miterlimit:10;stroke-width:14px"/><path d="M147.8,185.4l-30.7,3.9,3.9-30.7,62.4-62.4a18.83,18.83,0,0,1,26.7,0h0a18.83,18.83,0,0,1,0,26.7Z" style="fill:none;stroke:#666;stroke-linecap:round;stroke-miterlimit:10;stroke-width:14px"/><line x1="179.2" y1="106.7" x2="200.2" y2="127.7" style="fill:none;stroke:#666;stroke-linecap:round;stroke-miterlimit:10;stroke-width:14px"/></g></g></svg>