<svg xmlns="http://www.w3.org/2000/svg" viewBox="0 0 401.59 443.09"><title>rotulo-banner</title><g id="Layer_2" data-name="Layer 2"><g id="Layer_1-2" data-name="Layer 1"><ellipse cx="143.9" cy="268.3" rx="93.2" ry="136.7" style="fill:none;stroke:#666;stroke-linecap:round;stroke-miterlimit:10;stroke-width:14px"/><path d="M126.5,331.7l-30.3,5.7,3.9-44.4,61.7-90.5c7.3-10.7,19.1-10.7,26.4,0h0c7.3,10.7,7.3,28,0,38.7Z" style="fill:none;stroke:#666;stroke-linecap:round;stroke-miterlimit:10;stroke-width:14px"/><line x1="156.9" y1="217.6" x2="177.6" y2="248" style="fill:none;stroke:#666;stroke-linecap:round;stroke-miterlimit:10;stroke-width:14px"/><polygon points="48 434.2 48 96.7 354 189 354 360.4 48 434.2" style="fill:none;stroke:#666;stroke-linecap:round;stroke-miterlimit:10;stroke-width:14px"/><path d="M230.5,217.6s18.5,99.9,60.4,99.1,62.4-53,62.4-53" style="fill:none;stroke:#666;stroke-linecap:round;stroke-miterlimit:10;stroke-width:14px"/><polyline points="47 97.6 7 97.6 7 435.6 47 435.6" style="fill:none;stroke:#666;stroke-linecap:round;stroke-miterlimit:10;stroke-width:14px"/><path d="M88.7,75.6H136L125.9,58c-6.3-11.1-20.9-11.1-27.2,0Z" style="fill:none;stroke:#666;stroke-linecap:round;stroke-miterlimit:10;stroke-width:14px"/><path d="M50.8,96.7V41.3C50.8,22.4,64.6,7,81.6,7h0c17,0,30.8,15.3,30.8,34.3v7.9" style="fill:none;stroke:#666;stroke-linecap:round;stroke-miterlimit:10;stroke-width:14px"/><path d="M342.1,149.5h47.4l-10.1-17.6c-6.3-11.1-20.9-11.1-27.2,0Z" style="fill:none;stroke:#666;stroke-linecap:round;stroke-miterlimit:10;stroke-width:14px"/><path d="M304.2,170.6V115.2c0-18.9,13.8-34.3,30.8-34.3h0c17,0,30.8,15.3,30.8,34.3v7.9" style="fill:none;stroke:#666;stroke-linecap:round;stroke-miterlimit:10;stroke-width:14px"/><path d="M219.9,110.2h47.4L257.2,92.6c-6.3-11.1-20.9-11.1-27.2,0Z" style="fill:none;stroke:#666;stroke-linecap:round;stroke-miterlimit:10;stroke-width:14px"/><path d="M182,131.3V75.9c0-18.9,13.8-34.3,30.8-34.3h0c17,0,30.8,15.3,30.8,34.3v7.9" style="fill:none;stroke:#666;stroke-linecap:round;stroke-miterlimit:10;stroke-width:14px"/></g></g></svg>