<?xml version="1.0" encoding="utf-8"?>
<!-- Generator: Adobe Illustrator 21.1.0, SVG Export Plug-In . SVG Version: 6.00 Build 0)  -->
<svg version="1.1" id="Layer_1" xmlns="http://www.w3.org/2000/svg" xmlns:xlink="http://www.w3.org/1999/xlink" x="0px" y="0px"
	 viewBox="0 0 500 500" style="enable-background:new 0 0 500 500;" xml:space="preserve">
<style type="text/css">
	.st0{fill:none;stroke:#434343;stroke-width:14;stroke-linecap:round;stroke-linejoin:round;}
</style>
<g id="Layer_2">
	<g id="Layer_1-2">
		<circle class="st0" cx="347.8" cy="330.9" r="48.1"/>
		<path class="st0" d="M221.2,330.9c0,26.6-21.5,48.1-48.1,48.1c-26.6,0-48.1-21.5-48.1-48.1c0,0,0,0,0,0c0-2.3,0.2-4.5,0.5-6.8
			c3.7-26.3,28.1-44.6,54.4-40.8C203.6,286.6,221.2,307,221.2,330.9z"/>
		<polyline class="st0" points="404,333 444,333 444,218 381.5,218 354.4,148 289,148 289,104 80,104 80,333 121,333 		"/>
		<line class="st0" x1="223" y1="333" x2="295" y2="333"/>
		<rect x="129.1" y="144" class="st0" width="111.6" height="95"/>
		<polygon class="st0" points="289,178 333.7,178 352,238 289,238 		"/>
	</g>
</g>
</svg>
