<svg xmlns="http://www.w3.org/2000/svg" viewBox="0 0 655 465.09"><title>ritulo-vehicular</title><g id="Layer_2" data-name="Layer 2"><g id="Layer_1-2" data-name="Layer 1"><line x1="435.6" y1="400.59" x2="229.6" y2="400.59" style="fill:none;stroke:#666;stroke-linecap:round;stroke-miterlimit:10;stroke-width:14px"/><circle cx="174.4" cy="154.29" r="122.6" style="fill:none;stroke:#666;stroke-linecap:round;stroke-miterlimit:10;stroke-width:14px"/><path d="M150.8,211.19l-39.8,5.1,5.1-39.8,81.1-81.1a24.5,24.5,0,0,1,34.7,0h0a24.5,24.5,0,0,1,0,34.7Z" style="fill:none;stroke:#666;stroke-linecap:round;stroke-miterlimit:10;stroke-width:14px"/><line x1="191.5" y1="108.89" x2="218.8" y2="136.19" style="fill:none;stroke:#666;stroke-linecap:round;stroke-miterlimit:10;stroke-width:14px"/><ellipse cx="506.4" cy="378.59" rx="73.1" ry="79.5" style="fill:none;stroke:#666;stroke-linecap:round;stroke-miterlimit:10;stroke-width:14px"/><circle cx="151.6" cy="378.59" r="79.5" style="fill:none;stroke:#666;stroke-linecap:round;stroke-miterlimit:10;stroke-width:14px"/><path d="M579.5,400.39h27.2c24.2,0,41.3-27.1,41.3-53.1,0-134.4-108.7-162.3-134-193.6-20.4-25.2-79.2-146.1-217.2-146.1-25.6,0-85.2-7-174.3,27.2-88.6,34-144.5,236.9-99.7,342.5,6.1,14.3,18.5,23.2,32,23.2H75.3" style="fill:none;stroke:#666;stroke-linecap:round;stroke-miterlimit:10;stroke-width:14px"/><path d="M326.8,63.79l12.8,120.7c1.1,10.6,6.3,18.4,12.4,18.4h96.6c11.8,0,20.4-23.6,12.6-39.3C431.2,102.69,360.2,55.59,326.8,63.79Z" style="fill:none;stroke:#666;stroke-linecap:round;stroke-miterlimit:10;stroke-width:14px"/></g></g></svg>