<svg xmlns="http://www.w3.org/2000/svg" viewBox="0 0 378 289"><title>rotulo</title><g id="Layer_2" data-name="Layer 2"><g id="Layer_1-2" data-name="Layer 1"><circle cx="274.8" cy="233.9" r="48.1" style="fill:none;stroke:#434343;stroke-linecap:round;stroke-linejoin:round;stroke-width:14px"/><path d="M148.2,233.9a48.1,48.1,0,1,1-96.2,0,50.61,50.61,0,0,1,.5-6.8,48.09,48.09,0,0,1,95.7,6.8Z" style="fill:none;stroke:#434343;stroke-linecap:round;stroke-linejoin:round;stroke-width:14px"/><polyline points="331 236 371 236 371 121 308.5 121 281.4 51 216 51 216 7 7 7 7 236 48 236" style="fill:none;stroke:#434343;stroke-linecap:round;stroke-linejoin:round;stroke-width:14px"/><line x1="150" y1="236" x2="222" y2="236" style="fill:none;stroke:#434343;stroke-linecap:round;stroke-linejoin:round;stroke-width:14px"/><rect x="56.1" y="47" width="111.6" height="95" style="fill:none;stroke:#434343;stroke-linecap:round;stroke-linejoin:round;stroke-width:14px"/><polygon points="216 81 260.7 81 279 141 216 141 216 81" style="fill:none;stroke:#434343;stroke-linecap:round;stroke-linejoin:round;stroke-width:14px"/></g></g></svg>