<?xml version="1.0" encoding="utf-8"?>
<!-- Generator: Adobe Illustrator 18.1.1, SVG Export Plug-In . SVG Version: 6.00 Build 0)  -->
<svg version="1.1" id="Layer_1" xmlns="http://www.w3.org/2000/svg" xmlns:xlink="http://www.w3.org/1999/xlink" x="0px" y="0px"
	 viewBox="260.6 202.3 44.4 58" enable-background="new 260.6 202.3 44.4 58" xml:space="preserve">
<g>
	<path fill="#666666" d="M305.1,232.1l-2.2-6.6l2.2-6.6c0.1-0.4,0-0.8-0.3-1l-5.6-4.1l-2.2-6.6c-0.1-0.4-0.5-0.6-0.9-0.6h-7
		l-5.6-4.1c-0.3-0.2-0.8-0.2-1.1,0l-5.6,4.1h-7c-0.4,0-0.8,0.3-0.9,0.6l-2.2,6.6l-5.6,4.1c-0.3,0.2-0.5,0.7-0.3,1l2.2,6.7l-2.2,6.8
		c-0.1,0.4,0,0.8,0.3,1l5.7,4.3l2.2,7.1c0.1,0.4,0.5,0.7,0.9,0.7h3.2l0,14.1c0,0.3,0.2,0.7,0.5,0.8c0.1,0.1,0.3,0.1,0.4,0.1
		c0.2,0,0.4-0.1,0.5-0.2l8.5-5.6l8.4,5.6c0.3,0.2,0.6,0.2,1,0c0.3-0.2,0.5-0.5,0.5-0.8l0-14.1h3.4c0.4,0,0.8-0.3,0.9-0.7l2.2-7.1
		l5.7-4.6C305.1,232.8,305.2,232.4,305.1,232.1z M274.8,245.4h1.9l0.2,0.2v10.8l-2.1,1.4L274.8,245.4z M282.3,252.9l-3.5,2.3v-8.3
		l3.6,2.6c0.2,0.1,0.4,0.2,0.5,0.2s0.4-0.1,0.5-0.2l3.4-2.5v8.1l-3.5-2.3C283,252.7,282.6,252.6,282.3,252.9z M290.8,257.8l-2.1-1.4
		v-10.7l0.4-0.3h1.7L290.8,257.8z M297.7,236.4c-0.1,0.1-0.3,0.3-0.3,0.5l-2,6.7h-6.6c-0.2,0-0.4,0.1-0.5,0.2l-5.3,3.9l-4.1-3
		c-0.1-0.4-0.5-0.8-0.9-0.8c0,0-0.1,0-0.1,0l-0.2-0.1c-0.2-0.1-0.3-0.2-0.5-0.2h-2.9c-0.1,0-0.2,0-0.3,0c0,0,0,0,0,0
		c-0.1,0-0.2,0-0.3,0h-3.2l-2-6.7c-0.1-0.2-0.2-0.3-0.3-0.5l-5.4-4.1l2.1-6.4c0.1-0.2,0.1-0.4,0-0.6l-2-6.3l5.3-3.8
		c0.2-0.1,0.3-0.3,0.3-0.5l2-6.2h6.6c0.2,0,0.4-0.1,0.5-0.2l5.3-3.9l5.3,3.9c0.2,0.1,0.3,0.2,0.5,0.2h6.6l2,6.2
		c0.1,0.2,0.2,0.3,0.3,0.5l5.3,3.8l-2,6.3c-0.1,0.2-0.1,0.4,0,0.6l2.1,6.3L297.7,236.4z"/>
	<path fill="#666666" d="M282.9,208.3c-9.6,0-17.4,7.8-17.4,17.4c0,9.6,7.8,17.4,17.4,17.4c9.6,0,17.4-7.8,17.4-17.4
		C300.3,216.2,292.5,208.3,282.9,208.3z M282.9,241.3c-8.6,0-15.6-7-15.6-15.6s7-15.6,15.6-15.6c8.6,0,15.6,7,15.6,15.6
		S291.5,241.3,282.9,241.3z"/>
	<path fill="#666666" d="M282.9,212c-7.6,0-13.8,6.2-13.8,13.8c0,7.6,6.2,13.8,13.8,13.8c7.6,0,13.8-6.2,13.8-13.8
		C296.6,218.2,290.5,212,282.9,212z M282.9,237.7c-6.6,0-11.9-5.3-11.9-11.9c0-6.6,5.3-11.9,11.9-11.9s11.9,5.3,11.9,11.9
		C294.8,232.3,289.4,237.7,282.9,237.7z"/>
	<path fill="#666666" d="M283.2,223.7c-1,0-1.9,0.2-2.8,0.7l0.5-3.3l0.1-0.9l5.3,0.1c0.9,0,1.4-0.4,1.4-1.2c0-0.8-0.4-1.2-1.3-1.2
		h-6.2c-0.4,0-0.8,0.1-1,0.4c-0.3,0.3-0.4,0.6-0.5,1c-0.1,0.5-0.2,1.5-0.5,3.1c-0.3,1.5-0.4,2.6-0.5,3.3c-0.1,0.4,0.1,0.8,0.4,1
		s0.7,0.4,1.1,0.4c0.3,0,0.8-0.2,1.6-0.5c0.8-0.3,1.5-0.5,2-0.5c0.9,0,1.6,0.3,2.1,0.8c0.5,0.5,0.8,1.2,0.8,2c0,0.9-0.3,1.6-0.9,2.2
		c-0.6,0.5-1.3,0.8-2.2,0.8c-0.9,0-1.8-0.3-2.9-0.9c-0.5-0.3-0.8-0.4-1.1-0.4c-0.4,0-0.6,0.1-0.9,0.4c-0.2,0.3-0.4,0.6-0.4,0.9
		c0,0.3,0.1,0.5,0.2,0.8c0.2,0.2,0.4,0.4,0.9,0.7c1.2,0.7,2.6,1.1,4.1,1.1c1.8,0,3.2-0.5,4.2-1.6c1-1.1,1.6-2.4,1.6-4.1
		c0-1.4-0.5-2.6-1.4-3.5C286,224.2,284.8,223.7,283.2,223.7z"/>
</g>
</svg>
