<?xml version="1.0" encoding="utf-8"?>
<!-- Generator: Adobe Illustrator 18.1.1, SVG Export Plug-In . SVG Version: 6.00 Build 0)  -->
<svg version="1.1" id="Layer_1" xmlns="http://www.w3.org/2000/svg" xmlns:xlink="http://www.w3.org/1999/xlink" x="0px" y="0px"
	 viewBox="1062.9 -22.8 313.5 303.2" enable-background="new 1062.9 -22.8 313.5 303.2" xml:space="preserve">
<g>
	<path fill="#676767" d="M1219.6-17.7c-80.8,0-146.5,65.7-146.5,146.5s65.7,146.5,146.5,146.5s146.5-65.7,146.5-146.5
		S1300.4-17.7,1219.6-17.7z M1219.6,257.7c-71.1,0-128.9-57.8-128.9-128.9S1148.5-0.2,1219.6-0.2c71.1,0,128.9,57.8,128.9,128.9
		S1290.7,257.7,1219.6,257.7z"/>
	<path fill="#676767" d="M1300.7,53.6h-160.3c-4.9,0-8.8,3.9-8.8,8.8v30V195c0,4.9,3.9,8.8,8.8,8.8h160.3c4.9,0,8.8-3.9,8.8-8.8
		V92.3v-30C1309.5,57.5,1305.6,53.6,1300.7,53.6z M1149.3,71.2H1292v12.4h-142.7V71.2z M1149.3,186.3v-85.1H1292v85.1H1149.3z"/>
	<path fill="#676767" d="M1214.1,110.6h-44.5c-4.9,0-8.8,3.9-8.8,8.8v46c0,4.9,3.9,8.8,8.8,8.8h44.5c4.9,0,8.8-3.9,8.8-8.8v-46
		C1222.9,114.5,1219,110.6,1214.1,110.6z M1205.3,156.6h-26.9v-28.4h26.9V156.6z"/>
	<path fill="#676767" d="M1271.8,112.5h-31.3c-4.4,0-8.1,3.6-8.1,8.1c0,4.4,3.6,8.1,8.1,8.1h31.3c4.4,0,8.1-3.6,8.1-8.1
		C1279.8,116.1,1276.2,112.5,1271.8,112.5z"/>
	<path fill="#676767" d="M1271.8,138.1h-31.3c-4.4,0-8.1,3.6-8.1,8.1c0,4.4,3.6,8.1,8.1,8.1h31.3c4.4,0,8.1-3.6,8.1-8.1
		C1279.8,141.7,1276.2,138.1,1271.8,138.1z"/>
</g>
</svg>
