<svg xmlns="http://www.w3.org/2000/svg" viewBox="0 0 96.34 61.97"><defs><style>.cls-1{fill:none;stroke:#666;stroke-linecap:round;stroke-linejoin:round;stroke-width:4px;}</style></defs><title>sitio-web-profesional</title><g id="Layer_2" data-name="Layer 2"><g id="Layer_1-2" data-name="Layer 1"><path class="cls-1" d="M15.44,2h65a4.35,4.35,0,0,1,4.35,4.35V50.16a0,0,0,0,1,0,0H11.09a0,0,0,0,1,0,0V6.35A4.35,4.35,0,0,1,15.44,2Z"/><rect class="cls-1" x="20.27" y="13.76" width="12.32" height="12.32"/><rect class="cls-1" x="41.7" y="13.76" width="12.32" height="12.32"/><rect class="cls-1" x="63.12" y="13.76" width="12.32" height="12.32"/><polygon class="cls-1" points="84.88 50.06 94.34 59.97 2 59.97 11.09 49.76 84.88 50.06"/><line class="cls-1" x1="20" y1="33.97" x2="32" y2="33.97"/><line class="cls-1" x1="20" y1="39.97" x2="26" y2="39.97"/><line class="cls-1" x1="41" y1="33.97" x2="53" y2="33.97"/><line class="cls-1" x1="41" y1="39.97" x2="48" y2="39.97"/><line class="cls-1" x1="63" y1="33.97" x2="75" y2="33.97"/><line class="cls-1" x1="63" y1="39.97" x2="70" y2="39.97"/></g></g></svg>