<?xml version="1.0" encoding="utf-8"?>
<!-- Generator: Adobe Illustrator 22.0.0, SVG Export Plug-In . SVG Version: 6.00 Build 0)  -->
<svg version="1.1" id="Capa_1" xmlns="http://www.w3.org/2000/svg" xmlns:xlink="http://www.w3.org/1999/xlink" x="0px" y="0px"
	 viewBox="0 0 400 400" style="enable-background:new 0 0 400 400;" xml:space="preserve">
<style type="text/css">
	.st0{fill:none;stroke:#676767;stroke-width:23;stroke-miterlimit:10;}
	.st1{fill:none;stroke:#676767;stroke-width:23;stroke-linecap:round;stroke-miterlimit:10;}
	.st2{fill:#FFFFFF;}
	.st3{fill:none;stroke:#676767;stroke-width:23;stroke-linejoin:round;stroke-miterlimit:10;}
	.st4{fill:#676767;}
	.st5{fill:none;stroke:#676767;stroke-width:23;stroke-linecap:round;stroke-linejoin:round;stroke-miterlimit:10;}
</style>
<g>
	<path class="st3" d="M289.2,188.9c-3.9,0-7.7,0.4-11.4,1.3c0.1-1.3,0.1-2.7,0.1-4c0-39.9-32.4-72.3-72.3-72.3
		c-34.6,0-63.4,24.3-70.6,56.7c-5.2-1.4-10.7-2.2-16.3-2.2c-34.2,0-61.9,27.7-61.9,61.9c0,33.3,24.3,61.1,57.2,61.9
		c43.8,1,175.1,0.1,175.1,0.1c28.5,0,51.7-23.1,51.7-51.7S317.7,188.9,289.2,188.9z"/>
</g>
<polyline class="st3" points="175.4,187.3 225.2,237.1 354.9,107.4 "/>
</svg>
