<?xml version="1.0" encoding="utf-8"?>
<!-- Generator: Adobe Illustrator 18.1.1, SVG Export Plug-In . SVG Version: 6.00 Build 0)  -->
<svg version="1.1" id="Layer_1" xmlns="http://www.w3.org/2000/svg" xmlns:xlink="http://www.w3.org/1999/xlink" x="0px" y="0px"
	 viewBox="0 83.8 612 623.3" enable-background="new 0 83.8 612 623.3" xml:space="preserve">
<path fill="#666666" d="M519,182.5c-56.9-56.9-132.6-88.2-213-88.2c-80.5,0-156.1,31.3-213,88.2S4.7,315,4.7,395.5
	c0,80.5,31.3,156.1,88.2,213s132.6,88.2,213,88.2c80.5,0,156.1-31.3,213-88.2s88.2-132.6,88.2-213C607.3,315,575.9,239.4,519,182.5z
	 M306,660.6c-146.2,0-265.1-118.9-265.1-265.1S159.8,130.3,306,130.3s265.1,118.9,265.1,265.1S452.2,660.6,306,660.6z"/>
<g>
	<path fill="#666666" d="M516.3,185.2C460.1,129,385.4,98.1,306,98.1S151.9,129,95.7,185.2S8.6,316.1,8.6,395.5
		c0,79.4,30.9,154.1,87.1,210.3s130.9,87.1,210.3,87.1s154.1-30.9,210.3-87.1c56.2-56.2,87.1-130.9,87.1-210.3
		C603.4,316.1,572.5,241.4,516.3,185.2z M306,657.2c-144.3,0-261.7-117.4-261.7-261.7c0-144.3,117.4-261.7,261.7-261.7
		s261.7,117.4,261.7,261.7C567.7,539.8,450.3,657.2,306,657.2z"/>
	<path fill="#666666" d="M482.1,290.1L440,260.1L424,212c-2.5-7.3-9.3-12.3-17.1-12.3h-52.1l-42.1-30.6c-6.3-4.6-14.9-4.6-21.2,0
		l-42.1,30.6h-52.1c-7.8,0-14.6,5-17.1,12.3l-16,48.4l-42,29.5c-6.4,4.5-9.2,12.7-6.8,20.2l16.1,50.3l-16.2,50.9
		c-2.3,7.2,0.1,15,6.1,19.6l42.3,33.1l16.3,54.7c2.2,7.5,9,12.7,16.8,12.9V604c0,6.1,3.1,11.8,8.3,15.2c5.2,3.3,11.7,3.8,17.2,1.2
		l73.5-33.8l81.1,34c2.2,0.9,4.6,1.4,7,1.4c3.5,0,7-1,10-3c5-3.3,8-9,8-15v-72.3h5c8,0,15-5.2,17.3-12.9l16.4-55l42.7-35.6
		c5.7-4.7,7.9-12.4,5.6-19.4l-16.1-49.3l16.1-49.2C491.2,302.8,488.5,294.6,482.1,290.1z M232.9,531.7h16.5l30.9,22.5L232.9,576
		V531.7z M365.9,577l-46.5-19.5l35.5-25.8h11.1V577z M413.3,439.7c-2.7,2.3-4.7,5.3-5.7,8.7l-14.1,47.3H349c-3.8,0-7.5,1.2-10.6,3.4
		l-36.3,26.4l-36.3-26.4c-3.1-2.2-6.8-3.4-10.6-3.4h-44.5l-14.1-47.4c-1.1-3.6-3.2-6.8-6.2-9.1l-37-28.9l14.1-44.5
		c1.1-3.6,1.1-7.4,0-11l-13.9-43.1l36-25.3c3.2-2.2,5.5-5.4,6.7-9.1l13.8-41.7h44.9c3.8,0,7.5-1.2,10.6-3.4l36.3-26.4l36.3,26.4
		c3.1,2.2,6.8,3.4,10.6,3.4h45l13.8,41.4c1.2,3.6,3.5,6.8,6.6,9l36.1,25.7l-13.8,42.2c-1.2,3.6-1.2,7.5,0,11.2l14.1,43.3
		L413.3,439.7z"/>
	<path fill="#666666" d="M302.1,230.7c-72.2,0-131,58.8-131,131c0,72.2,58.8,131,131,131c72.2,0,131-58.8,131-131
		C433.1,289.5,374.3,230.7,302.1,230.7z M302.1,457.1c-52.6,0-95.3-42.8-95.3-95.3s42.8-95.3,95.3-95.3s95.3,42.8,95.3,95.3
		S354.7,457.1,302.1,457.1z"/>
	<path fill="#666666" d="M343.3,413.4c-9.9,0.3-16.9,0.4-21.1,0.4c-17.5,0.3-29.2,0.4-35.3,0.2l27.9-26.2c0.8-0.8,3.5-3.3,7.9-7.5
		s7.1-6.7,8-7.6s3-3.1,6.1-6.4c3.2-3.4,5.1-5.9,5.9-7.5s2-3.9,3.7-6.9s2.7-5.8,3.2-8.6c0.4-2.7,0.6-5.7,0.6-9
		c0-13.1-4.9-23.7-14.7-31.8c-9.8-8.1-21.6-12.1-35.4-11.9c-13.1,0-24.9,4.7-35.5,14.1c-5.9,4.9-8.9,9.6-8.9,13.9c0,3,1,5.5,3.1,7.6
		c2,2.1,4.5,3.2,7.3,3.2c4.1,0,7.9-1.8,11.4-5.3c7.5-7.5,15.2-11.2,23.2-11.2c7.5,0,13.6,2,18.4,6.1c4.8,4.1,7.2,9.3,7.2,15.6
		c0,1.3-0.1,2.5-0.3,3.8c-0.2,1.3-0.7,2.6-1.4,4s-1.3,2.6-1.8,3.7c-0.5,1.1-1.4,2.4-2.6,3.9s-2.2,2.7-2.9,3.6
		c-0.6,0.8-1.8,2.2-3.5,4s-2.9,3.1-3.5,3.8c-0.6,0.7-2,2.1-4,4.1l-3.9,3.9l-38.4,36.7c-5.8,5.6-8.7,11.1-8.7,16.5
		c0,3.8,1.1,6.9,3.4,9.2c2.3,2.3,5.3,3.5,9.1,3.5c13.7,0.1,29.9,0.2,48.8,0.2c2.7,0,7,0,13.1,0.1s10.1,0.1,12,0.1
		c7.9,0.3,11.8-3.5,11.8-11.4c0-3.1-1-5.7-2.9-7.9C348.9,414.5,346.4,413.4,343.3,413.4z"/>
</g>
</svg>
