<svg xmlns="http://www.w3.org/2000/svg" viewBox="0 0 394.67 142"><title>tarjeta</title><g id="Layer_2" data-name="Layer 2"><g id="Layer_1-2" data-name="Layer 1"><rect x="4" y="4" width="386.67" height="134" rx="12" ry="12" style="fill:none;stroke:#575656;stroke-miterlimit:10;stroke-width:8px"/><text transform="translate(144.03 70)" style="font-size:36.44615173339844px;fill:#575656;font-family:MicrosoftTaiLe-Bold, Microsoft Tai Le;font-weight:700">Tarjeta de<tspan x="0" y="43.74">credito</tspan></text><path d="M125.31,35.4,60.53,21.69a5.11,5.11,0,0,0-6,3.93l-1.23,7.91L128,49.34l1.23-7.91A5.11,5.11,0,0,0,125.31,35.4Z" style="fill:#575656"/><path d="M98.06,51a5.16,5.16,0,0,0-6.33-3.58l-12.3,3.41-29-6.14L47.26,59.78,27.34,65.31a5.16,5.16,0,0,0-3.58,6.33L35,112.1a5.16,5.16,0,0,0,6.33,3.58l64.4-17.87a5.16,5.16,0,0,0,3.58-6.33l-1.93-6.94,7.22,1.53a5.11,5.11,0,0,0,6-3.93l4.57-21.59L99.18,55Zm7.44,20.56,1.59-7.53a2.1,2.1,0,0,1,2.48-1.62L117.11,64a2.1,2.1,0,0,1,1.62,2.48L117.13,74a2.1,2.1,0,0,1-2.48,1.62l-7.53-1.59A2.1,2.1,0,0,1,105.5,71.58Zm-77-2.23,17.82-4.94,42-11.67,4.52-1.26a.94.94,0,0,1,.25,0,1,1,0,0,1,.92.69l.53,1.91,1.66,6L30,78.43l-2.2-7.91A1,1,0,0,1,28.46,69.35Zm76.79,23.24a1,1,0,0,1-.66,1.17L40.2,111.64a.94.94,0,0,1-.25,0A1,1,0,0,1,39,111l-6.55-23.6L98.7,69l4,14.55Z" style="fill:#575656"/><path d="M50.6,94.21A2.1,2.1,0,0,0,48,92.75L40.5,94.84A2.1,2.1,0,0,0,39,97.42l2.09,7.52a2.1,2.1,0,0,0,2.58,1.46l7.52-2.09a2.1,2.1,0,0,0,1.46-2.58Z" style="fill:#575656"/></g></g></svg>