<?xml version="1.0" encoding="utf-8"?>
<!-- Generator: Adobe Illustrator 18.1.1, SVG Export Plug-In . SVG Version: 6.00 Build 0)  -->
<svg version="1.1" id="Layer_1" xmlns="http://www.w3.org/2000/svg" xmlns:xlink="http://www.w3.org/1999/xlink" x="0px" y="0px"
	 viewBox="1062.9 -22.8 313.5 303.2" enable-background="new 1062.9 -22.8 313.5 303.2" xml:space="preserve">
<path fill="#662D91" d="M1317.6,99.1v-11c0-53.5-43.5-96.9-96.9-96.9c-53.5,0-96.9,43.5-96.9,96.9v10.3c-16.6,4.7-28.8,20-28.8,38
	v46.1c0,21.8,17.7,39.5,39.5,39.5h27.8V97h-24.1v-8.8c0-45.5,37-82.5,82.5-82.5s82.5,37,82.5,82.5V97H1277v118.4h-0.7v3.7
	c0,11.7-9.5,21.3-21.3,21.3H1238c-2.8-6.8-9.5-11.6-17.4-11.6c-10.4,0-18.8,8.4-18.8,18.8s8.4,18.8,18.8,18.8
	c7.8,0,14.5-4.8,17.4-11.6h17.1c18.7,0,34-14.4,35.6-32.6h14.2c21.8,0,39.5-17.7,39.5-39.5v-46.1
	C1344.4,119.2,1333.1,104.4,1317.6,99.1z M1147.8,207.7h-13.4c-13.8,0-25.1-11.2-25.1-25.1v-46.1c0-13.8,11.2-25.1,25.1-25.1h13.4
	V207.7z M1329.9,182.6c0,13.8-11.2,25.1-25.1,25.1h-13.4v-96.2h13.4c13.8,0,25.1,11.2,25.1,25.1V182.6z"/>
</svg>
