<svg xmlns="http://www.w3.org/2000/svg" viewBox="0 0 394.67 142"><title>transferencia</title><g id="Layer_2" data-name="Layer 2"><g id="Layer_1-2" data-name="Layer 1"><rect x="4" y="4" width="386.67" height="134" rx="12" ry="12" style="fill:none;stroke:#575656;stroke-miterlimit:10;stroke-width:8px"/><g id="Layer_1-3" data-name="Layer 1"><path d="M124.74,111.63H34.44a4.52,4.52,0,1,0,0,9h90.29a4.52,4.52,0,0,0,0-9Z" style="fill:#575656"/><path d="M40.08,99.89a4.52,4.52,0,0,0,0,9h79a4.52,4.52,0,0,0,0-9H118V59.25h1.13a2.26,2.26,0,1,0,0-4.51h-79a2.26,2.26,0,1,0,0,4.51h1.13V99.89H40.08Zm68.85-40.63V99.89H95.39V59.25Zm-22.58,0V99.89H72.81V59.25Zm-36.12,0H63.78V99.89H50.24Z" style="fill:#575656"/><path d="M34.44,50.68h90.34a4.52,4.52,0,0,0,1.47-8.79L81.44,21.74a4.52,4.52,0,0,0-3.7,0L32.59,42.05a4.51,4.51,0,0,0,1.85,8.63Z" style="fill:#575656"/></g><text transform="translate(144.03 70)" style="font-size:36.44615173339844px;fill:#575656;font-family:MicrosoftTaiLe-Bold, Microsoft Tai Le;font-weight:700">Transferencia<tspan x="0" y="43.74">Bancaria</tspan></text></g></g></svg>