<?xml version="1.0" encoding="utf-8"?>
<!-- Generator: Adobe Illustrator 18.1.1, SVG Export Plug-In . SVG Version: 6.00 Build 0)  -->
<svg version="1.1" id="Layer_1" xmlns="http://www.w3.org/2000/svg" xmlns:xlink="http://www.w3.org/1999/xlink" x="0px" y="0px"
	 viewBox="257.7 205 65.1 52.5" enable-background="new 257.7 205 65.1 52.5" xml:space="preserve">
<g>
	<g>
		<path fill="#666666" d="M312.9,257.5h-45.4c-5.4,0-9.9-4.4-9.9-9.9v-32.8c0-5.4,4.4-9.9,9.9-9.9h45.4c5.4,0,9.9,4.4,9.9,9.9v32.8
			C322.7,253.1,318.3,257.5,312.9,257.5z M267.5,208.5c-3.5,0-6.3,2.8-6.3,6.3v32.8c0,3.5,2.8,6.3,6.3,6.3h45.4
			c3.5,0,6.3-2.8,6.3-6.3v-32.8c0-3.5-2.8-6.3-6.3-6.3H267.5z"/>
	</g>
	<g>
		<path fill="#666666" d="M282.1,245.5c-0.2,0-0.2,0-0.4-0.2c-0.6-0.3-0.7-0.8-0.7-1.4v-25.3c0-0.6,0.1-1.1,0.6-1.4
			c0.5-0.3,1-0.3,1.5,0.1l17.1,11.2c0.4,0.3,0.7,0.7,0.7,1.2c0,0.5-0.2,1-0.6,1.3l-17.1,14.1C282.8,245.4,282.4,245.5,282.1,245.5z
			 M284,221.6v19l12.9-10.6L284,221.6z"/>
	</g>
</g>
</svg>
