<svg xmlns="http://www.w3.org/2000/svg" viewBox="0 0 286.6 286.4"><title>vectorizacion</title><g id="Layer_2" data-name="Layer 2"><g id="Layer_1-2" data-name="Layer 1"><polygon points="77 7.4 108.8 63 171.5 49.9 128.4 96.9 160.1 152.3 101.7 125.9 58.7 173.3 65.7 110 7.4 84.1 70.1 71 77 7.4" style="fill:none;stroke:#666;stroke-linecap:round;stroke-linejoin:round;stroke-width:14.796600341796875px"/><polygon points="165.4 163.8 179.9 249 227.9 257.6 256.8 228.7 251.3 176.8 165.4 163.8" style="fill:none;stroke:#666;stroke-linecap:round;stroke-linejoin:round;stroke-width:14.796600341796875px"/><line x1="208.4" y1="208.5" x2="165.4" y2="163.8" style="fill:none;stroke:#666;stroke-linecap:round;stroke-linejoin:round;stroke-width:14.796600341796875px"/><circle cx="208" cy="208.1" r="11.1" style="fill:#666"/><line x1="206.5" y1="279" x2="279.2" y2="206.4" style="fill:none;stroke:#666;stroke-linecap:round;stroke-linejoin:round;stroke-width:14.796600341796875px"/><circle cx="219.7" cy="92.6" r="11.8" style="fill:none;stroke:#666;stroke-linecap:round;stroke-linejoin:round;stroke-width:14.796600341796875px"/><circle cx="91.3" cy="221" r="11.8" style="fill:none;stroke:#666;stroke-linecap:round;stroke-linejoin:round;stroke-width:14.796600341796875px"/><rect x="143.12" y="141.62" width="25.1" height="25.1" transform="translate(-63.42 155.23) rotate(-45)" style="fill:#fff;stroke:#666;stroke-linecap:round;stroke-linejoin:round;stroke-width:14.796600341796875px"/><line x1="99.6" y1="212.3" x2="145.8" y2="166.1" style="fill:none;stroke:#666;stroke-linecap:round;stroke-linejoin:round;stroke-width:14.796600341796875px"/><line x1="165.6" y1="146.3" x2="209.6" y2="102.3" style="fill:none;stroke:#666;stroke-linecap:round;stroke-linejoin:round;stroke-width:14.796600341796875px"/></g></g></svg>