<?xml version="1.0" encoding="utf-8"?>
<!-- Generator: Adobe Illustrator 18.1.1, SVG Export Plug-In . SVG Version: 6.00 Build 0)  -->
<svg version="1.1" id="Layer_1" xmlns="http://www.w3.org/2000/svg" xmlns:xlink="http://www.w3.org/1999/xlink" x="0px" y="0px"
	 viewBox="0 0 500 500" enable-background="new 0 0 500 500" xml:space="preserve">
<g>
	
		<polygon fill="none" stroke="#666666" stroke-width="14.7966" stroke-linecap="round" stroke-linejoin="round" stroke-miterlimit="10" points="
		183.7,114.2 215.5,169.8 278.2,156.7 235.1,203.7 266.8,259.1 208.4,232.7 165.4,280.1 172.4,216.8 114.1,190.9 176.8,177.8 	"/>
	<g>
		<g>
			
				<polygon fill="none" stroke="#666666" stroke-width="14.7966" stroke-linecap="round" stroke-linejoin="round" stroke-miterlimit="10" points="
				272.1,270.6 286.6,355.8 334.6,364.4 363.5,335.5 358,283.6 			"/>
			<g>
				<g>
					
						<line fill="none" stroke="#666666" stroke-width="14.7966" stroke-linecap="round" stroke-linejoin="round" x1="315.1" y1="315.3" x2="272.1" y2="270.6"/>
					<g>
						<circle fill="#666666" cx="314.7" cy="314.9" r="11.1"/>
					</g>
				</g>
			</g>
		</g>
		
			<line fill="none" stroke="#666666" stroke-width="14.7966" stroke-linecap="round" stroke-linejoin="round" stroke-miterlimit="10" x1="313.2" y1="385.8" x2="385.9" y2="313.2"/>
		
			<circle fill="none" stroke="#666666" stroke-width="14.7966" stroke-linecap="round" stroke-linejoin="round" stroke-miterlimit="10" cx="326.4" cy="199.4" r="11.8"/>
		
			<circle fill="none" stroke="#666666" stroke-width="14.7966" stroke-linecap="round" stroke-linejoin="round" stroke-miterlimit="10" cx="198" cy="327.8" r="11.8"/>
		
			<rect x="249.8" y="248.4" transform="matrix(0.7071 -0.7071 0.7071 0.7071 -107.6521 261.9624)" fill="#FFFFFF" stroke="#666666" stroke-width="14.7966" stroke-linecap="round" stroke-linejoin="round" stroke-miterlimit="10" width="25.1" height="25.1"/>
		
			<line fill="none" stroke="#666666" stroke-width="14.7966" stroke-linecap="round" stroke-linejoin="round" stroke-miterlimit="10" x1="206.3" y1="319.1" x2="252.5" y2="272.9"/>
		
			<line fill="none" stroke="#666666" stroke-width="14.7966" stroke-linecap="round" stroke-linejoin="round" stroke-miterlimit="10" x1="272.3" y1="253.1" x2="316.3" y2="209.1"/>
	</g>
</g>
</svg>
