<svg xmlns="http://www.w3.org/2000/svg" viewBox="0 0 627 454.1"><title>web-y-app</title><g id="Layer_2" data-name="Layer 2"><g id="Layer_1-2" data-name="Layer 1"><polyline points="360.6 448.1 6 446.4 77.4 382.3 334.8 382.3" style="fill:none;stroke:#666;stroke-linecap:round;stroke-linejoin:round;stroke-width:12px"/><rect x="77.4" y="89.4" width="257.5" height="291.2" style="fill:none;stroke:#666;stroke-linecap:round;stroke-linejoin:round;stroke-width:12px"/><rect x="128.8" y="162.9" width="77.3" height="77.3" style="fill:none;stroke:#666;stroke-linecap:round;stroke-linejoin:round;stroke-width:12px"/><line x1="128.8" y1="286.3" x2="199.8" y2="286.3" style="fill:none;stroke:#666;stroke-linecap:round;stroke-linejoin:round;stroke-width:12px"/><line x1="128.8" y1="324.3" x2="182.8" y2="324.3" style="fill:none;stroke:#666;stroke-linecap:round;stroke-linejoin:round;stroke-width:12px"/><rect x="257.7" y="162.9" width="77.3" height="77.3" style="fill:none;stroke:#666;stroke-linecap:round;stroke-linejoin:round;stroke-width:12px"/><line x1="257.8" y1="286.3" x2="328.8" y2="286.3" style="fill:none;stroke:#666;stroke-linecap:round;stroke-linejoin:round;stroke-width:12px"/><line x1="257.8" y1="324.3" x2="310.8" y2="324.3" style="fill:none;stroke:#666;stroke-linecap:round;stroke-linejoin:round;stroke-width:12px"/><path d="M597.1,447.3h-239a23.79,23.79,0,0,1-23.8-23.8V29.8A23.79,23.79,0,0,1,358.1,6H597.2A23.79,23.79,0,0,1,621,29.8V423.5A23.88,23.88,0,0,1,597.1,447.3Z" style="fill:none;stroke:#666;stroke-linecap:round;stroke-linejoin:round;stroke-width:12px"/><line x1="441.8" y1="46.8" x2="512.5" y2="46.8" style="fill:none;stroke:#666;stroke-linecap:round;stroke-linejoin:round;stroke-width:12px"/><line x1="334.2" y1="90.5" x2="621" y2="90.5" style="fill:none;stroke:#666;stroke-linecap:round;stroke-linejoin:round;stroke-width:12px"/><line x1="334.2" y1="380.7" x2="621" y2="380.7" style="fill:none;stroke:#666;stroke-linecap:round;stroke-linejoin:round;stroke-width:12px"/><rect x="376.5" y="138.2" width="48.8" height="48.8" style="fill:#666"/><rect x="454.1" y="138.2" width="48.8" height="48.8" style="fill:#666"/><rect x="529.9" y="138.2" width="48.8" height="48.8" style="fill:#666"/><rect x="376.5" y="214.4" width="48.8" height="48.8" style="fill:#666"/><rect x="454.1" y="214.4" width="48.8" height="48.8" style="fill:#666"/><rect x="529.9" y="214.4" width="48.8" height="48.8" style="fill:#666"/><rect x="376.5" y="290.6" width="48.8" height="48.8" style="fill:#666"/><rect x="454.1" y="290.6" width="48.8" height="48.8" style="fill:#666"/><rect x="529.9" y="290.6" width="48.8" height="48.8" style="fill:#666"/></g></g></svg>