<?xml version="1.0" encoding="utf-8"?>
<!-- Generator: Adobe Illustrator 18.1.1, SVG Export Plug-In . SVG Version: 6.00 Build 0)  -->
<svg version="1.1" id="Layer_1" xmlns="http://www.w3.org/2000/svg" xmlns:xlink="http://www.w3.org/1999/xlink" x="0px" y="0px"
	 viewBox="0 0 500 500" enable-background="new 0 0 500 500" xml:space="preserve">
<g>
	<circle fill="#8CC63F" cx="250" cy="250" r="92.9"/>
	<g id="XMLID_32_">
		<g id="XMLID_38_">
			<g>
				
					<path id="XMLID_17_" fill-rule="evenodd" clip-rule="evenodd" fill="none" stroke="#FFFFFF" stroke-width="4.9465" stroke-miterlimit="10" d="
					M250.5,196c-27.4,0-49.5,22.2-49.5,49.5c0,9.4,2.6,18.1,7.1,25.6l-8.9,26.6l27.4-8.8c7.1,3.9,15.3,6.2,23.9,6.2
					c27.4,0,49.5-22.2,49.5-49.5C300,218.2,277.9,196,250.5,196L250.5,196z"/>
			</g>
		</g>
		<path id="XMLID_34_" fill-rule="evenodd" clip-rule="evenodd" fill="#FFFFFF" d="M282.3,264.1c1.5-1.6,1.4-4.1-0.4-5.5l-9.7-7.4
			c-1.4-1-3.2-1-4.6,0.1l-3.7,3.1c-1.6,1.3-3.9,1.5-5.6,0.4c-4.1-2.3-15-13.3-17.4-17.4c-1-1.8-0.9-4,0.4-5.6l3.1-3.7
			c1.1-1.3,1.1-3.2,0.1-4.6l-7.4-9.7c-1.3-1.7-3.9-1.9-5.5-0.4l-7.7,7.5c-2.2,2.2-2.7,5.6-1.1,8.3l7.1,12.2
			c8.7,11.9,13.6,17.1,24.3,24.3l12.2,7.1c2.7,1.6,6.1,1.1,8.3-1.1L282.3,264.1z"/>
	</g>
</g>
</svg>
