<?xml version="1.0" encoding="utf-8"?>
<!-- Generator: Adobe Illustrator 18.1.1, SVG Export Plug-In . SVG Version: 6.00 Build 0)  -->
<svg version="1.1" id="Layer_1" xmlns="http://www.w3.org/2000/svg" xmlns:xlink="http://www.w3.org/1999/xlink" x="0px" y="0px"
	 viewBox="993.5 74.6 67.9 62.6" enable-background="new 993.5 74.6 67.9 62.6" xml:space="preserve">
<g>
	<path fill="#666666" d="M1057.1,76.4h-59.3c-1.9,0-3.4,1.5-3.4,3.4V132c0,1.9,1.5,3.4,3.4,3.4h59.3c1.9,0,3.4-1.5,3.4-3.4V79.9
		C1060.6,78,1059,76.4,1057.1,76.4z M997.8,77.9h59.3c1.1,0,1.9,0.9,1.9,1.9v8.4c-0.1,0-0.2-0.1-0.3-0.1h-63v-8.4
		C995.8,78.8,996.7,77.9,997.8,77.9z M1057.1,133.9h-59.3c-1.1,0-1.9-0.9-1.9-1.9V89.8h63c0.1,0,0.2,0,0.3-0.1V132
		C1059.1,133.1,1058.2,133.9,1057.1,133.9z"/>
	<circle fill="#666666" cx="1001.7" cy="83.2" r="1.8"/>
	<circle fill="#666666" cx="1007.7" cy="83.2" r="1.8"/>
	<circle fill="#666666" cx="1013.7" cy="83.2" r="1.8"/>
	<circle fill="#666666" cx="1024.1" cy="124.1" r="2.4"/>
	<circle fill="#666666" cx="1032.5" cy="124.1" r="2.4"/>
	<path fill="#666666" d="M1041.2,106.3h-1.6c0,0,0-0.1,0-0.1l-3.6-5.7c-0.2-0.3-0.6-0.4-0.9-0.3l-6,2.3l-3.3-3c-0.3-0.3-0.8-0.3-1,0
		l-6.6,6.6c0,0,0,0.1-0.1,0.1l-1.8-5.4c-0.1-0.3-0.4-0.5-0.7-0.5h-3.8c-0.4,0-0.8,0.3-0.8,0.8s0.3,0.8,0.8,0.8h3.2l5.8,17.5
		c0.1,0.3,0.4,0.5,0.7,0.5h15c0.3,0,0.6-0.2,0.7-0.5l4.6-12c0.1-0.2,0.1-0.5-0.1-0.7S1041.4,106.3,1041.2,106.3z M1035,101.8
		l2.8,4.5h-5c0-0.2-0.1-0.4-0.2-0.6l-2.3-2.1L1035,101.8z M1025.2,101l5.8,5.2h-11L1025.2,101z M1036.1,118.3h-14l-3.5-10.5
		c0.1,0,0.1,0,0.2,0h21.3L1036.1,118.3z"/>
</g>
</svg>
