<?xml version="1.0" encoding="utf-8"?>
<!-- Generator: Adobe Illustrator 18.1.1, SVG Export Plug-In . SVG Version: 6.00 Build 0)  -->
<svg version="1.1" id="Layer_1" xmlns="http://www.w3.org/2000/svg" xmlns:xlink="http://www.w3.org/1999/xlink" x="0px" y="0px"
	 viewBox="1004.5 72.1 33.1 36.7" enable-background="new 1004.5 72.1 33.1 36.7" xml:space="preserve">
<path fill="#666666" d="M1036.4,87.7c0-3.1-2.6-5.7-5.7-5.7c-0.1,0-0.2,0-0.4,0c0,0,0,0,0,0h-10.6v-3.3v-4.7v-0.2
	c0-0.3-0.2-0.6-0.4-0.8c-0.3-0.2-0.6-0.2-0.9-0.1l-6,2.5c-0.4,0.2-0.6,0.5-0.6,0.9s0.2,0.8,0.6,0.9l5.4,2.2v2.6h-3.9
	c-4.5,0-8.1,3.9-8.1,9v11c0,0.6,0.4,1,1,1h6v4c0,0.6,0.4,1,1,1h8c0.6,0,1-0.4,1-1v-4h12.6c0.6,0,1-0.4,1-1c0-0.1,0-0.1,0-0.2
	c0-0.1,0-0.1,0-0.2V87.7z M1015.4,76.3l2.3-1v1.9L1015.4,76.3z M1034.9,87.7V101h-8.4V87.7c0-2.3,1.9-4.2,4.2-4.2
	S1034.9,85.4,1034.9,87.7z M1007.7,91c0-3.9,2.7-7,6.1-7h3.9v6.9c-1.4,0.5-2.4,1.7-2.4,3.3c0,1.9,1.6,3.5,3.5,3.5s3.5-1.6,3.5-3.5
	c0-1.6-1.1-2.9-2.6-3.3v-6.8h6.6c-0.8,1-1.4,2.3-1.4,3.7v13.3h-17.3V91z M1018.8,92.2c1.1,0,2,0.9,2,2s-0.9,2-2,2s-2-0.9-2-2
	S1017.7,92.2,1018.8,92.2z M1020.7,106.1h-6v-3h6V106.1z"/>
</svg>
