<?xml version="1.0" encoding="utf-8"?>
<!-- Generator: Adobe Illustrator 18.1.1, SVG Export Plug-In . SVG Version: 6.00 Build 0)  -->
<svg version="1.1" id="Layer_1" xmlns="http://www.w3.org/2000/svg" xmlns:xlink="http://www.w3.org/1999/xlink" x="0px" y="0px"
	 viewBox="998.3 72.5 45.6 37.7" enable-background="new 998.3 72.5 45.6 37.7" xml:space="preserve">
<g>
	<path fill="#666666" d="M1038,81.8h-9.5v-4.7c0-2.1-1.9-3.3-5.2-3.3h-18.4c-3.3,0-5.3,1.3-5.3,3.3v13.8c0,2.5,2.9,4.7,5.3,4.7h0.6
		v3.5c0,0.3,0.2,0.6,0.5,0.8c0.1,0.1,0.3,0.1,0.4,0.1c0.2,0,0.4-0.1,0.5-0.2l5.4-4.2h3.5v4.2c0,2.2,2.2,5.1,4.7,5.1h10.1l7,3.9
		c0.1,0.1,0.3,0.1,0.4,0.1c0.2,0,0.3,0,0.4-0.1c0.3-0.2,0.4-0.4,0.4-0.8v-3.2c2.1-0.6,3.7-3,3.7-5V86
		C1042.6,83.7,1040.5,81.8,1038,81.8z M1012,93.8c-0.2,0-0.4,0.1-0.5,0.2l-4.2,3.3v-2.6c0-0.5-0.4-0.9-0.9-0.9h-1.5
		c-1.4,0-3.5-1.5-3.5-2.9V77.1c0-1.5,3.1-1.5,3.5-1.5h18.4c0.6,0,3.4,0.1,3.4,1.5v13.8c0,1.3-1.9,2.9-3.4,2.9H1012z M1040.8,99.8
		c0,1.5-1.5,3.3-2.8,3.3c-0.5,0-0.9,0.4-0.9,0.9c0,0.1,0,0.1,0,0.2v2.3l-5.8-3.2c-0.1-0.1-0.3-0.1-0.4-0.1h-10.4c-1.4,0-3-1.8-3-3.3
		v-4.2h5.8c2.3,0,5.2-2.2,5.2-4.7v-1.4c0.3-0.1,0.6-0.2,0.9-0.2c0.5,0,0.9,0.1,1.2,0.4c0.3,0.3,0.5,0.6,0.5,1c0,0.3-0.1,0.6-0.4,0.8
		c-0.2,0.2-0.7,0.6-1.5,1c-0.9,0.6-1.4,1.3-1.4,2.1c0,0.5,0.1,0.9,0.4,1.2c0.3,0.3,0.6,0.4,1,0.4c0.4,0,0.7-0.1,0.9-0.3
		c0.2-0.2,0.3-0.4,0.3-0.7c0-0.1,0-0.2,0-0.2c0,0,0-0.1,0-0.2c0-0.4,0.3-0.7,0.8-1.1c0.7-0.4,1.3-0.8,1.8-1.3
		c0.5-0.5,0.7-1.1,0.7-1.8c0-1.1-0.4-2-1.2-2.7c-0.8-0.7-1.8-1.1-3-1.1c-0.3,0-0.6,0-0.9,0.1v-3.6h9.5c1.3,0,2.8,1,2.8,2.5V99.8z"/>
	<path fill="#666666" d="M1029.1,97.4c-0.5,0-0.8,0.1-1.1,0.4c-0.3,0.3-0.4,0.6-0.4,1c0,0.4,0.1,0.8,0.4,1c0.3,0.2,0.6,0.4,1.1,0.4
		c0.4,0,0.8-0.1,1.1-0.4c0.3-0.2,0.4-0.6,0.4-1c0-0.4-0.1-0.7-0.4-1C1029.9,97.5,1029.5,97.4,1029.1,97.4z"/>
	<circle fill="#666666" cx="1007.4" cy="84.1" r="1.9"/>
	<circle fill="#666666" cx="1013.7" cy="84.1" r="1.9"/>
	<circle fill="#666666" cx="1019.7" cy="84.1" r="1.9"/>
</g>
</svg>
