<?xml version="1.0" encoding="utf-8"?>
<!-- Generator: Adobe Illustrator 18.1.1, SVG Export Plug-In . SVG Version: 6.00 Build 0)  -->
<svg version="1.1" id="Layer_1" xmlns="http://www.w3.org/2000/svg" xmlns:xlink="http://www.w3.org/1999/xlink" x="0px" y="0px"
	 viewBox="1003 74 36.6 34.5" enable-background="new 1003 74 36.6 34.5" xml:space="preserve">
<g>
	<path fill="#666666" d="M1038.3,75.4h-33.9c-0.4,0-0.8,0.3-0.8,0.8v30.2c0,0.4,0.3,0.8,0.8,0.8h33.9c0.4,0,0.8-0.3,0.8-0.8V76.1
		C1039,75.7,1038.7,75.4,1038.3,75.4z M1037.5,76.9V82h-32.4v-5.1H1037.5z M1005.1,105.6V84h32.4v21.6H1005.1z"/>
	<path fill="#666666" d="M1007.8,90.9h4.1c0.4,0,0.8-0.3,0.8-0.8v-3.4c0-0.4-0.3-0.8-0.8-0.8h-4.1c-0.4,0-0.8,0.3-0.8,0.8v3.4
		C1007,90.5,1007.3,90.9,1007.8,90.9z M1008.5,87.4h2.6v1.9h-2.6V87.4z"/>
	<path fill="#666666" d="M1014.8,93.1h-7.1c-0.4,0-0.8,0.3-0.8,0.8v8.7c0,0.4,0.3,0.8,0.8,0.8h7.1c0.4,0,0.8-0.3,0.8-0.8v-8.7
		C1015.6,93.4,1015.2,93.1,1014.8,93.1z M1014.1,101.8h-5.6v-7.2h5.6V101.8z"/>
	<path fill="#666666" d="M1024.8,93.1h-7.1c-0.4,0-0.8,0.3-0.8,0.8v8.7c0,0.4,0.3,0.8,0.8,0.8h7.1c0.4,0,0.8-0.3,0.8-0.8v-8.7
		C1025.5,93.4,1025.2,93.1,1024.8,93.1z M1024,101.8h-5.6v-7.2h5.6V101.8z"/>
	<path fill="#666666" d="M1034.8,93.1h-7.1c-0.4,0-0.8,0.3-0.8,0.8v8.7c0,0.4,0.3,0.8,0.8,0.8h7.1c0.4,0,0.8-0.3,0.8-0.8v-8.7
		C1035.5,93.4,1035.2,93.1,1034.8,93.1z M1034,101.8h-5.6v-7.2h5.6V101.8z"/>
	<path fill="#666666" d="M1034.8,85.9h-20c-0.4,0-0.8,0.3-0.8,0.8v3.4c0,0.4,0.3,0.8,0.8,0.8h20c0.4,0,0.8-0.3,0.8-0.8v-3.4
		C1035.5,86.3,1035.2,85.9,1034.8,85.9z M1034,89.4h-18.5v-1.9h18.5V89.4z"/>
	<path fill="#666666" d="M1007.9,80.1h2.5c0.4,0,0.8-0.3,0.8-0.8s-0.3-0.8-0.8-0.8h-2.5c-0.4,0-0.8,0.3-0.8,0.8
		S1007.5,80.1,1007.9,80.1z"/>
	<path fill="#666666" d="M1013.7,80.1h2.5c0.4,0,0.8-0.3,0.8-0.8s-0.3-0.8-0.8-0.8h-2.5c-0.4,0-0.8,0.3-0.8,0.8
		S1013.3,80.1,1013.7,80.1z"/>
	<path fill="#666666" d="M1019.5,80.1h2.5c0.4,0,0.8-0.3,0.8-0.8s-0.3-0.8-0.8-0.8h-2.5c-0.4,0-0.8,0.3-0.8,0.8
		S1019.1,80.1,1019.5,80.1z"/>
</g>
</svg>
