<?xml version="1.0" encoding="utf-8"?>
<!-- Generator: Adobe Illustrator 18.1.1, SVG Export Plug-In . SVG Version: 6.00 Build 0)  -->
<svg version="1.1" id="Layer_1" xmlns="http://www.w3.org/2000/svg" xmlns:xlink="http://www.w3.org/1999/xlink" x="0px" y="0px"
	 viewBox="993.5 74.6 67.9 62.6" enable-background="new 993.5 74.6 67.9 62.6" xml:space="preserve">
<g>
	<circle fill="#666666" cx="1002.1" cy="83.2" r="1.8"/>
	<path fill="#666666" d="M1057.1,76.4h-59.3c-1.9,0-3.4,1.5-3.4,3.4V132c0,1.9,1.5,3.4,3.4,3.4h59.3c1.9,0,3.4-1.5,3.4-3.4V79.9
		C1060.6,78,1059,76.4,1057.1,76.4z M997.8,77.9h59.3c1.1,0,1.9,0.9,1.9,1.9v8.4c-0.1,0-0.2-0.1-0.3-0.1h-63v-8.4
		C995.8,78.8,996.7,77.9,997.8,77.9z M1057.1,133.9h-59.3c-1.1,0-1.9-0.9-1.9-1.9V89.8h63c0.1,0,0.2,0,0.3-0.1V132
		C1059.1,133.1,1058.2,133.9,1057.1,133.9z"/>
	<circle fill="#666666" cx="1008.1" cy="83.2" r="1.8"/>
	<circle fill="#666666" cx="1014.1" cy="83.2" r="1.8"/>
	<path fill="#666666" d="M1015.9,94.9h-13.8c-0.4,0-0.8,0.3-0.8,0.8v13c0,0.4,0.3,0.8,0.8,0.8h13.8c0.4,0,0.8-0.3,0.8-0.8v-13
		C1016.7,95.2,1016.3,94.9,1015.9,94.9z M1015.2,107.9h-12.3V96.4h12.3V107.9z"/>
	<path fill="#666666" d="M1034.3,94.9h-13.8c-0.4,0-0.8,0.3-0.8,0.8v13c0,0.4,0.3,0.8,0.8,0.8h13.8c0.4,0,0.8-0.3,0.8-0.8v-13
		C1035.1,95.2,1034.7,94.9,1034.3,94.9z M1033.6,107.9h-12.3V96.4h12.3V107.9z"/>
	<path fill="#666666" d="M1052.7,94.9h-13.8c-0.4,0-0.8,0.3-0.8,0.8v13c0,0.4,0.3,0.8,0.8,0.8h13.8c0.4,0,0.8-0.3,0.8-0.8v-13
		C1053.5,95.2,1053.1,94.9,1052.7,94.9z M1052,107.9h-12.3V96.4h12.3V107.9z"/>
	<path fill="#666666" d="M1015.9,114.1h-13.8c-0.4,0-0.8,0.3-0.8,0.8v13c0,0.4,0.3,0.8,0.8,0.8h13.8c0.4,0,0.8-0.3,0.8-0.8v-13
		C1016.7,114.4,1016.3,114.1,1015.9,114.1z M1015.2,127.1h-12.3v-11.5h12.3V127.1z"/>
	<path fill="#666666" d="M1034.3,114.1h-13.8c-0.4,0-0.8,0.3-0.8,0.8v13c0,0.4,0.3,0.8,0.8,0.8h13.8c0.4,0,0.8-0.3,0.8-0.8v-13
		C1035.1,114.4,1034.7,114.1,1034.3,114.1z M1033.6,127.1h-12.3v-11.5h12.3V127.1z"/>
	<path fill="#666666" d="M1052.7,114.1h-13.8c-0.4,0-0.8,0.3-0.8,0.8v13c0,0.4,0.3,0.8,0.8,0.8h13.8c0.4,0,0.8-0.3,0.8-0.8v-13
		C1053.5,114.4,1053.1,114.1,1052.7,114.1z M1052,127.1h-12.3v-11.5h12.3V127.1z"/>
</g>
</svg>
