<?xml version="1.0" encoding="utf-8"?>
<!-- Generator: Adobe Illustrator 18.1.1, SVG Export Plug-In . SVG Version: 6.00 Build 0)  -->
<svg version="1.1" id="Layer_1" xmlns="http://www.w3.org/2000/svg" xmlns:xlink="http://www.w3.org/1999/xlink" x="0px" y="0px"
	 viewBox="1001.1 68.9 39.9 38.5" enable-background="new 1001.1 68.9 39.9 38.5" xml:space="preserve">
<path fill="#666666" d="M1039.4,77.3c-0.1-0.3-0.4-0.5-0.7-0.4l-5.6,0.5l1.2-1.2c0.3-0.3,0.3-0.8,0-1.1s-0.8-0.3-1.1,0l-1.2,1.2
	l0.5-5.6c0-0.3-0.1-0.6-0.4-0.7c-0.3-0.1-0.6-0.1-0.8,0.2l-5.6,5.6c-6.1-2.8-13.3-1.5-18.1,3.2c-6.3,6.3-6.3,16.5,0,22.8
	c3,3,7.1,4.7,11.4,4.7c4.3,0,8.4-1.7,11.4-4.7c4.7-4.7,6-11.8,3.4-17.9l5.6-5.6C1039.4,77.9,1039.5,77.6,1039.4,77.3z M1025,83.2
	l-2,2c-1.2-1-2.6-1.5-4.2-1.5c-1.8,0-3.4,0.7-4.7,1.9c-2.6,2.6-2.6,6.7,0,9.3c1.2,1.2,2.9,1.9,4.7,1.9c1.8,0,3.4-0.7,4.7-1.9
	c1.2-1.2,1.9-2.9,1.9-4.7c0-1.5-0.5-2.8-1.4-4l2-2l0.3,0c1.4,1.7,2.1,3.8,2.1,6c0,2.6-1,5-2.8,6.8s-4.3,2.8-6.8,2.8
	c-2.6,0-5-1-6.8-2.8c-3.8-3.8-3.8-9.9,0-13.7c1.8-1.8,4.3-2.8,6.8-2.8c2.3,0,4.5,0.8,6.2,2.3L1025,83.2z M1023.9,90.3
	c0,1.4-0.5,2.6-1.5,3.6c-1,1-2.2,1.5-3.6,1.5s-2.6-0.5-3.6-1.5c-2-2-2-5.2,0-7.2c1-1,2.2-1.5,3.6-1.5c1.1,0,2.2,0.4,3.1,1.1
	l-2.1,2.1c-0.8-0.4-1.8-0.3-2.5,0.4c-0.8,0.8-0.8,2.2,0,3c0.4,0.4,0.9,0.6,1.5,0.6c0.6,0,1.1-0.2,1.5-0.6c0.4-0.4,0.6-0.9,0.6-1.5
	c0-0.3-0.1-0.5-0.1-0.7l2.2-2.2C1023.6,88.2,1023.9,89.2,1023.9,90.3z M1018.4,90.7C1018.4,90.7,1018.4,90.7,1018.4,90.7
	c-0.3-0.3-0.3-0.6,0-0.9c0,0,0,0,0,0C1018.2,90.1,1018.2,90.5,1018.4,90.7z M1030.7,72.6l-0.4,5.3l-3.8,3.8l-0.1-4.8L1030.7,72.6z
	 M1029.2,100.6c-2.8,2.8-6.4,4.3-10.3,4.3s-7.6-1.5-10.3-4.3c-5.7-5.7-5.7-15,0-20.7c4.3-4.3,10.9-5.5,16.4-2.9l0.1,4
	c-1.8-1.2-3.9-1.9-6.2-1.9c-3,0-5.8,1.2-7.9,3.3s-3.3,4.9-3.3,7.9c0,3,1.2,5.8,3.3,7.9s4.9,3.3,7.9,3.3c3,0,5.8-1.2,7.9-3.3
	s3.3-4.9,3.3-7.9c0-2.2-0.6-4.2-1.7-6l4,0.1C1034.6,89.9,1033.5,96.3,1029.2,100.6z M1032.5,82.8c-0.1,0-0.1,0-0.2,0c0,0,0,0,0,0
	l-4.7-0.1l1.9-1.9l1.9-1.9l5.3-0.4L1032.5,82.8z"/>
</svg>
