<?xml version="1.0" encoding="utf-8"?>
<!-- Generator: Adobe Illustrator 18.1.1, SVG Export Plug-In . SVG Version: 6.00 Build 0)  -->
<svg version="1.1" id="Layer_1" xmlns="http://www.w3.org/2000/svg" xmlns:xlink="http://www.w3.org/1999/xlink" x="0px" y="0px"
	 viewBox="998.3 72.5 45.6 37.7" enable-background="new 998.3 72.5 45.6 37.7" xml:space="preserve">
<g>
	<path fill="#666666" d="M1026.1,83.5C1026.1,83.5,1026.1,83.5,1026.1,83.5c-1.9-5.8-7.2-9.7-13.3-9.7c-7.7,0-14,6.3-14,14
		c0,7.3,5.7,13.4,12.9,13.9v7.2h31.5v-8.1v-1.1v-7v-1.1v-8.1H1026.1z M1011.8,91.5h-3.2c-0.1-1.2-0.2-2.4-0.2-3.8c0-1,0-1.9,0.1-2.8
		h3.3V91.5z M1008.6,83.5c0.7-5,2.5-8.2,4.2-8.2c1.5,0,3.4,2.9,4.2,8.2h-4.5v0H1008.6z M1013.3,85h28.5v6.2h-28.5V85z M1024.5,83.5
		h-6c-0.4-3.4-1.4-6.2-2.6-7.9C1019.8,76.7,1023.1,79.6,1024.5,83.5z M1009.7,75.7c-1.2,1.7-2.2,4.4-2.6,7.8h-6
		C1002.5,79.6,1005.7,76.7,1009.7,75.7z M1000.7,85h6.3c-0.1,0.9-0.1,1.8-0.1,2.8c0,1.3,0.1,2.6,0.2,3.8h-6.1
		c-0.4-1.2-0.6-2.5-0.6-3.8C1000.3,86.8,1000.5,85.9,1000.7,85z M1001.5,93h5.7c0.5,2.9,1.3,5.3,2.5,6.8
		C1006.1,98.9,1003.1,96.3,1001.5,93z M1041.8,107.4h-28.5v-6.2h28.5V107.4z M1011.8,99.8c-1.2-0.9-2.4-3.4-3-6.8h3v6.7V99.8z
		 M1013.3,99.3v-6.2h28.5v6.2H1013.3z"/>
	<rect x="1029.8" y="86.7" fill="#666666" width="10" height="2"/>
	<rect x="1021.8" y="86.7" fill="#666666" width="2" height="2"/>
	<rect x="1016.8" y="86.7" fill="#666666" width="3" height="2"/>
	<rect x="1029.8" y="95.7" fill="#666666" width="10" height="2"/>
	<rect x="1021.8" y="95.7" fill="#666666" width="2" height="2"/>
	<rect x="1016.8" y="95.7" fill="#666666" width="3" height="2"/>
	<rect x="1029.8" y="103.7" fill="#666666" width="10" height="2"/>
	<rect x="1021.8" y="103.7" fill="#666666" width="2" height="2"/>
	<rect x="1016.8" y="103.7" fill="#666666" width="3" height="2"/>
</g>
</svg>
