<?xml version="1.0" encoding="utf-8"?>
<!-- Generator: Adobe Illustrator 18.1.1, SVG Export Plug-In . SVG Version: 6.00 Build 0)  -->
<svg version="1.1" id="Layer_1" xmlns="http://www.w3.org/2000/svg" xmlns:xlink="http://www.w3.org/1999/xlink" x="0px" y="0px"
	 viewBox="1007.3 77 25.8 29.5" enable-background="new 1007.3 77 25.8 29.5" xml:space="preserve">
<g>
	<g>
		<g>
			<path fill="#666666" d="M1014.2,85.2h-5.3c-0.4,0-0.8-0.3-0.8-0.8v-5.3c0-0.4,0.3-0.8,0.8-0.8h5.3c0.4,0,0.8,0.3,0.8,0.8v5.3
				C1015,84.9,1014.7,85.2,1014.2,85.2z M1009.7,83.7h3.8v-3.8h-3.8V83.7z"/>
		</g>
		<g>
			<path fill="#666666" d="M1014.2,95.2h-5.3c-0.4,0-0.8-0.3-0.8-0.8v-5.3c0-0.4,0.3-0.8,0.8-0.8h5.3c0.4,0,0.8,0.3,0.8,0.8v5.3
				C1015,94.8,1014.7,95.2,1014.2,95.2z M1009.7,93.7h3.8v-3.8h-3.8V93.7z"/>
		</g>
		<g>
			<path fill="#666666" d="M1014.2,105.1h-5.3c-0.4,0-0.8-0.3-0.8-0.8V99c0-0.4,0.3-0.8,0.8-0.8h5.3c0.4,0,0.8,0.3,0.8,0.8v5.3
				C1015,104.8,1014.7,105.1,1014.2,105.1z M1009.7,103.6h3.8v-3.8h-3.8V103.6z"/>
		</g>
	</g>
	<g>
		<g>
			<path fill="#666666" d="M1022.8,85.2h-5.3c-0.4,0-0.8-0.3-0.8-0.8v-5.3c0-0.4,0.3-0.8,0.8-0.8h5.3c0.4,0,0.8,0.3,0.8,0.8v5.3
				C1023.6,84.9,1023.2,85.2,1022.8,85.2z M1018.2,83.7h3.8v-3.8h-3.8V83.7z"/>
		</g>
		<g>
			<path fill="#666666" d="M1022.8,95.2h-5.3c-0.4,0-0.8-0.3-0.8-0.8v-5.3c0-0.4,0.3-0.8,0.8-0.8h5.3c0.4,0,0.8,0.3,0.8,0.8v5.3
				C1023.6,94.8,1023.2,95.2,1022.8,95.2z M1018.2,93.7h3.8v-3.8h-3.8V93.7z"/>
		</g>
		<g>
			<path fill="#666666" d="M1022.8,105.1h-5.3c-0.4,0-0.8-0.3-0.8-0.8V99c0-0.4,0.3-0.8,0.8-0.8h5.3c0.4,0,0.8,0.3,0.8,0.8v5.3
				C1023.6,104.8,1023.2,105.1,1022.8,105.1z M1018.2,103.6h3.8v-3.8h-3.8V103.6z"/>
		</g>
	</g>
	<g>
		<g>
			<path fill="#666666" d="M1031.4,85.2h-5.3c-0.4,0-0.8-0.3-0.8-0.8v-5.3c0-0.4,0.3-0.8,0.8-0.8h5.3c0.4,0,0.8,0.3,0.8,0.8v5.3
				C1032.1,84.9,1031.8,85.2,1031.4,85.2z M1026.8,83.7h3.8v-3.8h-3.8V83.7z"/>
		</g>
		<g>
			<path fill="#666666" d="M1031.4,95.2h-5.3c-0.4,0-0.8-0.3-0.8-0.8v-5.3c0-0.4,0.3-0.8,0.8-0.8h5.3c0.4,0,0.8,0.3,0.8,0.8v5.3
				C1032.1,94.8,1031.8,95.2,1031.4,95.2z M1026.8,93.7h3.8v-3.8h-3.8V93.7z"/>
		</g>
		<g>
			<path fill="#666666" d="M1031.4,105.1h-5.3c-0.4,0-0.8-0.3-0.8-0.8V99c0-0.4,0.3-0.8,0.8-0.8h5.3c0.4,0,0.8,0.3,0.8,0.8v5.3
				C1032.1,104.8,1031.8,105.1,1031.4,105.1z M1026.8,103.6h3.8v-3.8h-3.8V103.6z"/>
		</g>
	</g>
</g>
</svg>
