<?xml version="1.0" encoding="utf-8"?>
<!-- Generator: Adobe Illustrator 18.1.1, SVG Export Plug-In . SVG Version: 6.00 Build 0)  -->
<svg version="1.1" id="Layer_1" xmlns="http://www.w3.org/2000/svg" xmlns:xlink="http://www.w3.org/1999/xlink" x="0px" y="0px"
	 viewBox="260.6 202.3 57.2 58" enable-background="new 260.6 202.3 57.2 58" xml:space="preserve">
<path fill="#666666" d="M317,213.9c-0.5-0.2-1.1-0.3-1.6-0.5V207c0-0.4-0.2-0.7-0.4-1c-0.3-0.2-0.7-0.3-1-0.3
	c-0.3,0-2.3,0.4-5.1,1.4v-3.6c0-0.4-0.2-0.7-0.5-1c-0.3-0.2-0.7-0.3-1-0.2c-0.1,0-12.8,3-17.3,14.2c-4.4-11.3-17.5-14.2-17.7-14.2
	c-0.4-0.1-0.7,0-1,0.3c-0.3,0.2-0.5,0.6-0.5,1v3.7c-3.3-1-5.7-1.4-6-1.4c-0.4-0.1-0.7,0.1-1,0.3c-0.3,0.2-0.4,0.6-0.4,0.9v6.4
	c-0.6,0.1-1.2,0.3-1.7,0.5c-0.6,0.2-0.9,0.7-0.9,1.3v36c0,0.5,0.2,0.9,0.6,1.1c0.4,0.3,0.8,0.3,1.3,0.2c2.3-0.9,4.7-1.3,7-1.3
	c10.6,0,18.6,8.6,18.7,8.7c0.1,0.2,0.3,0.3,0.5,0.3c0,0,0,0,0,0c0,0,0,0,0.1,0c0.1,0,0.1,0,0.2,0c0.1,0,0.2,0,0.2,0c0,0,0,0,0,0
	c0,0,0,0,0,0c0,0,0,0,0,0c0.1,0,0.1,0,0.2,0c0,0,0.1,0,0.1,0c0.1,0,0.2,0,0.2-0.1c0,0,0,0,0,0c0,0,0,0,0,0c0.2-0.1,0.4-0.2,0.5-0.4
	c0.1-0.1,8.1-8.7,18.7-8.7c2.4,0,4.8,0.4,7,1.3c0.4,0.2,0.9,0.1,1.3-0.2c0.4-0.3,0.6-0.7,0.6-1.1v-36
	C317.9,214.6,317.5,214.1,317,213.9z M312.9,213c-0.7-0.1-1.5-0.1-2.2-0.1c-5.7,0-11.3,2.3-15.5,4.5c5.9-5.4,14.3-8,17.7-8.8V213z
	 M306.3,205.2v2.8c-4.3,1.6-9.6,4.3-13.6,8.3C296.1,209.2,303.1,206.2,306.3,205.2z M273.2,205.2c3.4,1.1,11.6,4.5,14.6,12.7
	c-3.9-5-9.8-8.1-14.6-9.9V205.2z M265.7,208.5c3.6,0.8,13,3.3,18.9,9.6c-4.2-2.5-10.4-5.3-16.8-5.3c-0.7,0-1.4,0-2.1,0.1V208.5z
	 M287.9,255.8c-3.4-2.8-10.1-7.3-18.3-7.3c-2.1,0-4.1,0.3-6.2,0.9v-33.1c1.4-0.4,2.9-0.6,4.5-0.6c8.9,0,17.8,6.3,20,8V255.8z
	 M315.1,249.3c-2-0.6-4.1-0.9-6.2-0.9c-8.3,0-15,4.5-18.3,7.3v-32.2c2.2-1.7,11.1-8,20-8c1.6,0,3.1,0.2,4.5,0.6V249.3z"/>
</svg>
