<?xml version="1.0" encoding="utf-8"?>
<!-- Generator: Adobe Illustrator 18.1.1, SVG Export Plug-In . SVG Version: 6.00 Build 0)  -->
<svg version="1.1" id="Layer_1" xmlns="http://www.w3.org/2000/svg" xmlns:xlink="http://www.w3.org/1999/xlink" x="0px" y="0px"
	 viewBox="1005.6 73.2 30.9 29.8" enable-background="new 1005.6 73.2 30.9 29.8" xml:space="preserve">
<path fill="#666666" d="M1035.4,93.8c0-2.3-1.4-5.6-3.8-7.4c1.2-1.1,1.9-2.6,1.9-4.3c0-3.2-2.6-5.8-5.8-5.8c-0.7,0-1.3,0.1-1.9,0.3
	c-0.1,0-0.1,0.1-0.2,0.1c-1.2-1.2-2.9-2-4.8-2c-1.8,0-3.4,0.7-4.7,1.8c-0.6-0.2-1.3-0.3-1.9-0.3c-3.2,0-5.8,2.6-5.8,5.8
	c0,1.7,0.8,3.2,1.9,4.3c-2.2,1.7-3.8,4.8-3.8,7.4c0,2.1,2,3.7,5.3,4.3c0.3,0.8,1.1,1.7,2.9,2.4c1.6,0.6,3.7,1,6,1
	c3.9,0,7.9-1.1,8.9-3.4C1033.3,97.6,1035.4,96,1035.4,93.8z M1032.1,82c0,2.3-1.9,4.3-4.3,4.3c-0.6,0-1.1-0.1-1.6-0.3
	c1-1.2,1.5-2.7,1.5-4.3c0-1.4-0.4-2.6-1.1-3.7c0.4-0.1,0.8-0.2,1.2-0.2C1030.2,77.8,1032.1,79.7,1032.1,82z M1020.9,76.3
	c3,0,5.4,2.4,5.4,5.4s-2.4,5.4-5.4,5.4s-5.4-2.4-5.4-5.4S1017.9,76.3,1020.9,76.3z M1010,82c0-2.3,1.9-4.3,4.3-4.3
	c0.3,0,0.6,0,0.9,0.1c-0.7,1.1-1.1,2.4-1.1,3.8c0,1.7,0.6,3.3,1.7,4.5c-0.4,0.1-0.8,0.2-1.4,0.2C1011.9,86.3,1010,84.4,1010,82z
	 M1008.2,93.8c0-2,1.4-5,3.6-6.5c0.8,0.4,1.6,0.6,2.5,0.6c0.8,0,1.3-0.1,1.9-0.3c-2.2,1.4-4.3,4-4.4,9
	C1009.9,96.1,1008.2,95.2,1008.2,93.8z M1020.9,100c-4.3,0-7.6-1.3-7.6-3c0-4.2,1.6-7.3,4.7-8.7c0.1-0.1,0.2-0.1,0.3-0.3
	c0.8,0.3,1.7,0.5,2.7,0.5c1,0,1.9-0.2,2.8-0.6c0.1,0,0.1,0.1,0.2,0.1c3,1.5,4.7,4.6,4.7,8.9C1028.5,98.7,1025.2,100,1020.9,100z
	 M1030,96.6c-0.1-4.2-1.7-7.5-4.6-9.3c0.7,0.3,1.6,0.5,2.4,0.5c0.9,0,1.7-0.2,2.5-0.6c2.2,1.5,3.6,4.5,3.6,6.5
	C1033.9,95.3,1032,96.2,1030,96.6z"/>
</svg>
