<?xml version="1.0" encoding="utf-8"?>
<!-- Generator: Adobe Illustrator 18.1.1, SVG Export Plug-In . SVG Version: 6.00 Build 0)  -->
<svg version="1.1" id="Layer_1" xmlns="http://www.w3.org/2000/svg" xmlns:xlink="http://www.w3.org/1999/xlink" x="0px" y="0px"
	 viewBox="993.5 74.6 67.9 62.6" enable-background="new 993.5 74.6 67.9 62.6" xml:space="preserve">
<g>
	<path fill="#666666" d="M1057.1,76.4h-59.3c-1.9,0-3.4,1.5-3.4,3.4V132c0,1.9,1.5,3.4,3.4,3.4h59.3c1.9,0,3.4-1.5,3.4-3.4V79.9
		C1060.6,78,1059,76.4,1057.1,76.4z M997.8,77.9h59.3c1.1,0,1.9,0.9,1.9,1.9v8.4c-0.1,0-0.2-0.1-0.3-0.1h-63v-8.4
		C995.8,78.8,996.7,77.9,997.8,77.9z M1057.1,133.9h-59.3c-1.1,0-1.9-0.9-1.9-1.9V89.8h63c0.1,0,0.2,0,0.3-0.1V132
		C1059.1,133.1,1058.2,133.9,1057.1,133.9z"/>
	<circle fill="#666666" cx="1002.1" cy="83.2" r="1.8"/>
	<circle fill="#666666" cx="1008.1" cy="83.2" r="1.8"/>
	<circle fill="#666666" cx="1014.1" cy="83.2" r="1.8"/>
	<path fill="#666666" d="M1018.9,95h-10.8c-0.4,0-0.8,0.3-0.8,0.8v7.3c0,0.4,0.3,0.8,0.8,0.8h10.8c0.4,0,0.8-0.3,0.8-0.8v-7.3
		C1019.7,95.4,1019.4,95,1018.9,95z M1018.2,102.3h-9.3v-5.8h9.3V102.3z"/>
	<path fill="#666666" d="M1018.9,107.5h-10.8c-0.4,0-0.8,0.3-0.8,0.8v7.3c0,0.4,0.3,0.8,0.8,0.8h10.8c0.4,0,0.8-0.3,0.8-0.8v-7.3
		C1019.7,107.8,1019.4,107.5,1018.9,107.5z M1018.2,114.7h-9.3V109h9.3V114.7z"/>
	<path fill="#666666" d="M1046.8,112.3h-21c-0.4,0-0.8,0.3-0.8,0.8s0.3,0.8,0.8,0.8h21c0.4,0,0.8-0.3,0.8-0.8
		S1047.2,112.3,1046.8,112.3z"/>
	<path fill="#666666" d="M1025.8,109.8h13c0.4,0,0.8-0.3,0.8-0.8s-0.3-0.8-0.8-0.8h-13c-0.4,0-0.8,0.3-0.8,0.8
		S1025.4,109.8,1025.8,109.8z"/>
	<path fill="#666666" d="M1046.8,125.3h-21c-0.4,0-0.8,0.3-0.8,0.8s0.3,0.8,0.8,0.8h21c0.4,0,0.8-0.3,0.8-0.8
		S1047.2,125.3,1046.8,125.3z"/>
	<path fill="#666666" d="M1025.8,122.8h13c0.4,0,0.8-0.3,0.8-0.8s-0.3-0.8-0.8-0.8h-13c-0.4,0-0.8,0.3-0.8,0.8
		S1025.4,122.8,1025.8,122.8z"/>
	<path fill="#666666" d="M1018.9,119.9h-10.8c-0.4,0-0.8,0.3-0.8,0.8v7.3c0,0.4,0.3,0.8,0.8,0.8h10.8c0.4,0,0.8-0.3,0.8-0.8v-7.3
		C1019.7,120.3,1019.4,119.9,1018.9,119.9z M1018.2,127.2h-9.3v-5.8h9.3V127.2z"/>
	<path fill="#666666" d="M1046.8,100.3h-21c-0.4,0-0.8,0.3-0.8,0.8s0.3,0.8,0.8,0.8h21c0.4,0,0.8-0.3,0.8-0.8
		S1047.2,100.3,1046.8,100.3z"/>
	<path fill="#666666" d="M1025.8,97.8h13c0.4,0,0.8-0.3,0.8-0.8s-0.3-0.8-0.8-0.8h-13c-0.4,0-0.8,0.3-0.8,0.8
		S1025.4,97.8,1025.8,97.8z"/>
</g>
</svg>
