<?xml version="1.0" encoding="utf-8"?>
<!-- Generator: Adobe Illustrator 18.1.1, SVG Export Plug-In . SVG Version: 6.00 Build 0)  -->
<svg version="1.1" id="Layer_1" xmlns="http://www.w3.org/2000/svg" xmlns:xlink="http://www.w3.org/1999/xlink" x="0px" y="0px"
	 viewBox="993.5 74.6 67.9 62.6" enable-background="new 993.5 74.6 67.9 62.6" xml:space="preserve">
<g>
	<path fill="#666666" d="M1057.1,76.4h-59.3c-1.9,0-3.4,1.5-3.4,3.4V132c0,1.9,1.5,3.4,3.4,3.4h59.3c1.9,0,3.4-1.5,3.4-3.4V79.9
		C1060.6,78,1059,76.4,1057.1,76.4z M997.8,77.9h59.3c1.1,0,1.9,0.9,1.9,1.9v8.4c-0.1,0-0.2-0.1-0.3-0.1h-63v-8.4
		C995.8,78.8,996.7,77.9,997.8,77.9z M1057.1,133.9h-59.3c-1.1,0-1.9-0.9-1.9-1.9V89.8h63c0.1,0,0.2,0,0.3-0.1V132
		C1059.1,133.1,1058.2,133.9,1057.1,133.9z"/>
	<circle fill="#666666" cx="1002.1" cy="83.2" r="1.8"/>
	<circle fill="#666666" cx="1008.1" cy="83.2" r="1.8"/>
	<circle fill="#666666" cx="1014.1" cy="83.2" r="1.8"/>
	<path fill="#666666" d="M1047.4,97.1h-40.6c-0.4,0-0.8,0.3-0.8,0.8V125c0,0.4,0.3,0.8,0.8,0.8h40.6c0.4,0,0.8-0.3,0.8-0.8V97.8
		C1048.1,97.4,1047.8,97.1,1047.4,97.1z M1046.6,124.2h-39.1V98.6h39.1V124.2z"/>
	<path fill="#666666" d="M1019,106.9c-3.9,0-7.1,3.2-7.1,7.1s3.2,7.1,7.1,7.1s7.1-3.2,7.1-7.1S1022.9,106.9,1019,106.9z M1019,119.5
		c-3.1,0-5.6-2.5-5.6-5.6s2.5-5.6,5.6-5.6s5.6,2.5,5.6,5.6S1022,119.5,1019,119.5z"/>
	<path fill="#666666" d="M1011.8,103.8h30c0.4,0,0.8-0.3,0.8-0.8s-0.3-0.8-0.8-0.8h-30c-0.4,0-0.8,0.3-0.8,0.8
		S1011.4,103.8,1011.8,103.8z"/>
	<path fill="#666666" d="M1029.8,109.8h12c0.4,0,0.8-0.3,0.8-0.8s-0.3-0.8-0.8-0.8h-12c-0.4,0-0.8,0.3-0.8,0.8
		S1029.4,109.8,1029.8,109.8z"/>
	<path fill="#666666" d="M1041.8,113.8c0.4,0,0.8-0.3,0.8-0.8s-0.3-0.8-0.8-0.8h-12c-0.4,0-0.8,0.3-0.8,0.8s0.3,0.8,0.8,0.8H1041.8z
		"/>
	<path fill="#666666" d="M1030.1,115.8c-0.4,0-0.8,0.3-0.8,0.8v3.2c0,0.4,0.3,0.8,0.8,0.8h12c0.4,0,0.8-0.3,0.8-0.8v-3.2
		c0-0.4-0.3-0.8-0.8-0.8H1030.1z M1041.4,119h-10.5v-1.7h10.5V119z"/>
</g>
</svg>
