<?xml version="1.0" encoding="utf-8"?>
<!-- Generator: Adobe Illustrator 18.1.1, SVG Export Plug-In . SVG Version: 6.00 Build 0)  -->
<svg version="1.1" id="Layer_1" xmlns="http://www.w3.org/2000/svg" xmlns:xlink="http://www.w3.org/1999/xlink" x="0px" y="0px"
	 viewBox="1003.7 75.6 32.9 35" enable-background="new 1003.7 75.6 32.9 35" xml:space="preserve">
<g>
	<g>
		<path fill="#666666" d="M1020.2,109.2c-8.9,0-16.1-7.2-16.1-16.1s7.2-16.1,16.1-16.1c8.9,0,16.1,7.2,16.1,16.1
			S1029,109.2,1020.2,109.2z M1020.2,78.5c-8.1,0-14.6,6.6-14.6,14.6s6.6,14.6,14.6,14.6c8.1,0,14.6-6.6,14.6-14.6
			S1028.2,78.5,1020.2,78.5z"/>
	</g>
	<g>
		<g>
			<path fill="#666666" d="M1025.4,103.2C1025.4,103.2,1025.4,103.2,1025.4,103.2c-0.3,0-0.6-0.2-0.7-0.5l-4.7-13.2
				c-0.1-0.4,0.1-0.8,0.5-1c0.4-0.1,0.8,0.1,1,0.5l4,11.3l3.7-9.3c0.5-1.2,0.3-2.6-0.4-3.6c-0.5-0.6-1.1-1-1.9-1.1
				c-0.4,0-0.7-0.4-0.7-0.8c0-0.4,0.4-0.7,0.8-0.7c1.2,0.1,2.2,0.7,2.9,1.6c1.1,1.4,1.3,3.3,0.6,5l-4.5,11.2
				C1026,103.1,1025.7,103.2,1025.4,103.2z"/>
		</g>
		<g>
			<path fill="#666666" d="M1017.4,103.2C1017.4,103.2,1017.4,103.2,1017.4,103.2c-0.3,0-0.6-0.2-0.7-0.5l-5.7-13.2
				c-0.2-0.4,0-0.8,0.4-1c0.4-0.2,0.8,0,1,0.4l5.1,11.7l3.5-8.1c0.2-0.4,0.6-0.6,1-0.4c0.4,0.2,0.6,0.6,0.4,1l-4.2,9.7
				C1017.9,103.1,1017.7,103.2,1017.4,103.2z"/>
		</g>
		<g>
			<path fill="#666666" d="M1013.3,90h-5c-0.6,0-1-0.4-1-1s0.4-1,1-1h5c0.6,0,1,0.4,1,1S1013.8,90,1013.3,90z"/>
		</g>
		<g>
			<path fill="#666666" d="M1022.3,90h-5c-0.6,0-1-0.4-1-1s0.4-1,1-1h5c0.6,0,1,0.4,1,1S1022.8,90,1022.3,90z"/>
		</g>
	</g>
</g>
</svg>
