<?xml version="1.0" encoding="utf-8"?>
<!-- Generator: Adobe Illustrator 18.1.1, SVG Export Plug-In . SVG Version: 6.00 Build 0)  -->
<svg version="1.1" id="Layer_1" xmlns="http://www.w3.org/2000/svg" xmlns:xlink="http://www.w3.org/1999/xlink" x="0px" y="0px"
	 viewBox="0 0 1366 768" enable-background="new 0 0 1366 768" xml:space="preserve">
<g>
	<path fill="none" stroke="#773EB2" stroke-width="10.911" stroke-miterlimit="10" d="M1004.1,480.9H872.5c-2.3,0-4.2-1.9-4.2-4.2
		v-79.4c0-2.3,1.9-4.2,4.2-4.2h131.6c2.3,0,4.2,1.9,4.2,4.2v79.4C1008.3,478.9,1006.4,480.9,1004.1,480.9z"/>
	<circle fill="none" stroke="#773EB2" stroke-width="10.911" stroke-miterlimit="10" cx="938.6" cy="436.9" r="23.4"/>
	
		<path fill="none" stroke="#773EB2" stroke-width="10.911" stroke-linecap="round" stroke-linejoin="round" stroke-miterlimit="10" d="
		M902.2,422.1c0,0,16.7,12.5,36.4,12.5c19.6,0,36.1-12.5,36.1-12.5"/>
	
		<line fill="none" stroke="#773EB2" stroke-width="10.911" stroke-linecap="round" stroke-linejoin="round" stroke-miterlimit="10" x1="923.7" y1="494.8" x2="952.8" y2="494.8"/>
	
		<path fill="none" stroke="#773EB2" stroke-width="10.911" stroke-linecap="round" stroke-linejoin="round" stroke-miterlimit="10" d="
		M906.9,517.1c0,0,13.4-8.1,33-8.1s29.6,8.1,29.6,8.1"/>
</g>
<g>
	<g>
		<path fill="none" stroke="#773EB2" stroke-width="10.5764" stroke-linecap="round" stroke-linejoin="round" d="M720.8,267.3
			c0,0,2.1-0.5,5.8-1.2"/>
		
			<path fill="none" stroke="#773EB2" stroke-width="10.5764" stroke-linecap="round" stroke-linejoin="round" stroke-dasharray="7.718,19.2949" d="
			M755.9,262c47.1-4.1,129.3,0.4,166.2,71.6"/>
		<path fill="none" stroke="#773EB2" stroke-width="10.5764" stroke-linecap="round" stroke-linejoin="round" d="M928.2,347.2
			c0.7,1.8,1.4,3.7,2.1,5.5"/>
	</g>
</g>
<g>
	<g>
		<path fill="none" stroke="#773EB2" stroke-width="10.5764" stroke-linecap="round" stroke-linejoin="round" d="M580.3,267.3
			c0,0-2.1-0.5-5.8-1.2"/>
		
			<path fill="none" stroke="#773EB2" stroke-width="10.5764" stroke-linecap="round" stroke-linejoin="round" stroke-dasharray="7.718,19.2949" d="
			M545.2,262c-47.1-4.1-129.3,0.4-166.2,71.6"/>
		<path fill="none" stroke="#773EB2" stroke-width="10.5764" stroke-linecap="round" stroke-linejoin="round" d="M372.9,347.2
			c-0.7,1.8-1.4,3.7-2.1,5.5"/>
	</g>
</g>
<g>
	<g>
		<path fill="#773EB2" d="M738.1,182.2c-2.1-2.8-6-3.2-8.6-1.2c-0.2,0.2-9.3,7.1-23.8,13.9c-9.2-20.5-30-34.9-53.8-34.9
			s-44.3,14.1-53.6,34.6c-14.3-6.7-23.3-13.4-23.5-13.6c-2.8-2.1-6.7-1.6-8.6,1.2c-2.1,2.8-1.6,6.7,1.2,8.6
			c0.9,0.5,11.1,8.3,27,15.5c-0.9,4.1-1.4,8.3-1.4,12.5c0,20.8,10.8,39.2,27.2,49.6l-11.8,22.8l26.6,33.2H670l26.3-33.7l-12.2-22.4
			c15.9-10.6,26.5-28.8,26.5-49.2c0-4.2-0.5-8.3-1.2-12.3c16.2-7.4,26.6-15.3,27.5-15.9C739.5,188.9,740,184.9,738.1,182.2z
			 M651.6,172.5c18.7,0,34.9,11.1,42.3,27.2c-12.2,4.6-26.5,8.1-41.8,8.1c-15.5,0-30.3-3.7-42.9-8.5
			C616.7,183.5,632.9,172.5,651.6,172.5z M604.9,219.1c0-2.6,0.2-5.1,0.7-7.8c11.6,4.4,25.2,7.8,39.9,8.6l-19.9,37.6
			C613.2,249.3,604.9,235.1,604.9,219.1z M664,312.2h-23.6L621.6,290l21.9-43.9v26.6c0,1.8-2.5,4.4-2.5,7.4c0,5.1,4.8,9.3,9.9,9.3
			s9.3-4.2,9.3-9.3c0-2.6-0.9-4.9-2.6-6.5V247l23.6,42.9L664,312.2z M698.2,219.1c0,15.9-7.9,29.8-19.9,38.3l-20.5-37
			c14.6-0.7,28.2-4.2,39.9-8.5C697.8,214.2,698.2,216.6,698.2,219.1z"/>
		<path fill="#773EB2" d="M674,329.9h-45.3c-3.5,0-6.2,2.8-6.2,6.2c0,3.4,2.8,6.2,6.2,6.2H674c3.5,0,6.2-2.8,6.2-6.2
			C680.2,332.7,677.6,329.9,674,329.9z"/>
	</g>
</g>
<g>
	<g>
		<path fill="#773EB2" stroke="#773EB2" stroke-width="2.2971" stroke-miterlimit="10" d="M262.6,513c-9.2,0-16.8-7.4-16.8-16.8
			c0-9.2,7.4-16.8,16.8-16.8c9.3,0,16.8,7.4,16.8,16.8S271.7,513,262.6,513z M262.6,489.9c-3.5,0-6.5,3-6.5,6.5c0,3.5,3,6.5,6.5,6.5
			c3.5,0,6.5-3,6.5-6.5C269.1,492.9,266.3,489.9,262.6,489.9z"/>
	</g>
	<g>
		<path fill="#773EB2" stroke="#773EB2" stroke-width="2.2971" stroke-miterlimit="10" d="M233.8,528.3c-6.7,0-12-5.5-12-12
			c0-6.7,5.5-12,12-12c6.5,0,12,5.5,12,12C245.8,522.8,240.5,528.3,233.8,528.3z M233.8,514.4c-1.1,0-1.9,0.9-1.9,1.9
			c0,1.1,0.9,1.9,1.9,1.9s1.9-0.9,1.9-1.9C235.8,515.2,234.9,514.4,233.8,514.4z"/>
	</g>
	<g>
		<path fill="#773EB2" stroke="#773EB2" stroke-width="2.2971" stroke-miterlimit="10" d="M368.8,510.2c-11.5,0-22.1-4.8-29.8-12.9
			c-6.4,6.2-14.8,9.7-23.8,9.7c-16.6,0-30.7-12-33.5-28c-15-3.9-25.9-17.6-25.9-33.3c0-18.7,15-34,33.7-34.4
			c5.6-8.5,14.5-14.1,24.3-15.5c5.8-11.3,17.3-18.3,30.2-18.3c8.1,0,15.7,2.8,21.9,7.9c2.3-0.5,4.6-0.9,6.9-0.9
			c12.2,0,22.8,7.6,27.2,18.3c1.8-0.2,3.4-0.4,5.1-0.4c19.4,0,35.3,15.9,35.3,35.3c0,9.7-3.9,18.9-10.9,25.6
			c0.5,1.9,0.7,4.1,0.7,6.2c0,13.9-11.3,25.2-25.2,25.2c-1.2,0-2.5-0.2-3.7-0.4C393.5,504.4,381.7,510.2,368.8,510.2z M339.4,480.2
			l4.2,6.2c5.6,8.5,15.2,13.6,25.4,13.6c10.6,0,20.1-5.3,25.8-14.3l2.1-3.4l3.7,1.2c1.4,0.5,3,0.7,4.4,0.7c8.3,0,15.2-6.7,15.2-15.2
			c0-1.9-0.4-4.1-1.2-5.8l-1.6-3.5l3.2-2.3c6.2-4.8,9.9-12,9.9-19.9c0-13.8-11.3-25.1-25.1-25.1c-2.5,0-4.8,0.4-7.2,1.1l-5.3,1.6
			l-1.1-5.5c-1.8-8.8-9.7-15.2-18.7-15.2c-2.3,0-4.4,0.4-6.5,1.1l-3,1.1l-2.3-2.3c-4.6-4.6-10.6-7.1-16.9-7.1
			c-9.7,0-18.3,5.8-22.1,14.8l-1.2,3l-3.2,0.2c-8.8,0.5-16.6,5.6-20.8,13.4l-1.6,2.8l-3.2-0.2c-0.7,0-1.2,0-1.8,0
			c-13.4,0-24.3,10.9-24.3,24.3c0,12.2,9,22.4,21,24.2l4.2,0.5l0.2,4.2c0.7,12.5,11.3,22.4,23.8,22.4c7.9,0,15.2-3.9,19.8-10.4
			L339.4,480.2z"/>
	</g>
	<g>
		<path fill="#773EB2" stroke="#773EB2" stroke-width="2.2971" stroke-miterlimit="10" d="M332.8,417.4c4.6-3.4,9.3-4.9,14.5-4.9
			c5.5,0,10.1,1.6,13.8,4.9c3.7,3.2,5.5,7.4,5.5,12.3c0,3.4-1.1,6.2-3.2,8.5c-2.1,2.1-4.8,4.2-8.1,6c-2.6,1.4-3.9,3-3.9,4.8
			c0,0.4,0,0.7,0,0.9s0,0.5,0,0.9c0,1.4-0.5,2.5-1.4,3.4c-1.1,0.9-2.3,1.2-4.1,1.2c-1.9,0-3.5-0.7-4.6-2.1c-1.2-1.4-1.8-3.2-1.8-5.5
			c0-3.9,2.1-7.1,6.5-9.5c3.7-2.1,6-3.7,6.9-4.8c1.1-1.2,1.6-2.5,1.6-3.9c0-1.9-0.7-3.5-2.3-4.8c-1.4-1.2-3.4-1.8-5.5-1.8
			c-2.5,0-4.8,0.9-7.2,2.6c-1.9,1.4-3.7,1.9-4.9,1.9s-2.3-0.5-3.5-1.8c-1.1-1.2-1.6-2.5-1.6-3.7
			C329.7,420.4,330.7,418.6,332.8,417.4z M341.1,462c1.4-1.2,3-1.8,5.1-1.8c1.9,0,3.5,0.5,4.8,1.8c1.2,1.2,1.9,2.6,1.9,4.6
			s-0.7,3.5-2.1,4.6c-1.4,1.1-3,1.6-4.9,1.6s-3.7-0.5-4.9-1.6s-1.9-2.6-1.9-4.6C339.2,464.7,339.9,463.3,341.1,462z"/>
	</g>
</g>
<text transform="matrix(1 0 0 1 252.4366 567.751)" fill="#414042" font-family="'Montserrat-ExtraBold'" font-size="23.8225">TE ESCUCHAMOS</text>
<text transform="matrix(1 0 0 1 566.5942 486.4687)"><tspan x="0" y="0" fill="#414042" font-family="'Montserrat-ExtraBold'" font-size="23.8225">GARANTÍA DE</tspan><tspan x="-44.7" y="28.6" fill="#414042" font-family="'Montserrat-ExtraBold'" font-size="23.8225">CONFORMIDAD 100%</tspan></text>
<text transform="matrix(1 0 0 1 240.7432 598.3848)"><tspan x="0" y="0" fill="#616265" font-family="'Montserrat-SemiBold'" font-size="16.1676">Coméntanos tus necesidades</tspan><tspan x="23.4" y="19.4" fill="#616265" font-family="'Montserrat-SemiBold'" font-size="16.1676">preferencias y objetivos</tspan></text>
<text transform="matrix(1 0 0 1 891.8115 567.751)" fill="#414042" font-family="'Montserrat-ExtraBold'" font-size="23.8225">¡LISTO!</text>
<text transform="matrix(1 0 0 1 811.2832 598.3848)"><tspan x="0" y="0" fill="#616265" font-family="'Montserrat-SemiBold'" font-size="16.1676">Una vez aprobado tu proyecto,</tspan><tspan x="14.3" y="19.4" fill="#616265" font-family="'Montserrat-SemiBold'" font-size="16.1676">te enviamos todo listo para</tspan><tspan x="5.1" y="38.8" fill="#616265" font-family="'Montserrat-SemiBold'" font-size="16.1676">usarlo en diferentes formatos</tspan></text>
<g>
	<rect x="532.2" y="377.8" fill="none" width="239.5" height="83.5"/>
	<text transform="matrix(1 0 0 1 540.8271 389.7529)"><tspan x="0" y="0" fill="#616265" font-family="'Montserrat-SemiBold'" font-size="16.1676">Nuestro equipo de expertos </tspan><tspan x="1.7" y="19.4" fill="#616265" font-family="'Montserrat-SemiBold'" font-size="16.1676">desarrollará tu proyecto, de </tspan><tspan x="-1.7" y="38.8" fill="#616265" font-family="'Montserrat-SemiBold'" font-size="16.1676">manera personalizada hasta </tspan><tspan x="26.9" y="58.2" fill="#616265" font-family="'Montserrat-SemiBold'" font-size="16.1676">tu entera aprobación</tspan></text>
</g>
<rect x="525" y="567.8" fill="#08C654" width="249.5" height="51.9"/>
<g>
	<a xlink:href="/nuestros-servicios">  
		<text transform="matrix(1 0 0 1 553.8746 602.9824)" fill="#FFFFFF" font-family="'Montserrat-ExtraBold'" font-size="31.8497">COMENZAR</text>
	</a>
</g>
</svg>
