<svg xmlns="http://www.w3.org/2000/svg" viewBox="0 0 88.55 88.55"><title>Asset 9</title><g id="Layer_2" data-name="Layer 2"><g id="Capa_1" data-name="Capa 1"><path d="M46.71,22.55h0a2.48,2.48,0,0,0,4.14,1.35h0a2.48,2.48,0,0,1,3.94,2.86h0a2.48,2.48,0,0,0,2.56,3.52h0a2.48,2.48,0,0,1,1.51,4.63h0a2.48,2.48,0,0,0,0,4.36h0a2.48,2.48,0,0,1-1.51,4.63h0a2.48,2.48,0,0,0-2.56,3.52h0a2.48,2.48,0,0,1-3.94,2.86h0a2.48,2.48,0,0,0-4.14,1.35h0a2.48,2.48,0,0,1-4.87,0h0a2.48,2.48,0,0,0-4.14-1.35h0a2.48,2.48,0,0,1-3.94-2.86h0A2.48,2.48,0,0,0,31.2,43.9h0a2.48,2.48,0,0,1-1.51-4.63h0a2.48,2.48,0,0,0,0-4.36h0a2.48,2.48,0,0,1,1.51-4.63h0a2.48,2.48,0,0,0,2.56-3.52h0a2.48,2.48,0,0,1,3.94-2.86h0a2.48,2.48,0,0,0,4.14-1.35h0A2.48,2.48,0,0,1,46.71,22.55Z" style="fill:none;stroke:#c3953f;stroke-miterlimit:10;stroke-width:2px"/><polyline points="50.16 50.29 50.16 72.35 43.93 66.17 37.7 72.35 37.7 50.29" style="fill:none;stroke:#c3953f;stroke-miterlimit:10;stroke-width:2px"/><circle cx="44.28" cy="37.09" r="4.94" style="fill:none;stroke:#c3953f;stroke-miterlimit:10;stroke-width:2px"/><circle cx="44.28" cy="44.28" r="43.28" style="fill:none;stroke:#c3953f;stroke-miterlimit:10;stroke-width:2px"/></g></g></svg>