<svg xmlns="http://www.w3.org/2000/svg" viewBox="0 0 868.24 492.5"><defs><style>.cls-1{fill:#f2f2f2;}.cls-2{fill:none;}.cls-3{fill:#fff;}</style></defs><title>Asset 1</title><g id="Layer_2" data-name="Layer 2"><g id="Layer_1-2" data-name="Layer 1"><path class="cls-1" d="M233.81,211.67c2.78.84,5.57,1.64,8.33,2.54,5.17,1.67,10.32,3.43,15.49,5.1,5.91,1.91,11.92,3.55,17.7,5.79,1.87.72,3.21,2.91,4.71,4.5,2.71,2.87,5.46,5.72,8,8.74.7.84.68,2.27,1.22,4.31-5.61-2-8.07-5.77-10-9.68a9,9,0,0,0-6-5c-5.79-1.84-11.92-3.15-17.15-6s-11.41-2-16.61-4.48a57.32,57.32,0,0,1-6.49-4.25Z"/><path class="cls-1" d="M255.55,225.06a7.76,7.76,0,0,1-.72,2.5c-2.58,6.6-5.16,13.2-7.79,19.78-1.52,3.81-3.41,4.05-6,.85-3.21,3.16-1.75,9.55-8.23,10.91,2.81-7.54,5.25-14.27,7.87-20.93.36-.93,1.63-1.5,2.47-2.23a11.56,11.56,0,0,1,1.31,3.2c.15,1.71-.14,3.46.27,5.33"/><path class="cls-1" d="M256.87,197.36c6.47,3.55,13,7,19.38,10.7a30,30,0,0,1,6.56,5.45c.9,1,.91,2.77,1.32,4.2-1.28-.4-3-.42-3.77-1.28a46.44,46.44,0,0,0-15.55-11.83c-2.25-1-4.63-1.81-6.82-3a13.4,13.4,0,0,1-2.71-2.62Z"/><path class="cls-1" d="M282.42,229.2c10.43.23,19.79-6.45,30.82-4.29-.34.86-.46,1.92-.87,2-3.9,1.22-8,3.6-11.75,3.1C294.52,229.24,288.38,233.36,282.42,229.2Z"/><path class="cls-1" d="M266.54,216.69c-1.08,0-2.11.32-2.71,0-5.33-3.27-10.62-6.61-15.81-10.1-.63-.43-.55-1.91-.8-2.9.93-.12,2.17-.67,2.73-.27,2.34,1.69,6.43.93,7,5.34.14,1.06,2.74,1.73,4.14,2.69C263.13,212.79,266.51,212.85,266.54,216.69Z"/><path class="cls-1" d="M250.74,266c3.45-5.78,7.84-8.75,15.27-8.2C263.81,263.21,255.08,267.89,250.74,266Z"/><path class="cls-1" d="M276.53,250.52c-2.87,4.18-9.79,6.77-14.32,4.26l13.84-5.57Z"/><path class="cls-1" d="M257.77,197.33c-2.36-.93-4.74-1.82-7-2.85-.36-.16-.72-1.33-.56-1.48.47-.43,1.36-1,1.79-.78,2.25,1,4.41,2.15,6.6,3.25Z"/><path class="cls-1" d="M316.59,290.16c4.12-2.56,18.06-2.67,20.82-.37C334.09,293.57,322.14,293.89,316.59,290.16Z"/><path class="cls-1" d="M192.26,355.28c4.2-.18,7.07-.86,8.79,4.18,1,2.92,5.77,4.5,8.73,6.82,1.29,1,3.38,2.59,3.21,3.57-.48,2.65-2.88,2.54-5.12,1.93C199.45,369.51,196,362.69,192.26,355.28Z"/><path class="cls-1" d="M176.88,416.21c6.2.82,11.36,1.32,14,6.67a8.61,8.61,0,0,1,1.25,3.08c0,.87-.73,1.79-1.14,2.68-.67-.6-1.91-1.19-1.92-1.8-.06-4.44-3.15-4.74-6.44-5.47-2.59-.58-3.94.53-5.52,2.07-.58.57-1.68.6-2.54.87-.18-.92-.75-2-.46-2.72A53.77,53.77,0,0,1,176.88,416.21Z"/><path class="cls-1" d="M203.57,346.69c1.93-2.91,3-2.7,5.77.8,1.9,2.43,4.69,4.18,7.13,6.18.8.66,2.37,1,2.51,1.69a3.21,3.21,0,0,1-1.36,2.76,4,4,0,0,1-3.5,0,76.43,76.43,0,0,1-7.62-7A29.41,29.41,0,0,1,203.57,346.69Z"/><path class="cls-1" d="M194.73,410.27c-5.77-.88-10.45-1.52-15.1-2.38-.73-.14-1.28-1.25-1.92-1.91.78-.38,1.58-1.11,2.35-1.09,4.63.1,9.29.18,13.88.73,1.18.14,2.16,2,3.24,3Z"/><path class="cls-1" d="M207.22,377.31c-.63,3.58-7.67,6.56-9.43,4.65-.47-.51.18-3.19.72-3.33A75.61,75.61,0,0,1,207.22,377.31Z"/><path class="cls-1" d="M294.59,367c-2.84.23-4.59-1.69-6.69-3.39-4.41-3.56-5.86-8-5.5-14.22Z"/><path class="cls-1" d="M281.35,379.47l-15.24-8.38c5-3,10,0,15.51,8.06Z"/><path class="cls-1" d="M229.91,133.87a39.19,39.19,0,0,1,.07-5.17c.12-.9.94-1.7,1.45-2.55.6.69,1.7,1.37,1.7,2.07a39,39,0,0,1-.58,8.88c-.67,2.91-2.62,3.13-6.39,1v4.83l-.89.37a7.87,7.87,0,0,1-1.45-2.33,13.36,13.36,0,0,1-.2-4.46,31.1,31.1,0,0,1,1.43-4.71Z"/><path class="cls-1" d="M211.22,154.27l-9.35,4.66c2.42-5.12,4.82-6.56,8.72-6Z"/><path class="cls-1" d="M439.9,219c-3.14-.14-6.28-.43-9.41-.37-1.73,0-3.44.92-5.16.94-2.93,0-2.4,2.11-2.84,3.85-.18.7-1.3,1.16-2,1.73a6.61,6.61,0,0,1-.87-2.06,41.08,41.08,0,0,1,.08-6.29,16.78,16.78,0,0,1,1.25-3.64l2.82,2c.38.27.75.55,1.83,1.35V202.4l1.2-.09c2.48,4,1.29,8.81,2,12.9l11.35,2Z"/><path class="cls-1" d="M310.6,115.11l-5.07-14.85C311.34,103.34,314.22,110.87,310.6,115.11Z"/><path class="cls-1" d="M226.56,309.2c-1.48,1.94-2.74,4.11-4.5,5.76-4.56,4.28-9.61,7.82-16,8.8a6.86,6.86,0,0,1-2.93.25,20.93,20.93,0,0,1-3.71-2.1c1.43-1.34,2.65-3.21,4.35-3.89,2.6-1.06,5.81-.76,8.27-2,4.59-2.32,8.82-5.34,13.2-8.07Z"/><path class="cls-1" d="M220.72,330l-5.35-1.32c1.29-1.07,2.52-2.22,3.88-3.19a31.93,31.93,0,0,1,4.64-2.87,2.39,2.39,0,0,1,2.22.34c.47.51.78,2,.46,2.29C224.65,327,222.54,328.59,220.72,330Z"/><path class="cls-1" d="M347.53,187.36l-9.66-11.62,1.17-1.17c2.06,1.52,4.35,2.81,6.12,4.62a19.63,19.63,0,0,1,3.47,5.6c.25.55-.75,1.66-1.17,2.52Z"/><path class="cls-1" d="M319.74,204.19c-2.25-.48-4.33-.42-5.78-1.35-1.62-1-3.53-2.82-3.79-4.52-.42-2.7,1.46-4.93,4.13-5.92,4.48-1.65,8.58-.44,12.11,2.44a4.53,4.53,0,0,1-.72,7.34C323.85,203.26,321.57,203.6,319.74,204.19Zm1.47-9.38,3.14,5.68c.35-1.11,1.3-2.79.92-3.18-1.08-1.1-2.7-1.67-4.1-2.46a19.91,19.91,0,0,0-4.65,0c-1.14.26-2.8,1.2-3,2.07-.19,1,1,2.33,1.54,3.51l1,.07C314.29,195,318.31,195.5,321.2,194.82Z"/><path class="cls-1" d="M754.84,242.23l3-2.25c-.1-.39-.11-.6-.16-.6-6.5-1-8.52-5.14-8.42-11.3,0-3-1.91-5.27-4.36-7.42-4.39-3.84-8.46-8.19-10.15-14.11-.1-.34-.31-.87-.55-.93-6-1.27-4.74-7.27-7-10.94-2.42-3.91-4.14-8.25-6.12-12.33-3.62,10.8-2,21.15,2.63,30.76,1.63,3.39.22,6.08.82,9a89.18,89.18,0,0,0,2.25,9.22c.74,2.33,1.16,4-1.47,5.66-3.42,2.18-6.26,5.25-9.62,7.54a9.93,9.93,0,0,1-5.65,1.63c-3.08-.13-3.79-2.05-2-4.62,2.44-3.42,5-6.74,7.79-10.41a13.73,13.73,0,0,0-2.33-1.94c-3.88-1.91-4.81-5.23-5.58-9.25-1.2-6.29-3.43-12.38-5.11-18.59a11.54,11.54,0,0,1,.1-3.33c1,.73,2.56,1.26,2.87,2.21,1.67,5.07,3.07,10.23,4.45,15.39a37.32,37.32,0,0,1,.88,5.52c.27,2.48,1.64,3.72,4,4.19a36.05,36.05,0,0,1,4.37,1.46c.81-4.89,1.92-9.67-1.36-14.38C715.75,215,718,220.08,713,222l3.27-25.13c-1.7.48-2.53.66-3.32.94-6.61,2.36-11.93-1.5-12.06-8.59s-.64-13.92-.65-20.88c0-4.47.85-8.94.84-13.41,0-5.15-2.46-9.21-6.91-12.32-1.69,3.38-3,6.7-4.92,9.69-3.44,5.48-6.88,11.15-13.4,13.5a16.69,16.69,0,0,1-6.75.65c-2.48-.19-4.64-1.21-4.2-4.49.05-.38-.67-1.08-1.18-1.28-2.35-.93-1.75-2.74-.81-3.95s2.49-2.19,3.7-2.1c8.06.61,9.86-.35,12.47-8,1.56-4.55,2.94-9.17,4.17-13.82a23.55,23.55,0,0,0,.24-5.17c0-.12-.1-.27-.06-.37,3.27-7.16-1.76-13.88-1.08-20.81.35-3.57,2-7.07,3.46-10.43.44-1,2.16-1.9,3.39-2,8-.91,13.57-.27,16.25,7.95.78,2.38,2,3.21,4.38,3.72,1.76.37,3.49,2.11,4.68,3.67a6.2,6.2,0,0,0,4.78,2.67c6.13.86,12.77.49,17.95,4.66a8.23,8.23,0,0,1,2.88,5.55c0,4.43-.76,8.88-1.29,13.31-.29,2.42-.65,4.83-1.16,7.21a5.61,5.61,0,0,1-1.4,2.49,24.2,24.2,0,0,1-4,3.66c-3.14,2.11-2.2,3.53,0,6,3.14,3.5,5.86,7.25,6.8,12.39a102.6,102.6,0,0,0,6.32,21.43c1.5,3.54,2.59,8.08,6.84,10.06.21.1.48.35.49.54.19,6.77,6.48,10.13,8.79,15.7q2.19,5.28,4.14,10.66c1.17,3.21,1.67,6.77,3.36,9.65a16.4,16.4,0,0,1,.85,15.75c-1.14,2.38-5.62,3.36-8.78,4.35-.4.12-2.22-3.52-3-5.57-.92-2.48-1.41-5.13-2.09-7.7Zm-37.18-73.92a12,12,0,0,1,1.11,1.49c3.39,6.91,6.84,13.79,10.12,20.75,2.2,4.66,9.18,5.72,12.43,1.7a2.51,2.51,0,0,0,.54-2c-1.93-4.79-4-9.53-5.87-14l-5.68,1.4-1.11-1.19c5.72-3.09,5.66-8.3,3.9-12.46s-3.21-10.14-10.46-9.53c1.34-2.45.89-5.38,4.41-5.82.81-.1,1.43-1.79,2.14-2.75-1.21-.19-2.72-.92-3.58-.45-1.91,1-3.49,2.68-5.5,4.32,3,3,1.16,4.75-1.39,5.85a44.24,44.24,0,0,1-9.7,3.23c-3.85.67-5.22,2.47-3.33,6a59.12,59.12,0,0,0,3.86,5.49c.54.77,1,1.59,1.48,2.39l-.85.73-5.62-4.13c0,4.77-.09,9.46.07,14.14a4.51,4.51,0,0,0,1.55,2.83c2,1.77,7.74,1,9.37-1,2.18-2.74,1.59-6.39-.46-9.08a69,69,0,0,1-6.39-10.79c-.41-.81.65-2.35,1-3.55a16.79,16.79,0,0,1,2.27,2.43c1.18,1.88,2.16,3.88,3.33,6Zm1.05-40.14-1.47-.08c3.56,4.89-1.29,5.93-3.24,8-2.18,2.34-8.69,2.84-10.94,1.17-.8-.59-1.06-1.89-1.57-2.86l1-.67,3.65,2.18A52.94,52.94,0,0,0,712,132.7c.82-.58,1.7-2.09,1.5-2.92-1.1-4.46-2.53-8.83-3.63-12.51-1.07,2-2.06,5.17-4.15,7.25a15.24,15.24,0,0,1-7.89,4.1c-3.4.53-6.63-.92-7.67-5a8.31,8.31,0,0,0-1.48-2.24c-1.73,10.16,6.87,12.23,13.24,16.51l-5,3.16c3.17,2.58,5.63,5.94,8.82,6.88,5.6,1.65,10.15-2.13,14.49-5.29a2.42,2.42,0,0,0,.83-1.93C720.33,136.51,719.5,132.34,718.71,128.17Zm28.07,72a52.69,52.69,0,0,1-5.79,3.67c-3.41,1.61-3.75,2.26-1.35,5.06,3.4,4,7.09,7.67,10.36,11.72,2.27,2.81,5.74,5.28,3.36,10-.49,1,1.36,3.51,2.68,4.76.39.37,3.07-.83,3.93-1.92,3.66-4.66,1.92-12.69-3.6-17.84,3.17,12.18,3,15.56-1.9,17.81C756.36,221.12,752.15,210.5,746.78,200.2Zm-15.56-60.49,1.34.09a30.32,30.32,0,0,0,3.27-18.73c-.18-1.24-2.47-2.65-4-3.12-3.19-1-6.58-1.24-9.86-2-5.23-1.14-7.08.63-6.24,6.07.4,2.62,1.85,3.37,4.22,2.51,2.91-1.05,5.76-2.27,8.69-3.24a16.65,16.65,0,0,1,3.56-.4v3.32a11.3,11.3,0,0,1,2.37.37c.17.06.21,1.43,0,1.57-4.18,2.37-2.63,6.55-3.23,10A20.8,20.8,0,0,0,731.22,139.71ZM704.57,114.9a16.65,16.65,0,0,0-3.63-13.54,12.47,12.47,0,0,0-7.81-4.13c-1.75-.18-3.8,2.64-5.71,4.12l.62.83c3.64-1,7.46-3,10.75.38,3.68,3.78,5.11,8.67,3.8,11.38-5.73-4.41-7.15-4.5-12.15-.39,2.22,1.61,4.24,4.15,6.51,4.4S701.74,116.13,704.57,114.9Zm59.24,137.38c4.64-5.25,4.48-10.42.26-17.59-2.35,1.47-2.65,3.45-1.93,6a44.9,44.9,0,0,1,.79,6.22C763.13,248.46,763.42,250,763.81,252.28Zm-39.43-112c3.69-2.52,5.44-7.07,4-10.09-.43-.93-2-1.53-3.2-1.81-.5-.12-1.87,1-1.84,1.55C723.54,133.18,724,136.45,724.38,140.25Zm-37,9.41-.86-1.61c-2,.7-4.88.82-5.9,2.25-1.39,1.95-3.85,4.5-1.15,8.23Zm21.93,5.8a61.13,61.13,0,0,0,6.65-1.94c.66-.27.93-1.51,1.38-2.3a7,7,0,0,0-2.45-1,19.82,19.82,0,0,0-5.11.72,20.64,20.64,0,0,0-3.74,2Zm-17.06-16.6L686.78,133l-1.23,9.61,1.4.78Zm22.61,99.65.82.86c2.19-2.12,4.43-4.18,6.5-6.41.33-.36-.14-1.46-.24-2.22-.75.2-1.82.16-2.19.65C718,233.69,716.43,236.13,714.82,238.51ZM666.44,157l-.57,1.07a49,49,0,0,0,4.64,4.88c.68.56,2.1.23,3.18.3l.42-1.7Zm36.15-33.56-7.75.89.17,1.32C697.56,127.13,699.76,126.44,702.59,123.48Zm9.62,68.14q0-.79,0-1.57l-7.19-.4-.05,1.47Z"/><path class="cls-1" d="M725.7,178.37c-1.41-2-2.74-3.07-2.85-4.28-.07-.79,1.63-1.75,2.53-2.63,1,1,2.35,1.95,2.78,3.18C728.38,175.3,727,176.53,725.7,178.37Z"/><path class="cls-1" d="M721.78,171.75c-1.05-1.57-2-2.56-2.34-3.73-.12-.45,1.77-2,1.9-1.88a28.73,28.73,0,0,1,3.17,3Z"/><path class="cls-1" d="M730.51,163.37a28.93,28.93,0,0,1-4.21,3c-.33.16-1.93-1.42-1.88-1.5a13.51,13.51,0,0,1,2.83-3.39C727.54,161.28,728.85,162.39,730.51,163.37Z"/><path class="cls-1" d="M733.43,169.47c-1.73,1.13-2.68,2.22-3.59,2.19-.7,0-2-1.6-1.85-2.26a3.81,3.81,0,0,1,2.25-2.39C730.76,166.83,731.79,168.15,733.43,169.47Z"/><path class="cls-1" d="M719.63,160.34l3.53-1.94,1.22,2.67-4,1.12Z"/><path class="cls-1" d="M707.49,146.89c-3.11-.73-6.71-3.78-5.74-5.29s3.63-3.15,5.18-2.85c1.8.36,3.2,2.76,4.77,4.28Z"/><path class="cls-1" d="M559.11,355.28c-1,1.3-2,2.58-3,3.92a32.42,32.42,0,0,0-6.33,21,34.94,34.94,0,0,1,0,4.57,8.92,8.92,0,0,1-1.11,3.19,33.38,33.38,0,0,0-3.14,7.77,16.27,16.27,0,0,1-.58,2,60.2,60.2,0,0,1,0-11.51c-.09.21-.2.42-.27.64a59.71,59.71,0,0,0-2.73,21.43,55.36,55.36,0,0,0,10.76,30.23c.84,1.14,1.74,2.24,2.62,3.36a.89.89,0,0,0,1.1.36c4.49-1.37,9-2.68,13.48-4a5.77,5.77,0,0,0,4.16-4.56,8.35,8.35,0,0,1,.58-1.73c.1.88.21,1.77.28,2.65a10.49,10.49,0,0,0,3.52,7.05c5.45,5,11.12,9.72,17,14.24.78.61,1.42,1.42,2.25,1.94,2.85,1.79,5.54,3.75,9.35,3,5.55-1,11.15-1.83,16.64-3.23.08,0,.18,0,.32.15-1.76.73-3.49,1.56-5.29,2.17-4.59,1.53-9.2,3-13.82,4.41a3.48,3.48,0,0,0-2.49,2.1q-2,5.75-3.91,11.55a14,14,0,0,0-.36,2.29l.22,0c1-1.59,2-3.2,3.07-4.78,1.21-1.83,2.48-3.61,3.67-5.44a5.18,5.18,0,0,1,3.3-2.24c3.73-.94,7.47-1.87,11.17-2.94,2.47-.71,4.87-1.65,7.3-2.5a17.58,17.58,0,0,1,8.89-.67,189.44,189.44,0,0,0,24.08,2.74c.31,0,.62,0,.94,0,0,0,.07-.05.11-.09-9.4-2.94-19-5.46-27.72-9.92,0-.23,0-.29,0-.32,1.72-2.35,2-5.19,2.61-7.89,1.49-6.32,2.89-12.67,4.27-19,.41-1.89.64-3.83,1-5.78a79.8,79.8,0,0,0,11.25-3.12c4.85-1.64,9.68-3.38,14.48-5.16,1.75-.65,3.42-1.55,5.12-2.33a2.65,2.65,0,0,0,1.49-1.76c.67-2.38,1.41-4.75,2-7.17a162.77,162.77,0,0,0,3.12-18c.46-4.19.69-3.81-2.18-7.43a77.58,77.58,0,0,0-14.65-14c-2.35-1.75-4.9-3.22-7.34-4.83a3.1,3.1,0,0,0-2.27-.51c-2.77.45-5.57.83-8.31,1.44-5.28,1.17-10.53,2.47-15.8,3.72a1.1,1.1,0,0,1-.51,0c1.84-.63,3.68-1.25,5.51-1.9q9.16-3.23,18.31-6.46a1.17,1.17,0,0,0,.91-1.19c.09-3.29.19-6.58.29-9.87a6.8,6.8,0,0,0,0-1.08,3.86,3.86,0,0,0-1.77-3.16,71.24,71.24,0,0,0-14-7.48c-.92-.34-1.86-.61-2.77-1,1.17.17,2.35.32,3.52.52a75.27,75.27,0,0,1,14.2,3.8c1.13.43,2.18,1.08,3.33,1.47,3.36,1.17,6.35,3.05,9.48,4.68a64.84,64.84,0,0,1,16.35,12.79,81.53,81.53,0,0,1,12.52,16.79,78.47,78.47,0,0,1,8.06,20.11c.77,3.17,1.35,6.4,1.85,9.63.33,2.07.39,4.18.53,6.28A78.74,78.74,0,0,1,698.28,440a80.77,80.77,0,0,1-25.41,34.51l-.11.09c-.86.59-1.73,1.16-2.58,1.77-1.57,1.12-3.09,2.33-4.71,3.36A80.91,80.91,0,0,1,648,488a82.34,82.34,0,0,1-32,4.28,83.92,83.92,0,0,1-25.28-5.56,83.16,83.16,0,0,1-43-37.82,81.52,81.52,0,0,1-9.73-32.39A82.5,82.5,0,0,1,540.09,390a79.86,79.86,0,0,1,6.67-18.41,67,67,0,0,1,12-16.13,2.52,2.52,0,0,1,.27-.21Zm88.95,101,.06-.14c-.89-1-1.79-1.94-2.67-2.92a3.45,3.45,0,0,1,.21-5c2.72-2.47,5.48-4.91,8.14-7.45a108.78,108.78,0,0,0,17.16-20.74c.94-1.5,1.8-3.06,2.79-4.75-.39.09-.57.12-.74.18-2.27.81-4.52,1.66-6.79,2.44q-9.53,3.26-19.08,6.46c-2.28.76-2.35.69-2.93,3q-2.29,9-4.5,18.07c-.56,2.29-1.07,4.58-1.62,6.93Zm-53.81,5.09c-.39-.29-.73-.51-1-.76Q582.68,452.31,573,443a1.09,1.09,0,0,0-1.2-.33c-3,.81-6,1.55-9,2.32l-4.26,1.11,1.14,9.38a24.51,24.51,0,0,0,.91-3.14,1.93,1.93,0,0,1,3.12-1.16c1.89,1.28,3.75,2.62,5.73,3.74,7,4,14.5,6.53,22.65,6.77a10.3,10.3,0,0,1,1.5.28Zm93.37-22,.16,0c-.15-.82-.27-1.64-.46-2.46q-2.29-10.21-4.6-20.41c-.6-2.67-1.16-5.3-.47-8.11a150.1,150.1,0,0,0,3.83-22.76,5.51,5.51,0,0,1,.72-2.24,27.76,27.76,0,0,1,2-2.58c1.07-1.4,2.12-2.82,3.18-4.22-.21-.11-.3-.1-.38-.06-2.77,1.23-5.55,2.45-8.3,3.72a1.25,1.25,0,0,0-.58.8c-.35,1.75-.65,3.5-.94,5.26-1.28,7.71-2.57,15.42-3.81,23.14a10.44,10.44,0,0,0,0,3.13,14.79,14.79,0,0,0,.87,2.75q2.79,7.78,5.61,15.55C685.47,433.76,686.55,436.59,687.62,439.43Zm-31.3-97.23a1.33,1.33,0,0,0,0,.24c.21,3.67.41,7.34.65,11a1.33,1.33,0,0,0,.48.81c1.3,1.07,2.62,2.11,3.94,3.15a125,125,0,0,1,18,17.06,3.37,3.37,0,0,0,3.79,1.18c2.34-.66,4.68-1.3,7-1.95a4.12,4.12,0,0,0,.49-.22c-1.52-.32-2.91-.6-4.29-.91a9.86,9.86,0,0,1-5.34-2.66c-.59-.63-1.23-1.22-1.84-1.83-3.84-3.84-7.7-7.66-11.51-11.53-2.24-2.27-4.45-4.58-6.58-7a8.68,8.68,0,0,1-1.49-2.69c-.53-1.38,0-2.15,1.42-2.31a8.56,8.56,0,0,1,2.56.19,22,22,0,0,1,2.54.84C664,343.87,658.7,342,656.32,342.2ZM573.63,471.36l-.13.33c9.5,9.11,21.15,13.32,33.94,15l.11-.25Zm92.71-5.94.06.29c1.78-.22,3.56-.4,5.33-.66a6.48,6.48,0,0,0,3.5-1.74c1-1,2.12-1.88,3.11-2.9,3.81-3.92,7.21-8.13,9.33-13.23.37-.88.6-1.82.9-2.73l-.22-.1a95.29,95.29,0,0,1-10.1,11.41A87,87,0,0,1,666.33,465.42ZM543,429.61c1.11,5.87,9.57,22.65,12.8,25.59,0-.18,0-.32,0-.45-.31-1.85-.69-3.69-.91-5.54a5.89,5.89,0,0,0-1.59-3.4A67.37,67.37,0,0,1,545,433.27C544.28,432.06,543.65,430.83,543,429.61Z"/><path class="cls-1" d="M634.81,415.6c-1.54-1.27-3.06-2.55-4.61-3.8-2.54-2.05-5.08-4.12-7.66-6.12-2.34-1.81-4.76-3.5-7.11-5.3a2.4,2.4,0,0,0-2.07-.48c-2.85.56-5.73,1-8.56,1.68-6.51,1.5-13,3.13-19.52,4.63a4.28,4.28,0,0,0-3.2,2.62,140,140,0,0,0-5.72,14.11.85.85,0,0,1-.28.45c.13-.78.26-1.55.38-2.33q1.22-8,2.42-16a1.71,1.71,0,0,0-.18-1c-3.55-6.29-7.15-12.54-10.66-18.85a3.77,3.77,0,0,0-3.9-2.17,54.33,54.33,0,0,0-8.82,1.44,4.4,4.4,0,0,0-.72.2l8.11-3.72c1.09-.5,2.21-1,3.3-1.46a1.14,1.14,0,0,0,.48-.49,65.15,65.15,0,0,1,9.12-12.85,143.76,143.76,0,0,1,13.21-13.19,1.69,1.69,0,0,0,.51-.89c.74-4,1.44-8.05,2.15-12.08a1.81,1.81,0,0,0-1.55-2.38c-1.84-.48-3.67-1-5.53-1.52a78.66,78.66,0,0,1,32.57-8l-1.59.44-1.67.46a64.47,64.47,0,0,0-12.38,4.54,57.88,57.88,0,0,0-5.22,3.32,3.94,3.94,0,0,0-1.56,2.35,63.41,63.41,0,0,0-2,12.3c-.05.74.35,1,.88,1.18,4.14,1.69,8.27,3.42,12.43,5.07,4.9,1.95,9.82,3.83,14.72,5.75A2.16,2.16,0,0,1,622,366c-.57,4-1.13,8-1.8,12-.81,4.77-1.75,9.51-2.58,14.27a28.15,28.15,0,0,0-.25,3.45,2.84,2.84,0,0,0,.87,2.08c1.11,1.2,2.26,2.37,3.37,3.56l13,13.81c.11.12.2.25.29.38ZM616.44,366.9c-.37-.15-.68-.29-1-.4l-24-8.89a2.74,2.74,0,0,0-2.83.5,67.49,67.49,0,0,0-16.87,19.62,2.94,2.94,0,0,0-.06,3.13c1.33,2.4,2.6,4.83,4,7.22,2.11,3.73,4.28,7.42,6.41,11.14a1.12,1.12,0,0,0,1.48.63c6.14-1.5,12.3-2.94,18.45-4.41l5.24-1.25a1.29,1.29,0,0,0-.7-.13c-7,.3-14.08.6-21.11.92-.62,0-.94-.16-.93-.75a18.1,18.1,0,0,1,.15-3.35,15,15,0,0,1,2.89-5.76,44.58,44.58,0,0,1,10.3-9.8,37.17,37.17,0,0,1,10.26-5.36,11.09,11.09,0,0,1,4-.6L613.32,384h.13Zm-7.08,26.91a6.83,6.83,0,0,0,3.33-.77,1,1,0,0,0,.49-.66c.23-1.74.41-3.5.61-5.25l-.2,0Z"/><path class="cls-1" d="M382.92,82.5l-2.88,8-1.19,0a33.72,33.72,0,0,1-.44-4.12,20.55,20.55,0,0,1,.65-2.81c.17-1.11.21-2.25.3-3.38l3.22,1.84Z"/><path class="cls-1" d="M404,118.75a37.45,37.45,0,0,1,5.54,1.08,2.62,2.62,0,0,1,1.12,2.31,2.48,2.48,0,0,1-2.17,1.16,43.58,43.58,0,0,1-5.26-2.67Z"/><path class="cls-1" d="M347.29,166.85c.8-5.16,1.69-10.27,7.63-12.45,4,3.42,4,3.41,7.87-1.24,1.17-1.4,2.39-2.76,3.58-4.13.37.28.63.39.74.58,1.77,3.25,3.2,6.27-2.42,7.27-1.14.2-1.92,2.16-3,3.21-2.48,2.46-4.31,2.39-7-.32l-6.65,7.82Z"/><path class="cls-2" d="M295.23,94c.19,1.55.05,2.91.55,4,3.84,8.16,3.05,16.2-.45,24.19-1.18,2.69-2.51,5.31-3.58,8-.24.62.09,2.08.53,2.26,2.12.87,4.44,2.68,6.13-.29l9.09,6.07c-.29-6.5-.08-12.17-.92-17.68s-2.72-10.81-4.15-16.21l1.47-.35c4.43,9.66,6.61,20,7.81,31.22,6.67-7.07,6.63-16,9.78-23.81,1,.93,1.63,1.8,1.58,2.63a42.75,42.75,0,0,1-7.94,22.2c4.52,1.1,9.13.44,12,4.13l-.17,1.29-14.63-1.85-.06.7,12.28,5.21-.63,1.7c-5.29.53-8.79-5.23-14.75-5l13.54,14.67c1.47-2.8,3.15-4.95,3.74-7.35,1.23-5,6.41-8.61,4.82-14.57-.24-.91.86-2.21,1.4-3.3.85-1.74,2.46-3.44,2.48-5.17a111.26,111.26,0,0,0-.87-17.54,92.1,92.1,0,0,0-4.32-17c-1.52-4.3-2-4.12-5-.71-.21.24-.66.26-1.21.46l-.18-3.09c-5.52-.53-6.53.67-5.06,5.7a23.76,23.76,0,0,1,.75,2.5c.63,3.58,1.2,7.17,1.8,10.75l-1.63.47c-2.55-4-.51-10.43-6.16-12.87.26,4.2,4.31,7.65,2.35,12.72-2.59-4.53-4.72-8.74-7.31-12.65s-9.11-6.89-11.9-5.74l7.8,6.7-.8,1.24Z"/><path class="cls-2" d="M327.81,207.22l8.77-9.77-2.12-2-.93,3.27c-1.49-1.61-2.28-3.11-3.51-3.68-7.35-3.43-14.79-6.65-22.21-9.94l2.41,5.24-.83.6-3.29-1.63-7.95,7.36.09,1.43,25.85,9.72,2.78-4.48.87.46-.63,3Z"/><path class="cls-2" d="M335.33,83.29c4.23,2.31,10.08,1.48,13.6,7.11.64-1.87,1-2.86,1.32-3.84,2.12-6.09-1-11.73-1.6-17.59a2.28,2.28,0,0,0-1.81-1.26c-4,1.21-8.32,2-11.81,4.12-4.56,2.77-8.42,6.68-12.66,10-.73.57-1.88.59-2.84.86l1.39,1.6C325.76,86.19,329.85,80.29,335.33,83.29Z"/><path class="cls-2" d="M358.45,71.28a35.33,35.33,0,0,0,2.5-8.83,3.39,3.39,0,0,0-1.41-3,3.56,3.56,0,0,0-3.29.9c-1.87,2.81-3.34,5.88-5.13,9.17l3,5.08C355.64,73.55,357.75,72.75,358.45,71.28Z"/><path class="cls-2" d="M304.44,184.61c-2.94,2.67-5.77,5.47-8.6,8.26-.27.27-.22.87-.6,2.52,1.68-1.23,2.57-1.79,3.36-2.47,3.05-2.6,6.07-5.24,9.1-7.86C307,182.44,305.52,183.63,304.44,184.61Z"/><path class="cls-2" d="M373.21,54.39c1-2.51,1.75-5.1,2.65-7.75l-10.61,7.89c1.54.75,2.63,1.26,3.69,1.81C371.2,57.49,372.46,56.31,373.21,54.39Z"/><path class="cls-2" d="M375.5,64.24c3.17-5.11,5.5-10.61,9.38-14.62s9.47-6.77,14.3-10.07c-3.31,0-6.29,1.28-9.37,1.55A10.36,10.36,0,0,0,382,45.63c-2.59,3.48-4.92,7.15-7.48,10.65C372.45,59.19,373.66,61.55,375.5,64.24Z"/><path class="cls-2" d="M364.36,78.29a4.69,4.69,0,0,0,3.47-.32c4.68-3,6.88-12.33,3.68-16.73-1-1.31-3.61-1.65-5.54-1.81-.56,0-1.51,2-1.91,3.21-1.45,4.38-2.74,8.81-4.22,13.66A30,30,0,0,0,364.36,78.29Z"/><path class="cls-2" d="M274.74,90.89c5.31,4.87,6.89,11.25,7.71,18,.89,7.32-1.15,14.12-4,21.37,1-.55,1.77-.7,1.92-1.09,1.27-3.19,2.52-6.4,3.61-9.67,1.62-4.86.26-9.56-1.25-14.13-1.57-4.77-3.53-9.42-5.29-14.14-.78-2.1-3.79-3.4-2.22-6.47.15-.29-1.75-1.84-2.88-2.46-.48-.26-2.07.34-2.09.63a5,5,0,0,0,.57,3A25.77,25.77,0,0,0,274.74,90.89Z"/><path class="cls-2" d="M269.53,115.74c.59-6.85-2.72-12-6.92-16.63-1.36-1.51-3.84-2-5.8-3a29.92,29.92,0,0,1-2.12,4.45c-.76,1.11-2,2.71-3,2.65-2.5-.15-2.58,1.42-2.93,3-1.08,4.83-2.15,9.67-3.13,14.53a3.06,3.06,0,0,0,.27,1.53,81.68,81.68,0,0,0,8-4.42c1.34-.94,3.19-2.88,3-4-1-5.2,3.85-4.06,5.58-6.17l1,.57a19.77,19.77,0,0,1-1.26,4c-3,5.29-6,10.59-9.23,15.71-1.94,3,.6,4.87,1.58,7,.27.58,3.19.58,4.42-.07a85.07,85.07,0,0,0,9.67-6.17,4,4,0,0,0,1.33-2.85C269.94,122.48,269.24,119.08,269.53,115.74Z"/><path class="cls-2" d="M233.74,118.42c-4-2.2-7.85-4.94-12.86-4.3-2.21.29-3.93.73-4.94,3.18-1.35,3.27-3.28,6.31-4.95,9.44l-6.56,12.34h9.9c2.91,0,5.64.36,7.23,3.13l-.35,1.59a87.5,87.5,0,0,1-9.75-1.39c-2.42-.61-4.2-.51-6,1.7l5.46,1.46v1c-1.22.34-2.42.76-3.66,1a32.92,32.92,0,0,0-4.4.68c-4.54,1.59-9,3.48-13.52,5s-6.89,4.36-7.06,9c2.88-2.6,5.66-6,9.19-8s7.72-2.81,11.63-4.13l.46,1.27-8.65,4.4.47.81L200,156l.44,1c-4.91,3.31-10.19,6.29-11.63,13,6.76-4,11.32-11.27,20-11.78-.72,1.92-1.74,4.7-2.93,4.78-4.76.29-7,4.06-10.21,6.44a34.73,34.73,0,0,0-12,14.9,10.8,10.8,0,0,0-.39,2.28l1.05.86c2-1.79,4.13-3.46,6-5.4,4.73-5,9.74-9.54,16.33-11.87a66.62,66.62,0,0,1,7.59-1.65l-3,3.63c6.05,1.53,6.07,1.53,7.18,7,.2,1,.07,2,.34,3,.42,1.46,1.06,2.85,2,5.22.51-4.92,1.07-8.66,1.23-12.41.19-4.45-.2-8.94.11-13.37.3-4.27.76-8.38-3.25-11.36-.25-.19-.14-.87-.12-.66,5.57-3.29,8,.62,10.75,4.91,6.87-5,13.42-9.72,19.86-14.56a2.74,2.74,0,0,0,.58-2.52C246.48,129.47,241.52,122.7,233.74,118.42Z"/><path class="cls-2" d="M308.53,173c-1.28-3.92-2.48-7-3.26-10.14-1.62-6.63-2.93-13.35-4.6-20-.25-1-1.78-1.67-2.72-2.49-.44.91-.92,1.8-1.31,2.73-.6,1.45-1.14,2.92-1.7,4.38.62.51,1.48.92,1.76,1.57,1.83,4.22,3.38,8.57,5.3,12.75C303.66,165.48,303.37,170.24,308.53,173Z"/><path class="cls-2" d="M290,155.68a20.89,20.89,0,0,0,11.21,12.75c-1.59-4.74-3-8.56-4.14-12.43-.85-2.8-1.46-5.68-2.17-8.52l0,0c-.3-2-1.06-4.1-.81-6,.53-4-2.34-4.2-4.79-4.72-3.33-.7-2.16,2.09-2.57,3.65a19.56,19.56,0,0,1-1.19,2.47,25.31,25.31,0,0,1-.64-3.66c0-3.19-2.58-3.64-4.61-3.87-2.69-.31-4.54,1.57-4.78,4.21-.18,2,0,5.69.76,5.88,4.69,1.22,5.74,5.19,7.65,8.6.65,1.16,1.44,2.25,2.16,3.36l.63-.4-.78-5.47,1.19-.51C288.11,152.56,289.38,154,290,155.68Z"/><path class="cls-2" d="M337.36,190.71c-9.57-4-19.21-7.76-28.83-11.6,1.42,2.13,2.4,5.15,4.4,6.16,5.16,2.6,10.77,4.3,16.21,6.34a68,68,0,0,0,6.61,2.29c.94.25,2.07-.2,3.11-.33C338.37,192.58,338.12,191,337.36,190.71Z"/><path class="cls-2" d="M320.17,158.3c-2.76-3.33-5.72-6.49-8.66-9.68-2.06-2.23-4.19-4.4-6.28-6.6l-1,.64a10.42,10.42,0,0,0,0,2.17q3,13.62,6,27.22c.17.75.93,1.94,1.35,1.92a3.37,3.37,0,0,0,2.34-1.33c2.33-3.65,4.6-7.35,6.65-11.17A3.55,3.55,0,0,0,320.17,158.3Z"/><path class="cls-2" d="M282.35,90c6.16,6.55,7,14.85,7.64,23.21a12.81,12.81,0,0,1-.54,4.78c-1.51,4.6-3.23,9.12-4.87,13.67l.62.57c1-1.53,2.24-3,2.83-4.61,1.18-3.36,2-6.86,2.95-10.3.72-2.57,2.53-5.37,2-7.65A173.76,173.76,0,0,0,286.44,88c-.52-1.42-3.49-1.95-5.33-2.89.34,1.51.68,3,1,4.54A.76.76,0,0,0,282.35,90Z"/><path class="cls-2" d="M353.71,106.11c-.19,3.33.06,6.52.08,9.71s-.18,6.67-.28,10l9.64,10.36.8-.25-1.11-3.88,4.87-6.26C361.95,120.07,356.05,114.42,353.71,106.11Z"/><path class="cls-2" d="M385.32,149.31l13.79,4C397.19,149.72,388.17,147.25,385.32,149.31Z"/><path class="cls-2" d="M344.35,148.63a44.48,44.48,0,0,1,2.09-4.21l.91.35.36,3.08c2.93.5,5.66.88,6.38-2.76.82-4.12,2.77-5.88,6.95-3.9.16.08.57-.37,1.38-.92a66.32,66.32,0,0,1-4.44-5.86c-1.66-2.75-3-5.69-4.47-8.55l-4.87,9.3-1.84-.49c6-14.1,4.26-28.37,1.69-42.55-5.61-1.9-10.78-6.45-17.29-5l5.53,14.62.17,0L334,90.21l1.56-.22a65.3,65.3,0,0,1,4.31,42.74c2.8.95,5.67,1.78,8.42,2.89s3.16,3.25,1.46,5.67c-2,2.85-4.62,1.78-7.13,1.15-7.78-2-7.78-2-10.21,5.65a4.52,4.52,0,0,0-.34,1.43,2.28,2.28,0,0,0,.46,1.35A7.11,7.11,0,0,0,344.35,148.63Z"/><path class="cls-2" d="M331.93,157.52c-.8-.31-1.58-.68-3.24-1.4-1.16,7.58-2.66,14.7,1.15,22.62,1.1-1.93,1.89-3.1,2.46-4.38,1.16-2.58,2.12-5.26,3.32-7.82C338.62,160.14,338.66,160.16,331.93,157.52Z"/><path class="cls-2" d="M395.78,153.93c-3.42-.2-7.63-1.5-8.54-.31-3.81,5-3,6.81,2.81,9.89l-.17,1.12-10.79-3.29c2.37,4.25,5.88,5.19,9.54,6,2.64.58,3.76-.19,3.57-3a9.83,9.83,0,0,1,.7-3.83C393.55,158.66,394.45,156.9,395.78,153.93Z"/><path class="cls-2" d="M452.78,71.51A52.36,52.36,0,0,0,444,57h0A52.36,52.36,0,0,1,452.78,71.51Z"/><path class="cls-2" d="M408.75,148.72l1.58.28,1.52-8.13-1.67-.29Z"/><path class="cls-2" d="M346.94,139.34c-.54-.71-.94-1.78-1.64-2.05a62.67,62.67,0,0,0-8.16-2.6c-.8-.19-1.83.6-2.76.94l.09,1.29c3.35,1.12,6.67,2.33,10.06,3.3C345.2,140.42,346.13,139.66,346.94,139.34Z"/><path class="cls-2" d="M415.25,39.92l-12.87-1.54-.17,1.47L415,41.07Z"/><path class="cls-2" d="M421.35,42.29h0c7.93,1.81,15.29,6.68,21.14,13h0C436.64,49,429.28,44.11,421.35,42.29Z"/><path class="cls-2" d="M410.17,161.84l-7.54-20-1.71.37v13.06L409.4,162Z"/><path class="cls-2" d="M410.7,122.13a2.62,2.62,0,0,0-1.12-2.31,37.46,37.46,0,0,0-5.54-1.08l-.77,1.89a43.57,43.57,0,0,0,5.26,2.67A2.48,2.48,0,0,0,410.7,122.13Z"/><path class="cls-2" d="M379.06,83.61a20.55,20.55,0,0,0-.65,2.81,33.72,33.72,0,0,0,.44,4.12l1.19,0,2.88-8,1.61,2.06-1.61-2.06-.34-.43h0l-3.22-1.84C379.26,81.36,379.23,82.49,379.06,83.61Z"/><path class="cls-2" d="M380.85,78.67c1.32,0,1.86.79,1.83,2.36C382.71,79.46,382.17,78.69,380.85,78.67Z"/><path class="cls-2" d="M430.73,70.29h0c0,.3.07.61.1.91h0C430.8,70.89,430.76,70.59,430.73,70.29Z"/><path class="cls-2" d="M277.45,117.41c.75-10.11-2.45-19-8.23-27.19-3.7-5.27-9.27-6.47-15.49-1.86,6.85,3,13.22,5.7,17.4,12.09s3.14,13.56,5,20.4A6.62,6.62,0,0,0,277.45,117.41Z"/><path class="cls-2" d="M417,173.94c-3.18-5.35-8.47-5.53-12.94-3.37-10,4.81-18.74,11-24.18,21.24-3.22,6-2.9,10.93,2.24,14.48C384.55,189.06,392.44,181.82,417,173.94Z"/><path class="cls-2" d="M389.26,173.75l-8.86,5.59,1,1.53c2.22-1.36,4.75-2.4,6.6-4.16,3.24-3.08,5.63-7,10.84-7.47,3.21-.32,6.31-1.84,10.54-3.16l-12-10.33c-.81,2.79-1.95,5.46-2.32,8.24-.58,4.31-2.4,6.14-6.67,5.31-3.76-.74-7.44-1.9-10.16-2.61-.39,1.52-.49,3.16-1.2,4.45-2.15,3.9-4.66,7.62-6.77,11.54-.55,1-.13,2.56-.16,3.86,1.41-.55,3.28-.71,4.13-1.73a55.83,55.83,0,0,0,5.41-8C381.54,173.38,385.46,171.3,389.26,173.75Z"/><path class="cls-2" d="M341.91,193.13c.87,2.92-1.06,4.49-2.78,6-2.41,2.13-5.07,4-7.62,5.95l1.49,1.8c10.08,1.16,15.84-7.5,25-11.5-5.17-1.54-9.25-2.88-13.42-3.87C343.84,191.33,341.83,192.85,341.91,193.13Z"/><path class="cls-2" d="M362.89,190.57l4.52-11c-5,4-8.57,9.57-15.08,11Z"/><path class="cls-2" d="M366.42,165.7l.36,1.07a25.51,25.51,0,0,0,5.48-.1c1.12-.25,2.12-1.41,2.94-2.36.28-.32-.14-1.8-.24-1.8a8.15,8.15,0,0,0-3.13.38C370,163.69,368.21,164.75,366.42,165.7Z"/><path class="cls-2" d="M370.37,168.87c-5.9,0-12,1.47-17.69-1.95a11.07,11.07,0,0,1,5.17-2.24,27.78,27.78,0,0,0,12.76-4.8c2.33-1.51,5.53-1.67,8.32-2.48,1-.29,2.61-.48,2.85-1.12a47.88,47.88,0,0,0,1.37-6.18,20.47,20.47,0,0,1,1.22-4c.78-1.69,1.82-3.26,3-5.37-5.82-.63-11.13,2.45-15.22-2.17a7.1,7.1,0,0,1,4.27-1.08c1.81.24,3.71,1.69,5.28,1.33,3.15-.72,6.08-2.24,7.81,2,.07.18,1,0,1.53,0l-.84,4.85c7,2.61,8.34,1.64,8.16-5.83-10.75-3.36-22-6-30.65-14q-.61,5.39-1.23,10.77c-.14,1.18-.88,2.89-.37,3.43a90.61,90.61,0,0,0,7.33,6.57c1.28,1.09,2.65,2.08,4,3.11a30.49,30.49,0,0,1-5.42.49,5.19,5.19,0,0,1-2.68-1.75c-1.74-1.74-3.35-3.62-5.17-5.61-1.93,2.51-4.2,3.38-6.77,1.39-2,2.26-1.36,3.61.74,5,1.23.81,2,2.28,3,3.46l-.78,1.35c-3.41-.78-6.81-1.66-10.25-2.29-1.42-.26-3.89-.5-4.26.17-2.47,4.41-4.56,9-6.6,13.67a2.7,2.7,0,0,0,.69,2.47,43.42,43.42,0,0,0,7.05,4.73c3.62,1.8,3.08,5.05,3.43,8.16a10.65,10.65,0,0,1-2.56-2.4,40.65,40.65,0,0,0-4.94-5c-6.26-4.69-6.16-4.56-8.88,2.86-.61,1.67-2.69,3.86-4.11,3.88s-3.49-2.08-4.28-3.72c-1.19-2.47-1.53-5.35-2.48-9-1.14,2.36-1.67,4.15-2.75,5.5s-2.61,2.07-4.5,3.48c10.29,4,20.36,8.93,31.57,10.79l-.08,0c.95,0,2.19.43,2.8,0,3.8-2.77,7.55-5.63,11.15-8.66,3.34-2.81,6.47-5.86,9.69-8.81Z"/><path class="cls-2" d="M426.08,188.94c.34-2.55-.83-3.34-3.7-2.65-2,.48-4.19.3-6.27.57-1.45.19-3.11.28-4.25,1-4.07,2.71-8.31,5.32-11.82,8.66s-6.58,7.65-9.57,11.71c-.45.61.53,2.26.85,3.43,1.13-.35,2.71-.35,3.31-1.12,3.12-4,5.91-8.23,9-12.28C409.21,190.79,417.81,190.55,426.08,188.94Z"/><path class="cls-2" d="M425.69,193.6l-.56-.95c-2.05.76-4.12,1.49-6.16,2.27a26.18,26.18,0,0,0-12.42,9.65,4.44,4.44,0,0,1-2.17,1.76c-3.82,1-6,3.68-8,7.75l8.66,3.78C408.36,206.42,416.12,199.23,425.69,193.6Z"/><path class="cls-2" d="M472.55,243a8.61,8.61,0,0,0-3.88-2.61c-.5-.18-2.32,1.54-2.22,1.74a11.55,11.55,0,0,0,2.75,4c3.72,3,7.44,5.81,8.7,10.77a17.17,17.17,0,0,0,1.57,3.23l1.52-.39c-.61-2.27-.85-4.74-1.93-6.76A80.22,80.22,0,0,0,472.55,243Z"/><path class="cls-2" d="M464.2,230.41c-6.88-1.11-13.78-2.06-20.66-3.17-.69-.11-1.27-.88-1.9-1.34.69-.56,1.3-1.44,2.07-1.61a11.91,11.91,0,0,1,3.3.17l.12-1-9.49-1.92c.58-.7.88-1.43,1.28-1.49,3.72-.58,4.54-2.14,3.31-5.55-1.84-5.11-3.38-10.33-5.11-15.48a4.18,4.18,0,0,0-1.3-2.14c-2.23-1.46-7.87-.84-10,.92s-4.42,3.26-6.21,5.27c-3.13,3.52-7,6.93-8.55,11.13-1.69,4.59-2.56,9.4-5.86,13.25l18.54,5.31,2.67-8.14,1.42.41-1.57,8.44,5.92-5.88.9.84c-1,1.78-2,3.58-3.14,5.32-2.08,3.27-2,5.38,1.18,7.68a57.88,57.88,0,0,0,8.69,4.91c4.61,2.25,7.54,5.43,7.7,10.9a29.11,29.11,0,0,0,1.55,7.21c.23.79,1.23,1.93,1.81,1.9a2.87,2.87,0,0,0,2-1.79c.77-3.29,2.32-6.48.37-10.07-1.22-2.25-2.56-5-.16-7.58a1.8,1.8,0,0,0-.06-1.68c-1.87-2.71-.2-4.1,2-4.71,3.57-1,7.37-1.17,10.88-2.3,4.13-1.32,6.94-.3,9,3.38a16.2,16.2,0,0,0,1.25,1.86q3.9,5.18,7.83,10.35l1.29-.79c-1-2.57-2.24-5.09-3.09-7.72C479.4,236.43,473.08,231.84,464.2,230.41Z"/><path class="cls-2" d="M463.84,245.22c-.32-.38-1.5-.05-2.29-.05l-1.13,2.09c2.74,2.14,5.73,4,8.14,6.5s4,5.27,6,7.94l1-.81C475.3,253.06,468,250.25,463.84,245.22Z"/><path class="cls-2" d="M405.21,227.45c0,.1.12.33,0,0Z"/><path class="cls-2" d="M458.75,247c-.61-.59-2.27-.08-3.94-.08l14.28,12.82c-.16-.68-.1-1.86-.66-2.49C465.31,253.75,462.13,250.27,458.75,247Z"/><path class="cls-2" d="M406.9,186.27c3.8-1.45,7.79-2.4,11.62-3.76,1-.36,1.73-1.45,2.58-2.21-1-.58-2-1.62-3-1.65a14.71,14.71,0,0,0-6.17.84,87.34,87.34,0,0,0-9.2,5.3c-8.63,5.23-15.27,12-16.93,22.46l1.33,1.3c.49-1,.92-2,1.5-3,1.67-2.75,3.23-5.59,5.16-8.15C397.33,192.76,401.27,188.42,406.9,186.27Z"/><path class="cls-2" d="M241.11,313.77a3.14,3.14,0,0,0,.8,2.8c3.45,3,3.05,5.94-1.46,7.85l-4.62-8.28-.94,10.18-1.85.33c-1.41-5.26-3.57-10.47-3.89-15.8-.14-2.32-1.05-2.46-2.11-2.93-6-2.67-12.05-5.27-18.17-7.66a4.63,4.63,0,0,0-3.61.68q-7,4.7-13.84,9.79a4.83,4.83,0,0,0-2,3.23c.1,5.57.32,11.15.92,16.69.28,2.58,1.77,4.27,5,4.39,2.46.09,4.7.58,7.32,0,3.44-.74,7.91-1.38,10.61.2,3.9,2.27,7.25,1.7,11,1.14a21.3,21.3,0,0,1,3.1,0l.37,1.45-10,3.33c5.37,3.94,8.95,4.17,13.72,1.26a38.64,38.64,0,0,0,4.77-2.83c4.73-3.93,9.19-8,9.17-15,0-3.68.62-7.37,1-11.41a7.67,7.67,0,0,0-2.8-.91A3.22,3.22,0,0,0,241.11,313.77Z"/><path class="cls-2" d="M277.14,412l15.12,7.66.48-.9-15-7.56Z"/><path class="cls-2" d="M286.71,344.18c-2.54,1.19-5.94,2.68-9.21,4.41a3.33,3.33,0,0,0-1.5,2.51c0,1.42.76,2.82,1.1,4.25.74,3.05,2.55,6,1.53,9.23l-1,.26-3.07-7.11c-3.31,3.78,2,5.86,1.29,9.22-4.41-1.22-4.62-5.31-6.42-8.21a5.62,5.62,0,0,0-3-2.31c-3.27-.87-5.46,1.53-8.06,2.94-4.44,2.4-6.41,7.24-3.25,12.24a48.87,48.87,0,0,1,4.75,8.85c2.55,6.86,4.67,13.88,7,20.81a3.72,3.72,0,0,0,1.51,2c4.82,2.57,9.72,5,14.57,7.5a37.06,37.06,0,0,1,4.85,2.69c4,2.9,5.89,2.23,6.86-2.67.14-.72.21-1.45.31-2.17-.6-.09-1.48,0-1.7-.34-2.48-3.78-6.3-3.28-10-3.32-.19,0-.37-.28-.76-.59l2.15-2.29-7.45-1.76c.56-1.16.85-1.44,1.18-1.49,2.37-.35,5.91.15,6.85-1.18,1.27-1.8.54-5,.67-7.6,0-.37,0-.75,0-1.12-.15-4.81-.42-4.89-5.22-4.71-2.73.1-5.8.7-7.89-2.29,1.87-.53,3.71-.31,5.47-.61,1.09-.19,2-1.17,3.06-1.79l.27-.32c1.18-.3,2.37-.55,3.52-.92,3.5-1.12,7.23-1.82,10.41-3.54,5.33-2.89,10.26-6.51,15.44-9.68,2.15-1.32,4.52-2.3,6.78-3.43l.25-1.09c-5.45-1.84-11.23-3.07-16.27-5.7C296.5,352,292,348,286.71,344.18Z"/><path class="cls-2" d="M205.8,341.5c-3.76,1.52-6.94.14-10.33-.8-3.18-.88-5.93-1.2-5.6,3.67.11,1.64-.92,3.34-1.3,5a18.66,18.66,0,0,0,4.7,17.64,21,21,0,0,1,3.53,4.79,7.9,7.9,0,0,1,.34,4.23c0,.35-1.86.95-2.46.65a11.46,11.46,0,0,1-3.32-2.76,46.11,46.11,0,0,1-2.93-4.14l-1.44.75c.85,2.17,1.21,4.77,2.65,6.43,3.25,3.74,1.82,6.74-.67,10.29l-3.35-3.07c-.92,1.71-1.78,3.17-2.52,4.7-3,6.12-5.44,12.54-9,18.31-3.29,5.39-3.12,10.89-2.49,16.58.13,1.23,1.26,3.07,2.29,3.35,5.44,1.52,11,2.66,16.52,3.86,3.33.72,5.18-1.35,6.36-4,.49-1.09-.19-2.65.12-3.88,2.18-8.52,4.5-17,6.71-25.53a15.69,15.69,0,0,0,.37-2.85,61.36,61.36,0,0,1-7.11-2c-.73-.29-1-1.66-1.52-2.54,1.11,0,2.57-.44,3.25.1,2.22,1.76,3.61,1,4.86-1,.78-1.27,1.46-2.61,2.31-3.84,2.16-3.15,4.44-6.22,6.55-9.4,1.82-2.74,4-5.4,5.1-8.43,2.22-6.26,3.81-12.76,5.72-19.35-3.65-1.72-7.74-3.75-11.92-5.55C209.52,342.1,207.22,340.93,205.8,341.5Z"/><path class="cls-2" d="M257.86,274.05c-12.25-4.26-25.1-3.75-37.82-3-4.25.25-8.43,1.68-12.64,2.57l.23,1.57c2.16-.2,4.33-.47,6.5-.6,6.55-.4,13.22-1.68,19.62-.86s12.51,3.3,18.35,6c4.11,1.87,9.08,3.2,11.14,8.19.2.49,1.52,1.06,1.75.88a3.35,3.35,0,0,0,1.19-2C266.9,279.85,264.67,276.43,257.86,274.05Z"/><path class="cls-2" d="M247.65,299.85c-3-1.44-6-2.76-9.06-4.06-9.31-4-18.87-7-29.12-7-1.12,0-2.36-.31-3.33.07a22.25,22.25,0,0,0-3.81,2.43c1,1,1.76,2.39,2.94,2.92,4.95,2.25,10,4.26,15,6.32a86.52,86.52,0,0,0,26.94,6.75c1.36.09,2.77-.52,4.16-.8a22.82,22.82,0,0,0-1.25-4.51A5.46,5.46,0,0,0,247.65,299.85Z"/><path class="cls-2" d="M252.15,285c-3.19-1-6.35-2.13-9.53-3.2-11.56-3.92-23.37-4.25-35.28-2.18-1.28.22-2.36,1.54-3.53,2.35,1.28.7,2.53,1.93,3.85,2,9.38.66,18.84.38,27.92,3.66,5.74,2.07,12.28,2.29,16.49,7.64l3.75,4.75c3.84-1.88,3.84-1.88,3.73-5.43A10.72,10.72,0,0,0,252.15,285Z"/><path class="cls-2" d="M252.13,373a34.06,34.06,0,0,0-3.14-3.59c-.35,2.15-.94,3.35-.6,4.18a54.26,54.26,0,0,0,4,8c.45.74,2,.82,3,1.2.13-1.09.67-2.36.3-3.24A48.51,48.51,0,0,0,252.13,373Z"/><path class="cls-2" d="M267.44,173.37c5.67,5.45,11.85,10.37,17.8,15.53,5.21,4.52,7.32,4.05,12-1,3.19-3.44,5.83-7.91,11.13-8.81-14.55-7.9-28.55-16.54-39.07-30.14-3.48,3.85-6.69,7.26-9.69,10.85a3.28,3.28,0,0,0-.32,3C261.85,166.46,264.27,170.32,267.44,173.37Z"/><path class="cls-2" d="M326.73,232.81a91.87,91.87,0,0,0-10.13,3.85c-6,2.67-11.66,6.27-17.87,8.08-6.49,1.89-9.17,6.5-11.6,12,4.83-2.43,9.33-5.34,13.86-8.21a19,19,0,0,1,2.46-1.12c.48,1.08,1.63,2.85,1.32,3.15-2.38,2.37-5.32,6.45-7.54,6.14-3.13-.43-4.74,1.09-6.89,2-2.59,1-5,2.44-7.55,3.69,9.86,2.1,18.91,6.91,30.16,5.86a27.72,27.72,0,0,1-4-1.23,19.85,19.85,0,0,1-2.7-2c1.13-.44,2.33-1.36,3.38-1.21,3.29.47,6.53,1.29,9.77,2.09,2,.49,3,1.55,1.16,3.35-1,.92-2.08,2.09-3.26,2.27-7.06,1-14,1.28-20.94-1.46-4.8-1.89-10.07-2.6-15.16-3.72-.52-.11-1.2.51-1.8.79l-.2,1c5,2,10,3.95,15,6,1.18.5,3.07,1.48,3.06,2.21,0,2.27,1.26,3,2.88,3.71,3.27,1.46,6.58,2.86,9.78,4.46.94.47,1.58,1.53,2.36,2.32-1.17.14-2.43.61-3.49.33-1.52-.4-2.83-1.64-4.36-2a45,45,0,0,1-20.11-10.73c-1.35-1.25-3.24-1.91-4.88-2.84a92.25,92.25,0,0,0,6.18,13.56,24.23,24.23,0,0,0,4.23,5.47c2.37,2.32,5.79,3.9,7.42,6.6,3,5,6.58,7.59,12.65,6.83,4.71-.59,9.52-.39,14.29-.55-6.11-3.41-12.15-6.15-18.21-8.86s-11.87-5.29-17.81-7.93l.4-1.5c2.23.2,4.71-.15,6.65.7,5.15,2.26,9.94,5.37,15.13,7.52,6.05,2.5,12.76,3.62,18.48,6.66,6.81,3.61,13.83,2.94,20.9,3.34,2.05.12,4.1.34,6.23.52-.77-7.7-15-49-19.37-54.06-1.59,7.58-3,14.73-4.65,21.83a9.65,9.65,0,0,1-2.24,3.44c-.76.93-1.81,1.63-2.59,2.55-.93,1.1-1.71,2.32-2.55,3.48l-1.34-.2a20.15,20.15,0,0,1,0-3.25c.43-2.57.9-5.13,1.56-7.65a13.67,13.67,0,0,1,1.62-3l3,2.15c1.47-7.33,2.19-15.27,7-22.31-2.21-4.06-4.5-8.46-7-12.73C329,233.53,327.43,232.59,326.73,232.81Z"/><path class="cls-2" d="M318.45,306.56c-2.59,0-5.18.24-7.78.37l0,1.16c7.23.95,14.44,2,21.69,2.81,11.23,1.19,22.63,1.32,33.34,5.7l1.24-1.13c-1.39-1.79-2.42-4.5-4.23-5.19A45.22,45.22,0,0,0,349.16,307C338.95,306.41,328.69,306.6,318.45,306.56Z"/><path class="cls-2" d="M322.56,209.78c-8.39-2.67-16.7-5.61-25-8.54a38.41,38.41,0,0,1-4.58-2.35l6.31,8.09-.82.94c-.9-.45-2-.68-2.66-1.37-3.66-4.2-7.19-8.51-10.77-12.78a12.47,12.47,0,0,0-2.38-2.71c-7-4.49-13.74-9.34-18.87-16.1-1.91-2.52-4.14-4.79-6.47-7.46-5.6,7-11,13.43-16,20.15-6.19,8.35-12.12,16.9-17.93,25.52-1.85,2.73-5.1,5.33-3.27,8.54-5.42,13.3-4.75,26.89-7.15,40.25.93-.25,1.38-.24,1.61-.46,3.41-3.14,6.76-6.34,10.19-9.45a18.6,18.6,0,0,1,2.82-1.78c.22,1,.84,2.09.6,3-1.08,3.79-2,7.67-6.35,9.45-1.34.55-2.2,2.29-3.28,3.48,18-.3,35.16-1.28,50.25,9.9l14.58-25L278,250l-.4-1.46L300,237.42l1.26,1.46L296,242.31c5.17-2,9.59-4.71,14.19-7.13,5.49-2.9,11.15-5.47,16.67-8.33a3.19,3.19,0,0,0,1.48-2.45c-.52-5.79-7.7-8.84-13.06-6.28-3.44,1.64-7.46,2.21-11.29,2.84-1.22.2-2.67-.9-4.84-1.72a17.22,17.22,0,0,1,2.55-1.52c7.73-2.26,15.32-5.24,23.64-4.47,2.88.27,5.23-.76,7.41-4.34-2.21.25-3.51.42-4.82.53C326.15,209.61,324.16,210.29,322.56,209.78Z"/><path class="cls-2" d="M359.43,318.67a40.13,40.13,0,0,0-12.76-1.22c-6.89.25-13.95-.85-20.75-2.27-7.24-1.51-14.25-4.05-21.37-6.14l-.44.76c.32.49.53,1.22,1,1.43,3,1.43,6,2.91,9.14,4.06,3.39,1.25,7,1.87,10.33,3.25,12.22,5.05,25,8.25,37.86,10.9,2,.42,3-.36,3.14-2.51C365.77,323,363.57,319.85,359.43,318.67Z"/><path class="cls-2" d="M298.31,323.41a14,14,0,0,0-3,3.74c-5.37,8.85-4.51,16,3.49,20.89a54,54,0,0,0,15.8,6.17c5.61,1.3,11.55,1.22,18.24,1.83-3.24,4.29-7.4,1.81-11.39,3.06,5.23,1.24,9.52,2.36,13.84,0,6.63-3.66,13.3-7.23,19.91-10.91a17.16,17.16,0,0,0,2.64-2.25c-6.54-4.85-9.75,3.36-14.89,3.46l-.76-1,4.36-4.71c-4.58.48-9.21,1.2-13.86,1.41-12.07.56-12.08.47-13.72-1.86l17.54-1.31a60.39,60.39,0,0,0-10.55-.75c-3.45-.1-6.9-.38-10.35-.59q0-.83,0-1.67h15.29c-1.77-1.3-3.68-1.54-5.27-2.37-5.28-2.73-10.39-5.83-16.78-4.26a4.16,4.16,0,0,1-2.92-.29c-2.1-1.34-5.37-2.11-3.53-6,.28-.6-.44-2.18-1.13-2.61A3.17,3.17,0,0,0,298.31,323.41Z"/><path class="cls-1" d="M488,251.36c-1.63-8.1-7.45-13.69-11.39-20.41a2.23,2.23,0,0,0-1.21-.82c-5.93-1.82-11.79-4-17.85-5.26-4.31-.86-8-2.66-10.23-6-4.42-6.71-6.35-14.59-7.05-22.48-.35-4-1.61-5.11-5.12-4.74-2.21.24-3.3-.28-3.56-2.91a8.3,8.3,0,0,0-5.77-7.53,3.36,3.36,0,0,1-1.52-1.66c-1.62-3.2-3.13-6.45-4.75-9.66a1.81,1.81,0,0,0-1.14-.89c-4.4-.64-4.76-4-5.22-7.41a31.53,31.53,0,0,0-1.26-3.87c-.44-1.61-1.35-3.38-1-4.85a74.72,74.72,0,0,1,3.58-11.2c.57-1.41,1.9-3.26,3.18-3.53,12.21-2.63,22.45-8.44,30.12-18.34,5.21-6.71,8.9-14.07,10.22-22.74a55.2,55.2,0,0,0-1.83-25.44,43,43,0,0,0-10.39-17.5c-3.12-3.13-5.52-6.9-10.12-8.55-2.51-.9-5.33-3-6.42-5.26-1.34-2.83-3-3.47-5.69-3.66l.8,2.47L409.67,36l.16-.9L421,36.8l.24-.83-8-3.33.35-.89c2.55,1.05,5.06,2.24,7.67,3.11a12.27,12.27,0,0,0,4.64.52c.38,0,1.17-2,.87-2.44-.87-1.34-2.18-3.32-3.37-3.35a113.07,113.07,0,0,0-13.1.81c-.51,0-.9.94-1.45,1.1-2.89.86-3.92,4.49-7.8,4.29-9.65-.51-18.25,3.31-26.44,7.9-3.43,1.93-6.41,4.65-9.63,7-2.28,1.65-4.61,3.23-6.91,4.84l-.8-1,28.87-29-.88-1.32c-2.53,1.12-5.64,1.64-7.49,3.46-9.57,9.37-18.8,19.08-28.17,28.65-2.4,2.45-4.46,5.64-7.37,7.12-8.23,4.2-15.92,9-21.67,16.32-2.38,3-5.09,3.41-7.79,2-3.48-1.76-6.1.52-9.06,1a23.93,23.93,0,0,0-7.06,2.44c-5.35,2.73-9.42,1.63-12.42-3.55-6.87-1.43-13.69-3.77-20.82-1.47-.82.26-1.72,1.19-2.33,1-7.12-2.24-11.61,1.14-15.1,6.81-.06.1-.21.14-.3.22-5.84,4.78-11.74,9.5-17.49,14.37a53.77,53.77,0,0,0-4.76,5.2l.86,1.2c1.74-.76,3.67-1.24,5.17-2.32,5.95-4.27,11.68-8.84,17.67-13,1.45-1,3.59-1.06,5.42-1.55l.4,1.16-6.32,11.51L244.94,102c-3,1-4.16,2.73-4.11,5.69,0,2.45-.64,4.91-1.06,7.81-2.9-1.4-4.83-2.72-6.95-3.26-4.88-1.24-9.83-2.28-14.8-3-2.78-.42-5,1-6.43,3.58-2.45,4.57-5,9.1-7.36,13.71-2.05,4-3.91,8.1-6.14,12.75l2,6.89c-4.82,1.78-9.53,3.31-14.06,5.24-6.89,2.93-10.88,13.94-7.33,20.56,2.42,4.52,3.63,8.63.87,13.57-1.8,3.21.85,6.22,4.36,5.36a12.13,12.13,0,0,0,4.66-2.22c5.07-4.13,9.94-8.5,15-12.69,2.82-2.36,6.14-1.59,8.83-.2,1.18.61,1.31,3.36,1.81,5.16.69,2.51,1.08,5.12,2,7.55,1,2.64,2.82,4.66,5.94,4,3.34-.67,3.5-3.51,3.42-6.22-.05-1.85-.62-3.72-.45-5.53.5-5.39,1.55-10.74,1.77-16.13.1-2.38.88-3.81,2.69-4.71,9.22-4.59,16.36-11.95,24.49-18,4.6-3.41,10.17-5.51,15.35-8.1a2.54,2.54,0,0,1,1.82.61c-.22,2.35.05,5.11-1.11,6.92-1.73,2.7-4.86,4.48-6.76,7.11-3.37,4.65-6.08,9.76-9.4,14.45-3.49,4.94-7.28,9.67-11.08,14.38-5.5,6.82-11.2,13.49-16.7,20.32-6.84,8.51-12.31,17.7-14.51,28.63-.77,3.82-4,25.3-4.25,27.39-.87,7.78-1.06,15.76-7.14,21.84a2,2,0,0,0-.45,1c-.66,3.81-3.42,6.63-4.43,10.57-1.1,4.31-.35,5.8,3.2,7.38-1.45,3.09-2.71,6.06-4.22,8.88a4.37,4.37,0,0,1-2.51,2c-4.15,1-5.43,4.59-6.19,7.69-1.75,7.17-2.28,14.48.93,21.59.54,1.19.25,3-.12,4.33-1.37,5.12-3.14,10.15-4.31,15.32-.43,1.88.44,4,.63,6.07a58.43,58.43,0,0,1,.35,6c0,1.33-.52,2.66-.57,4-.12,3.24.64,6.72-.28,9.69a166,166,0,0,1-7.17,18c-1,2.33-2.82,4.33-4.26,6.48-.66,1.29-.82,3-1.46,4.45-1.77,4.16-3.73,8.24-5.62,12.35v1.5c.6,1.09,1.56,2.12,1.75,3.27.8,4.84,4,6.74,8.39,7.66C180,435,186.07,437,192.27,438c4.32.7,9.6-5.28,9.31-9.54a15,15,0,0,1,.62-4c.76-3.57,2.55-7.25,2.15-10.68-.63-5.31,1.06-9.58,3.27-14a12.55,12.55,0,0,0,1.05-4.55c.16-2.09-.65-4.49.13-6.23,1.53-3.41,4-6.38,5.86-9.66,3.11-5.49,6.26-11,9-16.65,1.76-3.68,2.72-7.73,4.18-11.55.22-.58,1.18-1,1.88-1.26,2.27-.91,4.89-1.29,6.79-2.67,2.82-2.06,5-5,7.7-7.22,4.29-3.51,4.38-8.51,5.14-13.26.72-4.49,1.13-9,1.78-13.53a1.86,1.86,0,0,1,1.33-1.08c4.68-.64,5.95-3.54,5.14-7.68,4.41-2.2,6.06-4.08,7.56-8.16a3.8,3.8,0,0,1,1.69-1.75c4.66-2.56,6.37-6.95,4.56-11.91-1.57-4.29-.13-7.67,4.37-10.09,1.85,4.59,4,9.07,5.48,13.77,2.1,6.83,7,11.2,12.56,14.79,3.38,2.17,3.06,5.48,4,8.43a1.83,1.83,0,0,1-.75,1.53c-2.49,1.58-1.86,3.72-1.38,6a4.31,4.31,0,0,1-.46,3.13c-3.85,5.05-8.52,9.64-8.09,16.79a3.1,3.1,0,0,1-1.41,2.29c-2.79,1.6-5.57,3.46-8.6,4.3s-4,2.94-4.64,5.55c-.27,1.18-.36,2.41-.5,3.38-2.74,0-5.3-.36-7.72.07A19.18,19.18,0,0,0,250.93,362c-3.09,5.25-7.75,10.37-4,17.28.84,1.52,1.67,3,2.57,4.53,3.18,5.31,3.19,5.3,8.54,2.72.14-.07.43.17.44.17.74,3.39,1.44,6.63,2.17,9.87.37,1.64,1.39,3.34-1,4.44a2.52,2.52,0,0,0,.07,2.21c1.76,1.84,3.48,3.89,5.64,5.14,9.89,5.73,19.93,11.22,29.75,16.7,2.17-2.41,3.66-3.93,1.45-6.16-.38-.38-.23-1.71.13-2.33,2.79-4.81,2.81-4.91-1.73-8-1.23-2.79-2.44-5.59-3.72-8.36-.35-.77-1.21-1.4-1.32-2.17-.7-4.89-1.26-9.8-1.78-14,2.45-1.66,4.55-3.54,7-4.65,4-1.8,6.89-6.45,11.33-5.13,2.12-2.17,3.62-4.82,5.83-5.74,4.28-1.78,8.23-5.29,13.61-3.43,6.35,2.2,11.17-2.91,16.85-4,.18,0,.28-.42.47-.56,5.49-4,11-8,16.5-12,.58-.42,1.42-.45,2-.82,1-.57,1.84-1.28,2.76-1.93-.81-.79-1.49-1.94-2.47-2.31-8.12-3.06-16.32-5.9-24.43-9-10.92-4.13-21.78-8.4-32.67-12.61-5.45-2.11-5.75-2.94-3.1-8.4,2.71,1.45,5.33,3.1,8.15,4.3,5.48,2.33,11.17,4.19,16.59,6.62A108.43,108.43,0,0,0,357.7,333c8.58,1.08,8.87,1,8.23,9.36,0,.31.26.64.39.94,6.33-1.47,7.64-4.39,4.8-10-.43-.84-.3-2.81.25-3.15,2.71-1.68,1.64-3.81,1.11-5.93-.64-2.52-1.39-5-1.92-7.56-1.07-5.17-1.89-10.42-8.14-12.2-.63-.18-1-1.56-1.34-2.46q-3.2-9.5-6.3-19c-.76-2.35-1.44-4.73-2-7.14-1.06-4.93-1-10.23-5.2-14-.5-.45-.58-1.36-.89-2-3.37-7.2-6.78-14.37-10.11-21.59-1.49-3.22-2.89-6.49-4.15-9.8-.67-1.75-.78-3.71-1.42-5.48-.7-1.92-1.73-3.72-2.64-5.61,8.15-4.82,16.18-9.19,23.78-14.19A92.28,92.28,0,0,0,365.57,192c1.94-1.89,4.09-1.63,4.58-.23,1.46,4.21,6,7,5.17,12.42-.31,2.11,1.6,5.2,3.42,6.81,2.48,2.19,5.85,3.37,8.81,5,2.4,1.35,4.73,3.1,7.1,1.09l9.62,5.39c-.47.65-.81,1.15-1.18,1.62-2.82,3.62-2.74,4.7,1.26,6.78,2.49,1.29,5.31,1.94,7.89,3.07,4.24,1.86,8.65,3.52,12.55,6s6.95,5.68,10.52,8.39c1.77,1.35,4.08,2,5.73,3.49a11,11,0,0,1,3.06,4.73c1.3,4.11,1.93,8.43,3.34,12.5,1.13,3.29,4.46,3.43,6.66.61,2.47-3.16,4-6.69,3.54-10.75-.28-2.6-.93-5.16-1.44-7.92,2.75,2.33,6.27,4.17,8,7.07,2.56,4.25,5.2,7.16,10.37,8.16,2.71.52,4,.81,4.35-1.58l4.26,1c.09-1.36.27-2.72.26-4.08s-.2-2.84-.32-4.28C489.46,257.2,489.16,257.26,488,251.36ZM410.33,149l-1.58-.28,1.43-8.14,1.67.29Zm-21.71,18.33c-3.66-.8-7.17-1.74-9.54-6l10.79,3.29.17-1.12c-5.79-3.08-6.62-4.87-2.81-9.89.91-1.2,5.12.11,8.54.31-1.33,3-2.22,4.73-2.88,6.57a9.83,9.83,0,0,0-.7,3.83C392.38,167.14,391.26,167.91,388.62,167.33Zm-3.3-18c2.85-2.06,11.87.4,13.79,4Zm-21.37-13.37-.8.25-9.64-10.36c.1-3.34.3-6.67.28-10s-.28-6.38-.08-9.71c2.34,8.31,8.23,14,14,19.69l-4.87,6.26ZM332.5,150.87a2.28,2.28,0,0,1-.46-1.35,4.52,4.52,0,0,1,.34-1.43c2.43-7.65,2.43-7.62,10.21-5.65,2.5.64,5.12,1.7,7.13-1.15,1.7-2.42,1.28-4.57-1.46-5.67s-5.62-1.94-8.42-2.89A65.3,65.3,0,0,0,335.54,90l-1.56.22,2.91,11.46-.17,0-5.53-14.62c6.51-1.41,11.68,3.13,17.29,5,2.57,14.18,4.27,28.45-1.69,42.55l1.84.49,4.87-9.3c1.47,2.86,2.82,5.8,4.47,8.55a66.32,66.32,0,0,0,4.44,5.86c-.81.55-1.22,1-1.38.92-4.18-2-6.13-.22-6.95,3.9-.72,3.63-3.44,3.25-6.38,2.76l-.36-3.08-.91-.35a44.48,44.48,0,0,0-2.09,4.21A7.11,7.11,0,0,1,332.5,150.87Zm3.12,15.68c-1.2,2.56-2.15,5.24-3.32,7.82-.57,1.27-1.37,2.44-2.46,4.38-3.81-7.92-2.31-15-1.15-22.62,1.66.72,2.44,1.09,3.24,1.4C338.66,160.16,338.62,160.14,335.62,166.54Zm-1.24-30.91c.93-.34,2-1.13,2.76-.94a62.67,62.67,0,0,1,8.16,2.6c.71.27,1.1,1.35,1.64,2.05-.81.32-1.74,1.08-2.41.89-3.39-1-6.71-2.18-10.06-3.3Zm22.81-36.88c-3.55-9.67.39-14.13,3.41-16.54s12.54-.19,9.94,4.61c-2.09,3.87-3.12,13,3.76,24.39s24.11,23.45,24.11,23.45a145.34,145.34,0,0,0-19.34-8.92C370.09,122.62,360.74,108.42,357.19,98.76Zm25.39-16.69h0l.34.43,1.61,2.06-1.61-2.06-2.88,8-1.19,0a33.72,33.72,0,0,1-.44-4.12,20.55,20.55,0,0,1,.65-2.81c.17-1.11.21-2.25.3-3.38Zm-1.74-3.4c1.32,0,1.86.79,1.83,2.36C382.71,79.46,382.17,78.69,380.85,78.67Zm2.08,23.38c-.95-17.2,4.73-26.94,15.5-27.19,0,0-13.45,3.69-8.46,27.19,4.05,19.07,13.53,26.12,17,28.09.8.42,1.27.65,1.27.65a10.9,10.9,0,0,1-1.27-.65C401.93,127.51,383.74,116.89,382.92,102.06Zm20.35,18.58.77-1.89a37.46,37.46,0,0,1,5.54,1.08,2.62,2.62,0,0,1,1.12,2.31,2.48,2.48,0,0,1-2.17,1.16A43.57,43.57,0,0,1,403.27,120.63Zm-2.35,21.62,1.71-.37,7.54,20-.78.13-8.48-6.65Zm40.74-44.85-3.51,16.16V96.82a9.5,9.5,0,0,1-3.4-3.2l-9.33,8.44,7.22-12.86a25.47,25.47,0,0,1-.94-3.67l-21,5s15.09-8,20.52-10.73a30.38,30.38,0,0,1,.38-4.48l-20.8-5,20,.82c0-.3-.07-.61-.1-.91h0c0,.3.07.61.1.91l1.8.07a19.15,19.15,0,0,1,1.66-3.68l-14.12-10.2L437.58,64a5.85,5.85,0,0,1,3.18-1c5.26,0,9.52,7.73,9.52,17.26C450.28,89.21,446.49,96.58,441.66,97.41Zm-39.28-59,12.87,1.54L415,41.07l-12.79-1.22Zm-1.46,9.19c7.95-1.25,8.55-1.25,21.3-.94,7.87.19,15.54,5,20.27,8.66-5.85-6.32-13.21-11.19-21.14-13h0c7.93,1.81,15.29,6.68,21.14,13a51.77,51.77,0,0,1,4.73,4.09A18.7,18.7,0,0,0,444,57a52.36,52.36,0,0,1,8.75,14.47A52.36,52.36,0,0,0,444,57c-4.61-2.81-14.22-6.73-28.78-3.31-33.93,8-39.4,29.34-39.4,29.34S372,81.82,377.1,70.82,393,48.82,400.92,47.57Zm-11.09-6.46c3.07-.27,6.06-1.5,9.37-1.55-4.83,3.29-10.32,5.95-14.3,10.07s-6.21,9.51-9.38,14.62c-1.85-2.69-3.06-5-.94-8,2.56-3.51,4.89-7.17,7.48-10.65A10.36,10.36,0,0,1,389.83,41.11Zm-14,5.53c-.9,2.65-1.67,5.24-2.65,7.75-.74,1.92-2,3.1-4.27,1.94-1.06-.55-2.15-1.05-3.69-1.81ZM366,59.43c1.93.16,4.58.5,5.54,1.81,3.21,4.4,1,13.68-3.68,16.73a4.69,4.69,0,0,1-3.47.32,30,30,0,0,1-4.52-2c1.48-4.85,2.77-9.28,4.22-13.66C364.46,61.43,365.41,59.38,366,59.43Zm-9.72,1a3.56,3.56,0,0,1,3.29-.9,3.39,3.39,0,0,1,1.41,3,35.33,35.33,0,0,1-2.5,8.83c-.7,1.47-2.81,2.27-4.29,3.37l-3-5.08C352.91,66.28,354.39,63.21,356.25,60.4ZM322.37,81.82c4.24-3.31,8.1-7.22,12.66-10,3.49-2.12,7.81-2.91,11.81-4.12A2.28,2.28,0,0,1,348.65,69c.59,5.86,3.72,11.5,1.6,17.59-.34,1-.68,2-1.32,3.84-3.53-5.64-9.38-4.8-13.6-7.11-5.47-3-9.57,2.9-14.41,1l-1.39-1.6C320.49,82.4,321.64,82.38,322.37,81.82Zm-26,7.87c2.79-1.14,9.26,1.76,11.9,5.74s4.72,8.12,7.31,12.65c2-5.07-2.09-8.52-2.35-12.72,5.65,2.44,3.61,8.87,6.16,12.87l1.63-.47c-.59-3.58-1.17-7.17-1.8-10.75a23.76,23.76,0,0,0-.75-2.5c-1.48-5-.47-6.23,5.06-5.7l.18,3.09c.55-.2,1-.22,1.21-.46,3-3.41,3.48-3.59,5,.71a92.1,92.1,0,0,1,4.32,17,111.26,111.26,0,0,1,.87,17.54c0,1.73-1.63,3.44-2.48,5.17-.53,1.09-1.64,2.39-1.4,3.3,1.59,6-3.59,9.59-4.82,14.57-.6,2.41-2.27,4.55-3.74,7.35l-13.54-14.67c6-.23,9.46,5.52,14.75,5l.63-1.7-12.28-5.21.06-.7,14.63,1.85.17-1.29c-2.85-3.69-7.46-3-12-4.13a42.75,42.75,0,0,0,7.94-22.2c.05-.82-.62-1.7-1.58-2.63-3.16,7.77-3.11,16.73-9.78,23.81-1.2-11.26-3.38-21.56-7.81-31.22l-1.47.35c1.43,5.4,3.31,10.72,4.15,16.21s.63,11.18.92,17.68l-9.09-6.07c-1.69,3-4,1.16-6.13.29-.44-.18-.77-1.63-.53-2.26,1.07-2.73,2.4-5.35,3.58-8,3.5-8,4.29-16,.45-24.19-.5-1.06-.35-2.42-.55-4l8.14,3.67.8-1.24Zm30.52,113.68-2.78,4.48-25.85-9.72-.09-1.43,7.95-7.36,3.29,1.63.83-.6-2.41-5.24c7.41,3.29,14.86,6.51,22.21,9.94,1.23.57,2,2.07,3.51,3.68l.93-3.27,2.13,2-8.77,9.77-.67-.35.63-3Zm-31.65-8c.37-1.65.32-2.25.6-2.52,2.83-2.79,5.66-5.59,8.6-8.26,1.08-1,2.55-2.18,3.27.46-3,2.62-6.05,5.26-9.1,7.86C297.81,193.61,296.93,194.17,295.24,195.4Zm40.5-1.51a68,68,0,0,1-6.61-2.29c-5.44-2-11.05-3.74-16.21-6.34-2-1-3-4-4.4-6.16,9.62,3.84,19.26,7.63,28.83,11.6.76.32,1,1.87,1.5,2.85C337.82,193.69,336.69,194.14,335.75,193.89Zm-49-36.9-.63.4c-.72-1.12-1.51-2.2-2.16-3.36-1.9-3.41-3-7.39-7.65-8.6-.74-.19-.94-3.87-.76-5.88.24-2.64,2.09-4.52,4.78-4.21,2,.23,4.64.69,4.61,3.87a25.31,25.31,0,0,0,.64,3.66,19.56,19.56,0,0,0,1.19-2.47c.41-1.56-.77-4.34,2.57-3.65,2.46.51,5.32.71,4.79,4.72-.26,1.95.5,4,.81,6l0,0c.71,2.84,1.32,5.72,2.17,8.52,1.18,3.87,2.55,7.69,4.14,12.43A20.89,20.89,0,0,1,290,155.68c-.6-1.68-1.87-3.12-2.84-4.68l-1.19.51Zm10-7.89c-.28-.65-1.15-1.06-1.76-1.57.56-1.46,1.1-2.93,1.7-4.38.39-.93.87-1.82,1.31-2.73.94.82,2.47,1.5,2.72,2.49,1.67,6.62,3,13.33,4.6,20,.77,3.16,2,6.22,3.26,10.14-5.16-2.79-4.87-7.55-6.54-11.18C300.08,157.67,298.52,153.32,296.7,149.1ZM311.64,174c-.42,0-1.18-1.17-1.35-1.92q-3.1-13.59-6-27.22a10.42,10.42,0,0,1,0-2.17l1-.64c2.1,2.2,4.22,4.37,6.28,6.6,2.93,3.18,5.9,6.35,8.66,9.68a3.55,3.55,0,0,1,.45,3.16c-2,3.82-4.31,7.52-6.65,11.17A3.37,3.37,0,0,1,311.64,174ZM286.44,88A173.76,173.76,0,0,1,293,109.65c.52,2.28-1.29,5.08-2,7.65-1,3.44-1.77,6.93-2.95,10.3-.58,1.66-1.86,3.08-2.83,4.61l-.62-.57c1.64-4.55,3.37-9.08,4.87-13.67a12.81,12.81,0,0,0,.54-4.78c-.59-8.36-1.48-16.66-7.64-23.21a.76.76,0,0,1-.21-.31c-.35-1.51-.69-3-1-4.54C282.95,86.08,285.92,86.6,286.44,88ZM270.2,82.95c0-.3,1.61-.89,2.09-.63,1.14.62,3,2.17,2.88,2.46-1.57,3.06,1.44,4.37,2.22,6.47,1.76,4.71,3.71,9.36,5.29,14.14,1.51,4.57,2.87,9.27,1.25,14.13-1.09,3.26-2.33,6.47-3.61,9.67-.16.39-.92.54-1.92,1.09,2.89-7.26,4.94-14.05,4-21.37-.82-6.75-2.4-13.13-7.71-18a25.77,25.77,0,0,1-4-4.92A5,5,0,0,1,270.2,82.95Zm-20.84,57c-6.45,4.84-13,9.56-19.86,14.56-2.7-4.29-5.17-8.2-10.75-4.91,0-.21-.14.47.12.66,4,3,3.54,7.09,3.25,11.36-.31,4.44.08,8.92-.11,13.37-.16,3.75-.72,7.49-1.23,12.41-.91-2.37-1.55-3.76-2-5.22-.27-.94-.14-2-.34-3-1.11-5.46-1.12-5.45-7.18-7l3-3.63a66.62,66.62,0,0,0-7.59,1.65c-6.59,2.33-11.6,6.91-16.33,11.87-1.85,1.94-4,3.61-6,5.4l-1.05-.86a10.8,10.8,0,0,1,.39-2.28,34.73,34.73,0,0,1,12-14.9c3.18-2.38,5.45-6.15,10.21-6.44,1.19-.07,2.21-2.86,2.93-4.78-8.67.51-13.22,7.8-20,11.78,1.44-6.73,6.73-9.71,11.63-13l-.44-1-4.65.58-.47-.81,8.65-4.4-.46-1.27c-3.91,1.32-8.15,2.08-11.63,4.13s-6.3,5.44-9.19,8c.16-4.65,2.39-7.43,7.06-9s9-3.44,13.52-5a32.92,32.92,0,0,1,4.4-.68c1.24-.25,2.44-.67,3.66-1v-1l-5.46-1.46c1.79-2.2,3.58-2.3,6-1.7a87.5,87.5,0,0,0,9.75,1.39l.35-1.59c-1.6-2.77-4.32-3.13-7.23-3.13h-9.9L211,126.75c1.67-3.14,3.6-6.17,4.95-9.44,1-2.44,2.73-2.89,4.94-3.18,5-.65,8.86,2.09,12.86,4.3,7.77,4.28,12.74,11,16.19,19A2.74,2.74,0,0,1,249.35,140Zm19.26-11.25a85.07,85.07,0,0,1-9.67,6.17c-1.23.65-4.15.65-4.42.07-1-2.1-3.53-3.94-1.58-7,3.27-5.11,6.25-10.42,9.23-15.71a19.77,19.77,0,0,0,1.26-4l-1-.57c-1.73,2.11-6.58,1-5.58,6.17.22,1.13-1.64,3.07-3,4a81.68,81.68,0,0,1-8,4.42,3.06,3.06,0,0,1-.27-1.53c1-4.85,2.06-9.69,3.13-14.53.35-1.55.43-3.11,2.93-3,1,.06,2.24-1.55,3-2.65a29.92,29.92,0,0,0,2.12-4.45c2,1,4.44,1.47,5.8,3,4.2,4.65,7.51,9.78,6.92,16.63-.29,3.33.41,6.74.42,10.11A4,4,0,0,1,268.62,128.71Zm2.51-28.26c-4.18-6.4-10.55-9.11-17.4-12.09,6.22-4.61,11.79-3.4,15.49,1.86,5.77,8.22,9,17.08,8.23,27.19a6.62,6.62,0,0,1-1.33,3.44C274.27,114,275.32,106.87,271.13,100.45Zm-11.49,59.32c3-3.59,6.21-7,9.69-10.85,10.52,13.6,24.52,22.24,39.07,30.14-5.3.89-7.94,5.37-11.13,8.81-4.71,5.08-6.82,5.55-12,1-5.95-5.16-12.13-10.08-17.8-15.53-3.17-3-5.59-6.9-8.13-10.55A3.28,3.28,0,0,1,259.64,159.77Zm-42.18,208c-1.08,3-3.28,5.69-5.1,8.43-2.11,3.18-4.4,6.25-6.55,9.4-.84,1.23-1.53,2.56-2.31,3.84-1.25,2.05-2.64,2.77-4.86,1-.68-.54-2.15-.09-3.25-.1.49.88.79,2.25,1.52,2.54a61.36,61.36,0,0,0,7.11,2,15.69,15.69,0,0,1-.37,2.85c-2.22,8.51-4.54,17-6.71,25.53-.31,1.23.37,2.79-.12,3.88-1.18,2.6-3,4.68-6.36,4-5.53-1.2-11.08-2.35-16.52-3.86-1-.29-2.15-2.13-2.29-3.35-.62-5.7-.8-11.2,2.49-16.58,3.53-5.77,6-12.19,9-18.31.74-1.53,1.6-3,2.52-4.7L189,387.3c2.49-3.54,3.92-6.54.67-10.29-1.44-1.66-1.8-4.26-2.65-6.43l1.44-.75a46.11,46.11,0,0,0,2.93,4.14,11.46,11.46,0,0,0,3.32,2.76c.61.3,2.42-.3,2.46-.65a7.9,7.9,0,0,0-.34-4.23,21,21,0,0,0-3.53-4.79,18.66,18.66,0,0,1-4.7-17.64c.38-1.7,1.41-3.4,1.3-5-.33-4.87,2.41-4.56,5.6-3.67,3.39.94,6.56,2.32,10.33.8,1.42-.57,3.72.6,5.45,1.35,4.18,1.81,8.26,3.83,11.92,5.55C221.27,355,219.68,361.49,217.46,367.75Zm28-43.16c0,7-4.44,11-9.17,15a38.64,38.64,0,0,1-4.77,2.83c-4.78,2.91-8.36,2.68-13.72-1.26l10-3.33-.37-1.45a21.3,21.3,0,0,0-3.1,0c-3.76.56-7.11,1.13-11-1.14-2.71-1.58-7.17-.94-10.61-.2-2.63.56-4.87.07-7.32,0-3.27-.12-4.76-1.81-5-4.39-.59-5.53-.82-11.12-.92-16.69a4.83,4.83,0,0,1,2-3.23q6.78-5.08,13.84-9.79a4.63,4.63,0,0,1,3.61-.68c6.12,2.39,12.16,5,18.17,7.66,1.05.47,2,.6,2.11,2.93.32,5.32,2.48,10.54,3.89,15.8l1.85-.33.94-10.18,4.62,8.28c4.51-1.92,4.91-4.85,1.46-7.85a3.14,3.14,0,0,1-.8-2.8,3.22,3.22,0,0,1,2.52-1.49,7.67,7.67,0,0,1,2.8.91C246.07,317.22,245.45,320.91,245.45,324.59Zm1.79-17.35a86.52,86.52,0,0,1-26.94-6.75c-5-2.07-10.09-4.08-15-6.32-1.18-.54-2-1.93-2.94-2.92a22.25,22.25,0,0,1,3.81-2.43c1-.38,2.21-.07,3.33-.07,10.26.06,19.81,3.06,29.12,7,3,1.3,6.08,2.62,9.06,4.06a5.46,5.46,0,0,1,2.5,2.08,22.82,22.82,0,0,1,1.25,4.51C250,306.73,248.6,307.34,247.24,307.24Zm8.58-7.21-3.75-4.75c-4.2-5.35-10.75-5.57-16.49-7.64-9.08-3.28-18.54-3-27.92-3.66-1.32-.09-2.57-1.32-3.85-2,1.17-.81,2.26-2.13,3.53-2.35,11.91-2.07,23.72-1.74,35.28,2.18,3.17,1.08,6.34,2.18,9.53,3.2a10.72,10.72,0,0,1,7.4,9.62C259.66,298.16,259.66,298.16,255.82,300Zm10.36-13.32a3.35,3.35,0,0,1-1.19,2c-.23.18-1.55-.39-1.75-.88-2.06-5-7-6.32-11.14-8.19-5.84-2.66-12.06-5.15-18.35-6s-13.07.46-19.62.86c-2.17.13-4.33.4-6.5.6l-.23-1.57c4.21-.89,8.39-2.32,12.64-2.57,12.72-.74,25.58-1.25,37.82,3C264.67,276.43,266.9,279.85,266.18,286.71Zm-10.84,96c-1-.38-2.54-.47-3-1.2a54.26,54.26,0,0,1-4-8c-.33-.83.26-2,.6-4.18a34.06,34.06,0,0,1,3.14,3.59,48.51,48.51,0,0,1,3.51,6.53C256,380.37,255.47,381.63,255.34,382.72Zm36.92,36.91L277.14,412l.57-.8,15,7.56Zm25.51-58.05c-2.27,1.13-4.63,2.11-6.78,3.43-5.18,3.18-10.11,6.79-15.44,9.68-3.18,1.72-6.91,2.42-10.41,3.54-1.15.37-2.35.62-3.52.92l-.27.32c-1,.62-2,1.61-3.06,1.79-1.76.3-3.61.08-5.47.61,2.08,3,5.16,2.39,7.89,2.29,4.8-.18,5.07-.1,5.22,4.71,0,.37,0,.75,0,1.12-.12,2.6.6,5.81-.67,7.6-.94,1.34-4.48.83-6.85,1.18-.33,0-.63.33-1.18,1.49l7.45,1.76-2.15,2.29c.39.31.57.59.76.59,3.68,0,7.5-.45,10,3.32.22.34,1.1.25,1.7.34-.1.72-.16,1.46-.31,2.17-1,4.9-2.85,5.57-6.86,2.67a37.06,37.06,0,0,0-4.85-2.69c-4.86-2.5-9.75-4.94-14.57-7.5a3.72,3.72,0,0,1-1.51-2c-2.37-6.93-4.48-13.95-7-20.81a48.87,48.87,0,0,0-4.75-8.85c-3.16-5-1.18-9.84,3.25-12.24,2.6-1.41,4.79-3.81,8.06-2.94a5.62,5.62,0,0,1,3,2.31c1.8,2.9,2,7,6.42,8.21.71-3.35-4.6-5.44-1.29-9.22l3.07,7.11,1-.26c1-3.23-.79-6.18-1.53-9.23-.35-1.43-1.06-2.82-1.1-4.25a3.33,3.33,0,0,1,1.5-2.51c3.27-1.73,6.67-3.22,9.21-4.41,5.25,3.78,9.79,7.87,15,10.6,5,2.63,10.82,3.86,16.27,5.7ZM301.25,323.4c.69.43,1.42,2,1.13,2.61-1.83,3.87,1.43,4.64,3.53,6a4.16,4.16,0,0,0,2.92.29c6.38-1.57,11.5,1.53,16.78,4.26,1.6.83,3.5,1.07,5.27,2.37H315.6q0,.83,0,1.67c3.45.2,6.9.49,10.35.59a60.39,60.39,0,0,1,10.55.75L319,343.22c1.64,2.33,1.65,2.42,13.72,1.86,4.65-.22,9.29-.93,13.86-1.41l-4.36,4.71.76,1c5.15-.1,8.35-8.31,14.89-3.46a17.16,17.16,0,0,1-2.64,2.25c-6.61,3.68-13.29,7.25-19.91,10.91-4.32,2.38-8.6,1.26-13.84,0,4-1.25,8.15,1.23,11.39-3.06-6.69-.61-12.63-.52-18.24-1.83a54,54,0,0,1-15.8-6.17c-8-4.89-8.85-12-3.49-20.89a14,14,0,0,1,3-3.74A3.17,3.17,0,0,1,301.25,323.4Zm61.18,6c-12.9-2.66-25.64-5.85-37.86-10.9-3.32-1.37-6.95-2-10.33-3.25-3.12-1.15-6.13-2.63-9.14-4.06-.45-.21-.66-.94-1-1.43l.44-.76c7.11,2.09,14.13,4.63,21.37,6.14,6.8,1.42,13.86,2.52,20.75,2.27a40.13,40.13,0,0,1,12.76,1.22c4.14,1.18,6.34,4.37,6.13,8.26C365.45,329.08,364.45,329.86,362.43,329.44Zm.24-19.15c1.81.7,2.84,3.4,4.23,5.19l-1.24,1.13c-10.71-4.38-22.1-4.51-33.34-5.7-7.25-.77-14.46-1.86-21.69-2.81l0-1.16c2.59-.13,5.18-.38,7.78-.37,10.24,0,20.5-.15,30.71.4A45.22,45.22,0,0,1,362.67,310.29Zm-33.25-76c2.51,4.28,4.81,8.68,7,12.73-4.83,7-5.55,15-7,22.31l-3-2.15a13.67,13.67,0,0,0-1.62,3c-.66,2.51-1.14,5.08-1.56,7.65a20.15,20.15,0,0,0,0,3.25l1.34.2c.84-1.17,1.62-2.39,2.55-3.48.78-.92,1.83-1.62,2.59-2.55a9.65,9.65,0,0,0,2.24-3.44c1.63-7.1,3.06-14.25,4.65-21.83,4.38,5,18.6,46.36,19.37,54.06-2.13-.18-4.18-.41-6.23-.52-7.07-.4-14.09.26-20.9-3.34-5.73-3-12.43-4.15-18.48-6.66-5.19-2.15-10-5.26-15.13-7.52-1.95-.85-4.42-.5-6.65-.7l-.4,1.5q8.91,4,17.81,7.93c6.05,2.71,12.09,5.45,18.21,8.86-4.77.15-9.58,0-14.29.55-6.07.76-9.62-1.79-12.65-6.83-1.63-2.7-5-4.28-7.42-6.6a24.23,24.23,0,0,1-4.23-5.47,92.25,92.25,0,0,1-6.18-13.56c1.64.93,3.53,1.6,4.88,2.84a45,45,0,0,0,20.11,10.73c1.53.38,2.84,1.62,4.36,2,1.06.28,2.32-.19,3.49-.33-.78-.79-1.42-1.85-2.36-2.32-3.2-1.6-6.51-3-9.78-4.46-1.62-.72-2.91-1.45-2.88-3.71,0-.74-1.88-1.72-3.06-2.21-5-2.09-10-4-15-6l.2-1c.61-.28,1.29-.91,1.8-.79,5.09,1.13,10.36,1.83,15.16,3.72,7,2.74,13.89,2.51,20.94,1.46,1.18-.17,2.31-1.35,3.26-2.27,1.87-1.8.82-2.87-1.16-3.35-3.24-.8-6.48-1.62-9.77-2.09-1-.15-2.25.78-3.38,1.21a19.85,19.85,0,0,0,2.7,2,27.72,27.72,0,0,0,4,1.23c-11.25,1-20.3-3.76-30.16-5.86,2.51-1.24,5-2.64,7.55-3.69,2.15-.87,3.76-2.39,6.89-2,2.23.31,5.16-3.78,7.54-6.14.3-.3-.85-2.06-1.32-3.15a19,19,0,0,0-2.46,1.12c-4.53,2.86-9,5.77-13.86,8.21,2.43-5.54,5.11-10.16,11.6-12,6.21-1.81,11.89-5.41,17.87-8.08a91.87,91.87,0,0,1,10.13-3.85C327.43,232.59,329,233.53,329.42,234.32Zm-4.05-21.07c-8.32-.78-15.91,2.21-23.64,4.47a17.22,17.22,0,0,0-2.55,1.52c2.17.82,3.61,1.92,4.84,1.72,3.83-.64,7.85-1.2,11.29-2.84,5.36-2.56,12.54.49,13.06,6.28a3.19,3.19,0,0,1-1.48,2.45c-5.51,2.86-11.18,5.43-16.67,8.33-4.6,2.43-9,5.18-14.19,7.13l5.25-3.43L300,237.42l-22.42,11.12L278,250l5.35,1-14.58,25c-15.09-11.18-32.29-10.2-50.25-9.9,1.08-1.19,1.94-2.93,3.28-3.48,4.36-1.78,5.28-5.66,6.35-9.45.24-.86-.38-2-.6-3a18.6,18.6,0,0,0-2.82,1.78c-3.43,3.11-6.78,6.31-10.19,9.45-.24.22-.68.21-1.61.46,2.4-13.36,1.73-27,7.15-40.25-1.83-3.21,1.43-5.8,3.27-8.54,5.82-8.62,11.75-17.16,17.93-25.52,5-6.73,10.4-13.13,16-20.15,2.34,2.68,4.57,4.95,6.47,7.46,5.13,6.76,11.83,11.61,18.87,16.1a12.47,12.47,0,0,1,2.38,2.71c3.58,4.27,7.11,8.58,10.77,12.78.61.7,1.76.93,2.66,1.37l.82-.94L293,198.88a38.41,38.41,0,0,0,4.58,2.35c8.31,2.93,16.62,5.87,25,8.54,1.6.51,3.59-.17,5.39-.33,1.31-.12,2.62-.29,4.82-.53C330.6,212.5,328.25,213.52,325.37,213.25Zm7.63-6.38-1.49-1.8c2.55-2,5.21-3.82,7.62-5.95,1.71-1.51,3.64-3.08,2.78-6-.08-.28,1.92-1.8,2.69-1.62,4.17,1,8.25,2.33,13.42,3.87C348.85,199.37,343.09,208,333,206.88Zm29.89-16.31H352.34c6.5-1.46,10.07-7,15.08-11Zm-1.49-11.92c-3.6,3-7.35,5.89-11.15,8.66-.61.45-1.85,0-2.8,0l.08,0c-11.21-1.86-21.28-6.79-31.57-10.79,1.88-1.41,3.48-2.22,4.5-3.48s1.61-3.14,2.75-5.5c.95,3.67,1.29,6.55,2.48,9,.8,1.64,2.83,3.74,4.28,3.72s3.5-2.21,4.11-3.88c2.72-7.42,2.62-7.55,8.88-2.86a40.65,40.65,0,0,1,4.94,5,10.65,10.65,0,0,0,2.56,2.4c-.34-3.11.19-6.36-3.43-8.16a43.42,43.42,0,0,1-7.05-4.73,2.7,2.7,0,0,1-.69-2.47c2-4.63,4.13-9.26,6.6-13.67.37-.66,2.84-.42,4.26-.17,3.44.63,6.83,1.51,10.25,2.29l.78-1.35c-1-1.18-1.8-2.65-3-3.46-2.11-1.39-2.74-2.74-.74-5,2.57,2,4.85,1.12,6.77-1.39,1.81,2,3.43,3.86,5.17,5.61a5.19,5.19,0,0,0,2.68,1.75,30.49,30.49,0,0,0,5.42-.49c-1.33-1-2.69-2-4-3.11a90.61,90.61,0,0,1-7.33-6.57c-.51-.54.23-2.25.37-3.43q.63-5.39,1.23-10.77c8.68,8.07,19.9,10.68,30.65,14,.18,7.47-1.15,8.44-8.16,5.83l.84-4.85c-.57,0-1.46.15-1.53,0-1.73-4.29-4.66-2.76-7.81-2-1.57.36-3.48-1.1-5.28-1.33a7.1,7.1,0,0,0-4.27,1.08c4.09,4.62,9.39,1.55,15.22,2.17-1.21,2.11-2.24,3.68-3,5.37a20.47,20.47,0,0,0-1.22,4,47.88,47.88,0,0,1-1.37,6.18c-.24.65-1.84.83-2.85,1.12-2.79.81-6,1-8.32,2.48a27.78,27.78,0,0,1-12.76,4.8,11.07,11.07,0,0,0-5.17,2.24c5.71,3.42,11.78,2,17.69,1.95l.73,1C367.88,172.78,364.75,175.84,361.41,178.64Zm13.78-14.34c-.83.95-1.82,2.11-2.94,2.36a25.51,25.51,0,0,1-5.48.1l-.36-1.07c1.79-1,3.54-2,5.4-2.81a8.15,8.15,0,0,1,3.13-.38C375.05,162.5,375.47,164,375.19,164.31Zm-1.06,20.51c-.86,1-2.72,1.18-4.13,1.73,0-1.3-.39-2.84.16-3.86,2.11-3.93,4.62-7.64,6.77-11.54.71-1.29.81-2.93,1.2-4.45,2.72.71,6.4,1.87,10.16,2.61,4.26.84,6.09-1,6.67-5.31.37-2.77,1.5-5.44,2.32-8.24l12,10.33c-4.23,1.32-7.32,2.84-10.54,3.16-5.21.51-7.59,4.39-10.84,7.47-1.85,1.76-4.38,2.8-6.6,4.16l-1-1.53,8.86-5.59c-3.8-2.46-7.72-.38-9.72,3.06A55.83,55.83,0,0,1,374.14,184.82Zm5.71,7c5.44-10.19,14.22-16.42,24.18-21.24,4.47-2.16,9.76-2,12.94,3.37-24.53,7.89-32.42,15.13-34.88,32.35C377,202.73,376.63,197.84,379.85,191.8Zm7.29,16.74-1.33-1.3c1.66-10.48,8.3-17.23,16.93-22.46a87.34,87.34,0,0,1,9.2-5.3,14.71,14.71,0,0,1,6.17-.84c1,0,2,1.06,3,1.65-.85.76-1.59,1.86-2.58,2.21-3.83,1.37-7.82,2.31-11.62,3.76-5.63,2.15-9.57,6.49-13.1,11.14-1.93,2.56-3.49,5.4-5.16,8.15C388.06,206.51,387.64,207.55,387.14,208.54Zm7.49,2c-.6.77-2.18.77-3.31,1.12-.32-1.17-1.29-2.82-.85-3.43,3-4.06,5.94-8.25,9.57-11.71s7.75-6,11.82-8.66c1.15-.76,2.8-.85,4.25-1,2.08-.27,4.25-.09,6.27-.57,2.86-.69,4,.1,3.7,2.65-8.27,1.61-16.87,1.84-22.5,9.36C400.54,202.36,397.75,206.59,394.63,210.58Zm1.75,3.51c2-4.08,4.17-6.72,8-7.75a4.44,4.44,0,0,0,2.17-1.76A26.18,26.18,0,0,1,419,194.93c2-.79,4.11-1.52,6.16-2.27l.56.95c-9.57,5.63-17.32,12.82-20.65,24.26Zm8.82,13.37c.12.33,0,.1,0,0Zm49.6,19.48c1.68,0,3.33-.5,3.94.08,3.38,3.25,6.56,6.73,9.68,10.24.56.63.49,1.81.66,2.49Zm19.75,14.76c-2-2.67-3.68-5.6-6-7.94s-5.41-4.36-8.14-6.5l1.13-2.09c.78,0,2-.33,2.29.05,4.17,5,11.46,7.85,11.73,15.68Zm4.91-1.65a17.17,17.17,0,0,1-1.57-3.23c-1.25-5-5-7.8-8.7-10.77a11.55,11.55,0,0,1-2.75-4c-.1-.2,1.73-1.93,2.22-1.74a8.61,8.61,0,0,1,3.88,2.61,80.22,80.22,0,0,1,6.51,9.95c1.08,2,1.31,4.49,1.93,6.76Zm4.6-6.27q-3.92-5.17-7.83-10.35a16.2,16.2,0,0,1-1.25-1.86c-2-3.68-4.86-4.7-9-3.38-3.51,1.13-7.31,1.33-10.88,2.3-2.23.61-3.9,2-2,4.71a1.8,1.8,0,0,1,.06,1.68c-2.4,2.6-1.06,5.33.16,7.58,1.95,3.59.41,6.77-.37,10.07a2.87,2.87,0,0,1-2,1.79c-.58,0-1.58-1.11-1.81-1.9a29.11,29.11,0,0,1-1.55-7.21c-.16-5.46-3.09-8.64-7.7-10.9a57.88,57.88,0,0,1-8.69-4.91c-3.16-2.3-3.26-4.41-1.18-7.68,1.1-1.74,2.1-3.55,3.14-5.32l-.9-.84-5.92,5.88,1.57-8.44-1.42-.41-2.67,8.14-18.54-5.31c3.3-3.85,4.17-8.67,5.86-13.25,1.55-4.2,5.43-7.61,8.55-11.13,1.79-2,4.12-3.52,6.21-5.27s7.74-2.38,10-.92a4.18,4.18,0,0,1,1.3,2.14c1.73,5.15,3.27,10.37,5.11,15.48,1.23,3.41.41,5-3.31,5.55-.4.06-.7.79-1.28,1.49l9.49,1.92-.12,1a11.91,11.91,0,0,0-3.3-.17c-.77.17-1.39,1-2.07,1.61.63.46,1.21,1.23,1.9,1.34,6.88,1.11,13.78,2.05,20.66,3.17,8.88,1.44,15.2,6,18.07,14.87.85,2.63,2.05,5.15,3.09,7.72Z"/><path class="cls-3" d="M406.92,130.15a10.9,10.9,0,0,0,1.27.65S407.72,130.57,406.92,130.15Z"/><circle class="cls-1" cx="546.9" cy="70.38" r="27.41"/><circle class="cls-1" cx="497.35" cy="123.33" r="12.65"/><circle class="cls-1" cx="613.32" cy="121.04" r="11.6"/><circle class="cls-1" cx="395.5" cy="266.45" r="21.7"/><circle class="cls-1" cx="676.58" cy="210.02" r="14.46"/><circle class="cls-1" cx="743" cy="330.03" r="17.92"/><circle class="cls-1" cx="455.18" cy="406.38" r="42.17"/><circle class="cls-1" cx="840.58" cy="174.91" r="27.66"/><circle class="cls-1" cx="183.1" cy="73.12" r="45.23"/><circle class="cls-1" cx="129.87" cy="236.15" r="24.47"/><circle class="cls-1" cx="554.58" cy="216.82" r="11.97"/><circle class="cls-1" cx="794.12" cy="34.61" r="34.61"/><circle class="cls-1" cx="33.19" cy="372.15" r="21.33"/><circle class="cls-1" cx="11.85" cy="142.81" r="11.85"/></g></g></svg>