<svg xmlns="http://www.w3.org/2000/svg" viewBox="0 0 88.55 88.55"><title>Asset 8</title><g id="Layer_2" data-name="Layer 2"><g id="Capa_1" data-name="Capa 1"><circle cx="43.94" cy="35.3" r="10.62" style="fill:none;stroke:#1d8127;stroke-miterlimit:10;stroke-width:2px"/><path d="M38.44,44.38a14.5,14.5,0,0,0-9,13.42c0,8,6.49,10.39,14.5,10.39s14.5-2.38,14.5-10.39a14.5,14.5,0,0,0-8.86-13.36" style="fill:none;stroke:#1d8127;stroke-miterlimit:10;stroke-width:2px"/><path d="M36.71,27.54a8.71,8.71,0,1,0,.38,15.88" style="fill:none;stroke:#1d8127;stroke-miterlimit:10;stroke-width:2px"/><path d="M28.81,43a11.9,11.9,0,0,0-7.38,11c0,5.55,3.8,7.81,8.95,8.37" style="fill:none;stroke:#1d8127;stroke-miterlimit:10;stroke-width:2px"/><path d="M51.84,27.54a8.71,8.71,0,1,1-.38,15.88" style="fill:none;stroke:#1d8127;stroke-miterlimit:10;stroke-width:2px"/><path d="M59.74,43a11.9,11.9,0,0,1,7.38,11c0,5.55-3.8,7.81-8.95,8.37" style="fill:none;stroke:#1d8127;stroke-miterlimit:10;stroke-width:2px"/><circle cx="44.28" cy="44.28" r="43.28" style="fill:none;stroke:#1d8127;stroke-miterlimit:10;stroke-width:2px"/></g></g></svg>