<?xml version="1.0" encoding="utf-8"?>
<!-- Generator: Adobe Illustrator 18.1.1, SVG Export Plug-In . SVG Version: 6.00 Build 0)  -->
<svg version="1.1" id="Layer_1" xmlns="http://www.w3.org/2000/svg" xmlns:xlink="http://www.w3.org/1999/xlink" x="0px" y="0px"
	 viewBox="993.5 74.6 67.9 62.6" enable-background="new 993.5 74.6 67.9 62.6" xml:space="preserve">
<g>
	<path fill="#666666" d="M1057.1,76.4h-59.3c-1.9,0-3.4,1.5-3.4,3.4V132c0,1.9,1.5,3.4,3.4,3.4h59.3c1.9,0,3.4-1.5,3.4-3.4V79.9
		C1060.6,78,1059,76.4,1057.1,76.4z M997.8,77.9h59.3c1.1,0,1.9,0.9,1.9,1.9v8.4c-0.1,0-0.2-0.1-0.3-0.1h-63v-8.4
		C995.8,78.8,996.7,77.9,997.8,77.9z M1057.1,133.9h-59.3c-1.1,0-1.9-0.9-1.9-1.9V89.8h63c0.1,0,0.2,0,0.3-0.1V132
		C1059.1,133.1,1058.2,133.9,1057.1,133.9z"/>
	<circle fill="#666666" cx="1002.1" cy="83.2" r="1.8"/>
	<circle fill="#666666" cx="1008.1" cy="83.2" r="1.8"/>
	<circle fill="#666666" cx="1014.1" cy="83.2" r="1.8"/>
	<path fill="#666666" d="M1040.7,105c-0.5-5.7-4.7-9.8-10.5-9.8c-3.8,0-7.2,1.9-9.1,5.1c-0.9-0.6-2-1-3-1c-3,0-5.4,2.4-5.4,5.3
		c0,0,0,0,0,0c-3.6,0.9-6.2,4.3-6.2,8.1c0,3.7,2.4,7,5.9,8c0.4,0.1,0.8-0.1,0.9-0.5c0.1-0.4-0.1-0.8-0.5-0.9
		c-2.9-0.8-4.9-3.6-4.9-6.6c0-3.3,2.4-6.3,5.6-6.8c0.4-0.1,0.7-0.4,0.6-0.8c0-0.2,0-0.3,0-0.5c0-2.1,1.7-3.8,3.9-3.8
		c1,0,2,0.4,2.7,1.2c0.2,0.2,0.4,0.2,0.7,0.2c0.2,0,0.4-0.2,0.5-0.4c1.4-3.1,4.6-5.1,8.2-5.1c5.1,0,8.9,3.8,9,9
		c0,0.4,0.3,0.7,0.8,0.7h0.3c3.7,0,6.7,3,6.7,6.6c0,3.2-2.3,5.9-5.5,6.5c-0.4,0.1-0.7,0.5-0.6,0.9c0.1,0.4,0.4,0.6,0.7,0.6
		c0,0,0.1,0,0.1,0c3.9-0.7,6.7-4,6.7-8C1048.5,108.7,1045,105.2,1040.7,105z"/>
	<path fill="#666666" d="M1034.1,106.3c-0.3-0.3-0.8-0.3-1.1,0l-6,6c-0.2,0.2-0.3,0.5-0.2,0.8c0.1,0.3,0.4,0.5,0.7,0.5h2.1v9.2
		c0,0.4,0.3,0.8,0.8,0.8h6.1c0.4,0,0.8-0.3,0.8-0.8v-9.2h2.3c0,0,0,0,0,0c0.4,0,0.8-0.3,0.8-0.8c0-0.3-0.1-0.5-0.3-0.6L1034.1,106.3
		z M1036.5,112.1c-0.4,0-0.8,0.3-0.8,0.8v9.2h-4.6v-9.2c0-0.4-0.3-0.8-0.8-0.8h-1.1l4.2-4.2l4.2,4.2H1036.5z"/>
	<path fill="#666666" d="M1027.6,122.8h-2.1v-9.2c0-0.4-0.3-0.8-0.8-0.8h-6.1c-0.4,0-0.8,0.3-0.8,0.8v9.2h-2.3
		c-0.3,0-0.6,0.2-0.7,0.5c-0.1,0.3-0.1,0.6,0.2,0.8l6,6c0.1,0.1,0.3,0.2,0.5,0.2s0.4-0.1,0.5-0.2l6-6c0.2-0.2,0.3-0.5,0.2-0.8
		C1028.2,123,1027.9,122.8,1027.6,122.8z M1021.5,128.6l-4.2-4.2h1.3c0.4,0,0.8-0.3,0.8-0.8v-9.2h4.6v9.2c0,0.4,0.3,0.8,0.7,0.8h1.1
		L1021.5,128.6z"/>
</g>
</svg>
