<?xml version="1.0" encoding="utf-8"?>
<!-- Generator: Adobe Illustrator 18.1.1, SVG Export Plug-In . SVG Version: 6.00 Build 0)  -->
<svg version="1.1" id="Layer_1" xmlns="http://www.w3.org/2000/svg" xmlns:xlink="http://www.w3.org/1999/xlink" x="0px" y="0px"
	 viewBox="993.5 74.6 67.9 62.6" enable-background="new 993.5 74.6 67.9 62.6" xml:space="preserve">
<g>
	<circle fill="#666666" cx="1002.1" cy="83.2" r="1.8"/>
	<path fill="#666666" d="M1057.1,76.4h-59.3c-1.9,0-3.4,1.5-3.4,3.4V132c0,1.9,1.5,3.4,3.4,3.4h59.3c1.9,0,3.4-1.5,3.4-3.4V79.9
		C1060.6,78,1059,76.4,1057.1,76.4z M997.8,77.9h59.3c1.1,0,1.9,0.9,1.9,1.9v8.4c-0.1,0-0.2-0.1-0.3-0.1h-63v-8.4
		C995.8,78.8,996.7,77.9,997.8,77.9z M1057.1,133.9h-59.3c-1.1,0-1.9-0.9-1.9-1.9V89.8h63c0.1,0,0.2,0,0.3-0.1V132
		C1059.1,133.1,1058.2,133.9,1057.1,133.9z"/>
	<circle fill="#666666" cx="1008.1" cy="83.2" r="1.8"/>
	<circle fill="#666666" cx="1014.1" cy="83.2" r="1.8"/>
	<path fill="#666666" d="M1034,119.2h11c0.4,0,0.8-0.3,0.8-0.8v-11c0-0.4-0.3-0.8-0.8-0.8h-1.5v-1.5c0-2.2-1.8-4.1-4.1-4.1
		s-4.1,1.8-4.1,4.1v1.5h-1.5c-0.4,0-0.8,0.3-0.8,0.8v11C1033.2,118.9,1033.6,119.2,1034,119.2z M1036.9,105.2c0-1.4,1.1-2.6,2.6-2.6
		s2.6,1.1,2.6,2.6v1.5h-5.1V105.2z M1034.7,108.2h9.5v9.5h-9.5V108.2z"/>
	<path fill="#666666" d="M1039.5,110.8c-1.2,0-2.1,0.9-2.1,2.1c0,1.2,0.9,2.1,2.1,2.1c1.2,0,2.1-0.9,2.1-2.1
		C1041.6,111.8,1040.6,110.8,1039.5,110.8z M1039.5,113.5c-0.3,0-0.6-0.3-0.6-0.6s0.3-0.6,0.6-0.6c0.3,0,0.6,0.3,0.6,0.6
		S1039.8,113.5,1039.5,113.5z"/>
	<path fill="#666666" d="M1019.3,121c5.9,0,10.6-4.8,10.6-10.6s-4.8-10.6-10.6-10.6c-5.9,0-10.6,4.8-10.6,10.6
		S1013.5,121,1019.3,121z M1014.2,117.9c0.5-1.4,1.1-2.6,2-3.3c0.9,0.6,2,0.9,3.2,0.9c1.1,0,2.2-0.3,3.1-0.8
		c0.8,0.8,1.5,1.9,1.9,3.3c-1.5,1-3.2,1.6-5.1,1.6C1017.5,119.5,1015.7,118.9,1014.2,117.9z M1019.4,107c0.8,1,2.2,2.4,4.7,2.7
		c-0.2,2.4-2.2,4.4-4.7,4.4c-1.1,0-2-0.4-2.8-0.9c0,0,0,0-0.1-0.1c-1.1-0.8-1.8-2.1-1.8-3.5C1015.8,109.3,1018.1,108.9,1019.4,107z
		 M1014.9,107.9c0.6-1.9,2.4-3.3,4.5-3.3c2,0,3.7,1.3,4.4,3.1c-2.7-0.4-3.7-2.5-3.7-2.6c-0.1-0.3-0.4-0.3-0.7-0.3c0,0,0,0,0,0
		c-0.3,0-0.6,0.1-0.7,0.4C1017.9,107.1,1016.1,107.7,1014.9,107.9z M1019.3,101.2c5,0,9.1,4.1,9.1,9.1c0,2.6-1.1,4.9-2.8,6.6
		c-0.5-1.3-1.1-2.4-1.9-3.2c1.2-1.1,1.9-2.7,1.9-4.5c0-0.2,0-0.3,0-0.4c0,0,0-0.1,0-0.1c0-0.1,0-0.2-0.1-0.4c-0.5-3-3-5.3-6.2-5.3
		c-3.1,0-5.8,2.3-6.2,5.4c0,0.1-0.1,0.2-0.1,0.3c0,0,0,0.1,0,0.1c0,0.1,0,0.3,0,0.4c0,1.7,0.7,3.3,1.8,4.4c-0.8,0.8-1.5,1.9-2,3.2
		c-1.7-1.7-2.8-4-2.8-6.6C1010.2,105.3,1014.3,101.2,1019.3,101.2z"/>
	<path fill="#666666" d="M1052.7,94.7h-50.9c-0.4,0-0.8,0.3-0.8,0.8v30.8c0,0.4,0.3,0.8,0.8,0.8h50.9c0.4,0,0.8-0.3,0.8-0.8V95.4
		C1053.4,95,1053.1,94.7,1052.7,94.7z M1051.9,125.4h-49.4V96.2h49.4V125.4z"/>
</g>
</svg>
