<?xml version="1.0" encoding="utf-8"?>
<!-- Generator: Adobe Illustrator 18.1.1, SVG Export Plug-In . SVG Version: 6.00 Build 0)  -->
<svg version="1.1" id="Layer_1" xmlns="http://www.w3.org/2000/svg" xmlns:xlink="http://www.w3.org/1999/xlink" x="0px" y="0px"
	 viewBox="993.5 74.6 67.9 62.6" enable-background="new 993.5 74.6 67.9 62.6" xml:space="preserve">
<g>
	<path fill="#666666" d="M1057.1,76.4h-59.3c-1.9,0-3.4,1.5-3.4,3.4V132c0,1.9,1.5,3.4,3.4,3.4h59.3c1.9,0,3.4-1.5,3.4-3.4V79.9
		C1060.6,78,1059,76.4,1057.1,76.4z M997.8,77.9h59.3c1.1,0,1.9,0.9,1.9,1.9v8.4c-0.1,0-0.2-0.1-0.3-0.1h-63v-8.4
		C995.8,78.8,996.7,77.9,997.8,77.9z M1057.1,133.9h-59.3c-1.1,0-1.9-0.9-1.9-1.9V89.8h63c0.1,0,0.2,0,0.3-0.1V132
		C1059.1,133.1,1058.2,133.9,1057.1,133.9z"/>
	<circle fill="#666666" cx="1002.1" cy="83.2" r="1.8"/>
	<circle fill="#666666" cx="1008.1" cy="83.2" r="1.8"/>
	<circle fill="#666666" cx="1014.1" cy="83.2" r="1.8"/>
	<path fill="#666666" d="M1015.8,94.7h-12c-0.4,0-0.8,0.3-0.8,0.8V109c0,0.4,0.3,0.8,0.8,0.8h12c0.4,0,0.8-0.3,0.8-0.8V95.4
		C1016.6,95,1016.2,94.7,1015.8,94.7z M1015.1,96.2v8.1h-10.3c-0.1,0-0.1,0-0.2,0v-8.1H1015.1z M1004.6,108.3v-2.6
		c0.1,0,0.1,0,0.2,0h10.3v2.5H1004.6z"/>
	<path fill="#666666" d="M1033.8,94.7h-12c-0.4,0-0.8,0.3-0.8,0.8V109c0,0.4,0.3,0.8,0.8,0.8h12c0.4,0,0.8-0.3,0.8-0.8V95.4
		C1034.6,95,1034.2,94.7,1033.8,94.7z M1033.1,96.2v8.1h-10.3c-0.1,0-0.1,0-0.2,0v-8.1H1033.1z M1022.6,108.3v-2.6
		c0.1,0,0.1,0,0.2,0h10.3v2.5H1022.6z"/>
	<path fill="#666666" d="M1051.8,94.7h-12c-0.4,0-0.8,0.3-0.8,0.8V109c0,0.4,0.3,0.8,0.8,0.8h12c0.4,0,0.8-0.3,0.8-0.8V95.4
		C1052.6,95,1052.2,94.7,1051.8,94.7z M1051.1,96.2v8.1h-10.3c-0.1,0-0.1,0-0.2,0v-8.1H1051.1z M1040.6,108.3v-2.6
		c0.1,0,0.1,0,0.2,0h10.3v2.5H1040.6z"/>
	<path fill="#666666" d="M1015.8,114.7h-12c-0.4,0-0.8,0.3-0.8,0.8V129c0,0.4,0.3,0.8,0.8,0.8h12c0.4,0,0.8-0.3,0.8-0.8v-13.6
		C1016.6,115,1016.2,114.7,1015.8,114.7z M1015.1,116.2v8.1h-10.3c-0.1,0-0.1,0-0.2,0v-8.1H1015.1z M1004.6,128.3v-2.6
		c0.1,0,0.1,0,0.2,0h10.3v2.5H1004.6z"/>
	<path fill="#666666" d="M1033.8,114.7h-12c-0.4,0-0.8,0.3-0.8,0.8V129c0,0.4,0.3,0.8,0.8,0.8h12c0.4,0,0.8-0.3,0.8-0.8v-13.6
		C1034.6,115,1034.2,114.7,1033.8,114.7z M1033.1,116.2v8.1h-10.3c-0.1,0-0.1,0-0.2,0v-8.1H1033.1z M1022.6,128.3v-2.6
		c0.1,0,0.1,0,0.2,0h10.3v2.5H1022.6z"/>
	<path fill="#666666" d="M1051.8,114.7h-12c-0.4,0-0.8,0.3-0.8,0.8V129c0,0.4,0.3,0.8,0.8,0.8h12c0.4,0,0.8-0.3,0.8-0.8v-13.6
		C1052.6,115,1052.2,114.7,1051.8,114.7z M1051.1,116.2v8.1h-10.3c-0.1,0-0.1,0-0.2,0v-8.1H1051.1z M1040.6,128.3v-2.6
		c0.1,0,0.1,0,0.2,0h10.3v2.5H1040.6z"/>
</g>
</svg>
