<?xml version="1.0" encoding="utf-8"?>
<!-- Generator: Adobe Illustrator 18.1.1, SVG Export Plug-In . SVG Version: 6.00 Build 0)  -->
<svg version="1.1" id="Layer_1" xmlns="http://www.w3.org/2000/svg" xmlns:xlink="http://www.w3.org/1999/xlink" x="0px" y="0px"
	 viewBox="1002.8 70.9 35.3 42.6" enable-background="new 1002.8 70.9 35.3 42.6" xml:space="preserve">
<g>
	<path fill="#666666" d="M1036.6,79.3c-10.6,0-15.2-6.8-15.4-7c-0.2-0.3-0.4-0.4-0.7-0.5c-0.3,0-0.6,0.1-0.8,0.3
		c-6.9,6.7-15.5,7.2-15.6,7.2c-0.3,0-0.5,0.1-0.7,0.3c-0.2,0.2-0.3,0.5-0.2,0.7c1.3,16,6.3,25.5,16.7,32.1c0.2,0.1,0.3,0.2,0.5,0.2
		c0.2,0,0.3,0,0.5-0.1c16.5-9.6,16.7-31.3,16.7-32.2C1037.6,79.7,1037.1,79.3,1036.6,79.3z M1020.4,110.4
		c-9.2-6-13.8-14.8-15.1-29.3c2.5-0.3,9.1-1.7,15-6.9c1.7,2,6.5,6.7,15.3,7C1035.3,85.5,1033.5,102.4,1020.4,110.4z"/>
	<path fill="#666666" d="M1016.3,87.2v1.2h-1.2c-0.6,0-1,0.4-1,1v11.1c0,0.6,0.4,1,1,1h11.1c0.6,0,1-0.4,1-1V89.4c0-0.6-0.4-1-1-1
		h-1.2v-1.2c0-2.4-1.9-4.3-4.3-4.3S1016.3,84.8,1016.3,87.2z M1025.2,99.5h-9.1v-9.1h9.1V99.5z M1023,87.2v1.2h-4.7v-1.2
		c0-1.3,1-2.3,2.3-2.3C1021.9,84.9,1023,85.9,1023,87.2z"/>
	<circle fill="#666666" cx="1020.7" cy="95" r="1.4"/>
</g>
</svg>
