<?xml version="1.0" encoding="utf-8"?>
<!-- Generator: Adobe Illustrator 18.1.1, SVG Export Plug-In . SVG Version: 6.00 Build 0)  -->
<svg version="1.1" id="Layer_1" xmlns="http://www.w3.org/2000/svg" xmlns:xlink="http://www.w3.org/1999/xlink" x="0px" y="0px"
	 viewBox="993.5 74.6 67.9 62.6" enable-background="new 993.5 74.6 67.9 62.6" xml:space="preserve">
<g>
	<path fill="#666666" d="M1057.1,76.4h-59.3c-1.9,0-3.4,1.5-3.4,3.4V132c0,1.9,1.5,3.4,3.4,3.4h59.3c1.9,0,3.4-1.5,3.4-3.4V79.9
		C1060.6,78,1059,76.4,1057.1,76.4z M997.8,77.9h59.3c1.1,0,1.9,0.9,1.9,1.9v8.4c-0.1,0-0.2-0.1-0.3-0.1h-63v-8.4
		C995.8,78.8,996.7,77.9,997.8,77.9z M995.8,132V89.8h23.2v44.2h-21.3C996.7,133.9,995.8,133.1,995.8,132z M1057.1,133.9h-36.6V89.8
		h38.2c0.1,0,0.2,0,0.3-0.1V132C1059.1,133.1,1058.2,133.9,1057.1,133.9z"/>
	<circle fill="#666666" cx="1008.1" cy="83.2" r="1.8"/>
	<circle fill="#666666" cx="1002.1" cy="83.2" r="1.8"/>
	<circle fill="#666666" cx="1014.1" cy="83.2" r="1.8"/>
	<circle fill="#666666" cx="1034" cy="103" r="2.2"/>
	<circle fill="#666666" cx="1002.1" cy="97.8" r="2.2"/>
	<circle fill="#666666" cx="1002.1" cy="107" r="2.2"/>
	<circle fill="#666666" cx="1002.1" cy="116.2" r="2.2"/>
	<circle fill="#666666" cx="1002.1" cy="125" r="2.2"/>
	<path fill="#666666" d="M1054.1,98h-26.3c-0.4,0-0.8,0.3-0.8,0.8v29.1c0,0.4,0.3,0.8,0.8,0.8h26.3c0.4,0,0.8-0.3,0.8-0.8V98.8
		C1054.9,98.4,1054.5,98,1054.1,98z M1053.4,99.5v6.7h-24.8v-6.7H1053.4z M1028.5,127.2v-19.4h24.8v19.4H1028.5z"/>
	<path fill="#666666" d="M1031.8,112.8h11c0.4,0,0.8-0.3,0.8-0.8s-0.3-0.8-0.8-0.8h-11c-0.4,0-0.8,0.3-0.8,0.8
		S1031.4,112.8,1031.8,112.8z"/>
	<path fill="#666666" d="M1042.8,122.3h-11c-0.4,0-0.8,0.3-0.8,0.8s0.3,0.8,0.8,0.8h11c0.4,0,0.8-0.3,0.8-0.8
		S1043.2,122.3,1042.8,122.3z"/>
	<path fill="#666666" d="M1049.8,115.3h-11c-0.4,0-0.8,0.3-0.8,0.8s0.3,0.8,0.8,0.8h11c0.4,0,0.8-0.3,0.8-0.8
		S1050.2,115.3,1049.8,115.3z"/>
	<path fill="#666666" d="M1049.8,118.3h-11c-0.4,0-0.8,0.3-0.8,0.8s0.3,0.8,0.8,0.8h11c0.4,0,0.8-0.3,0.8-0.8
		S1050.2,118.3,1049.8,118.3z"/>
	<path fill="#666666" d="M1007.8,98.8h7c0.4,0,0.8-0.3,0.8-0.8s-0.3-0.8-0.8-0.8h-7c-0.4,0-0.8,0.3-0.8,0.8S1007.4,98.8,1007.8,98.8
		z"/>
	<path fill="#666666" d="M1014.8,106.3h-7c-0.4,0-0.8,0.3-0.8,0.8s0.3,0.8,0.8,0.8h7c0.4,0,0.8-0.3,0.8-0.8
		S1015.2,106.3,1014.8,106.3z"/>
	<path fill="#666666" d="M1014.8,115.3h-7c-0.4,0-0.8,0.3-0.8,0.8s0.3,0.8,0.8,0.8h7c0.4,0,0.8-0.3,0.8-0.8
		S1015.2,115.3,1014.8,115.3z"/>
	<path fill="#666666" d="M1014.8,124.3h-7c-0.4,0-0.8,0.3-0.8,0.8s0.3,0.8,0.8,0.8h7c0.4,0,0.8-0.3,0.8-0.8
		S1015.2,124.3,1014.8,124.3z"/>
	<path fill="#666666" d="M1039.8,103.8h8c0.4,0,0.8-0.3,0.8-0.8s-0.3-0.8-0.8-0.8h-8c-0.4,0-0.8,0.3-0.8,0.8
		S1039.4,103.8,1039.8,103.8z"/>
</g>
</svg>
