<?xml version="1.0" encoding="utf-8"?>
<!-- Generator: Adobe Illustrator 18.1.1, SVG Export Plug-In . SVG Version: 6.00 Build 0)  -->
<svg version="1.1" id="Layer_1" xmlns="http://www.w3.org/2000/svg" xmlns:xlink="http://www.w3.org/1999/xlink" x="0px" y="0px"
	 viewBox="993.5 74.6 67.9 62.6" enable-background="new 993.5 74.6 67.9 62.6" xml:space="preserve">
<g>
	<path fill="#666666" d="M1057.1,76.4h-59.3c-1.9,0-3.4,1.5-3.4,3.4V132c0,1.9,1.5,3.4,3.4,3.4h59.3c1.9,0,3.4-1.5,3.4-3.4V79.9
		C1060.6,78,1059,76.4,1057.1,76.4z M997.8,77.9h59.3c1.1,0,1.9,0.9,1.9,1.9v8.4c-0.1,0-0.2-0.1-0.3-0.1h-63v-8.4
		C995.8,78.8,996.7,77.9,997.8,77.9z M1057.1,133.9h-59.3c-1.1,0-1.9-0.9-1.9-1.9V89.8h63c0.1,0,0.2,0,0.3-0.1V132
		C1059.1,133.1,1058.2,133.9,1057.1,133.9z"/>
	<circle fill="#666666" cx="1002.5" cy="83.5" r="1.8"/>
	<circle fill="#666666" cx="1008.5" cy="83.5" r="1.8"/>
	<circle fill="#666666" cx="1014.5" cy="83.5" r="1.8"/>
	<path fill="#666666" d="M1041.5,110.1c-1,0-1.9,0.2-2.7,0.5V105c0-0.2-0.1-0.3-0.2-0.4c-0.5-2.3-7.3-2.3-8.1-2.3
		c-0.4,0-2.8,0-4.8,0.4l3.2-4.2c0.2-0.2,0.2-0.5,0.1-0.8c-0.1-0.3-0.4-0.4-0.7-0.4h-16.6c-0.3,0-0.5,0.2-0.7,0.4
		c-0.1,0.2-0.1,0.5,0,0.8l3.9,5.8v3.6c-2.4,0.9-4.2,2.8-4.9,5.2l-3.1,10.8c-0.1,0.2,0,0.5,0.1,0.7c0.1,0.2,0.4,0.3,0.6,0.3h15
		c0,0,0.1,0,0.1,0c1.7,1.4,6.7,1.4,7.8,1.4c2.6,0,4.9-0.3,6.4-0.9c0,0,0,0,0,0c1.3,0.8,2.8,1.3,4.4,1.3c4.6,0,8.3-3.7,8.3-8.3
		S1046.1,110.1,1041.5,110.1z M1037.3,109.7c-0.4,0.4-2.6,1.2-6.6,1.2c-4.1,0-6.5-0.7-6.9-1.1v-3.4c2.2,1,6.1,1,6.8,1
		c0.6,0,4.6,0,6.8-1V109.7z M1023.8,115.9c2.1,0.9,5.9,0.9,6.9,0.9c0.9,0,1.8,0,2.7-0.1c-0.1,0.5-0.2,1-0.2,1.6c0,0.5,0,0.9,0.1,1.4
		c-0.8,0.1-1.7,0.1-2.7,0.1c-4.1,0-6.5-0.7-6.9-1.1V115.9z M1033.9,115.3c-0.1,0-0.2,0-0.3,0c-0.9,0.1-1.9,0.2-2.9,0.2
		c-4.1,0-6.5-0.7-6.9-1.1v-2.8c2.1,0.9,5.9,0.9,6.9,0.9c0.5,0,3.7,0,5.9-0.7C1035.4,112.6,1034.4,113.8,1033.9,115.3z M1037.1,104.8
		c-0.6,0.4-2.8,1.1-6.6,1.1s-6-0.7-6.6-1.1c0.6-0.4,2.8-1.1,6.6-1.1S1036.5,104.4,1037.1,104.8z M1026.8,98.8l-3.2,4.2
		c-0.1,0.1-0.1,0.2-0.1,0.3h-7.4l-3-4.5H1026.8z M1016.5,104.8h5.8c0,0.1-0.1,0.2-0.1,0.3v2.2h-4.1c-0.6,0-1.1,0.1-1.6,0.2V104.8z
		 M1011.6,113.5c0.8-2.8,3.5-4.8,6.6-4.8h4.1v14.6h-13.5L1011.6,113.5z M1023.8,123.6v-3.1c2.1,0.9,5.9,0.9,6.9,0.9c1,0,2-0.1,3-0.2
		c0,0,0,0,0.1,0c0.4,1.1,1.1,2.1,1.9,3c-1.3,0.3-3.1,0.5-4.9,0.5C1026.6,124.7,1024.2,124,1023.8,123.6z M1041.5,125.1
		c-3.7,0-6.8-3-6.8-6.8s3-6.8,6.8-6.8c3.7,0,6.8,3,6.8,6.8S1045.3,125.1,1041.5,125.1z"/>
</g>
</svg>
