<?xml version="1.0" encoding="utf-8"?>
<!-- Generator: Adobe Illustrator 18.1.1, SVG Export Plug-In . SVG Version: 6.00 Build 0)  -->
<svg version="1.1" id="Layer_1" xmlns="http://www.w3.org/2000/svg" xmlns:xlink="http://www.w3.org/1999/xlink" x="0px" y="0px"
	 viewBox="1004.1 74.6 32.8 34.6" enable-background="new 1004.1 74.6 32.8 34.6" xml:space="preserve">
<g>
	<g>
		<path fill="#666666" d="M1034.2,98c-0.4,1-1,2-1.7,3h-6.3c0.2-1,0.4-2,0.6-3h-0.7h-0.8c-0.2,1-0.4,2-0.6,3h-8.7
			c-0.2-1-0.4-1.9-0.6-2.9c0,0,0-0.1,0-0.1h-1.5c0,0,0,0.2,0,0.3c0.1,1,0.3,1.7,0.5,2.7h-6.3c-0.7-1-1.2-2-1.6-3h-1.6
			c0.1,0,0.1,0.1,0.2,0.3c2.4,6,7.9,10,14.3,10.4c0.3,0.1,0.6,0.1,0.9,0.1c0.3,0,0.6-0.1,0.8-0.2c6.5-0.3,12.2-4.4,14.5-10.5
			c0-0.1,0.1-0.1,0.1-0.1H1034.2z M1024.3,103c-1.1,3-2.5,4.9-3.9,4.9c-1.5,0-2.9-1.9-3.9-4.9H1024.3z M1009.4,103h5.5
			c0.6,2,1.4,3.2,2.2,4.3C1014.1,106.7,1011.4,105,1009.4,103z M1023.6,107.3c0.9-1.1,1.6-2.3,2.2-4.3h5.5
			C1029.3,105,1026.6,106.6,1023.6,107.3z"/>
		<g>
			<path fill="#666666" d="M1026.9,87L1026.9,87C1026.9,87,1026.9,87,1026.9,87z"/>
			<path fill="#666666" d="M1035.6,86.2c-2.4-6.1-8.2-10.3-14.8-10.4c-0.1,0-0.3-0.1-0.4-0.1c-0.3,0-0.6,0-0.9,0.1
				c-6.4,0.3-12.1,4.6-14.4,10.6c-0.1,0.2-0.1,0.6-0.2,0.6h1.6c0.5-1,1.1-2,1.9-3h6.1c-0.2,1-0.4,1.7-0.6,2.8c0,0.1,0,0.2,0,0.2h1.5
				c0,0,0,0.1,0,0c0.2-1.2,0.4-2,0.7-3h8.6c0.3,1,0.5,2,0.7,3.2c0,0,0-0.2,0-0.2h1.5c0,0,0,0,0,0c-0.2-1.1-0.4-2-0.6-3h6.1
				c0.7,1,1.3,1.9,1.8,3.1c0,0.1,0-0.1,0.1-0.1h1.6C1035.7,87,1035.7,86.4,1035.6,86.2z M1009.7,82c2-2,4.6-3.4,7.4-4
				c-0.8,1-1.5,3-2.1,4H1009.7z M1016.6,82c1-2,2.4-4.6,3.8-4.6c1.4,0,2.8,2.6,3.8,4.6H1016.6z M1025.8,82c-0.6-1-1.3-3-2.2-4
				c2.9,0.6,5.5,2,7.5,4H1025.8z"/>
		</g>
		<g>
			<g>
				<path fill="#666666" d="M1014.8,89.7l-1.9,5.4h-1.5l-1.2-3.3l-1.2,3.3h-1.5l-1.9-5.4h1.5l1.3,3.6l1.3-3.6h1.3l1.3,3.6l1.3-3.6
					H1014.8z"/>
			</g>
			<g>
				<path fill="#666666" d="M1025,89.7l-1.9,5.4h-1.5l-1.2-3.3l-1.2,3.3h-1.5l-1.9-5.4h1.5l1.3,3.6l1.3-3.6h1.3l1.3,3.6l1.3-3.6
					H1025z"/>
			</g>
			<g>
				<path fill="#666666" d="M1035.3,89.7l-1.9,5.4h-1.5l-1.2-3.3l-1.2,3.3h-1.5l-1.9-5.4h1.5l1.3,3.6l1.3-3.6h1.3l1.3,3.6l1.3-3.6
					H1035.3z"/>
			</g>
		</g>
	</g>
</g>
</svg>
