<?xml version="1.0" encoding="utf-8"?>
<!-- Generator: Adobe Illustrator 18.1.1, SVG Export Plug-In . SVG Version: 6.00 Build 0)  -->
<svg version="1.1" id="Layer_1" xmlns="http://www.w3.org/2000/svg" xmlns:xlink="http://www.w3.org/1999/xlink" x="0px" y="0px"
	 viewBox="993.5 74.6 67.9 62.6" enable-background="new 993.5 74.6 67.9 62.6" xml:space="preserve">
<g>
	<path fill="#666666" d="M1057.1,76.4h-59.3c-1.9,0-3.4,1.5-3.4,3.4V132c0,1.9,1.5,3.4,3.4,3.4h59.3c1.9,0,3.4-1.5,3.4-3.4V79.9
		C1060.6,78,1059,76.4,1057.1,76.4z M997.8,77.9h59.3c1.1,0,1.9,0.9,1.9,1.9v8.4h-63.2v-8.4C995.8,78.8,996.7,77.9,997.8,77.9z
		 M1057.1,133.9h-59.3c-1.1,0-1.9-0.9-1.9-1.9V89.8h63.2V132C1059.1,133.1,1058.2,133.9,1057.1,133.9z"/>
	<circle fill="#666666" cx="1001.7" cy="83.2" r="1.8"/>
	<circle fill="#666666" cx="1007.7" cy="83.2" r="1.8"/>
	<circle fill="#666666" cx="1013.7" cy="83.2" r="1.8"/>
	<path fill="#666666" d="M1037.7,121.3h-20.6c-2.3,0-4.1,1.9-4.1,4.1c0,2.3,1.9,4.1,4.1,4.1h20.6c2.3,0,4.1-1.9,4.1-4.1
		C1041.9,123.2,1040,121.3,1037.7,121.3z M1037.7,128.1h-20.6c-1.4,0-2.6-1.2-2.6-2.6s1.2-2.6,2.6-2.6h20.6c1.4,0,2.6,1.2,2.6,2.6
		S1039.2,128.1,1037.7,128.1z"/>
	<path fill="#666666" d="M1003.1,104.3h20.7c0.4,0,0.8-0.3,0.8-0.8v-6.2c0-0.4-0.3-0.8-0.8-0.8h-20.7c-0.4,0-0.8,0.3-0.8,0.8v6.2
		C1002.4,104,1002.7,104.3,1003.1,104.3z M1003.9,98.1h19.2v4.7h-19.2V98.1z"/>
	<path fill="#666666" d="M1024.5,113.6v-6.2c0-0.4-0.3-0.8-0.8-0.8h-20.7c-0.4,0-0.8,0.3-0.8,0.8v6.2c0,0.4,0.3,0.8,0.8,0.8h20.7
		C1024.2,114.4,1024.5,114.1,1024.5,113.6z M1023,112.9h-19.2v-4.7h19.2V112.9z"/>
	<path fill="#666666" d="M1031.4,102.2c1.4,0,2.6-1.2,2.6-2.6s-1.2-2.6-2.6-2.6s-2.6,1.2-2.6,2.6S1030,102.2,1031.4,102.2z
		 M1031.4,98.4c0.6,0,1.1,0.5,1.1,1.1s-0.5,1.1-1.1,1.1s-1.1-0.5-1.1-1.1S1030.8,98.4,1031.4,98.4z"/>
	<path fill="#666666" d="M1031.4,108.3c1.4,0,2.6-1.2,2.6-2.6s-1.2-2.6-2.6-2.6s-2.6,1.2-2.6,2.6S1030,108.3,1031.4,108.3z
		 M1031.4,104.5c0.6,0,1.1,0.5,1.1,1.1s-0.5,1.1-1.1,1.1s-1.1-0.5-1.1-1.1S1030.8,104.5,1031.4,104.5z"/>
	<path fill="#666666" d="M1031.4,114.3c1.4,0,2.6-1.2,2.6-2.6s-1.2-2.6-2.6-2.6s-2.6,1.2-2.6,2.6S1030,114.3,1031.4,114.3z
		 M1031.4,110.6c0.6,0,1.1,0.5,1.1,1.1s-0.5,1.1-1.1,1.1s-1.1-0.5-1.1-1.1S1030.8,110.6,1031.4,110.6z"/>
	<path fill="#666666" d="M1051.5,99.3h-15c-0.4,0-0.8,0.3-0.8,0.8s0.3,0.8,0.8,0.8h15c0.4,0,0.8-0.3,0.8-0.8
		S1051.9,99.3,1051.5,99.3z"/>
	<path fill="#666666" d="M1051.5,105.3h-15c-0.4,0-0.8,0.3-0.8,0.8s0.3,0.8,0.8,0.8h15c0.4,0,0.8-0.3,0.8-0.8
		S1051.9,105.3,1051.5,105.3z"/>
	<path fill="#666666" d="M1051.5,111.3h-15c-0.4,0-0.8,0.3-0.8,0.8s0.3,0.8,0.8,0.8h15c0.4,0,0.8-0.3,0.8-0.8
		S1051.9,111.3,1051.5,111.3z"/>
</g>
</svg>
