<?xml version="1.0" encoding="utf-8"?>
<!-- Generator: Adobe Illustrator 18.1.1, SVG Export Plug-In . SVG Version: 6.00 Build 0)  -->
<svg version="1.1" id="Layer_1" xmlns="http://www.w3.org/2000/svg" xmlns:xlink="http://www.w3.org/1999/xlink" x="0px" y="0px"
	 viewBox="1000.9 74.6 37.1 34.6" enable-background="new 1000.9 74.6 37.1 34.6" xml:space="preserve">
<g>
	<rect x="1021" y="78" fill="#666666" width="10" height="2"/>
	<rect x="1013" y="78" fill="#666666" width="2" height="2"/>
	<rect x="1008" y="78" fill="#666666" width="3" height="2"/>
	<rect x="1021" y="87" fill="#666666" width="10" height="2"/>
	<rect x="1013" y="87" fill="#666666" width="2" height="2"/>
	<rect x="1008" y="87" fill="#666666" width="3" height="2"/>
	<rect x="1021" y="95" fill="#666666" width="10" height="2"/>
	<rect x="1013" y="95" fill="#666666" width="2" height="2"/>
	<rect x="1008" y="95" fill="#666666" width="3" height="2"/>
	<path fill="#666666" d="M1036.9,105.5h-12.4v-2.6h-3.8v-2.4h14.3v-8.1v-1.1v-7v-1.1v-8.1h-31.5v8.1v1.1v7v1.1v8.1h15.7v2.4h-4.5
		v2.5h-12.7c-0.4,0-0.8,0.3-0.8,0.8s0.3,0.8,0.8,0.8h12.7v1.8h9.8V107h12.4c0.4,0,0.8-0.3,0.8-0.8S1037.3,105.5,1036.9,105.5z
		 M1005,76.7h28.5v6.2H1005V76.7z M1005,91v-6.2h28.5V91H1005z M1005,92.8h28.5V99H1005V92.8z M1023,107.2h-6.8v-2.8h6.8V107.2z"/>
</g>
</svg>
