<?xml version="1.0" encoding="utf-8"?>
<!-- Generator: Adobe Illustrator 18.1.1, SVG Export Plug-In . SVG Version: 6.00 Build 0)  -->
<svg version="1.1" id="Layer_1" xmlns="http://www.w3.org/2000/svg" xmlns:xlink="http://www.w3.org/1999/xlink" x="0px" y="0px"
	 viewBox="993.5 74.6 67.9 62.6" enable-background="new 993.5 74.6 67.9 62.6" xml:space="preserve">
<g>
	<path fill="#666666" d="M1057.1,76.4h-59.3c-1.9,0-3.4,1.5-3.4,3.4V132c0,1.9,1.5,3.4,3.4,3.4h59.3c1.9,0,3.4-1.5,3.4-3.4V79.9
		C1060.6,78,1059,76.4,1057.1,76.4z M997.8,77.9h59.3c1.1,0,1.9,0.9,1.9,1.9v8.4c-0.1,0-0.2-0.1-0.3-0.1h-63v-8.4
		C995.8,78.8,996.7,77.9,997.8,77.9z M1057.1,133.9h-59.3c-1.1,0-1.9-0.9-1.9-1.9V89.8h63c0.1,0,0.2,0,0.3-0.1V132
		C1059.1,133.1,1058.2,133.9,1057.1,133.9z"/>
	<circle fill="#666666" cx="1002.1" cy="83.2" r="1.8"/>
	<circle fill="#666666" cx="1008.1" cy="83.2" r="1.8"/>
	<circle fill="#666666" cx="1014.1" cy="83.2" r="1.8"/>
	<path fill="#666666" d="M1034.6,112.7h-7.7c-0.8,0-1.5,0.7-1.5,1.5s0.7,1.5,1.5,1.5h5.9c-0.7,2.2-3,3.7-6,3.7
		c-3.3,0-6.2-3.1-6.2-6.7c0-3.5,2.8-6.4,6.2-6.4c1.4,0,4,0.4,5.7,3c0.5,0.7,1.4,0.9,2.1,0.4c0.7-0.5,0.9-1.4,0.4-2.1
		c-1.8-2.7-4.8-4.3-8.2-4.3c-5,0-9.2,4.3-9.2,9.4c0,5.2,4.2,9.7,9.2,9.7c5.2,0,9.2-3.5,9.2-8.2
		C1036.1,113.4,1035.4,112.7,1034.6,112.7z"/>
	<path fill="#666666" d="M1026.9,96.8c-8.8,0-15.9,7.1-15.9,15.9c0,8.8,7.1,15.9,15.9,15.9c8.8,0,15.9-7.1,15.9-15.9
		C1042.8,104,1035.7,96.8,1026.9,96.8z M1026.9,127.1c-7.9,0-14.4-6.5-14.4-14.4c0-7.9,6.5-14.4,14.4-14.4c7.9,0,14.4,6.5,14.4,14.4
		C1041.3,120.7,1034.9,127.1,1026.9,127.1z"/>
</g>
</svg>
