<?xml version="1.0" encoding="utf-8"?>
<!-- Generator: Adobe Illustrator 18.1.1, SVG Export Plug-In . SVG Version: 6.00 Build 0)  -->
<svg version="1.1" id="Layer_1" xmlns="http://www.w3.org/2000/svg" xmlns:xlink="http://www.w3.org/1999/xlink" x="0px" y="0px"
	 viewBox="993.5 74.6 67.9 62.6" enable-background="new 993.5 74.6 67.9 62.6" xml:space="preserve">
<g>
	<path fill="#666666" d="M1057.1,76.4h-59.3c-1.9,0-3.4,1.5-3.4,3.4V132c0,1.9,1.5,3.4,3.4,3.4h59.3c1.9,0,3.4-1.5,3.4-3.4V79.9
		C1060.6,78,1059,76.4,1057.1,76.4z M997.8,77.9h59.3c1.1,0,1.9,0.9,1.9,1.9v8.4c-0.1,0-0.2-0.1-0.3-0.1h-63v-8.4
		C995.8,78.8,996.7,77.9,997.8,77.9z M1057.1,133.9h-59.3c-1.1,0-1.9-0.9-1.9-1.9V89.8h63c0.1,0,0.2,0,0.3-0.1V132
		C1059.1,133.1,1058.2,133.9,1057.1,133.9z"/>
	<circle fill="#666666" cx="1002.2" cy="83.5" r="1.8"/>
	<circle fill="#666666" cx="1008.2" cy="83.5" r="1.8"/>
	<circle fill="#666666" cx="1014.2" cy="83.5" r="1.8"/>
	<path fill="#666666" d="M1041.8,103.3h-8.1v-3.9c0-1.8-1.6-2.8-4.4-2.8h-15.6c-2.8,0-4.5,1.1-4.5,2.8V111c0,2.1,2.5,4,4.5,4h0.5v3
		c0,0.3,0.2,0.5,0.4,0.7c0.1,0.1,0.2,0.1,0.3,0.1c0.2,0,0.3-0.1,0.5-0.2l4.6-3.6h2.9v3.6c0,1.9,1.9,4.3,4,4.3h8.6l5.9,3.3
		c0.1,0.1,0.2,0.1,0.4,0.1c0.1,0,0.3,0,0.4-0.1c0.2-0.1,0.4-0.4,0.4-0.6v-2.7c1.8-0.5,3.2-2.5,3.2-4.2v-11.7
		C1045.7,104.9,1043.9,103.3,1041.8,103.3z M1036,111.5c-0.3,1.1-0.8,2.1-1.5,2.8c-0.5-0.5-0.9-1.1-1.2-1.9c0.2-0.3,0.3-0.6,0.3-1
		H1036z M1019.7,113.5c-0.2,0-0.3,0.1-0.5,0.2l-3.6,2.8v-2.2c0-0.4-0.3-0.8-0.8-0.8h-1.3c-1.2,0-3-1.3-3-2.5V99.3
		c0-1.3,2.7-1.3,3-1.3h15.6c0.5,0,2.9,0.1,2.9,1.3V111c0,1.1-1.6,2.5-2.9,2.5H1019.7z M1044.2,118.6c0,1.3-1.3,2.8-2.4,2.8
		c-0.4,0-0.8,0.3-0.8,0.8c0,0.1,0,0.1,0,0.1v2l-5-2.8c-0.1-0.1-0.2-0.1-0.4-0.1h-8.8c-1.1,0-2.5-1.5-2.5-2.8V115h4.9
		c1,0,2.1-0.5,3-1.3c0.3,0.6,0.7,1.1,1.1,1.6c-1.7,1.4-3.4,1.9-3.5,1.9c-0.4,0.1-0.6,0.5-0.5,0.9c0.1,0.3,0.4,0.5,0.7,0.5
		c0.1,0,0.1,0,0.2,0c0.1,0,2.2-0.6,4.1-2.3c1.9,1.6,4,2.2,4.1,2.3c0.1,0,0.1,0,0.2,0c0.3,0,0.6-0.2,0.7-0.5c0.1-0.4-0.1-0.8-0.5-0.9
		c0,0-1.8-0.5-3.5-1.9c0.9-1,1.6-2.3,2-3.9h1.7c0.4,0,0.8-0.3,0.8-0.8s-0.3-0.8-0.8-0.8h-3.9v-1.9c0-0.4-0.3-0.8-0.8-0.8
		s-0.8,0.3-0.8,0.8v1.9h-0.2v-5.2h8.1c1.1,0,2.4,0.9,2.4,2.1V118.6z"/>
	<path fill="#666666" d="M1021.9,100.8c-0.1-0.3-0.4-0.4-0.7-0.4c0,0,0,0,0,0c-0.3,0-0.5,0.2-0.7,0.4l-4.2,8.8c-0.2,0.4,0,0.8,0.3,1
		c0.4,0.2,0.8,0,1-0.3l0.8-1.7h5c0.1,0,0.3,0,0.4-0.1l0.8,1.8c0.1,0.3,0.4,0.4,0.7,0.4c0.1,0,0.2,0,0.3-0.1c0.4-0.2,0.5-0.6,0.4-1
		L1021.9,100.8z M1019.2,107l2-4.2l1.9,4.2H1019.2z"/>
</g>
</svg>
