<?xml version="1.0" encoding="utf-8"?>
<!-- Generator: Adobe Illustrator 18.1.1, SVG Export Plug-In . SVG Version: 6.00 Build 0)  -->
<svg version="1.1" id="Layer_1" xmlns="http://www.w3.org/2000/svg" xmlns:xlink="http://www.w3.org/1999/xlink" x="0px" y="0px"
	 viewBox="1006.5 74.6 31.5 34.6" enable-background="new 1006.5 74.6 31.5 34.6" xml:space="preserve">
<g>
	<path fill="#666666" d="M1025.3,91.5h-2v-4.9c0-0.5-0.4-1-1-1c-0.5,0-1,0.4-1,1v5.9c0,0.5,0.4,1,1,1h2.9c0.5,0,1-0.4,1-1
		C1026.3,91.9,1025.9,91.5,1025.3,91.5z"/>
	<path fill="#666666" d="M1035.5,81.6c-0.2-1.6-1.1-3.1-2.5-4.1c-1.1-0.9-2.4-1.3-3.8-1.3c-2,0-3.8,0.9-5,2.5
		c-0.2,0.2-0.2,0.5-0.2,0.7c0,0.3,0.2,0.5,0.4,0.6l3.7,2.8c-1.8-1-3.8-1.6-6-1.6c-1.8,0-3.6,0.4-5.1,1.2l3.1-2.3
		c0.2-0.2,0.3-0.4,0.4-0.6c0-0.3,0-0.5-0.2-0.7c-1.2-1.6-3-2.5-5-2.5c-1.4,0-2.7,0.5-3.8,1.3c-1.3,1-2.2,2.5-2.5,4.1
		c-0.2,1.7,0.2,3.3,1.2,4.7c0.2,0.3,0.5,0.4,0.8,0.4c0.2,0,0.4-0.1,0.6-0.2l1.8-1.3c-1.9,2.1-3,4.8-3,7.8c0,4.6,2.6,8.5,6.4,10.5
		l-1.4,2.9c-0.2,0.5,0,1.1,0.4,1.3c0.1,0.1,0.3,0.1,0.4,0.1c0.4,0,0.7-0.2,0.9-0.5l1.5-3c1.1,0.4,2.3,0.6,3.6,0.6
		c1.1,0,2.2-0.2,3.3-0.5l1.5,2.9c0.2,0.3,0.5,0.5,0.9,0.5c0.1,0,0.3,0,0.4-0.1c0.5-0.2,0.7-0.8,0.4-1.3l-1.4-2.7
		c3.9-1.9,6.6-5.9,6.6-10.6c0-3.4-1.4-6.4-3.7-8.5l2.7,2c0.2,0.1,0.4,0.2,0.6,0.2c0.3,0,0.6-0.1,0.8-0.4
		C1035.3,84.9,1035.7,83.2,1035.5,81.6z M1011.3,84.3c-0.3-0.8-0.5-1.6-0.4-2.4c0.2-1.1,0.8-2.1,1.7-2.8c0.8-0.6,1.7-0.9,2.6-0.9
		c1,0,2,0.4,2.8,1L1011.3,84.3z M1031.9,93c0,5.4-4.4,9.8-9.8,9.8c-5.4,0-9.8-4.4-9.8-9.8s4.4-9.8,9.8-9.8
		C1027.5,83.2,1031.9,87.6,1031.9,93z M1033.2,84.3l-6.8-5.1c0.8-0.7,1.7-1,2.8-1c1,0,1.9,0.3,2.6,0.9c0.9,0.7,1.5,1.7,1.7,2.8
		C1033.7,82.7,1033.6,83.5,1033.2,84.3z"/>
</g>
</svg>
