<?xml version="1.0" encoding="utf-8"?>
<!-- Generator: Adobe Illustrator 18.1.1, SVG Export Plug-In . SVG Version: 6.00 Build 0)  -->
<svg version="1.1" id="Layer_1" xmlns="http://www.w3.org/2000/svg" xmlns:xlink="http://www.w3.org/1999/xlink" x="0px" y="0px"
	 viewBox="993.5 74.6 67.9 62.6" enable-background="new 993.5 74.6 67.9 62.6" xml:space="preserve">
<g>
	<path fill="#666666" d="M1057.1,76.4h-59.3c-1.9,0-3.4,1.5-3.4,3.4V132c0,1.9,1.5,3.4,3.4,3.4h59.3c1.9,0,3.4-1.5,3.4-3.4V79.9
		C1060.6,78,1059,76.4,1057.1,76.4z M997.8,77.9h59.3c1.1,0,1.9,0.9,1.9,1.9v8.4c-0.1,0-0.2-0.1-0.3-0.1h-63v-8.4
		C995.8,78.8,996.7,77.9,997.8,77.9z M1057.1,133.9h-59.3c-1.1,0-1.9-0.9-1.9-1.9V89.8h63c0.1,0,0.2,0,0.3-0.1V132
		C1059.1,133.1,1058.2,133.9,1057.1,133.9z"/>
	<circle fill="#666666" cx="1001.9" cy="83.5" r="1.8"/>
	<circle fill="#666666" cx="1007.9" cy="83.5" r="1.8"/>
	<circle fill="#666666" cx="1013.9" cy="83.5" r="1.8"/>
	<path fill="#666666" d="M1033.3,95.1h-32.1c-0.4,0-0.8,0.3-0.8,0.8V128c0,0.4,0.3,0.8,0.8,0.8h32.1c0.4,0,0.8-0.3,0.8-0.8V95.9
		C1034,95.5,1033.7,95.1,1033.3,95.1z M1032.5,127.2h-30.6V96.6h30.6V127.2z"/>
	<path fill="#666666" d="M1007,111.5l1.9-1.4V121c0,0.4,0.3,0.8,0.8,0.8h5.3h4.5h5.3c0.4,0,0.8-0.3,0.8-0.8v-11l2.1,1.5
		c0.1,0.1,0.3,0.1,0.4,0.1c0.2,0,0.5-0.1,0.6-0.3c0.2-0.3,0.2-0.8-0.2-1l-4.4-3.2c0,0,0,0,0,0v-4c0-0.6-0.4-1-1-1s-1,0.4-1,1v2.5
		l-4.4-3.2c-0.3-0.2-0.6-0.2-0.9,0l-10.6,7.9c-0.3,0.2-0.4,0.7-0.2,1C1006.2,111.6,1006.7,111.7,1007,111.5z M1015.7,120.2v-5.8h3
		v5.8H1015.7z M1024,120.2h-3.8v-6.6c0-0.4-0.3-0.8-0.8-0.8h-4.5c-0.4,0-0.8,0.3-0.8,0.8v6.6h-3.8V109l6.8-4.9l6.8,4.9V120.2z"/>
	<path fill="#666666" d="M1051.7,95.1h-14.3c-0.4,0-0.8,0.3-0.8,0.8v14.3c0,0.4,0.3,0.8,0.8,0.8h14.3c0.4,0,0.8-0.3,0.8-0.8V95.9
		C1052.5,95.5,1052.1,95.1,1051.7,95.1z M1051,109.4h-12.8V96.6h12.8V109.4z"/>
	<path fill="#666666" d="M1039.8,103.6l0.6-0.4v3.9c0,0.4,0.3,0.8,0.8,0.8h6.7c0.4,0,0.8-0.3,0.8-0.8v-3.6l0.1,0.1
		c0.1,0.1,0.3,0.1,0.4,0.1c0.2,0,0.5-0.1,0.6-0.3c0.2-0.3,0.2-0.8-0.2-1l-1-0.7v-0.1c0-0.1-0.1-0.3-0.1-0.4V99
		c0-0.4-0.3-0.8-0.8-0.8s-0.8,0.3-0.8,0.8v1l-2.1-1.5c-0.3-0.2-0.6-0.2-0.9,0l-3.4,2.4c-0.1,0.1-0.2,0.2-0.2,0.3l-1.6,1.1
		c-0.3,0.2-0.4,0.7-0.2,1C1039,103.7,1039.5,103.8,1039.8,103.6z M1047.2,106.3h-1.6v-3.1h-2v3.1h-1.6V102l2.3-1.7l2.9,2.1V106.3z"
		/>
	<path fill="#666666" d="M1051.7,112.9h-14.3c-0.4,0-0.8,0.3-0.8,0.8V128c0,0.4,0.3,0.8,0.8,0.8h14.3c0.4,0,0.8-0.3,0.8-0.8v-14.3
		C1052.5,113.2,1052.1,112.9,1051.7,112.9z M1051,127.2h-12.8v-12.8h12.8V127.2z"/>
	<path fill="#666666" d="M1041.2,125.6h6.7c0.4,0,0.8-0.3,0.8-0.8v-7.9c0-0.4-0.3-0.8-0.8-0.8h-6.7c-0.4,0-0.8,0.3-0.8,0.8v7.9
		C1040.4,125.3,1040.7,125.6,1041.2,125.6z M1041.9,117.6h5.2v6.4h-1.6v-2.5h-2v2.5h-1.6V117.6z"/>
	<rect x="1043.5" y="119.1" fill="#666666" width="2" height="1.3"/>
</g>
</svg>
