<?xml version="1.0" encoding="utf-8"?>
<!-- Generator: Adobe Illustrator 18.1.1, SVG Export Plug-In . SVG Version: 6.00 Build 0)  -->
<svg version="1.1" id="Layer_1" xmlns="http://www.w3.org/2000/svg" xmlns:xlink="http://www.w3.org/1999/xlink" x="0px" y="0px"
	 viewBox="993.5 74.6 67.9 62.6" enable-background="new 993.5 74.6 67.9 62.6" xml:space="preserve">
<g>
	<circle fill="#666666" cx="1002.1" cy="83.2" r="1.8"/>
	<path fill="#666666" d="M1057.1,76.4h-59.3c-1.9,0-3.4,1.5-3.4,3.4V132c0,1.9,1.5,3.4,3.4,3.4h59.3c1.9,0,3.4-1.5,3.4-3.4V79.9
		C1060.6,78,1059,76.4,1057.1,76.4z M997.8,77.9h59.3c1.1,0,1.9,0.9,1.9,1.9v8.4c-0.1,0-0.2-0.1-0.3-0.1h-63v-8.4
		C995.8,78.8,996.7,77.9,997.8,77.9z M1057.1,133.9h-59.3c-1.1,0-1.9-0.9-1.9-1.9V89.8h63c0.1,0,0.2,0,0.3-0.1V132
		C1059.1,133.1,1058.2,133.9,1057.1,133.9z"/>
	<circle fill="#666666" cx="1008.1" cy="83.2" r="1.8"/>
	<circle fill="#666666" cx="1014.1" cy="83.2" r="1.8"/>
	<path fill="#666666" d="M1053.3,98.6L1053.3,98.6h-4.8V97c0-0.4-0.3-0.8-0.8-0.8s-0.8,0.3-0.8,0.8v1.6h-14.5V97
		c0-0.4-0.3-0.8-0.8-0.8s-0.8,0.3-0.8,0.8v1.6h-5c-0.4,0-0.8,0.3-0.8,0.8v6.2v19.7c0,0.4,0.3,0.8,0.8,0.8h27.3
		c0.4,0,0.8-0.3,0.8-0.8V99.3C1054.1,98.9,1053.7,98.6,1053.3,98.6z M1026.8,100.1h4.2v1.9c0,0.4,0.3,0.8,0.8,0.8s0.8-0.3,0.8-0.8
		v-1.9h14.5v1.9c0,0.4,0.3,0.8,0.8,0.8s0.8-0.3,0.8-0.8v-1.9h4v4.7h-25.7V100.1z M1026.8,124.5v-18.2h25.8v18.2H1026.8z"/>
	<path fill="#666666" d="M1034.5,108.5h-5c-0.4,0-0.8,0.3-0.8,0.8v5c0,0.4,0.3,0.8,0.8,0.8h5c0.4,0,0.8-0.3,0.8-0.8v-5
		C1035.2,108.9,1034.9,108.5,1034.5,108.5z M1033.7,113.5h-3.5V110h3.5V113.5z"/>
	<path fill="#666666" d="M1034.5,116.3h-5c-0.4,0-0.8,0.3-0.8,0.8v5c0,0.4,0.3,0.8,0.8,0.8h5c0.4,0,0.8-0.3,0.8-0.8v-5
		C1035.2,116.7,1034.9,116.3,1034.5,116.3z M1033.7,121.3h-3.5v-3.5h3.5V121.3z"/>
	<path fill="#666666" d="M1042.2,108.5h-5c-0.4,0-0.8,0.3-0.8,0.8v5c0,0.4,0.3,0.8,0.8,0.8h5c0.4,0,0.8-0.3,0.8-0.8v-5
		C1042.9,108.9,1042.6,108.5,1042.2,108.5z M1041.4,113.5h-3.5V110h3.5V113.5z"/>
	<path fill="#666666" d="M1042.2,116.3h-5c-0.4,0-0.8,0.3-0.8,0.8v5c0,0.4,0.3,0.8,0.8,0.8h5c0.4,0,0.8-0.3,0.8-0.8v-5
		C1042.9,116.7,1042.6,116.3,1042.2,116.3z M1041.4,121.3h-3.5v-3.5h3.5V121.3z"/>
	<path fill="#666666" d="M1049.9,108.5h-5c-0.4,0-0.8,0.3-0.8,0.8v5c0,0.4,0.3,0.8,0.8,0.8h5c0.4,0,0.8-0.3,0.8-0.8v-5
		C1050.7,108.9,1050.3,108.5,1049.9,108.5z M1049.2,113.5h-3.5V110h3.5V113.5z"/>
	<path fill="#666666" d="M1049.9,116.3h-5c-0.4,0-0.8,0.3-0.8,0.8v5c0,0.4,0.3,0.8,0.8,0.8h5c0.4,0,0.8-0.3,0.8-0.8v-5
		C1050.7,116.7,1050.3,116.3,1049.9,116.3z M1049.2,121.3h-3.5v-3.5h3.5V121.3z"/>
	<path fill="#666666" d="M1018.8,101.3h-17c-0.4,0-0.8,0.3-0.8,0.8s0.3,0.8,0.8,0.8h17c0.4,0,0.8-0.3,0.8-0.8
		S1019.2,101.3,1018.8,101.3z"/>
	<path fill="#666666" d="M1018.8,108.3h-17c-0.4,0-0.8,0.3-0.8,0.8s0.3,0.8,0.8,0.8h17c0.4,0,0.8-0.3,0.8-0.8
		S1019.2,108.3,1018.8,108.3z"/>
	<path fill="#666666" d="M1018.8,115.3h-17c-0.4,0-0.8,0.3-0.8,0.8s0.3,0.8,0.8,0.8h17c0.4,0,0.8-0.3,0.8-0.8
		S1019.2,115.3,1018.8,115.3z"/>
	<path fill="#666666" d="M1018.8,122.3h-17c-0.4,0-0.8,0.3-0.8,0.8s0.3,0.8,0.8,0.8h17c0.4,0,0.8-0.3,0.8-0.8
		S1019.2,122.3,1018.8,122.3z"/>
</g>
</svg>
