<?xml version="1.0" encoding="utf-8"?>
<!-- Generator: Adobe Illustrator 18.1.1, SVG Export Plug-In . SVG Version: 6.00 Build 0)  -->
<svg version="1.1" id="Layer_1" xmlns="http://www.w3.org/2000/svg" xmlns:xlink="http://www.w3.org/1999/xlink" x="0px" y="0px"
	 viewBox="1006.5 74.6 31.5 34.6" enable-background="new 1006.5 74.6 31.5 34.6" xml:space="preserve">
<g>
	<path fill="#666666" d="M1031.6,97c0.9-2.7,0.7-5.6-0.6-8.1c-1.3-2.5-3.4-4.4-6.1-5.3c-1.1-0.4-2.2-0.6-3.4-0.6
		c-4.6,0-8.6,2.9-10.1,7.3c-0.9,2.7-0.7,5.6,0.6,8.1c0.5,1,1.1,1.9,1.9,2.7l-2.1,2c-0.3,0.3-0.3,0.9,0,1.3c0.2,0.2,0.4,0.3,0.6,0.3
		c0.2,0,0.5-0.1,0.6-0.3l2.1-2.1c0.9,0.6,1.8,1.1,2.9,1.5c1,0.3,1.9,0.5,2.9,0.5l0.4,2.9c0.1,0.4,0.4,0.8,0.9,0.8c0,0,0.1,0,0.1,0
		c0.5-0.1,0.8-0.5,0.8-1l-0.4-2.7C1026.9,103.6,1030.3,100.9,1031.6,97z M1021.5,102.4c-1,0-1.9-0.2-2.8-0.5
		c-2.2-0.8-4.1-2.3-5.1-4.5c-1.1-2.1-1.2-4.5-0.5-6.8c1.2-3.6,4.6-6.1,8.4-6.1c1,0,1.9,0.2,2.8,0.5c2.2,0.8,4.1,2.3,5.1,4.5
		c1.1,2.1,1.2,4.5,0.5,6.8C1028.7,100,1025.3,102.4,1021.5,102.4z"/>
	<path fill="#666666" d="M1024.5,93.5l-1.7-0.6l1.4-4.2c0.2-0.5-0.1-1-0.6-1.1c-0.5-0.2-1,0.1-1.1,0.6l-1.7,5
		c-0.2,0.5,0.1,1,0.6,1.1l2.5,0.8c0.1,0,0.2,0,0.3,0c0.4,0,0.7-0.2,0.8-0.6C1025.2,94.2,1025,93.7,1024.5,93.5z"/>
	<path fill="#666666" d="M1036.2,82.5c-1.1-1.6-2.8-2.5-4.7-2.5c-1.1,0-2.3,0.4-3.2,1c-0.4,0.3-0.5,0.8-0.2,1.2l5.4,8
		c0.2,0.3,0.4,0.4,0.7,0.4c0.2,0,0.3-0.1,0.5-0.2c1.3-0.9,2.1-2.2,2.4-3.7C1037.4,85.3,1037.1,83.8,1036.2,82.5z M1035.4,86.4
		c-0.1,0.7-0.5,1.4-1,2l-4.3-6.3c0.5-0.2,1-0.3,1.5-0.3c1.3,0,2.5,0.6,3.2,1.7C1035.4,84.4,1035.6,85.4,1035.4,86.4z"/>
	<path fill="#666666" d="M1014.1,84.1c0.1,0,0.2,0,0.3,0l9.1-3.1c0.5-0.2,0.7-0.7,0.6-1.1c-0.8-2.4-2.9-3.9-5.4-3.9
		c-0.6,0-1.3,0.1-1.9,0.3c-1.5,0.5-2.6,1.5-3.3,2.8c-0.7,1.4-0.8,2.9-0.3,4.4C1013.3,83.9,1013.7,84.1,1014.1,84.1z M1015.1,79.9
		c0.5-0.9,1.3-1.6,2.3-2c0.4-0.1,0.9-0.2,1.3-0.2c1.4,0,2.6,0.7,3.3,1.9l-7.3,2.4C1014.6,81.3,1014.7,80.6,1015.1,79.9z"/>
	<path fill="#666666" d="M1034.4,91.9c-0.5,0.2-0.7,0.7-0.5,1.1c0.1,0.2,1.8,5.2-3.1,8.9c-0.4,0.3-0.5,0.8-0.2,1.2
		c0.2,0.2,0.4,0.4,0.7,0.4c0.2,0,0.4-0.1,0.5-0.2c6-4.5,3.8-10.9,3.7-10.9C1035.4,92,1034.9,91.7,1034.4,91.9z"/>
	<path fill="#666666" d="M1010.9,84.2c-0.3-0.4-0.9-0.4-1.3-0.1c-0.2,0.1-4,3.7-1.7,11.6c0.1,0.4,0.5,0.6,0.9,0.6c0.1,0,0.2,0,0.2,0
		c0.5-0.1,0.7-0.6,0.6-1.1c-1.9-6.8,1-9.6,1.2-9.8C1011.2,85.1,1011.2,84.6,1010.9,84.2z"/>
</g>
</svg>
