<svg xmlns="http://www.w3.org/2000/svg" viewBox="0 0 56.19 56.19"><title>integracion</title><g id="Layer_2" data-name="Layer 2"><g id="Layer_1-2" data-name="Layer 1"><circle cx="28.09" cy="28.09" r="26.41" style="fill:none;stroke:#6e6a69;stroke-linecap:round;stroke-linejoin:round;stroke-width:3.369px"/><g id="Layer_2-2" data-name="Layer 2"><g id="Layer_1-2-2" data-name="Layer 1-2"><polyline points="30.19 34.2 14.92 34.2 14.92 11.09 38.99 11.09 38.99 19.83" style="fill:none;stroke:#676767;stroke-miterlimit:10;stroke-width:3px"/><path d="M15.52,11.75v4.32H39.1V11.75Zm2.71,2.5a1,1,0,1,1,.92-1,1,1,0,0,1-.92,1Zm3.52,0a1,1,0,1,1,.92-1,1,1,0,0,1-.92,1Zm3.83,0a1,1,0,1,1,.92-1h0a1,1,0,0,1-.92,1Z" style="fill:#676767"/><path d="M18.23,26.24l3.38-3.13a.6.6,0,0,0-.09-1l-3.59-2.33" style="fill:none;stroke:#676767;stroke-linecap:round;stroke-miterlimit:10;stroke-width:3px"/><line x1="22.64" y1="26.1" x2="26.2" y2="26.1" style="fill:none;stroke:#676767;stroke-linecap:round;stroke-miterlimit:10;stroke-width:3px"/><path d="M41.64,45H31.94a1.82,1.82,0,0,1-1.75-1.88h0V21.84A1.82,1.82,0,0,1,31.93,20h9.71a1.82,1.82,0,0,1,1.75,1.88h0V43.13A1.82,1.82,0,0,1,41.66,45Z" style="fill:none;stroke:#676767;stroke-linecap:round;stroke-linejoin:round;stroke-width:3px"/><rect x="33.83" y="19.95" width="5.93" height="2.82" style="fill:#676767"/><ellipse cx="36.79" cy="40.59" rx="1.42" ry="1.53" style="fill:#676767"/></g></g></g></g></svg>