<svg xmlns="http://www.w3.org/2000/svg" viewBox="0 0 56.19 56.19"><title>multiples-dispositivos_1</title><g id="Layer_2" data-name="Layer 2"><g id="Layer_1-2" data-name="Layer 1"><circle cx="28.09" cy="28.09" r="26.41" style="fill:none;stroke:#6e6a69;stroke-linecap:round;stroke-linejoin:round;stroke-width:3.369px"/><g id="Layer_2-2" data-name="Layer 2"><g id="Layer_1-2-2" data-name="Layer 1-2"><path d="M20.79,38H12.7a1.46,1.46,0,0,1-1.46-1.46V19.69a1.46,1.46,0,0,1,1.46-1.46h8.09a1.46,1.46,0,0,1,1.46,1.46V36.54A1.45,1.45,0,0,1,20.81,38Z" style="fill:none;stroke:#676767;stroke-linecap:round;stroke-linejoin:round;stroke-width:2px"/><rect x="14.27" y="18.22" width="4.95" height="2.18" style="fill:#676767"/><circle cx="16.75" cy="26.07" r="2.08" style="fill:none;stroke:#676767;stroke-linecap:round;stroke-linejoin:round;stroke-width:2px"/><rect x="13.35" y="29.91" width="6.86" height="2.12" style="fill:#676767"/><rect x="13.35" y="33.16" width="6.86" height="2.12" style="fill:#676767"/><path d="M48.19,25.6v8.1a1.46,1.46,0,0,1-1.46,1.46H29.88a1.46,1.46,0,0,1-1.46-1.46V25.6a1.46,1.46,0,0,1,1.46-1.46H46.73A1.46,1.46,0,0,1,48.19,25.6Z" style="fill:none;stroke:#676767;stroke-linecap:round;stroke-linejoin:round;stroke-width:2px"/><rect x="28.42" y="27.18" width="2.18" height="4.95" style="fill:#676767"/><rect x="33.54" y="27.28" width="4.04" height="3.41" style="fill:none;stroke:#676767;stroke-linecap:round;stroke-linejoin:round;stroke-width:2px"/><rect x="40.93" y="27.28" width="4.04" height="3.41" style="fill:none;stroke:#676767;stroke-linecap:round;stroke-linejoin:round;stroke-width:2px"/><line x1="33.58" y1="32.7" x2="37.35" y2="32.7" style="fill:none;stroke:#676767;stroke-linecap:round;stroke-linejoin:round;stroke-width:2px"/><line x1="40.88" y1="32.7" x2="44.32" y2="32.7" style="fill:none;stroke:#676767;stroke-linecap:round;stroke-linejoin:round;stroke-width:2px"/><polygon points="22.43 43.6 19.98 41.58 18.06 43.6 22.43 43.6" style="fill:none;stroke:#676767;stroke-linecap:round;stroke-linejoin:round;stroke-width:2px"/><path d="M36.78,40s-1.35,8-9.31,8c-6.27,0-7.21-4.76-7.21-4.76" style="fill:none;stroke:#676767;stroke-linecap:round;stroke-linejoin:round;stroke-width:2px"/><polygon points="39.26 18.37 37.13 20.04 34.75 18.37 39.26 18.37" style="fill:none;stroke:#676767;stroke-linecap:round;stroke-linejoin:round;stroke-width:2px"/><path d="M37,18.24S35.95,10,27.75,10C21.3,10,20,15,20,15" style="fill:none;stroke:#676767;stroke-linecap:round;stroke-linejoin:round;stroke-width:2px"/></g></g></g></g></svg>