<?xml version="1.0" encoding="utf-8"?>
<!-- Generator: Adobe Illustrator 18.1.1, SVG Export Plug-In . SVG Version: 6.00 Build 0)  -->
<svg version="1.1" id="Layer_1" xmlns="http://www.w3.org/2000/svg" xmlns:xlink="http://www.w3.org/1999/xlink" x="0px" y="0px"
	 viewBox="1062.9 -22.8 313.5 303.2" enable-background="new 1062.9 -22.8 313.5 303.2" xml:space="preserve">
<g>
	<path fill="#676767" d="M1219.6-12.8c-78.1,0-141.6,63.5-141.6,141.6s63.5,141.6,141.6,141.6c78.1,0,141.6-63.5,141.6-141.6
		S1297.7-12.8,1219.6-12.8z M1219.6,252.9c-68.5,0-124.1-55.7-124.1-124.1S1151.2,4.6,1219.6,4.6c68.5,0,124.1,55.7,124.1,124.1
		S1288.1,252.9,1219.6,252.9z"/>
	<path fill="#676767" d="M1296.8,112.9c0-2.1-0.8-4-2.3-5.5l-54.1-54.1c-3-3-8-3-11,0l-86,86c-1.5,1.5-2.3,3.4-2.3,5.5
		c0,2.1,0.8,4,2.3,5.5l54.1,54.1c1.5,1.5,3.5,2.3,5.5,2.3c2,0,4-0.8,5.5-2.3l86-86C1296,117,1296.8,115,1296.8,112.9z M1203,187.9
		l-43.1-43.1l75-75l43.1,43.1L1203,187.9z"/>
	<path fill="#676767" d="M1193.5,53.3l-1.8,2.5c-2.6,3.4-1.8,8.3,1.6,10.9c1.4,1,3,1.5,4.6,1.5c2.4,0,4.7-1.1,6.3-3.1l11.9-16
		c2.4-3.3,1.9-7.8-1.1-10.5l-16.1-14c-3.2-2.8-8.2-2.5-11,0.8c-2.8,3.2-2.5,8.2,0.8,11l2,1.8c-26.5,4.7-42,20.3-50.5,33.6
		c-10.6,16.4-13,32.6-13.1,33.3c-0.6,4.2,2.4,8.2,6.6,8.8c0.4,0.1,0.7,0.1,1.1,0.1c3.8,0,7.1-2.8,7.7-6.7
		C1142.7,105.1,1149.6,61.1,1193.5,53.3z"/>
	<path fill="#676767" d="M1306.5,143.6c-4.2-0.6-8.2,2.3-8.8,6.6c-0.3,2-7.3,46-51.1,53.8l1.8-2.5c2.6-3.4,1.8-8.3-1.6-10.9
		c-3.4-2.6-8.3-1.8-10.9,1.6l-11.9,16c-2.4,3.3-1.9,7.8,1.1,10.5l16.1,14c1.5,1.3,3.3,1.9,5.1,1.9c2.2,0,4.3-0.9,5.9-2.7
		c2.8-3.2,2.5-8.2-0.8-11l-2-1.8c26.5-4.7,42-20.3,50.5-33.6c10.6-16.4,13-32.6,13.1-33.3C1313.7,148.1,1310.8,144.2,1306.5,143.6z"
		/>
</g>
</svg>
